<svg xmlns="http://www.w3.org/2000/svg" width="20.052" height="20" viewBox="0 0 20.052 20">
  <path id="Subtraction_2" data-name="Subtraction 2" d="M7898.124-10956.5h0v-7.209h2.2l.4-2.875h-2.606v-.011c0-.259-.009-1.189,0-2.394a1.069,1.069,0,0,1,.112-.508.752.752,0,0,1,.242-.273.806.806,0,0,1,.354-.131h1.9v-2.356a9.325,9.325,0,0,0-2.147-.278,4.335,4.335,0,0,0-1.653.278,3.144,3.144,0,0,0-1.684,1.541,3.885,3.885,0,0,0-.373,1.057v3.075h-2.518v2.875h2.353v7.173a9.871,9.871,0,0,1-3.252-1.216,10.006,10.006,0,0,1-2.6-2.205,10.037,10.037,0,0,1-1.727-2.971,10.033,10.033,0,0,1-.626-3.507,10.016,10.016,0,0,1,.788-3.917,10.028,10.028,0,0,1,.923-1.71,10.184,10.184,0,0,1,1.226-1.489,10.045,10.045,0,0,1,1.484-1.228,9.987,9.987,0,0,1,1.7-.929,9.965,9.965,0,0,1,3.9-.793,9.952,9.952,0,0,1,3.9.793,10,10,0,0,1,1.7.929,10.029,10.029,0,0,1,1.482,1.228,10.06,10.06,0,0,1,1.226,1.489,10.106,10.106,0,0,1,.925,1.71,10.033,10.033,0,0,1,.787,3.917,10.021,10.021,0,0,1-.646,3.557,10.029,10.029,0,0,1-1.777,3,10.054,10.054,0,0,1-2.673,2.2A9.815,9.815,0,0,1,7898.124-10956.5Z" transform="translate(-7886.5 10976.503)" fill="#84726e"/>
</svg>
