<svg xmlns="http://www.w3.org/2000/svg" width="256" height="256" viewBox="0 0 100 100"><rect width="100" height="100" rx="20" fill="#f600ff"></rect><path fill="#fff" d="M92.41 26.53L92.41 26.53Q92.41 29.68 90.61 31.43Q88.82 33.19 85.74 33.19L85.74 33.19Q84.72 33.19 83.76 33.01Q82.81 32.82 81.86 32.53L81.86 32.53Q80.62 30.85 80.07 28.47Q79.52 26.09 79.11 23.56Q78.71 21.03 78.20 18.58Q77.69 16.13 76.62 14.18Q75.56 12.24 73.69 11.04Q71.83 9.83 68.68 9.83L68.68 9.83Q66.70 9.83 64.76 10.23Q62.82 10.63 60.77 10.63L60.77 10.63Q59.74 10.63 58.35 10.60Q56.96 10.56 55.53 10.38Q54.10 10.19 52.78 9.90Q51.46 9.61 50.59 9.02L50.59 9.02Q50.37 8.87 49.89 8.80Q49.41 8.73 48.86 8.69Q48.32 8.65 47.77 8.65Q47.22 8.65 47.00 8.65L47.00 8.65Q44.80 8.65 43.52 8.87Q42.24 9.09 41.25 9.46Q40.26 9.83 39.20 10.30Q38.13 10.78 36.23 11.29L36.23 11.29Q34.84 11.66 34.22 12.17Q33.59 12.68 33.37 13.38Q33.15 14.07 33.19 15.03Q33.23 15.98 33.15 17.22L33.15 17.22Q33.08 18.10 33.04 18.95Q33.01 19.79 33.01 20.67L33.01 20.67Q33.01 23.30 33.15 25.94Q33.30 28.58 33.30 31.29L33.30 31.29Q33.30 32.97 32.97 34.58Q32.64 36.19 32.64 37.88L32.64 37.88Q32.64 39.42 33.30 40.00Q33.96 40.59 34.77 40.88Q35.57 41.17 36.27 41.54Q36.96 41.91 36.96 43.01L36.96 43.01Q37.48 43.08 37.95 43.12Q38.43 43.15 38.94 43.15L38.94 43.15Q41.36 43.15 43.77 42.46Q46.19 41.76 48.54 41.17L48.54 41.17Q50 40.81 50.66 39.05Q51.32 37.29 51.54 35.06Q51.76 32.82 51.76 30.63Q51.76 28.43 51.98 27.26L51.98 27.26Q52.12 26.31 52.67 25.43Q53.22 24.55 54.03 23.89Q54.83 23.23 55.79 22.83Q56.74 22.42 57.69 22.42L57.69 22.42Q58.72 22.42 59.52 22.86L59.52 22.86Q61.13 23.67 61.83 24.88Q62.52 26.09 62.74 27.55Q62.96 29.02 62.93 30.55Q62.89 32.09 63.04 33.56L63.04 33.56Q63.26 35.53 63.26 37.44L63.26 37.44Q63.26 40.95 62.93 44.32Q62.60 47.69 62.60 51.21L62.60 51.21Q62.60 53.11 62.82 54.94Q63.04 56.77 63.62 58.61L63.62 58.61Q63.99 59.92 63.99 61.02L63.99 61.02Q63.99 62.27 63.73 63.44Q63.48 64.61 63.48 65.86L63.48 65.86Q63.48 66.59 63.59 67.21Q63.70 67.83 63.70 68.57L63.70 68.57Q63.70 69.67 63.15 70.87Q62.60 72.08 61.79 73.07Q60.99 74.06 59.92 74.72Q58.86 75.38 57.91 75.38L57.91 75.38Q56.59 75.38 55.46 74.32Q54.32 73.25 53.44 71.94Q52.56 70.62 52.09 69.45Q51.61 68.27 51.61 68.05L51.61 68.05Q51.61 67.69 51.94 67.50Q52.27 67.32 52.64 67.14Q53.00 66.96 53.33 66.70Q53.66 66.44 53.66 65.93L53.66 65.93Q53.66 65.56 53.33 65.38Q53.00 65.20 52.60 65.01Q52.20 64.83 51.87 64.50Q51.54 64.17 51.54 63.51L51.54 63.51Q51.54 63.00 51.68 62.74Q51.83 62.49 52.05 62.34Q52.27 62.19 52.42 62.05Q52.56 61.90 52.56 61.68L52.56 61.68Q52.56 61.10 52.05 60.18Q51.54 59.27 50.77 58.39Q50 57.51 49.08 56.88Q48.17 56.26 47.44 56.26L47.44 56.26Q46.34 56.26 45.28 56.67Q44.21 57.07 43.04 57.07L43.04 57.07Q42.09 57.07 41.25 56.70Q40.41 56.34 39.60 56.34L39.60 56.34Q38.87 56.34 37.99 56.96Q37.11 57.58 36.27 58.42Q35.42 59.27 34.66 60.11Q33.89 60.95 33.45 61.46L33.45 61.46Q32.86 62.05 32.79 63.18Q32.71 64.32 32.71 65.12L32.71 65.12Q32.71 67.69 33.04 70.14Q33.37 72.60 33.37 75.16L33.37 75.16Q33.37 76.26 33.34 77.36Q33.30 78.45 33.30 79.55L33.30 79.55Q33.30 80.43 33.34 81.82Q33.37 83.22 33.67 84.61Q33.96 86.00 34.55 87.10Q35.13 88.20 36.16 88.49L36.16 88.49Q37.70 89.00 39.60 88.85L39.60 88.85L41.06 88.85Q42.97 88.85 44.65 89.22Q46.34 89.59 47.22 91.13L47.22 91.13Q47.95 92.37 48.28 93.87Q48.61 95.37 48.61 96.84L48.61 96.84Q48.61 97.72 48.43 98.82Q48.24 99.91 47.77 100.83Q47.29 101.75 46.52 102.37Q45.75 102.99 44.65 102.99L44.65 102.99Q42.53 102.99 40.15 102.51Q37.77 102.04 35.42 102.04L35.42 102.04Q33.59 102.04 31.84 102.48L31.84 102.48Q28.98 103.28 26.12 103.50Q23.27 103.72 20.19 103.72L20.19 103.72Q18.80 103.72 16.89 103.65Q14.99 103.58 13.27 103.17Q11.55 102.77 10.34 102.00Q9.13 101.23 9.13 99.84L9.13 99.84Q9.13 98.30 9.35 96.55Q9.57 94.79 10.27 93.32Q10.96 91.86 12.21 90.91Q13.45 89.95 15.50 89.95L15.50 89.95Q16.09 89.95 16.75 90.03Q17.41 90.10 18.07 90.10L18.07 90.10Q19.46 90.10 20.12 89.62Q20.78 89.15 21.22 88.56Q21.66 87.98 22.09 87.46Q22.53 86.95 23.41 86.80L23.41 86.80Q23.27 84.46 23.01 82.23Q22.75 79.99 22.75 77.65L22.75 77.65Q22.75 75.67 23.12 73.77Q23.49 71.86 24.44 70.10L24.44 70.10Q23.71 69.30 23.34 67.32Q22.97 65.34 22.86 63.29Q22.75 61.24 22.75 59.74Q22.75 58.24 22.75 58.31L22.75 58.31Q22.75 57.07 23.16 55.86Q23.56 54.65 23.56 53.41L23.56 53.41Q23.56 52.82 23.45 52.34Q23.34 51.87 23.34 51.28L23.34 51.28Q23.34 50.40 23.49 50.04Q23.63 49.67 23.85 49.52Q24.07 49.38 24.22 49.19Q24.37 49.01 24.37 48.43L24.37 48.43Q24.37 46.59 23.89 44.80Q23.41 43.01 23.41 41.10L23.41 41.10Q23.41 39.42 23.74 37.77Q24.07 36.12 24.07 34.44L24.07 34.44Q24.07 31.14 23.74 27.88Q23.41 24.62 23.41 21.25L23.41 21.25Q23.41 19.57 23.12 17.48Q22.83 15.39 22.02 13.56Q21.22 11.73 19.82 10.49Q18.43 9.24 16.31 9.24L16.31 9.24Q15.28 9.24 14.29 9.35Q13.31 9.46 12.28 9.46L12.28 9.46Q11.33 9.46 10.45 9.28Q9.57 9.09 8.76 8.51L8.76 8.51Q8.62 7.12 8.11 5.80Q7.59 4.48 7.59 3.09L7.59 3.09Q7.59 2.06 8.44 1.40Q9.28 0.74 10.60 0.38Q11.91 0.01 13.56-0.13Q15.21-0.28 16.89-0.28L16.89-0.28Q19.02-0.28 20.89-0.17Q22.75-0.06 23.71-0.06L23.71-0.06Q24.73-0.06 26.23-0.13Q27.73-0.21 29.24-0.46Q30.74-0.72 31.98-1.31Q33.23-1.89 33.81-2.99L33.81-2.99Q34.69-2.99 35.35-2.66Q36.01-2.33 36.67-1.93Q37.33-1.53 37.99-1.20Q38.65-0.87 39.45-0.87L39.45-0.87Q40.48-0.87 41.39-1.34Q42.31-1.82 43.33-1.82L43.33-1.82Q44.29-1.82 45.02-1.42Q45.75-1.01 46.70-1.01L46.70-1.01Q48.68-1.01 50.62-1.45Q52.56-1.89 54.54-2.37Q56.52-2.84 58.46-3.28Q60.40-3.72 62.38-3.72L62.38-3.72Q63.77-3.72 64.98-3.32Q66.19-2.92 67.21-1.89L67.21-1.89Q70.21-3.14 73.80-3.14L73.80-3.14Q74.24-3.14 75.71-2.99Q77.17-2.84 78.78-2.66Q80.40-2.48 81.71-2.26Q83.03-2.04 83.18-1.82L83.18-1.82Q83.62-1.45 83.84-0.57Q84.06 0.31 84.24 1.29Q84.42 2.28 84.64 3.20Q84.86 4.11 85.30 4.55L85.30 4.55Q85.60 4.85 86.07 4.96Q86.55 5.07 86.99 5.21Q87.43 5.36 87.76 5.62Q88.09 5.87 88.16 6.46L88.16 6.46Q88.31 8.22 88.38 9.86Q88.45 11.51 88.96 13.27L88.96 13.27Q89.40 14.81 89.99 16.49Q90.58 18.18 91.13 19.86Q91.67 21.55 92.04 23.23Q92.41 24.91 92.41 26.53ZM15.14 97.20L15.14 97.20Q15.14 96.03 14.66 95.15Q14.18 94.27 12.94 94.13L12.94 94.13Q12.94 94.42 12.90 94.68Q12.87 94.93 12.87 95.23L12.87 95.23Q12.87 96.40 13.34 97.28Q13.82 98.16 15.06 98.30L15.06 98.30Q15.06 98.01 15.10 97.75Q15.14 97.50 15.14 97.20Z"></path></svg>