<svg id="Figurer_copy" data-name="Figurer copy" xmlns="http://www.w3.org/2000/svg" width="250" height="350" viewBox="0 0 250 350">
  <defs>
    <style>
      .cls-1 {
        fill: #4c332e;
      }

      .cls-2 {
        fill: #8e7873;
      }

      .cls-3 {
        fill: #caf7c9;
      }

      .cls-4 {
        fill: #fff;
      }

      .cls-5 {
        fill: #382622;
      }
    </style>
  </defs>
  <g id="God_svamp" data-name="God svamp">
    <g>
      <path class="cls-1" d="M176.3,166c-11.5-6.5-26-4.2-54.8-18.5-24.2-11.1-44.7-18.1-63.9-9.4-9.7,4.2-14.9,20.5-10.1,34.1S65.8,190.1,76.2,184c11.6-6.6,24.5-3.6,33.7-1.3,20.2,6,44.1,23.8,50.8,27.7C182.6,223.3,181.5,169.3,176.3,166Z"/>
      <path class="cls-2" d="M188.7,274c1.2-15.1-6.9-24-23.6-25.9-26.8-3.9-36-27-38.6-38-5.6-23,.3-49.6,5.7-75.9,2.4-12.3-3.1-25.9-8.9-30.3s-12.3,2.2-17.6,12.9c-14.7,31.7-32.8,56-34.1,86.8-.7,15.8,13.1,85.2,46.6,91.9C148.9,301.5,185.8,310.2,188.7,274Z"/>
      <path class="cls-3" d="M47.5,172.9c11-25.4,41.1-28.5,65-23.8,38.1,7.5,54,27.8,65,53.2,16.9-85.1-10-136.3-65.4-138.2C50,62,34.3,149.2,47.5,172.9Z"/>
    </g>
    <g>
      <g>
        <circle class="cls-4" cx="149.4" cy="122.3" r="15"/>
        <g>
          <path class="cls-5" d="M134.4,122.3a15,15,0,1,0,19.2-14.4v.5c0,4.9,1.5,8.9-5.4,11.2-5.9,2-9.3-3.9-10.9-6.3A15.11,15.11,0,0,0,134.4,122.3Z"/>
          <path class="cls-5" d="M134,122.3a15.22,15.22,0,0,1,3.1-9.2l.3-.4.6.8c1.7,2.6,4.9,7.5,10.2,5.8,5.6-1.9,5.4-4.6,5.2-8.5,0-.7-.1-1.5-.1-2.3v-1l.5.1A15.38,15.38,0,1,1,134,122.3Zm20-13.9a15.48,15.48,0,0,0,.1,2.2c.2,3.9.4,7.2-5.7,9.3-5.8,1.9-9.3-3.4-11-6a14.66,14.66,0,1,0,24.1,16.7,14.59,14.59,0,0,0-7.5-22.2Z"/>
        </g>
      </g>
      <g>
        <circle class="cls-4" cx="98.8" cy="103.5" r="15"/>
        <g>
          <path class="cls-5" d="M83.8,103.5a15,15,0,1,0,19.3-14.4v.5c0,4.9,1.5,8.9-5.4,11.2-5.9,2-9.3-3.9-10.9-6.3A14.16,14.16,0,0,0,83.8,103.5Z"/>
          <path class="cls-5" d="M83.4,103.5a15.22,15.22,0,0,1,3.1-9.2l.3-.4.6.8c1.7,2.6,4.9,7.5,10.2,5.8,5.6-1.9,5.4-4.6,5.2-8.5,0-.7-.1-1.5-.1-2.3v-1l.5.2a15.38,15.38,0,0,1-8.7,29.5,15.72,15.72,0,0,1-11.1-14.9Zm20-13.9a15.48,15.48,0,0,0,.1,2.2c.2,3.9.4,7.2-5.7,9.3-5.8,1.9-9.3-3.4-11-6a14.66,14.66,0,0,0,24.1,16.7,14.33,14.33,0,0,0,2.6-8.3,15.12,15.12,0,0,0-10.1-13.9Z"/>
        </g>
      </g>
      <path class="cls-5" d="M120.8,139.3a9.86,9.86,0,0,0,2.4-.3,9.1,9.1,0,0,0,6.6-6.9,2.5,2.5,0,1,0-4.8-1.4,4.34,4.34,0,0,1-3,3.4,6.34,6.34,0,0,1-5.8-1.9,5.89,5.89,0,0,1-1.5-5.8,2.5,2.5,0,1,0-4.8-1.4,10.66,10.66,0,0,0,2.7,10.6A11.23,11.23,0,0,0,120.8,139.3Z"/>
    </g>
  </g>
</svg>
