<svg id="Figurer_copy" data-name="Figurer copy" xmlns="http://www.w3.org/2000/svg" width="250" height="350" viewBox="0 0 250 350">
  <defs>
    <style>
      .cls-1 {
        fill: #4c332e;
      }

      .cls-2 {
        fill: #8e7873;
      }

      .cls-3 {
        fill: #ffbdec;
      }

      .cls-4 {
        fill: #fff;
      }

      .cls-5 {
        fill: #382622;
      }

      .cls-6 {
        fill: #ff0018;
      }
    </style>
  </defs>
  <g>
    <g id="God_svamp_3" data-name="God svamp 3">
      <g id="Krop">
        <path class="cls-1" d="M185.7,169.2c1.9-13.1-31.2-2.8-60-17.2-24.2-11.1-44.7-18.1-63.9-9.4-9.7,4.2-14.9,20.5-10.1,34.1S70,194.6,80.4,188.5c11.6-6.6,24.5-3.6,33.7-1.3,20.1,6,46.1,18.6,53.9,19C192.4,207.8,185,174.4,185.7,169.2Z"/>
        <path class="cls-2" d="M192.9,278.5c1.2-15.1-6.9-24-23.6-25.9-26.8-3.9-36-27-38.6-38-5.6-23,.3-49.6,5.7-75.9,2.4-12.3-3.1-25.9-8.9-30.3s-12.3,2.2-17.6,12.9c-14.7,31.7-32.8,56-34.1,86.8-.7,15.8,13.1,85.2,46.6,91.9C153.1,306.1,190,314.8,192.9,278.5Z"/>
        <path class="cls-3" d="M51.7,177.4c11-25.4,41.1-28.5,65-23.8,38.1,7.5,55.8,19.9,66.8,45.2,29-77.2,14.4-142.3-55.7-146.3C65.7,49,38.6,153.7,51.7,177.4Z"/>
      </g>
      <g id="Ansigt">
        <g id="Ansigt-2">
          <g>
            <circle class="cls-4" cx="153.6" cy="126.8" r="15"/>
            <g>
              <path class="cls-5" d="M138.6,126.8a15,15,0,1,0,19.2-14.4v.5c0,4.9,1.5,8.9-5.4,11.2-5.9,2-9.3-3.9-10.9-6.3A15.11,15.11,0,0,0,138.6,126.8Z"/>
              <path class="cls-5" d="M153.6,142.2a15.41,15.41,0,0,1-15.4-15.4,15.22,15.22,0,0,1,3.1-9.2l.3-.4.6.8c1.7,2.6,4.9,7.5,10.2,5.8,5.5-1.9,5.4-4.6,5.2-8.5,0-.7-.1-1.5-.1-2.3v-1l.5.1a15.36,15.36,0,0,1-4.4,30.1Zm-12-23.7a14.66,14.66,0,0,0,24.1,16.7,14.33,14.33,0,0,0,2.6-8.3,14.62,14.62,0,0,0-10-13.9h0a15.48,15.48,0,0,0,.1,2.2c.2,3.9.4,7.2-5.7,9.3-5.9,1.9-9.4-3.4-11.1-6Z"/>
            </g>
          </g>
          <g>
            <circle class="cls-4" cx="103" cy="108" r="15"/>
            <g>
              <path class="cls-5" d="M88,108a15,15,0,1,0,19.2-14.4v.5c0,4.9,1.5,8.9-5.4,11.2-5.9,2-9.3-3.9-10.9-6.3A15.33,15.33,0,0,0,88,108Z"/>
              <path class="cls-5" d="M103,123.4A15.41,15.41,0,0,1,87.6,108a15.22,15.22,0,0,1,3.1-9.2l.3-.4.6.8c1.7,2.6,4.9,7.5,10.2,5.8,5.6-1.9,5.4-4.6,5.2-8.5,0-.7-.1-1.5-.1-2.3v-1l.5.1a15.36,15.36,0,0,1-4.4,30.1ZM91,99.7A14.66,14.66,0,1,0,111.4,96a16.16,16.16,0,0,0-3.7-1.9h0a15.48,15.48,0,0,0,.1,2.2c.2,3.9.4,7.2-5.7,9.3s-9.5-3.2-11.1-5.9Z"/>
            </g>
          </g>
          <path class="cls-5" d="M125,143.8a11.13,11.13,0,0,1-8.2-3.6,10.66,10.66,0,0,1-2.7-10.6,2.5,2.5,0,1,1,4.8,1.4,5.73,5.73,0,0,0,1.5,5.8,6.34,6.34,0,0,0,5.8,1.9,4.34,4.34,0,0,0,3-3.4,2.5,2.5,0,0,1,4.8,1.4,9.1,9.1,0,0,1-6.6,6.9A19.42,19.42,0,0,1,125,143.8Z"/>
        </g>
        <g>
          <path d="M163.3,99.5c.4-.9,1.9-1,3.3-.3s2.2,1.9,1.8,2.8c-.1.3-6.6,6.9-6.6,6.9S163.1,99.9,163.3,99.5Z"/>
          <path d="M149.3,99.1c-.1-.9,1.1-1.8,2.7-1.9s2.9.6,2.9,1.5c0,.3-2.4,9.2-2.4,9.2S149.3,99.5,149.3,99.1Z"/>
          <path d="M173.1,106.3c.8-.5,2.1.1,3,1.3s1,2.8.2,3.3c-.3.2-9.2,2.7-9.2,2.7S172.7,106.6,173.1,106.3Z"/>
          <path d="M94.8,80c-.2-.9.8-2,2.2-2.4s2.9,0,3.2.9c.1.3-.5,9.5-.5,9.5S94.9,80.4,94.8,80Z"/>
          <path d="M83.9,88.8c-.7-.7-.3-2.1.8-3.2s2.5-1.4,3.2-.7c.2.2,4.2,8.6,4.2,8.6S84.2,89.1,83.9,88.8Z"/>
          <path d="M106.6,78.7c.2-.9,1.6-1.3,3.2-.9s2.5,1.4,2.3,2.4c-.1.3-5.2,8-5.2,8S106.5,79.1,106.6,78.7Z"/>
          <path class="cls-6" d="M131.4,119.9c-1.3-.2-3.1,3.3-3.8,4.4-.4-1.3-1-5-2.4-5.1a3.91,3.91,0,0,0-3.5,5.7l4.5,6.6s8.1-5.9,8.2-7.4A3.57,3.57,0,0,0,131.4,119.9Zm-3.8,5.1h.1c0,.1-.1.1-.1.2a.14.14,0,0,0,0-.2Z"/>
        </g>
      </g>
    </g>
    <g>
      <path class="cls-4" d="M61.6,150h0a3.76,3.76,0,0,1-3.7-3.7h0c.2-19,9.6-47.4,18.4-55.4a3.68,3.68,0,1,1,5,5.4h0c-6,5.5-15.8,30.5-16,50A3.69,3.69,0,0,1,61.6,150Z"/>
      <ellipse class="cls-4" cx="85.01" cy="86" rx="3" ry="2.9" transform="translate(-7.99 163.29) rotate(-85.06)"/>
    </g>
  </g>
</svg>
