<?xml version="1.0" encoding="utf-8"?>
<!-- Generator: Adobe Illustrator 24.1.0, SVG Export Plug-In . SVG Version: 6.00 Build 0)  -->
<svg version="1.1" id="Figurer_copy" xmlns="http://www.w3.org/2000/svg" xmlns:xlink="http://www.w3.org/1999/xlink" x="0px"
	 y="0px" viewBox="0 0 250 350" style="enable-background:new 0 0 250 350;" xml:space="preserve">
<style type="text/css">
	.st0{fill:#4C332E;}
	.st1{fill:#8E7873;}
	.st2{fill:#92D0FC;}
	.st3{fill:#FFFFFF;}
	.st4{fill:#382622;}
</style>
<g>
	<g>
		<path class="st0" d="M64.7,158.5c11.5-6.5,26-4.2,54.8-18.5c24.2-11.1,44.7-18.1,63.9-9.4c9.7,4.2,14.9,20.5,10.1,34.1
			s-18.3,17.9-28.7,11.8c-11.6-6.6-24.5-3.6-33.7-1.3c-20.2,6-44.1,23.8-50.8,27.7C58.4,215.8,59.5,161.8,64.7,158.5z"/>
		<path class="st1" d="M52.3,266.5c-1.2-15.1,6.9-24,23.5-25.9c26.8-3.9,36-27,38.6-38c5.6-23-0.3-49.6-5.7-75.9
			c-2.4-12.3,3.1-25.9,8.9-30.3s12.3,2.2,17.6,12.9c14.7,31.7,32.8,56,34.1,86.8c0.7,15.8-13.1,85.2-46.6,91.9
			C92.1,294,55.2,302.7,52.3,266.5z"/>
		<path class="st2" d="M193.5,165.4c-11-25.4-41.1-28.5-65-23.8c-38.1,7.5-54,27.8-65,53.2c-16.9-85.1,10-136.3,65.3-138.2
			C191,54.5,206.7,141.6,193.5,165.4z"/>
	</g>
	<g>
		<g>
			<circle class="st3" cx="91.6" cy="114.7" r="15"/>
			<g>
				<path class="st4" d="M106.6,114.7c0,8.3-6.7,15-15,15s-15-6.7-15-15c0-6.7,4.4-12.5,10.8-14.4c0,0.2,0,0.4,0,0.5
					c0,4.9-1.5,8.9,5.4,11.2c5.9,2,9.3-3.9,10.9-6.3C105.6,108.3,106.6,111.5,106.6,114.7z"/>
				<path class="st4" d="M91.6,130.1c-8.5,0-15.4-6.9-15.4-15.4c0-6.8,4.5-12.9,11.1-14.8l0.5-0.1v0.5c0,0.2,0,0.4,0,0.5
					c0,0.8,0,1.5-0.1,2.3c-0.2,3.9-0.3,6.7,5.2,8.5c5.3,1.8,8.5-3.1,10.2-5.8l0.6-0.8l0.3,0.4c5.1,6.8,3.7,16.5-3.1,21.6
					C98.2,129.1,95,130.1,91.6,130.1L91.6,130.1z M87,100.9c-7.7,2.6-11.8,10.8-9.3,18.5s10.8,11.8,18.5,9.3c6-2,10-7.6,10-13.9
					c0-3-0.9-5.9-2.6-8.3c-1.7,2.6-5.2,7.9-11,6c-6.1-2-5.9-5.4-5.7-9.3C86.9,102.4,87,101.7,87,100.9L87,100.9z"/>
			</g>
		</g>
		<g>
			<circle class="st3" cx="142.2" cy="96" r="15"/>
			<g>
				<path class="st4" d="M157.2,96c0,8.3-6.7,15-15,15s-15-6.7-15-15c0-6.6,4.4-12.5,10.7-14.4c0,0.2,0,0.4,0,0.5
					c0,4.9-1.5,8.9,5.4,11.2c5.9,2,9.3-3.9,10.9-6.3C156.2,89.6,157.3,92.7,157.2,96z"/>
				<path class="st4" d="M142.2,111.4c-8.5,0-15.4-6.9-15.4-15.4c0-6.8,4.5-12.9,11.1-14.8l0.5-0.2v0.5c0,0.2,0,0.4,0,0.5
					c0,0.8,0,1.5-0.1,2.3c-0.2,3.9-0.4,6.7,5.2,8.5c5.3,1.8,8.5-3.1,10.2-5.8l0.6-0.8l0.3,0.4c5.1,6.8,3.7,16.5-3.1,21.6
					C148.9,110.3,145.6,111.4,142.2,111.4L142.2,111.4z M137.6,82.1c-7.7,2.6-11.8,10.8-9.3,18.5c2.6,7.7,10.8,11.8,18.5,9.3
					c6-2,10-7.6,10-13.9c0-3-0.9-5.9-2.6-8.3c-1.7,2.6-5.2,7.9-11,6c-6.1-2-5.9-5.4-5.7-9.3C137.5,83.6,137.6,82.9,137.6,82.1
					L137.6,82.1z"/>
			</g>
		</g>
		<path class="st4" d="M120.2,131.8c-0.8,0-1.6-0.1-2.4-0.3c-3.3-0.9-5.9-3.5-6.6-6.9c-0.4-1.3,0.4-2.7,1.7-3.1
			c1.3-0.4,2.7,0.4,3.1,1.7c0.3,1.6,1.4,2.9,3,3.4c2.1,0.4,4.3-0.3,5.8-1.9c1.5-1.5,2.1-3.7,1.5-5.8c-0.4-1.3,0.4-2.7,1.7-3.1
			s2.7,0.4,3.1,1.7c1.1,3.8,0.1,7.8-2.7,10.6C126.3,130.4,123.3,131.7,120.2,131.8z"/>
	</g>
</g>
</svg>
