<svg id="Figurer_copy" data-name="Figurer copy" xmlns="http://www.w3.org/2000/svg" width="350" height="400" viewBox="0 0 350 400">
  <defs>
    <style>
      .cls-1 {
        fill: #ff5513;
      }

      .cls-2 {
        fill: #fff;
      }

      .cls-3 {
        fill: #807aaa;
      }

      .cls-4 {
        fill: #ff0018;
      }
    </style>
  </defs>
  <g>
    <path class="cls-1" d="M119.2,385.6c-15-51.5-6.1-123.3,19.6-190.2,27.7.8,49.5,14,78,12.6C193.4,271.1,197,328.4,222,369.9c-5,3.5-9.9,6.9-14.7,10.3l-9.4,6.7C171.7,387.2,145.5,386.6,119.2,385.6Z"/>
    <path class="cls-2" d="M331,120.3A44.74,44.74,0,0,0,292.2,76a44.68,44.68,0,0,0-77-44.4,44.7,44.7,0,0,0-73.8,44.6c-8.6,14.5-6.7,31.9-4.9,47.3,1.3,11.3,2.4,21.1-.8,27.8-2.9,6.2-9.9,10-15.5,13.1a33.88,33.88,0,0,0-6.5,4.1,9,9,0,0,0-2.7,7.8,9.34,9.34,0,0,0,4.8,6.9,35.14,35.14,0,0,1,6.1,3.9,5.13,5.13,0,0,1,0,7.4h0L110.3,206l.4.3a190.78,190.78,0,0,0,26.2,17.2l.4.2,8.7-15.1a5.27,5.27,0,0,1,9.1,5.3l-8.4,14.6.4.2a107.34,107.34,0,0,0,11.1,4.5c8.3,2.9,16.6,5.5,24.8,7.7l.4.1,3.9-14.3a5.44,5.44,0,0,1,6.1-4,5.18,5.18,0,0,1,4.3,5.2,6.75,6.75,0,0,1-.2,1.4l-3.9,14.3.4.1a218.28,218.28,0,0,0,34.1,5.5h.4l1.1-14.1a5.27,5.27,0,0,1,5.7-4.8c2.9.2,18.2,5.5,18.4,5.5h.2c2.7-.1,4.6-.8,5.8-2.1,2.1-2.5,1.5-7.1.6-12.8-.8-5.5-1.9-12.3-.6-19.4,2.4-13.3,11.5-19.2,21.2-25.5,5.6-3.6,11.3-7.3,16-12.6A44.28,44.28,0,0,0,331,120.3Z"/>
    <path d="M49.8,261.4c-2.8,1.7-7.3-.7-10-5.2s-2.7-9.6.1-11.3c.9-.6,31.9-7.2,31.9-7.2S51.1,260.6,49.8,261.4Z"/>
    <path d="M312.2,253.4c2.2,1.5,1.6,6.3-1.4,10.7s-7.2,6.7-9.5,5.2c-.7-.5-15.4-23-15.4-23S311.1,252.7,312.2,253.4Z"/>
    <path d="M25,167.8c-3.2,0-5.9-4.3-6-9.6s2.6-9.6,5.8-9.6c1.1,0,31.1,10.1,31.1,10.1S26.4,167.8,25,167.8Z"/>
    <path d="M304.2,148.7a2.18,2.18,0,0,1-2.2-2.3,2.84,2.84,0,0,1,.7-1.7c13.5-12.2,10.5-31.5,7-38.4a2.23,2.23,0,1,1,3.7-2.5l.3.6c4.1,8.2,7.6,29.7-8,43.7A2.4,2.4,0,0,1,304.2,148.7Z"/>
    <circle cx="307.2" cy="94.5" r="2.8"/>
    <g>
      <g>
        <path class="cls-3" d="M212.7,88.9c-27.8,29.3-35.3,42.5-48.2,79"/>
        <path class="cls-1" d="M164.5,178.9a10.91,10.91,0,0,1-10.9-11.1,11.33,11.33,0,0,1,.6-3.6c13.1-37.1,20.9-51.5,50.6-82.8A11,11,0,1,1,222,95.2a15.38,15.38,0,0,1-1.2,1.3c-27.1,28.6-33.7,41-45.8,75.1A11.44,11.44,0,0,1,164.5,178.9Z"/>
      </g>
      <path d="M171.1,161a3.8,3.8,0,0,1-3.8-3.8,4,4,0,0,1,1.8-3.3c-.2-.6-.6-1.2-.8-1.7-1.7-3.5-4.2-8.9-1-14.1a14.55,14.55,0,0,1,8.6-6.8,8,8,0,0,0,4.6-3.2c1.1-1.5.9-2.3.3-4.7-.7-3-1.9-7.5,2.3-13,3.8-5,9.1-4.4,12.3-4.1a13.83,13.83,0,0,0,2.9.1,6.82,6.82,0,0,0,.6-3.5,3.8,3.8,0,1,1,7.6.2c-.1,2.8-.5,6.7-3.3,9.1s-6,2-8.7,1.8c-3.3-.3-4.4-.2-5.4,1.1-2,2.6-1.6,4-1,6.5.7,2.8,1.6,6.6-1.5,11a15.39,15.39,0,0,1-8.2,6,7,7,0,0,0-4.6,3.6c-1,1.6-.1,3.8,1.4,6.8,1.3,2.8,2.7,5.6,1.4,8.5a6.42,6.42,0,0,1-4.5,3.5Z"/>
    </g>
    <g>
      <g>
        <path class="cls-4" d="M260.1,111.3c-27.8,29.3-35.3,42.4-48.2,78.9"/>
        <path class="cls-1" d="M211.8,201.2a10.91,10.91,0,0,1-10.9-11.1,11.33,11.33,0,0,1,.6-3.6c13.1-37,20.9-51.5,50.6-82.8a11,11,0,0,1,15.9,15c-27.1,28.6-33.7,41-45.9,75.1A10.75,10.75,0,0,1,211.8,201.2Z"/>
      </g>
      <path d="M218.3,183.3a4,4,0,0,1-3.9-3.8,3.74,3.74,0,0,1,1.9-3.3,8.86,8.86,0,0,0-.8-1.7c-1.6-3.5-4.1-8.9-.9-14.1a14.83,14.83,0,0,1,8.7-6.8,7.26,7.26,0,0,0,4.6-3.2c1.1-1.5.9-2.3.4-4.7-.7-3-1.8-7.5,2.4-13,3.8-4.9,9.2-4.4,12.3-4a9.31,9.31,0,0,0,2.9.1,7.43,7.43,0,0,0,.7-3.5,3.85,3.85,0,1,1,7.7.3c-.1,2.8-.5,6.7-3.3,9.1s-6,2-8.7,1.7c-3.3-.4-4.4-.3-5.5,1.1-2,2.6-1.6,4-1,6.5.7,2.8,1.6,6.6-1.6,11a14.62,14.62,0,0,1-8.3,5.9,7.43,7.43,0,0,0-4.7,3.6c-1,1.6-.1,3.8,1.3,6.9,1.3,2.8,2.6,5.6,1.3,8.5a6.42,6.42,0,0,1-4.5,3.5A3.08,3.08,0,0,0,218.3,183.3Z"/>
    </g>
    <path d="M150.2,75.2a2.34,2.34,0,0,1-2.2-1.7c-5.1-20.4,9.7-36.3,17.7-40.8a2.31,2.31,0,0,1,3,1.1,2.21,2.21,0,0,1-.8,2.8c-6.7,3.8-20,18.1-15.6,35.8a2.2,2.2,0,0,1-1.6,2.7A4.33,4.33,0,0,1,150.2,75.2Z"/>
    <circle cx="179.7" cy="28.1" r="2.8"/>
    <path d="M172.9,195.7c2.1,1.1,8.4-7.1,10.3-8.5,4.3,6.1-2.6,12.6-.4,13.8a6.75,6.75,0,0,0,8.9-3.2,9,9,0,0,0,.9-3.2v-1l-3.3-14.1s-17.5,4.7-18.7,7C168.7,190,169.8,194.1,172.9,195.7Zm9.7-6.1-.2-.1.3-.2a.37.37,0,0,1-.1.3Z"/>
    <path d="M224.7,307.4c.6,3.2-3.1,6.6-8.3,7.6s-10-.7-10.6-3.9c-.2-1.1,4.1-32.5,4.1-32.5S224.4,306,224.7,307.4Z"/>
    <path d="M115,295.5c-1.4,2.9-6.4,3.4-11.2,1.1s-7.5-6.6-6-9.5c.5-1,22.9-23.4,22.9-23.4S115.6,294.2,115,295.5Z"/>
    <circle class="cls-4" cx="186.6" cy="45.7" r="11.2"/>
    <circle class="cls-4" cx="192.4" cy="66.7" r="6.2"/>
    <path class="cls-4" d="M279.1,39.9a6.26,6.26,0,0,0-12.4-1.2,22.6,22.6,0,1,0,6.8,7.4A6.2,6.2,0,0,0,279.1,39.9Z"/>
    <circle class="cls-4" cx="173.2" cy="75.2" r="4"/>
  </g>
</svg>
