<svg id="Figurer_copy" data-name="Figurer copy" xmlns="http://www.w3.org/2000/svg" width="350" height="400" viewBox="0 0 350 400">
  <defs>
    <style>
      .cls-1 {
        fill: #f9a58c;
      }

      .cls-2 {
        fill: #fff;
      }

      .cls-3 {
        fill: #ff0018;
      }

      .cls-4, .cls-5 {
        fill: none;
        stroke-linecap: round;
        stroke-miterlimit: 10;
      }

      .cls-4 {
        stroke: #d3ecfe;
        stroke-width: 18px;
      }

      .cls-5 {
        stroke: #92d0fc;
        stroke-width: 2px;
      }
    </style>
  </defs>
  <g>
    <path class="cls-1" d="M220.8,383.8c14.3-49,5.8-117.2-18.6-180.9-26.3.8-47,13.3-74.1,12,22.2,60,18.8,114.4-5,153.9,4.7,3.4,9.4,6.6,14,9.8,3,2.1,6,4.2,8.9,6.3C170.9,385.3,195.8,384.7,220.8,383.8Z"/>
    <path d="M176.4,356.2c.8-16.8-3.3-29.8-3.8-30,0-.2,5.5,6.4,8.7,19.4A40.89,40.89,0,0,0,176.4,356.2Z"/>
    <path d="M187.5,335.8c-.5,0-3.9,4.3-4.4,12.8-.3-1-.7-2-1.1-3C183.8,338.8,187.1,335.9,187.5,335.8Z"/>
    <path class="cls-2" d="M93,195.8c12.8,11.8-13.2,45.2-.4,45.5,0,0,14.7-5,17.6-5.3a5.55,5.55,0,0,1,5.9,5l1.1,13a207,207,0,0,0,32.3-5.2l-3.6-13.2a6.75,6.75,0,0,1-.2-1.4,5.37,5.37,0,0,1,4.5-5.3,5.62,5.62,0,0,1,6.2,4.1l3.6,13.1c9-2.5,17.2-5.1,23.6-7.3a111.85,111.85,0,0,0,10.5-4.3L186.3,221a5.44,5.44,0,1,1,9.2-5.8c.1.1.1.2.2.3l8.1,14a176.71,176.71,0,0,0,24.8-16.3L218,202.6a5.49,5.49,0,0,1,0-7.7h0a33,33,0,0,1,5.9-3.8,8.27,8.27,0,0,0,3.5-11.2,6.52,6.52,0,0,0-1.6-2.1c-3.8-3.7-22.6-6.8-21-16.5,12.3-71.8-10-194.1-129.5-127C-14,84.5,48.9,155,93,195.8Z"/>
    <path d="M286.8,265.7c2.6,1.6,6.9-.6,9.5-5s2.6-9.1-.1-10.7c-.9-.5-30.3-6.9-30.3-6.9S285.6,265,286.8,265.7Z"/>
    <path d="M37.4,258.1c-2.1,1.5-1.5,6,1.4,10.2s6.9,6.4,9,4.9c.7-.5,14.6-21.9,14.6-21.9S38.4,257.5,37.4,258.1Z"/>
    <path d="M310.4,176.8c3.1,0,5.6-4.1,5.7-9.1s-2.5-9.2-5.5-9.2c-1,0-29.6,9.6-29.6,9.6S309,176.8,310.4,176.8Z"/>
    <path d="M172.5,186.4c-1.7-3.2-25.9-9.7-25.9-9.7l-4.5,19.5v1.4a11.1,11.1,0,0,0,1.2,4.4c2.5,4.7,8,6.7,12.3,4.4,3-1.6-6.5-10.6-.6-19.1,2.7,2,11.3,13.4,14.3,11.8C173.5,196.8,175,191.1,172.5,186.4Zm-16.8,3.7.4.3-.3.2A.9.9,0,0,1,155.7,190.1Z"/>
    <path d="M120.5,309.5c-.6,3,2.9,6.3,7.9,7.2s9.5-.7,10.1-3.7c.2-1-3.9-30.9-3.9-30.9S120.8,308.2,120.5,309.5Z"/>
    <path d="M224.8,298.2c1.4,2.8,6.1,3.2,10.7,1s7.1-6.3,5.8-9c-.5-.9-21.8-22.2-21.8-22.2S224.2,296.9,224.8,298.2Z"/>
    <circle class="cls-3" cx="109.2" cy="53.9" r="21.7"/>
    <circle class="cls-3" cx="168.6" cy="39.5" r="10.6"/>
    <circle class="cls-3" cx="163.1" cy="59.4" r="5.9"/>
    <circle class="cls-3" cx="90.9" cy="37.4" r="5.9"/>
    <circle class="cls-3" cx="181.4" cy="67.5" r="3.8"/>
    <path class="cls-4" d="M49.9,111.9C43.3,95.3,45.8,78.8,55.4,75"/>
    <path d="M129.5,187.7h0a14,14,0,0,1-18.2-7.9L96.8,143.5a13.93,13.93,0,0,1,7.8-18.2h0a14,14,0,0,1,18.2,7.9l14.5,36.3A13.93,13.93,0,0,1,129.5,187.7Z"/>
    <path d="M169.6,171.8h0a14,14,0,0,1-18.2-7.8l-14.5-36.3a14,14,0,0,1,7.8-18.2h0a14,14,0,0,1,18.2,7.8l14.5,36.3A14,14,0,0,1,169.6,171.8Z"/>
    <path class="cls-5" d="M133.4,112.1c0-13.6,5.7-24.6,12.7-24.6"/>
    <path class="cls-5" d="M117.2,118.1C112,105.5,102.5,97.5,96,100.2"/>
  </g>
</svg>
