<svg id="Layer_2" data-name="Layer 2" xmlns="http://www.w3.org/2000/svg" width="1920" height="1080" viewBox="0 0 1920 1080"><defs><style>.cls-1{fill:#020000;}</style></defs><g id="Forgrund"><path class="cls-1" d="M-26.95,678c110.05-116.11,942-28.79,654.83,456.1-72,121.6-256,95.42-292,92.9s-480-51.06-474-56.9S-137,794.07-26.95,678Z"/><path d="M607.48,988.41c5.8,0,5.81-9,0-9S601.67,988.41,607.48,988.41Z"/><path d="M346.54,668.56q7.75,78.36,16,156.59a1306.13,1306.13,0,0,0-203.81,27A1268.44,1268.44,0,0,0-36.48,911.41q-31.69-61.35-63.41-122.64c2-42.65-12.42-86.64-28.52-119.18S-162,615.9-162.85,615c.6.51,11,8.75,27.21,24.07A715.13,715.13,0,0,1-74,705.79c-12-41.49-32.89-82.91-51.8-113.54s-35.55-50.79-37.14-52.66c3.83,2.82,80.72,75.53,141.65,164.33-13-89.8-38.91-219.08-38.82-219.17s7,23.13,19.86,56.33,31.46,76.5,53.73,118C9.66,628.77,4.65,598.21.59,575.18S-6.6,536.7-6.61,536.7s7.24,18.57,21.39,46.35A920.23,920.23,0,0,0,76.34,686.27c4.17-28-29.26-96.4-35.62-108.9-4.74-9.76,24,18.53,52.7,54.42-1.28-11.22-3.12-22.16-5.32-32.58A401.35,401.35,0,0,0,69,535.45a283.77,283.77,0,0,0-12-26.7c.34.45,4.22,5.43,10.61,14.4s15.3,22,25.62,38.51c1.72,2.78,3.47,5.61,5.27,8.56,9.84,16.15,20.74,35.16,31.92,56.54-5.36-46.68-19.43-95.28-33.19-132.31s-26.92-62.62-28.19-65c3.3,4.09,67.38,100.91,113.88,206.89C184,539,179,398.92,179.14,398.87s3.22,25.67,10.64,63.16,19,86.83,34.59,134.81c1.83-64.66-.7-131.49-.74-131.48s4.21,20.87,13.84,52.73a996.79,996.79,0,0,0,44.87,119.79c18.77-65.78,43.22-150.32,46.53-160.62-1.39,5.2-7.29,29.64-7.25,64.38A346.85,346.85,0,0,0,346.54,668.56Z"/></g></svg>