<svg xmlns="http://www.w3.org/2000/svg" width="1920" height="1080" viewBox="0 0 1920 1080">
  <defs>
    <style>
      .cls-1 {
        fill: #332b2a;
      }

      .cls-2 {
        fill: #caf7c9;
      }

      .cls-3 {
        fill: #262020;
      }

      .cls-4 {
        fill: #020000;
      }
    </style>
  </defs>
  <title>Baggrundsdesign_RT_02_forgrund_forgrund-baggrund</title>
  <g id="Figurer">
    <path class="cls-1" d="M648.32,557.67a410.54,410.54,0,0,0-17.77,45.89c-5.31-31.61,4.62-68.51,5.12-70.33C635,535,619.58,573,608.21,610.82c-9.84-32-17.08-77.66-17.08-77.66s1.8,34.2-4.76,67.35a384.43,384.43,0,0,1-8.63-42.84A197.53,197.53,0,0,1,563,616.74c-23.81-13.77-26.78-59.07-26.78-59.07s-2,4.15-5,11.43c-3.38,8.1-8.06,20.06-12.74,34.46-5.32-31.61,4.62-68.51,5.12-70.33-.72,1.77-16.09,39.73-27.46,77.59-9.84-32-17.08-77.66-17.08-77.66s1.8,34.2-4.76,67.35a385.79,385.79,0,0,1-8.64-42.84,197.32,197.32,0,0,1-14.77,59.07c-13.27-21.14-27-48.43-28.19-50.74,1.12,2.36,14.15,63.7-1,100.84,0,0,25.42-12.62,70-16.34s168.73,16.34,168.73,16.34C636.61,632.22,648.32,557.67,648.32,557.67ZM539.13,647c0-.05,0-.11,0-.16l.07,0Z"/>
    <path class="cls-2" d="M375.11,867H375l0-.06Z"/>
    <path class="cls-2" d="M487.25,867h-.07l0-.06Z"/>
    <path class="cls-3" d="M1564.86,430.1s69.29-13.05,108.32-13.05c40.21,0,100.08,13.05,100.08,13.05-13.21-32.42-1.83-86-.86-88-1,2-13,25.85-24.61,44.3a172.38,172.38,0,0,1-12.9-51.57,335.7,335.7,0,0,1-7.54,37.4c-5.73-28.94-4.16-58.79-4.16-58.79s-6.32,39.9-14.9,67.8c-9.93-33.06-23.35-66.2-24-67.74.44,1.58,9.11,33.8,4.47,61.4-4.09-12.58-8.17-23-11.12-30.09-2.65-6.35-4.39-10-4.39-10s-2.59,39.55-23.38,51.57a172.38,172.38,0,0,1-12.9-51.57,335.7,335.7,0,0,1-7.54,37.4c-5.73-28.94-4.16-58.79-4.16-58.79s-6.32,39.9-14.9,67.8c-9.93-33.06-23.35-66.2-24-67.74.43,1.58,9.11,33.8,4.47,61.4a358.67,358.67,0,0,0-15.51-40.07S1585.59,399.88,1564.86,430.1Zm105.8-17.5h.07c0,.05,0,.1,0,.14Z"/>
    <path class="cls-1" d="M1378.93,1065.84s124.17-20,168.73-16.34,70,16.34,70,16.34c-15.14-37.14-2.11-98.48-1-100.84-1.16,2.31-14.92,29.6-28.19,50.74a197.53,197.53,0,0,1-14.78-59.07,384.43,384.43,0,0,1-8.63,42.84c-6.56-33.15-4.76-67.35-4.76-67.35s-7.24,45.71-17.08,77.66c-11.37-37.86-26.74-75.82-27.46-77.59.5,1.82,10.43,38.72,5.12,70.33-4.68-14.4-9.36-26.36-12.74-34.46-3-7.28-5-11.43-5-11.43s-3,45.3-26.78,59.07a197.53,197.53,0,0,1-14.78-59.07,384.43,384.43,0,0,1-8.63,42.84c-6.56-33.15-4.76-67.35-4.76-67.35s-7.24,45.71-17.08,77.66c-11.37-37.86-26.74-75.82-27.46-77.59.5,1.82,10.43,38.72,5.12,70.33A410.54,410.54,0,0,0,1391,956.67S1402.67,1031.22,1378.93,1065.84Zm121.19-20,.07,0,0,.16A1.13,1.13,0,0,1,1500.12,1045.79Z"/>
    <g id="Græs">
      <path d="M1805.82,709a297.57,297.57,0,0,0-12.89,33.3c-3.86-22.94,3.35-49.71,3.71-51-.52,1.28-11.68,28.82-19.93,56.3-7.13-23.18-12.38-56.35-12.38-56.35s1.3,24.81-3.46,48.86a278.26,278.26,0,0,1-6.26-31.08,143.14,143.14,0,0,1-10.73,42.86c-17.27-10-19.43-42.86-19.43-42.86s-1.44,3-3.65,8.29c-2.45,5.88-5.84,14.56-9.24,25-3.86-22.94,3.35-49.71,3.71-51-.52,1.28-11.67,28.82-19.92,56.3-7.14-23.18-12.39-56.35-12.39-56.35s1.3,24.81-3.46,48.86a278.26,278.26,0,0,1-6.26-31.08,143.14,143.14,0,0,1-10.73,42.86c-9.62-15.34-19.61-35.14-20.45-36.82.81,1.71,10.27,46.23-.71,73.17,0,0,49.75-10.84,83.17-10.84,32.45,0,90,10.84,90,10.84C1797.33,763.05,1805.82,709,1805.82,709Zm-79.23,64.79,0-.11.06,0Z"/>
    </g>
    <path d="M1100.29,380.19s57.58-10.85,90-10.85c33.42,0,83.18,10.85,83.18,10.85-11-26.95-1.52-71.46-.72-73.17-.84,1.68-10.82,21.48-20.45,36.82A143.36,143.36,0,0,1,1241.6,301a277,277,0,0,1-6.27,31.08c-4.75-24.06-3.45-48.87-3.45-48.87s-5.25,33.17-12.39,56.35c-8.25-27.47-19.4-55-19.93-56.3.37,1.32,7.58,28.09,3.72,51-3.4-10.44-6.79-19.13-9.24-25-2.21-5.28-3.65-8.29-3.65-8.29s-2.16,32.87-19.43,42.86A143.2,143.2,0,0,1,1160.23,301a278.26,278.26,0,0,1-6.26,31.08c-4.76-24.06-3.46-48.87-3.46-48.87s-5.25,33.17-12.39,56.35c-8.25-27.47-19.4-55-19.92-56.3.36,1.32,7.57,28.09,3.71,51A297.83,297.83,0,0,0,1109,301S1117.51,355.07,1100.29,380.19Zm87.93-14.55h.06a.56.56,0,0,0,0,.12A.59.59,0,0,0,1188.22,365.64Z"/>
    <path d="M1305.29,630.19s57.58-10.85,90-10.85c33.42,0,83.18,10.85,83.18,10.85-11-27-1.52-71.46-.72-73.17-.84,1.68-10.82,21.48-20.45,36.82A143.36,143.36,0,0,1,1446.6,551a277,277,0,0,1-6.27,31.08c-4.75-24.06-3.45-48.87-3.45-48.87s-5.25,33.17-12.39,56.35c-8.25-27.47-19.4-55-19.93-56.3.37,1.32,7.58,28.09,3.72,51-3.4-10.44-6.79-19.13-9.24-25-2.21-5.28-3.65-8.29-3.65-8.29s-2.16,32.87-19.43,42.86A143.2,143.2,0,0,1,1365.23,551a278.26,278.26,0,0,1-6.26,31.08c-4.76-24.06-3.46-48.87-3.46-48.87s-5.25,33.17-12.39,56.35c-8.25-27.47-19.4-55-19.92-56.3.36,1.32,7.57,28.09,3.71,51A297.83,297.83,0,0,0,1314,551S1322.51,605.07,1305.29,630.19Zm87.93-14.55h.06a.56.56,0,0,0,0,.12A.59.59,0,0,0,1393.22,615.64Z"/>
    <path d="M735.32,504.86S792.9,494,825.34,494c33.42,0,83.18,10.84,83.18,10.84-11-26.95-1.53-71.46-.72-73.17-.84,1.68-10.82,21.48-20.45,36.82a143.29,143.29,0,0,1-10.72-42.86,279.61,279.61,0,0,1-6.27,31.08c-4.76-24.05-3.45-48.86-3.45-48.86s-5.26,33.16-12.39,56.35c-8.25-27.48-19.41-55-19.93-56.3.36,1.32,7.57,28.09,3.71,51-3.39-10.45-6.79-19.13-9.24-25-2.2-5.28-3.65-8.29-3.65-8.29s-2.15,32.87-19.43,42.86a143.29,143.29,0,0,1-10.72-42.86A277,277,0,0,1,789,456.73c-4.76-24.05-3.45-48.86-3.45-48.86s-5.26,33.16-12.39,56.35c-8.25-27.48-19.41-55-19.93-56.3.36,1.32,7.57,28.09,3.71,51a296.52,296.52,0,0,0-12.88-33.3S752.54,479.74,735.32,504.86Zm87.93-14.55h0s0,.09,0,.12A.51.51,0,0,1,823.25,490.31Z"/>
    <path d="M1120.77,867.58c0-.76,0-1.53,0-2.3,0-.31,0-.62,0-.93l-.85,1-1.59,1.83c.88.14,1.69.28,2.45.39,0,.42,0,.83,0,1.25-20.54,0-16.08,2.52-29.19.55l-2-.31a.11.11,0,0,1,0-.08.35.35,0,0,0,0,.08,117.05,117.05,0,0,0-14.17.85c-4.08.53-5.59,1-10.26.58h0a41.12,41.12,0,0,1-9.51-.57c-.34-.87-.67-1.74-1-2.61-.13-.35-.26-.7-.4-1.05-.14.39-.27.8-.4,1.17-.27.75-.53,1.47-.79,2.13l2.59.36c.18.49.36,1,.56,1.44-20.38.47-15,2.77-28.82,1l-2.09-.27,0-.07s0,0,0,.08c-7.16.17-11.09.53-13.78.85-5.32.67-5.81,1-17.09-.13,8.54-28.19-20.73-84.72-23.47-83.85.63.6,17.7,15.61,34.75,44.23-6.82-36.25-29.59-73.78-32.14-75.85,2.63,2,33.61,37.24,52.16,81.44-1.74-38.87-2.39-97-2.3-97-.33.14,5.74,42.1,17.49,82.54,1-26.51,1.39-54.25,1.34-54.23-.42.09,6.89,34.72,19.27,73.5,3.61-11.3,8.07-24,12.47-34.91,2.17-5.43,4.31-10.46,6.19-14.73.34,1.37.68,2.77,1,4.22,1.89,7.94,3.71,17.13,5.16,27.21,8-38.43,1.68-84.52.25-88.27,1.55,3.52,16.07,52.65,16.79,98.34,13.65-38.27,34.77-88.55,34.84-88.43-.33-.24-10.57,39.54-14.63,78.46,11-23.18,21.57-46.05,21.52-46.09-.37-.36-6.58,32.77-8.78,66.73,18-21.3,44.28-40,46.62-41-3.55-.4-29.52,29.34-33.14,62.58C1129.35,867.17,1133.09,869.42,1120.77,867.58Z"/>
    <path d="M901.41,903.65A297.57,297.57,0,0,0,888.52,937c-3.85-22.94,3.36-49.71,3.72-51-.53,1.28-11.68,28.82-19.93,56.3-7.14-23.19-12.39-56.35-12.39-56.35s1.3,24.81-3.45,48.86a277,277,0,0,1-6.27-31.08,143.29,143.29,0,0,1-10.72,42.86c-17.28-10-19.44-42.86-19.44-42.86s-1.44,3-3.64,8.29c-2.46,5.88-5.85,14.56-9.24,25-3.86-22.94,3.35-49.71,3.71-51-.52,1.28-11.68,28.82-19.93,56.3-7.13-23.19-12.39-56.35-12.39-56.35s1.31,24.81-3.45,48.86a277,277,0,0,1-6.27-31.08,143.29,143.29,0,0,1-10.72,42.86c-9.63-15.34-19.61-35.14-20.45-36.82.81,1.71,10.26,46.22-.72,73.17,0,0,49.76-10.84,83.18-10.84,32.44,0,90,10.84,90,10.84C892.92,957.74,901.41,903.65,901.41,903.65Zm-79.22,64.79s0-.08,0-.12h.05C822.21,968.36,822.19,968.4,822.19,968.44Z"/>
    <g id="Græs-2" data-name="Græs">
      <path d="M93.8,453.17s57.58-10.84,90-10.84c33.42,0,83.18,10.84,83.18,10.84-11-26.94-1.52-71.46-.72-73.17-.84,1.68-10.82,21.48-20.45,36.82A143.29,143.29,0,0,1,235.11,374,277,277,0,0,1,228.84,405c-4.76-24.05-3.45-48.86-3.45-48.86s-5.26,33.17-12.39,56.35c-8.25-27.48-19.4-55-19.93-56.3.36,1.32,7.57,28.09,3.72,51-3.4-10.45-6.79-19.13-9.25-25-2.2-5.28-3.64-8.29-3.64-8.29s-2.16,32.87-19.44,42.86A143.29,143.29,0,0,1,153.74,374,277,277,0,0,1,147.47,405C142.72,381,144,356.18,144,356.18s-5.25,33.17-12.39,56.35c-8.25-27.48-19.4-55-19.93-56.3.37,1.32,7.58,28.09,3.72,51A297.57,297.57,0,0,0,102.53,374S111,428.05,93.8,453.17Zm87.93-14.55.05,0,0,.11A.69.69,0,0,0,181.73,438.62Z"/>
    </g>
  </g>
  <g id="Forgrund">
    <path class="cls-4" d="M-26.95,678c110.05-116.11,942-28.79,654.83,456.1-72,121.6-256,95.42-292,92.9s-480-51.06-474-56.9S-137,794.07-26.95,678Z"/>
    <g>
      <path d="M607.48,988.41c5.8,0,5.81-9,0-9s-5.81,9,0,9Z"/>
      <path d="M346.54,668.56q7.75,78.36,16,156.59a1306.75,1306.75,0,0,0-203.81,27A1268.64,1268.64,0,0,0-36.48,911.41q-31.69-61.35-63.41-122.64c2-42.65-12.42-86.64-28.52-119.18S-162,615.9-162.85,615c.6.51,11,8.75,27.21,24.07A715.65,715.65,0,0,1-74,705.79c-12-41.49-32.89-82.91-51.8-113.54s-35.55-50.79-37.14-52.66c3.83,2.82,80.72,75.53,141.65,164.33-13-89.8-38.91-219.08-38.82-219.17s7,23.13,19.86,56.33,31.46,76.5,53.73,118C9.66,628.77,4.65,598.21.59,575.18S-6.6,536.7-6.61,536.7s7.24,18.57,21.39,46.35A919.44,919.44,0,0,0,76.34,686.27c4.17-28-29.26-96.4-35.62-108.9-4.74-9.76,24,18.53,52.7,54.42-1.28-11.22-3.12-22.16-5.32-32.58A400.87,400.87,0,0,0,69,535.45,283.86,283.86,0,0,0,57,508.75c.34.45,4.22,5.43,10.61,14.4s15.3,22,25.62,38.51c1.72,2.78,3.47,5.61,5.27,8.56,9.84,16.15,20.74,35.16,31.92,56.54-5.36-46.68-19.43-95.28-33.19-132.31s-26.92-62.62-28.19-65c3.3,4.09,67.38,100.91,113.88,206.89,1.1-97.39-3.92-237.42-3.78-237.47s3.22,25.67,10.64,63.16,19,86.83,34.59,134.81c1.83-64.66-.7-131.49-.74-131.48s4.21,20.87,13.84,52.73a996.48,996.48,0,0,0,44.87,119.79c18.77-65.78,43.22-150.32,46.53-160.62-1.39,5.2-7.29,29.64-7.25,64.38S327.65,621.29,346.54,668.56Z"/>
    </g>
  </g>
</svg>
