<svg id="Figurer_copy" data-name="Figurer copy" xmlns="http://www.w3.org/2000/svg" width="400" height="500" viewBox="0 0 400 500">
  <defs>
    <style>
      .cls-1 {
        fill: #fff088;
      }

      .cls-2 {
        fill: #fff;
      }

      .cls-3 {
        fill: #f9a58c;
      }
    </style>
  </defs>
  <title>Baggrundsdesign_RT_02</title>
  <g>
    <path d="M22.1,251v1.5a17.9,17.9,0,0,0,12.4,17c6.21,28.24,17.86,46.92,35.61,57.06,9.72,5.56,21.08,8.34,34.25,8.34a116.29,116.29,0,0,0,21.34-2.12c-4.48,48.75-.35,94.31,11.59,135.31,39.45,1.44,78.76,2.32,118.2,1.78q7.08-5,14.12-10c7.19-5.09,14.64-10.18,22.09-15.47-37.54-62.32-43-148.36-7.87-243.1-42.86,2.1-83.66-3.73-125.27-4.94C143.89,234.66,134,272,128.71,307.81c-20.4,5-35.8,4.38-46.8-1.91-10.52-6-18-17.76-22.82-35.81a17.88,17.88,0,0,0,15-17.59V251a17.86,17.86,0,0,0-9.32-15.64C60.2,220,61,210.14,62.29,203.06a5.94,5.94,0,0,0-11.68-2.17,68.41,68.41,0,0,0-1.08,17.45c-4.61-6.5-6.77-11.31-7.15-17.18a5.94,5.94,0,0,0-11.85.75c.71,11.16,5.67,19.07,15.36,31.28h-6A17.87,17.87,0,0,0,22.1,251Z"/>
    <path class="cls-1" d="M121.24,289.26c22.77,7.21,20.8-43.82,86.15-21.54C247,281.21,228.93,310.05,252,319c26.38,10.21,22.24-19.21,34.16-20.79,9.61-1.28-6.23,29.26,13.37,34.16,20.8,5.2,14.91-24.47,22.28-39.36,5.25-10.6,14.42-8.77,17.08-15.6,9.82-25.12-8.63-33.06-22.28-52.72-12.8-18.46-20.78-49.18-14.85-56.45,23-28.22,23.77,26,40.1-3,11.17-19.8,3.72-69.81-37.34-100.06-30.59-22.55-95.21-20.54-116.39,5.75s-21.53,60.15-34.16,90.6-80.6,29.41-81.69,60.9C71.49,244,85.6,238.76,96,249.15,108.51,261.67,76.69,275.15,121.24,289.26Z"/>
    <path d="M299.4,163.43a3.92,3.92,0,0,0,2.87-1.25c2-2.05,2.59-6.13,2-8.9-.73-3.65,0-10.09,2.78-11.48a.37.37,0,0,0,.16-.5.36.36,0,0,0-.5-.16c-3.12,1.56-4,8.32-3.17,12.28.51,2.53-.05,6.4-1.84,8.24a3.18,3.18,0,0,1-2.93,1c-1.82-.3-1.74-3.62-1.65-7.14.1-4.06.21-8.66-2.72-9.92-2.7-1.15-4.89,1.82-7.22,5-2.5,3.39-5.08,6.89-8.37,5.43-3.92-1.74-2.3-7.21-.86-12,.88-3,1.65-5.58,1-7.07a.36.36,0,0,0-.48-.2.37.37,0,0,0-.21.48c.5,1.25-.26,3.84-1.08,6.57-1.44,4.87-3.24,10.93,1.28,12.94,3.83,1.7,6.72-2.21,9.27-5.67,2.14-2.91,4.17-5.65,6.33-4.72,2.47,1.06,2.36,5.39,2.27,9.21s-.19,7.48,2.27,7.89A4.37,4.37,0,0,0,299.4,163.43Z"/>
    <path d="M156.07,246.61a3.89,3.89,0,0,0,2.86-1.26c2-2,2.59-6.13,2-8.89-.73-3.66,0-10.1,2.77-11.48a.37.37,0,0,0,.17-.5.38.38,0,0,0-.5-.17c-3.12,1.57-4,8.32-3.17,12.29.51,2.53-.05,6.39-1.84,8.24a3.18,3.18,0,0,1-2.93,1c-1.82-.31-1.74-3.63-1.65-7.14.1-4.06.21-8.66-2.72-9.92-2.7-1.15-4.9,1.82-7.22,5-2.5,3.39-5.09,6.89-8.37,5.43-4.55-2-5.53-10.64-6.25-16.93a28.53,28.53,0,0,0-1-5.89.37.37,0,0,0-.48-.21.38.38,0,0,0-.21.48,29.27,29.27,0,0,1,1,5.7c.73,6.47,1.74,15.33,6.67,17.53,3.84,1.7,6.73-2.22,9.28-5.67,2.14-2.91,4.17-5.65,6.32-4.73,2.48,1.06,2.37,5.4,2.27,9.22s-.18,7.48,2.28,7.89A4.37,4.37,0,0,0,156.07,246.61Z"/>
    <path d="M300.69,250.65a4.84,4.84,0,0,0,1.91-.41c5.55-2.38,3.91-10.15,2.43-14.57s-9.39-13.14-9.73-13.5a.38.38,0,0,0-.52,0,.37.37,0,0,0,0,.53c.08.09,8.14,8.9,9.58,13.23,1.39,4.18,3,11.51-2,13.65-4.61,2-8.12-5.08-10.94-10.76l-.47-.94c-3.21-6.44-5.4-9.84-8.41-10.59a.37.37,0,0,0-.45.27.37.37,0,0,0,.27.45c2.72.68,4.88,4.11,7.93,10.2l.47.94C293.29,244.33,296.44,250.65,300.69,250.65Z"/>
    <path d="M169,164.5c4.26,0,7.4-6.32,10-11.53l.47-.94c3.05-6.09,5.21-9.52,7.93-10.2a.37.37,0,0,0-.18-.72c-3,.75-5.2,4.16-8.41,10.59l-.47.94c-2.82,5.68-6.34,12.74-10.94,10.77-5-2.15-3.41-9.48-2-13.65,1.44-4.34,9.49-13.15,9.57-13.24a.37.37,0,1,0-.54-.5c-.34.37-8.24,9-9.74,13.5s-3.11,12.19,2.44,14.57A4.83,4.83,0,0,0,169,164.5Z"/>
    <path class="cls-2" d="M313.59,279.23c8.54,0,15.23-10,15.23-22.65a4.09,4.09,0,0,0-8.17,0c0,8.29-3.73,14.48-7.06,14.48a4.09,4.09,0,0,0,0,8.17Z"/>
    <path class="cls-2" d="M256.41,312.65c10.62,0,18.94-6,18.94-13.74a4.09,4.09,0,0,0-8.17,0c0,2.63-4.61,5.57-10.77,5.57a4.09,4.09,0,1,0,0,8.17Z"/>
    <path class="cls-2" d="M96,241.36a4.09,4.09,0,1,0,0-8.17c-3,0-6.31-5.24-6.31-12.26a4.09,4.09,0,0,0-8.17,0C81.51,232.39,87.87,241.36,96,241.36Z"/>
    <path class="cls-2" d="M328.43,160.34a4.08,4.08,0,0,1,2.33-4.93c1.41-2.15,1.7-12.74-2.7-27.51a4.08,4.08,0,1,1,7.83-2.33,87.66,87.66,0,0,1,4,23c.09,8.34-2,13.22-6.35,14.51a4.3,4.3,0,0,1-1.17.17A4.09,4.09,0,0,1,328.43,160.34Zm2.22-4.79Z"/>
    <path class="cls-2" d="M298,327.5c9.21,0,16.71-8.49,16.71-18.93a4.09,4.09,0,1,0-8.17,0c0,5.93-3.83,10.76-8.54,10.76a4.09,4.09,0,1,0,0,8.17Z"/>
    <g>
      <path d="M234.07,202.9c.53-3.14-12.8-20.48-12.8-20.48l-13.52,11.09a8.16,8.16,0,0,0-.74.91,9.31,9.31,0,0,0-1.51,3.72c-.76,4.6,2,8.9,6.21,9.6,2.89.48,6.41-6.94,8.13-9.35.84,2.84,2.36,11.1,5.26,11.58C229.29,210.67,233.31,207.5,234.07,202.9Zm-13.63-6.3c0,.13.08.26.11.39l-.33-.06Z"/>
      <g>
        <g>
          <path class="cls-2" d="M240.94,197.16a13.27,13.27,0,0,0,1.87-.13,13,13,0,0,0,11-14.71c-6.22-43.13,5.95-74.09,16.72-75.65A13,13,0,1,0,266.82,81c-9.22,1.33-26.07,8-35.23,37.88-5.78,18.85-7,42.71-3.5,67.19A13,13,0,0,0,240.94,197.16Z"/>
          <path d="M240.84,189.63a6.55,6.55,0,0,0,1-.07,6.85,6.85,0,0,0,5.8-7.74c-6.2-43,5.68-77.18,20.22-81a6.84,6.84,0,0,0-3.48-13.23c-12,3.17-21.72,15.31-27.24,34.19-5.18,17.69-6.26,39.7-3,62A6.84,6.84,0,0,0,240.84,189.63Z"/>
          <rect class="cls-2" x="245.58" y="103.09" width="6.84" height="17.09" rx="3.42" transform="translate(408.83 332.83) rotate(-150)"/>
          <rect class="cls-2" x="239.28" y="122.95" width="6.84" height="7.61" rx="2.3" transform="translate(469.46 280.23) rotate(-173.49)"/>
        </g>
        <g>
          <path class="cls-2" d="M208.12,185.54a13.27,13.27,0,0,0,1.87-.13,13,13,0,0,0,11-14.72c-3-20.45-2-40.81,2.62-55.85,3.51-11.46,8.92-19,14.1-19.79A13,13,0,1,0,234,69.33c-9.22,1.33-26.07,8-35.23,37.89-5.79,18.85-7,42.71-3.5,67.18A13,13,0,0,0,208.12,185.54Z"/>
          <path d="M208,178a8.22,8.22,0,0,0,1-.07,6.84,6.84,0,0,0,5.79-7.75c-6.19-43,5.69-77.17,20.23-81A6.84,6.84,0,1,0,231.54,76c-12,3.17-21.72,15.31-27.24,34.19-5.18,17.68-6.26,39.7-3,62A6.84,6.84,0,0,0,208,178Z"/>
          <rect class="cls-2" x="212.76" y="91.47" width="6.84" height="17.09" rx="3.42" transform="translate(353.39 294.73) rotate(-150)"/>
          <rect class="cls-2" x="206.46" y="111.33" width="6.84" height="7.61" rx="2.3" transform="translate(405.35 253.33) rotate(-173.49)"/>
        </g>
        <path d="M311.26,79.91a4.32,4.32,0,1,0-2.65-8.2c-.81.26-21.55,11.81-21.55,11.81S310.16,80.26,311.26,79.91Z"/>
        <path d="M265.7,68.54c1.55-.84,2-3.08.92-5s-3.15-2.83-4.69-2c-.52.28-12.78,11.71-12.78,11.71S265,68.92,265.7,68.54Z"/>
        <path d="M312.08,57.38A5.51,5.51,0,0,0,304,49.85c-.69.74-15.56,25.24-15.56,25.24S311.13,58.39,312.08,57.38Z"/>
        <path d="M289.15,58.19A3.41,3.41,0,1,0,282.5,57c-.13.7-.09,20.73-.09,20.73S289,59.15,289.15,58.19Z"/>
        <path d="M262.52,45c1.06-2.44-.35-5.4-3.14-6.61s-5.91-.22-7,2.22c-.35.82-4.7,25.62-4.7,25.62S262,46.07,262.52,45Z"/>
        <path d="M245.21,46.6a2.89,2.89,0,1,0-5.77,0c0,.55,3.12,15.87,3.12,15.87S245.21,47.36,245.21,46.6Z"/>
      </g>
      <circle class="cls-3" cx="263.84" cy="212.02" r="13.74"/>
      <circle class="cls-3" cx="182.89" cy="203.85" r="12.25"/>
      <g>
        <path d="M223.84,256.45a26.72,26.72,0,0,0,6.53-.8c9.46-2.41,16.5-9.77,18.84-19.71a14.51,14.51,0,0,0-27.32-9.37,27.08,27.08,0,0,1-6.21-5.43A14.51,14.51,0,1,0,194,240.47C205.82,253.68,216.75,256.45,223.84,256.45Z"/>
        <path class="cls-3" d="M204.85,221.73a9.08,9.08,0,0,1,6.77,3c5.74,6.43,10.07,8.12,12.21,8.12a2.6,2.6,0,0,0,.73-.09c1.08-.27,1.53-1.53,1.7-2.25a9.06,9.06,0,0,1,8.82-7,8.74,8.74,0,0,1,2.08.24,9.06,9.06,0,0,1,6.75,10.9c-1.86,7.93-7.42,13.79-14.88,15.68a20.86,20.86,0,0,1-5.19.64c-6.35,0-15.51-2.69-25.75-14.17a9.07,9.07,0,0,1,6.76-15.11m0-10.88A19.95,19.95,0,0,0,190,244.09c13.13,14.72,25.67,17.8,33.87,17.8a31.66,31.66,0,0,0,7.87-1c11.46-2.91,20-11.78,22.8-23.73a20,20,0,0,0-14.86-24,20.16,20.16,0,0,0-4.57-.53,19.89,19.89,0,0,0-14.28,6c-.34-.35-.69-.73-1.06-1.15a20,20,0,0,0-14.89-6.66Z"/>
      </g>
      <rect class="cls-2" x="231.53" y="224.27" width="2.23" height="8.17" rx="1.11" transform="translate(522.13 378.26) rotate(162.91)"/>
      <rect class="cls-2" x="227.07" y="227.25" width="2.23" height="8.17" rx="1.11" transform="translate(514.28 385.38) rotate(162.91)"/>
      <rect class="cls-2" x="212.96" y="227.25" width="2.23" height="8.17" rx="1.11" transform="translate(248.75 544.6) rotate(-143.53)"/>
      <rect class="cls-2" x="207.76" y="224.27" width="2.23" height="8.17" rx="1.11" transform="translate(241.14 536.15) rotate(-143.53)"/>
    </g>
  </g>
</svg>
