<?xml version="1.0" encoding="UTF-8"?><svg id="Layer_1" xmlns="http://www.w3.org/2000/svg" width="600" height="200" viewBox="0 0 600 200"><defs><style>.cls-1{stroke:#ceb9b4;stroke-width:3px;}.cls-1,.cls-2{fill:none;stroke-miterlimit:10;}.cls-3{fill:#ceb9b4;}.cls-2{stroke:#c7b299;}</style></defs><g id="Layer_8"><line class="cls-1" x1="7.85" y1="27.55" x2="538.35" y2="27.55"/><g><path class="cls-3" d="M23.32,145.45c-1.85-1.9-2.78-4.45-2.78-7.65V56.95c.8-.2,2.07-.45,3.83-.75,1.75-.3,3.47-.45,5.17-.45,3.6,0,6.25,.65,7.95,1.95,1.7,1.3,2.55,3.7,2.55,7.2v67.35h38.55c.5,.8,1,1.88,1.5,3.22,.5,1.35,.75,2.83,.75,4.43,0,2.7-.63,4.78-1.88,6.22-1.25,1.45-2.98,2.17-5.18,2.17H30.9c-3.2,0-5.73-.95-7.57-2.85Z"/><path class="cls-3" d="M93.75,55.75c0-2.9,1.02-5.37,3.07-7.42,2.05-2.05,4.67-3.08,7.88-3.08s5.8,1.03,7.8,3.08c2,2.05,3,4.53,3,7.42s-1,5.53-3,7.58c-2,2.05-4.6,3.07-7.8,3.07s-5.83-1.02-7.88-3.07c-2.05-2.05-3.07-4.58-3.07-7.58Zm1.5,21.75c.8-.2,1.97-.45,3.52-.75,1.55-.3,3.23-.45,5.02-.45,3.6,0,6.23,.65,7.88,1.95,1.65,1.3,2.48,3.6,2.48,6.9v62.7c-.8,.2-1.98,.45-3.52,.75-1.55,.3-3.23,.45-5.03,.45-3.6,0-6.22-.65-7.88-1.95-1.65-1.3-2.47-3.6-2.47-6.9v-62.7Z"/><path class="cls-3" d="M188.85,75.4c2.6,0,4.77,.6,6.52,1.8,1.75,1.2,2.62,3.2,2.62,6,0,1.3-.38,3.4-1.12,6.3-.75,2.9-1.75,6.25-3,10.05-1.25,3.8-2.68,7.9-4.27,12.3-1.6,4.4-3.25,8.73-4.95,12.98-1.7,4.25-3.4,8.28-5.1,12.08-1.7,3.8-3.25,7-4.65,9.6-1,.8-2.5,1.45-4.5,1.95-2,.5-4.2,.75-6.6,.75-2.9,0-5.38-.38-7.43-1.12-2.05-.75-3.52-1.97-4.42-3.67-.9-1.7-2-4.05-3.3-7.05-1.3-3-2.7-6.4-4.2-10.2-1.5-3.8-3.05-7.82-4.65-12.08-1.6-4.25-3.13-8.48-4.58-12.67-1.45-4.2-2.8-8.25-4.05-12.15-1.25-3.9-2.28-7.4-3.08-10.5,1-1.2,2.42-2.22,4.27-3.08,1.85-.85,3.77-1.27,5.77-1.27,2.6,0,4.73,.6,6.38,1.8,1.65,1.2,2.93,3.35,3.83,6.45l7.5,24.75c.6,2,1.27,4.12,2.02,6.38s1.47,4.45,2.18,6.6c.7,2.15,1.37,4.2,2.02,6.15,.65,1.95,1.17,3.58,1.57,4.88h.6c2.9-8.8,5.75-17.87,8.55-27.23,2.8-9.35,5.25-18.57,7.35-27.67,1.2-.7,2.57-1.22,4.12-1.58,1.55-.35,3.08-.52,4.58-.52Z"/><path class="cls-3" d="M207.9,138.7c0-3.3,1.02-6.08,3.08-8.33,2.05-2.25,4.82-3.38,8.32-3.38s6.3,1.12,8.4,3.38c2.1,2.25,3.15,5.03,3.15,8.33s-1.05,5.92-3.15,8.17c-2.1,2.25-4.9,3.38-8.4,3.38s-6.28-1.12-8.32-3.38c-2.05-2.25-3.08-4.97-3.08-8.17Zm.45-49.8c0-3.2,1.02-5.92,3.07-8.17,2.05-2.25,4.82-3.38,8.33-3.38s6.3,1.12,8.4,3.38,3.15,4.98,3.15,8.17-1.05,6.08-3.15,8.33-4.9,3.38-8.4,3.38-6.28-1.12-8.33-3.38c-2.05-2.25-3.07-5.02-3.07-8.33Z"/></g><path class="cls-2" d="M348.35,101.25c0,2.03-.28,4.04-.8,6,0,.1-.1,.2-.1,.3-.31,.99-.67,1.96-1.1,2.9h0c-9.3,21.8-38.6,41.6-38.6,41.6,0,0-28.5-16.9-38.9-40.8h0c-1.61-3.08-2.44-6.52-2.4-10-.02-11.91,9.62-21.58,21.54-21.6,8.29-.01,15.86,4.73,19.46,12.2,5.14-10.71,17.99-15.22,28.7-10.08,7.48,3.59,12.23,11.18,12.2,19.48Z"/><path class="cls-2" d="M439.35,101.25c0,2.03-.28,4.04-.8,6,0,.1-.1,.2-.1,.3-.31,.99-.67,1.96-1.1,2.9h0c-9.3,21.8-38.6,41.6-38.6,41.6,0,0-28.5-16.9-38.9-40.8h0c-1.61-3.08-2.44-6.52-2.4-10-.02-11.91,9.62-21.58,21.54-21.6,8.29-.01,15.86,4.73,19.46,12.2,5.14-10.71,17.99-15.22,28.7-10.08,7.48,3.59,12.23,11.18,12.2,19.48Z"/><path class="cls-2" d="M530.35,101.25c0,2.03-.28,4.04-.8,6,0,.1-.1,.2-.1,.3-.31,.99-.67,1.96-1.1,2.9h0c-9.3,21.8-38.6,41.6-38.6,41.6,0,0-28.5-16.9-38.9-40.8h0c-1.61-3.08-2.44-6.52-2.4-10-.02-11.91,9.62-21.58,21.54-21.6,8.29-.01,15.86,4.73,19.46,12.2,5.14-10.71,17.99-15.22,28.7-10.08,7.48,3.59,12.23,11.18,12.2,19.48h0Z"/></g></svg>