<svg xmlns="http://www.w3.org/2000/svg" width="400" height="150" viewBox="0 0 400 150"><defs><style>.cls-1{fill:#675c5a;}.cls-2{isolation:isolate;}.cls-3{fill:#ceb9b4;}</style></defs><g id="Layer_7" data-name="Layer 7"><g id="Svampe_i_kurven" data-name="Svampe i kurven"><g id="Svampe_i_kurven-2" data-name="Svampe i kurven"><g id="Kurv"><path class="cls-1" d="M118.2,74.92c-.1-18.9-2.2-42-17-56.3-9.7-9.4-23.6-13.9-41.4-13.4-45,1.3-48.1,44.1-48.3,69.2a14.08,14.08,0,0,0-6.7,11.9l6.3,30.9a14.19,14.19,0,0,0,14,14.1s6,3.9,39.7,3.9,40.4-3.8,40.4-3.8a14.19,14.19,0,0,0,14.1-14l4.9-30.9A14.3,14.3,0,0,0,118.2,74.92ZM62,78.32c-22.6,0-35.6-3.4-40.7-5,.2-13.4,1.4-26.7,6.1-37.4,5.9-13.7,16.3-20.3,32.7-20.8,15.3-.4,26.5,3,34.3,10.6,6.3,6.1,13.5,17,14,47.1A213.53,213.53,0,0,1,62,78.32Z"/></g></g><g class="cls-2"><path class="cls-3" d="M155,67.54a7.51,7.51,0,0,1-3.53-6.83,6.79,6.79,0,0,1,.84-3.71,2.77,2.77,0,0,1,2.47-1.28,3,3,0,0,1,1.94.62,2,2,0,0,1,.76,1.59,7.89,7.89,0,0,1-.14,1.55,5.48,5.48,0,0,1-.06.62,5.45,5.45,0,0,0-.07.92,3.13,3.13,0,0,0,2,3,13.19,13.19,0,0,0,5.63,1,10.92,10.92,0,0,0,5.88-1.34,4.25,4.25,0,0,0,2.12-3.78,3.76,3.76,0,0,0-1-2.58,8.24,8.24,0,0,0-2.43-1.82c-1-.48-2.34-1.08-4.11-1.78a47.91,47.91,0,0,1-5.55-2.52,11.56,11.56,0,0,1-3.66-3.25,8.3,8.3,0,0,1-1.53-5.1,9.79,9.79,0,0,1,1.7-5.66,11,11,0,0,1,4.91-3.84,19.06,19.06,0,0,1,7.53-1.37,17.8,17.8,0,0,1,5.92.95,9.62,9.62,0,0,1,4.31,2.89,7.27,7.27,0,0,1,1.61,4.78,8.35,8.35,0,0,1-.84,4.19,2.71,2.71,0,0,1-2.47,1.42,2.77,2.77,0,0,1-1.93-.71,2.21,2.21,0,0,1-.77-1.68,9.34,9.34,0,0,1,.13-1.55c.09-.88.14-1.44.14-1.67A3.08,3.08,0,0,0,173,37.7a9.44,9.44,0,0,0-4.51-1,10.16,10.16,0,0,0-5.81,1.39,4.49,4.49,0,0,0-2,3.91,4.24,4.24,0,0,0,1,2.87,8.63,8.63,0,0,0,2.58,2c1,.53,2.48,1.16,4.33,1.9A53.56,53.56,0,0,1,174,51.26a10.83,10.83,0,0,1,3.47,3A7.55,7.55,0,0,1,178.91,59a9.21,9.21,0,0,1-4,8q-3.94,2.82-10.58,2.81C160.45,69.77,157.32,69,155,67.54Z"/><path class="cls-3" d="M204.75,55.94a1.22,1.22,0,0,1,1,.44,1.87,1.87,0,0,1,.36,1.2,3.78,3.78,0,0,1-.53,2.14A3.11,3.11,0,0,1,204,60.85a14,14,0,0,1-4.33.66A12.52,12.52,0,0,1,196,61c-.85,1.38-1.8,2.81-2.83,4.28a15,15,0,0,1-3,3.45,4.86,4.86,0,0,1-2.92.93,3.33,3.33,0,0,1-2.85-1.42,8.91,8.91,0,0,1-1.3-4.46c-.36-4.12-.53-7.73-.53-10.82V51.39a2.51,2.51,0,0,1,.79-2,3.71,3.71,0,0,1,2.26-.57,2.5,2.5,0,0,1,1.7.5,2.27,2.27,0,0,1,.55,1.7q0,5.09.62,13.21c1.76-2.62,3.09-4.71,4-6.27a6.57,6.57,0,0,1-.66-3,6.79,6.79,0,0,1,.66-2.91,6.29,6.29,0,0,1,1.81-2.3,4.18,4.18,0,0,1,2.61-.88,2.65,2.65,0,0,1,2.08.9,3.88,3.88,0,0,1,.79,2.63,12,12,0,0,1-1.06,4.55,31.83,31.83,0,0,0,4.46-.66l1.2-.22A1.41,1.41,0,0,1,204.75,55.94Z"/><path class="cls-3" d="M203.33,67.65a7.94,7.94,0,0,1-1.63-5.21,14.38,14.38,0,0,1,1.63-6.7,13.93,13.93,0,0,1,4.36-5.08,9.81,9.81,0,0,1,5.76-1.92,1.71,1.71,0,0,1,1.3.38,3.22,3.22,0,0,1,.56,1.34,10.94,10.94,0,0,1,1.94-.17c1.44,0,2.16.51,2.16,1.54a33.09,33.09,0,0,1-.66,4.42,42.37,42.37,0,0,0-1,7.07,1.6,1.6,0,0,0,.33,1.06,1.06,1.06,0,0,0,.86.4,3.34,3.34,0,0,0,2-1.08,39.2,39.2,0,0,0,3.23-3.52,1.54,1.54,0,0,1,1.19-.61,1,1,0,0,1,.9.53,2.7,2.7,0,0,1,.34,1.45,4.12,4.12,0,0,1-.84,2.74,22.24,22.24,0,0,1-3.85,3.8A6.54,6.54,0,0,1,218,69.64a4.09,4.09,0,0,1-2.67-1,6.14,6.14,0,0,1-1.84-2.71q-2.3,3.7-5.78,3.71A5.37,5.37,0,0,1,203.33,67.65ZM211.15,64A7.38,7.38,0,0,0,212.43,61l1.64-8.13a5.32,5.32,0,0,0-3.42,1.39,9.4,9.4,0,0,0-2.5,3.56,11.92,11.92,0,0,0-.93,4.68,3.17,3.17,0,0,0,.55,2,1.9,1.9,0,0,0,1.53.67A2.43,2.43,0,0,0,211.15,64Z"/><path class="cls-3" d="M223.81,67.87a16.8,16.8,0,0,1-.69-5.65,36,36,0,0,1,1.64-10.92,3.28,3.28,0,0,1,1.3-1.87,4.59,4.59,0,0,1,2.54-.6,2.48,2.48,0,0,1,1.24.22.91.91,0,0,1,.35.84,16.93,16.93,0,0,1-.66,3.18c-.29,1.18-.53,2.2-.71,3.07s-.32,2-.44,3.25a24.17,24.17,0,0,1,2.85-5.83,13.58,13.58,0,0,1,3.4-3.56,6,6,0,0,1,3.29-1.17,2.86,2.86,0,0,1,2.19.71,3.12,3.12,0,0,1,.64,2.16,28.11,28.11,0,0,1-.84,5.13c-.23,1.06-.4,1.85-.48,2.38a21.83,21.83,0,0,1,4.9-7.91c1.8-1.65,3.47-2.47,5-2.47a2.54,2.54,0,0,1,2.87,2.87,36.18,36.18,0,0,1-1,6.23,30.67,30.67,0,0,0-.84,5.08c0,1.18.42,1.77,1.28,1.77a3.48,3.48,0,0,0,2.1-1.08,36.23,36.23,0,0,0,3.24-3.52,1.56,1.56,0,0,1,1.2-.61,1,1,0,0,1,.9.53,2.71,2.71,0,0,1,.33,1.45,4.06,4.06,0,0,1-.84,2.74,19.86,19.86,0,0,1-4.08,3.85,8.6,8.6,0,0,1-5,1.5,4.27,4.27,0,0,1-3.4-1.31A5.49,5.49,0,0,1,245,64.56a26.69,26.69,0,0,1,.62-4.42,23.16,23.16,0,0,0,.57-3.84c0-.47-.16-.71-.49-.71s-.92.49-1.63,1.48A21.83,21.83,0,0,0,242,61a31.42,31.42,0,0,0-1.72,5.12,6.74,6.74,0,0,1-1.13,2.83,2.66,2.66,0,0,1-2.06.71,2.34,2.34,0,0,1-2.18-1.39,7.18,7.18,0,0,1-.73-3.38,39,39,0,0,1,.44-4.86A36.86,36.86,0,0,0,235,56.3c0-.47-.16-.71-.48-.71s-1,.53-1.68,1.59a23.36,23.36,0,0,0-2,4.06,39.19,39.19,0,0,0-1.52,4.86,6.8,6.8,0,0,1-1.13,2.81,2.54,2.54,0,0,1-2,.73A2.41,2.41,0,0,1,223.81,67.87Z"/><path class="cls-3" d="M280.4,60.1a2.71,2.71,0,0,1,.33,1.45,4.06,4.06,0,0,1-.84,2.74,20.11,20.11,0,0,1-4.08,3.85,8.6,8.6,0,0,1-5,1.5A4.78,4.78,0,0,1,267,68a9.82,9.82,0,0,1-5.26,1.68,53.55,53.55,0,0,1-2.61,14.24q-2,5.73-6,5.73a4,4,0,0,1-3.54-1.73,8.58,8.58,0,0,1-1.14-4.77,31.71,31.71,0,0,1,2-10.09,69,69,0,0,1,6.15-12.7c0-4.3,0-7.29-.09-9a2.26,2.26,0,0,1,1-2,4.48,4.48,0,0,1,2.65-.75,2,2,0,0,1,1.35.37,2.1,2.1,0,0,1,.46,1.48c0,.74,0,1.28,0,1.64a10,10,0,0,1,2.78-2.54,5.81,5.81,0,0,1,2.92-.78,4.91,4.91,0,0,1,4,2,8.21,8.21,0,0,1,1.57,5.21,14,14,0,0,1-.75,4.55,14.73,14.73,0,0,1-2.08,4,5.73,5.73,0,0,0,1.55.27,4.42,4.42,0,0,0,2.78-1.06,27,27,0,0,0,3.4-3.54,1.55,1.55,0,0,1,1.19-.61A1,1,0,0,1,280.4,60.1Zm-24.85,20a108.67,108.67,0,0,0,1-12.93,65.51,65.51,0,0,0-3,8.44,26.59,26.59,0,0,0-1.1,6.76,5.64,5.64,0,0,0,.33,2.17c.22.5.48.75.77.75Q254.76,85.28,255.55,80.09Zm9.39-16.44a10.2,10.2,0,0,0,2.14-3.44,11.86,11.86,0,0,0,.8-4.31,3.28,3.28,0,0,0-.53-2,1.71,1.71,0,0,0-1.42-.69q-1.59,0-3.84,3.36c0,1.3,0,3.2,0,5.7,0,1.35,0,2.4,0,3.14A5.9,5.9,0,0,0,264.94,63.65Z"/><path class="cls-3" d="M297.76,60.1a2.71,2.71,0,0,1,.33,1.45,4.06,4.06,0,0,1-.84,2.74A16.16,16.16,0,0,1,292.64,68a12.82,12.82,0,0,1-6.39,1.68,9.84,9.84,0,0,1-7.2-2.52,9.22,9.22,0,0,1-2.56-6.89,12.85,12.85,0,0,1,1.28-5.68,10.44,10.44,0,0,1,3.56-4.17,8.93,8.93,0,0,1,5.14-1.55,5.62,5.62,0,0,1,4.11,1.52,5.56,5.56,0,0,1,1.55,4.13,7.14,7.14,0,0,1-2.19,5.24c-1.46,1.46-3.92,2.61-7.4,3.47q1.11,2,4.2,2a9.68,9.68,0,0,0,4.53-1.39,15,15,0,0,0,4.39-3.65,1.55,1.55,0,0,1,1.19-.61A1,1,0,0,1,297.76,60.1Zm-14.8-5a8.87,8.87,0,0,0-1.13,4.59v.09a10.05,10.05,0,0,0,4.11-1.85A3.66,3.66,0,0,0,287.45,55a1.93,1.93,0,0,0-.47-1.35,1.62,1.62,0,0,0-1.26-.51A3.23,3.23,0,0,0,283,55.06Z"/></g><g class="cls-2"><path class="cls-3" d="M153.3,120.61a10,10,0,0,1-1.3-5.39,32.94,32.94,0,0,1,.51-5.11,48.36,48.36,0,0,1,1.3-5.81,3.77,3.77,0,0,1,1.06-1.94,3.42,3.42,0,0,1,2.12-.53c1.5,0,2.26.5,2.26,1.5a34.57,34.57,0,0,1-.84,5.13,37.84,37.84,0,0,0-1.06,6.58,4.6,4.6,0,0,0,.35,2,1.23,1.23,0,0,0,1.19.71,3.31,3.31,0,0,0,2-1.11,37.24,37.24,0,0,0,3.18-3.49,1.54,1.54,0,0,1,1.19-.61,1,1,0,0,1,.91.53,2.71,2.71,0,0,1,.33,1.45,4.06,4.06,0,0,1-.84,2.74q-4.36,5.35-8.17,5.35A4.6,4.6,0,0,1,153.3,120.61Zm1.75-22.56a3.1,3.1,0,0,1-.93-2.4,3.26,3.26,0,0,1,1.22-2.59,4.5,4.5,0,0,1,3-1,4.16,4.16,0,0,1,2.65.8,2.69,2.69,0,0,1,1,2.25,3.58,3.58,0,0,1-1.15,2.81,4.38,4.38,0,0,1-3,1A3.94,3.94,0,0,1,155.05,98.05Z"/><path class="cls-3" d="M201.06,113.1a2.71,2.71,0,0,1,.33,1.45,4.06,4.06,0,0,1-.84,2.74,21.4,21.4,0,0,1-4,3.89,8,8,0,0,1-4.81,1.46,7.67,7.67,0,0,1-5.48-2,6.7,6.7,0,0,1-2.08-5.16,2.56,2.56,0,0,1,1.77-2.48,7.84,7.84,0,0,0,2.78-1.79,3.36,3.36,0,0,0,.84-2.32,1.84,1.84,0,0,0-.33-1.19,1,1,0,0,0-.82-.4c-.79,0-1.67.58-2.63,1.72a20,20,0,0,0-2.67,4.45,32.08,32.08,0,0,0-1.94,5.58,6.94,6.94,0,0,1-1.13,2.81,2.57,2.57,0,0,1-2,.73,2.21,2.21,0,0,1-2-1,7.2,7.2,0,0,1-.86-3.07q-.22-2.07-.22-6.09a76.2,76.2,0,0,1,1.39-14.18,42.84,42.84,0,0,1,4.11-12.4q2.72-5,6.51-5a3.88,3.88,0,0,1,3.3,1.75,7.53,7.53,0,0,1,1.25,4.52,19.34,19.34,0,0,1-2.6,9.26,60.4,60.4,0,0,1-8.48,11.2c-.09,1.53-.14,3.11-.14,4.72q2.13-5.52,4.86-8t5.13-2.5a4.54,4.54,0,0,1,3.55,1.5,5.35,5.35,0,0,1,1.35,3.71,8.35,8.35,0,0,1-1.24,4.46,10.46,10.46,0,0,1-4.24,3.63,2.94,2.94,0,0,0,1.09,1.92,3.39,3.39,0,0,0,2.18.73,4.13,4.13,0,0,0,2.65-1.06,28.72,28.72,0,0,0,3.36-3.54,1.54,1.54,0,0,1,1.19-.61A1,1,0,0,1,201.06,113.1ZM184.25,87.54a39,39,0,0,0-1.88,6.14,82.16,82.16,0,0,0-1.48,8.42,31.48,31.48,0,0,0,4.53-7,16.44,16.44,0,0,0,1.79-6.89A5.81,5.81,0,0,0,186.9,86c-.21-.51-.5-.76-.88-.76Q185.23,85.26,184.25,87.54Z"/><path class="cls-3" d="M199.07,120.8a7.87,7.87,0,0,1-1.26-4.57,35.33,35.33,0,0,1,1.9-11.93,3.72,3.72,0,0,1,1.24-1.9,4.38,4.38,0,0,1,2.52-.57,2.14,2.14,0,0,1,1.34.31,1.14,1.14,0,0,1,.38.93,17.63,17.63,0,0,1-.49,2.38c-.29,1.09-.53,2.08-.7,3a42,42,0,0,0-.89,6.19,2.83,2.83,0,0,0,.22,1.3.77.77,0,0,0,.71.38c.44,0,1-.45,1.66-1.33a19.37,19.37,0,0,0,2.12-4A52.62,52.62,0,0,0,210,104.3a3.52,3.52,0,0,1,1.09-1.9,3.48,3.48,0,0,1,2.18-.57,3,3,0,0,1,1.42.24,1,1,0,0,1,.39.91,41.85,41.85,0,0,1-1.1,6,50,50,0,0,0-1.24,7,2.07,2.07,0,0,0,.36,1.3,1.1,1.1,0,0,0,.92.47,3.46,3.46,0,0,0,2.1-1.08,37.37,37.37,0,0,0,3.25-3.52,1.54,1.54,0,0,1,1.19-.61,1,1,0,0,1,.91.53,2.71,2.71,0,0,1,.33,1.45,4.06,4.06,0,0,1-.84,2.74,19.9,19.9,0,0,1-4.09,3.85,8.55,8.55,0,0,1-5,1.5,3.38,3.38,0,0,1-3.11-1.64,8.89,8.89,0,0,1-1-4.59,10.52,10.52,0,0,1-2.26,4.62,4.39,4.39,0,0,1-3.22,1.61A3.79,3.79,0,0,1,199.07,120.8Z"/><path class="cls-3" d="M219,120.87a17.12,17.12,0,0,1-.68-5.65,36,36,0,0,1,1.63-10.92,3.29,3.29,0,0,1,1.31-1.87,4.56,4.56,0,0,1,2.54-.6,2.41,2.41,0,0,1,1.23.22.91.91,0,0,1,.36.84,16.43,16.43,0,0,1-.67,3.18c-.29,1.18-.52,2.21-.7,3.09a29.37,29.37,0,0,0-.44,3.27,25,25,0,0,1,3.27-6.18,12.64,12.64,0,0,1,3.55-3.4,6.44,6.44,0,0,1,3.2-1,2.54,2.54,0,0,1,2.88,2.87,23.49,23.49,0,0,1-.4,2.78,16.16,16.16,0,0,0-.36,2.21c0,1,.37,1.55,1.11,1.55s1.88-.65,3.18-1.94a1.66,1.66,0,0,1,1.19-.58,1,1,0,0,1,.91.51,2.45,2.45,0,0,1,.33,1.35,3.55,3.55,0,0,1-.88,2.56,12.28,12.28,0,0,1-2.9,2.19,7.22,7.22,0,0,1-3.51.9,4.91,4.91,0,0,1-3.56-1.19,4.32,4.32,0,0,1-1.21-3.23,6.56,6.56,0,0,1,.13-1.32c.06-.59.09-1,.09-1.19,0-.47-.16-.71-.49-.71s-1,.49-1.74,1.48a20.58,20.58,0,0,0-2.14,3.91,32.43,32.43,0,0,0-1.73,5.12,7,7,0,0,1-1.12,2.81,2.57,2.57,0,0,1-2,.73A2.42,2.42,0,0,1,219,120.87Z"/><path class="cls-3" d="M262.4,108.94a1.22,1.22,0,0,1,1,.44,1.87,1.87,0,0,1,.36,1.2,3.78,3.78,0,0,1-.53,2.14,3.11,3.11,0,0,1-1.59,1.13,14,14,0,0,1-4.33.66,12.52,12.52,0,0,1-3.67-.53q-1.29,2.07-2.83,4.28a15,15,0,0,1-3,3.45,4.81,4.81,0,0,1-2.91.93,3.33,3.33,0,0,1-2.85-1.42,8.91,8.91,0,0,1-1.3-4.46c-.36-4.12-.53-7.73-.53-10.82v-1.55a2.48,2.48,0,0,1,.79-2,3.69,3.69,0,0,1,2.25-.57,2.47,2.47,0,0,1,1.7.5,2.23,2.23,0,0,1,.56,1.7q0,5.08.62,13.21c1.76-2.62,3.09-4.71,4-6.27a6.57,6.57,0,0,1-.66-3.05,6.79,6.79,0,0,1,.66-2.91,6.19,6.19,0,0,1,1.81-2.3,4.18,4.18,0,0,1,2.61-.88,2.67,2.67,0,0,1,2.08.9,3.88,3.88,0,0,1,.79,2.63,12,12,0,0,1-1.06,4.55,31.83,31.83,0,0,0,4.46-.66L262,109A1.54,1.54,0,0,1,262.4,108.94Z"/><path class="cls-3" d="M280.53,113.1a2.71,2.71,0,0,1,.33,1.45,4.06,4.06,0,0,1-.84,2.74,16.16,16.16,0,0,1-4.61,3.67,12.82,12.82,0,0,1-6.39,1.68,9.84,9.84,0,0,1-7.2-2.52,9.22,9.22,0,0,1-2.56-6.89,12.85,12.85,0,0,1,1.28-5.68,10.44,10.44,0,0,1,3.56-4.17,8.93,8.93,0,0,1,5.14-1.55,5.62,5.62,0,0,1,4.11,1.52,5.56,5.56,0,0,1,1.55,4.13,7.14,7.14,0,0,1-2.19,5.24c-1.46,1.46-3.92,2.61-7.4,3.47q1.11,2,4.2,2a9.68,9.68,0,0,0,4.53-1.39,14.82,14.82,0,0,0,4.39-3.65,1.55,1.55,0,0,1,1.19-.61A1,1,0,0,1,280.53,113.1Zm-14.8-5a8.87,8.87,0,0,0-1.12,4.59v.09a10.07,10.07,0,0,0,4.1-1.85,3.66,3.66,0,0,0,1.51-2.87,1.93,1.93,0,0,0-.47-1.35,1.62,1.62,0,0,0-1.26-.51A3.23,3.23,0,0,0,265.73,108.06Z"/><path class="cls-3" d="M278.06,120.87a16.8,16.8,0,0,1-.69-5.65A36,36,0,0,1,279,104.3a3.28,3.28,0,0,1,1.3-1.87,4.56,4.56,0,0,1,2.54-.6,2.48,2.48,0,0,1,1.24.22.93.93,0,0,1,.35.84,16.93,16.93,0,0,1-.66,3.18c-.3,1.18-.53,2.21-.71,3.09a31.94,31.94,0,0,0-.44,3.27,25,25,0,0,1,3.27-6.18,12.77,12.77,0,0,1,3.55-3.4,6.5,6.5,0,0,1,3.21-1,2.54,2.54,0,0,1,2.87,2.87,36.18,36.18,0,0,1-1,6.23,30.67,30.67,0,0,0-.84,5.08c0,1.18.42,1.77,1.28,1.77a3.46,3.46,0,0,0,2.1-1.08,36.23,36.23,0,0,0,3.24-3.52,1.56,1.56,0,0,1,1.2-.61,1,1,0,0,1,.9.53,2.71,2.71,0,0,1,.33,1.45,4.06,4.06,0,0,1-.84,2.74,19.61,19.61,0,0,1-4.08,3.85,8.6,8.6,0,0,1-5,1.5,4.29,4.29,0,0,1-3.4-1.31,5.49,5.49,0,0,1-1.15-3.77,26.69,26.69,0,0,1,.62-4.42,23.16,23.16,0,0,0,.57-3.84c0-.47-.16-.71-.49-.71s-.92.49-1.61,1.48A23.91,23.91,0,0,0,285.3,114a30.54,30.54,0,0,0-1.74,5.12,6.94,6.94,0,0,1-1.13,2.81,2.57,2.57,0,0,1-2,.73A2.4,2.4,0,0,1,278.06,120.87Z"/></g></g></g></svg>