<svg id="Lag_1" data-name="Lag 1" xmlns="http://www.w3.org/2000/svg" width="118.03" height="389.22" viewBox="0 0 118.03 389.22">
    <defs>
        <style>
            .cls-1 {
                fill: rgba(130, 252, 252, 0.25);
            }

            .cls-2 {
                fill: #699;
            }

            .cls-3 {
                fill: none;
            }

        </style>
    </defs>
    <path class="cls-1" d="M108.57,117.21V367.36c0,6.85-22,12.4-49,12.4s-49-5.55-49-12.4V115.62c0-23.83,16.27-43.76,38.06-48.86V10.49H70.5V66.76c21.8,5.1,38.07,25,38.07,48.86Z" transform="translate(-0.5 -0.49)" />
    <path class="cls-2" d="M118.5,117.21V367.36c0,3.06-1.14,8.87-8.71,13.41a50.26,50.26,0,0,1-13.19,5c-10,2.54-23.21,3.94-37.11,3.94s-27.12-1.4-37.12-3.94a50.2,50.2,0,0,1-13.18-5C1.63,376.23.5,370.42.5,367.36V115.62A61,61,0,0,1,13.5,78,59.3,59.3,0,0,1,38.56,59.42V10.49a10,10,0,0,1,10-10H70.5a10,10,0,0,1,10,10V59.42A59.41,59.41,0,0,1,105.5,78a61,61,0,0,1,13,37.65Zm-10,250.15V115.62c0-23.86-16.27-43.76-38.07-48.86V10.49H48.63V66.76c-21.79,5.1-38.06,25-38.06,48.86V367.36c0,6.85,22,12.4,49,12.4s49-5.55,49-12.4Z" transform="translate(-0.5 -0.49)" />
    <path class="cls-3" d="M70.5,10.49V66.76c21.8,5.1,38.07,25,38.07,48.86V367.36c0,6.85-22,12.4-49,12.4s-49-5.55-49-12.4V115.62c0-23.83,16.27-43.76,38.06-48.86V10.49Z" transform="translate(-0.5 -0.49)" />
    <path class="cls-3" d="M70.5.49H48.56a10,10,0,0,0-10,10V59.42A59.3,59.3,0,0,0,13.5,78a61,61,0,0,0-13,37.65V367.36c0,3.06,1.13,8.87,8.72,13.41a50.2,50.2,0,0,0,13.18,5c10,2.54,23.22,3.94,37.12,3.94s27.07-1.4,37.11-3.94a50.26,50.26,0,0,0,13.19-5c7.57-4.54,8.71-10.35,8.71-13.41V115.64A61.06,61.06,0,0,0,105.5,78a59.41,59.41,0,0,0-25-18.57V10.49A10,10,0,0,0,70.5.49Z" transform="translate(-0.5 -0.49)" />
</svg>
