<svg id="Lag_1" data-name="Lag 1" xmlns="http://www.w3.org/2000/svg" width="41.64mm" height="137.33mm" viewBox="0 0 118.04 389.28">
    <defs>
        <style>
            .cls-1 {
                fill: #000;
            }

        </style>
    </defs>
    <title>Tegnebræt 1</title>
    <path class="cls-1" d="M70,10V66.26c21.8,5.1,38.07,25,38.07,48.87,0,.54,0,1.06,0,1.59h0V366.88c0,6.85-22,12.4-49,12.4s-49-5.55-49-12.4V116.72h0c0-.53,0-1,0-1.59,0-23.84,16.27-43.77,38.06-48.87V10H70M70,0H48.06a10,10,0,0,0-10,10V58.92A59.48,59.48,0,0,0,13,77.47,61,61,0,0,0,0,115.13c0,.34,0,.68,0,1,0,.19,0,.38,0,.57V366.88c0,3.06,1.13,8.87,8.72,13.41a50.23,50.23,0,0,0,13.18,5c10,2.54,23.22,3.94,37.12,3.94s27.07-1.4,37.11-3.94a50.32,50.32,0,0,0,13.19-5c7.58-4.54,8.72-10.35,8.72-13.41V116.72c0-.19,0-.38,0-.57,0-.34,0-.68,0-1a61,61,0,0,0-13-37.66A59.45,59.45,0,0,0,80,58.92V10A10,10,0,0,0,70,0Z" />
</svg>
