<?xml version="1.0" encoding="UTF-8"?>
<svg id="Forgrund" xmlns="http://www.w3.org/2000/svg" viewBox="0 0 1920 1080">
  <defs>
    <style>
      .cls-1 {
        fill: #15272b;
      }

      .cls-2 {
        fill: #202020;
      }
    </style>
  </defs>
  <g>
    <path class="cls-1" d="M1597.87,1096.87s59.63-89.78,93.13-106.08c-37-67.59-21.81-134.88,103.84-218.59-14.69-82.42-31.95-180.01-31.95-180.01,0,0,225.65-149.8,94.13-151.75-131.52-1.95-106.81,7.1-106.81,7.1,0,0-22.83-97.19,98.73-205.12C1905.06,134.58,1977.17,0,1977.17,0l-19.67,1100.5-359.63-3.63Z"/>
    <g>
      <g>
        <path class="cls-2" d="M1918.31,101.19c.22-.25,.43-.55,.49-.73,.04-.1,.04-.16,.07-.27,.09-.16,.14-.28,.16-.38,.1-.38-.31-.35,0-.73-.25,.22-.5,.46-.68,.67-.05,.07-.1,.14-.15,.21-.09,.13-.17,.25-.23,.36-.06,.11-.12,.21-.16,.3-.02,.07-.03,.13-.04,.18-.03,.22,.05,.34,.14,.4,.2,.12,.5,.02,.4-.03Z"/>
        <polygon class="cls-2" points="1911.14 116.82 1910.98 116.4 1910.56 118.93 1911.14 116.82"/>
        <path class="cls-2" d="M1903.96,130.43c1.92-.64,2.35-5.06,4.08-7.25l.5-.25-.44-1.63c-1.39,3.04-2.73,7.22-4.13,9.13Z"/>
        <path class="cls-2" d="M1897.49,136.34c.72-.2-.37,1.8,1.01-1.63-.14,.14-.19,.17-.28,.25-.14,.3-.35,.71-.73,1.39Z"/>
        <path class="cls-2" d="M1898.22,134.95c.7-1.46-.9,.74,0,0h0Z"/>
        <path class="cls-2" d="M1895.16,141.79l.51-2.13c-.49,.25-1.41,1.92-1.31,1.18-.73,2.08-.24,1.82,.8,.95Z"/>
        <path class="cls-2" d="M1895.2,144.06l.3-1.08c-.21,.11-.38,.35-.3,1.08Z"/>
        <path class="cls-2" d="M1896.15,140.69l-.65,2.29c.34-.17,.77,0,.34-1.03,.29,.36,.14-.24,.31-1.26Z"/>
        <path class="cls-2" d="M1896.94,139.6c.81-.93,1.68-2.23,1.16-.09,1.64-3.74,.48-3.65-1.16,.09Z"/>
        <path class="cls-2" d="M1904.92,131.8l1.1-1.23,.2-1.45c-.1,.72-1.74,2.56-1.3,2.68Z"/>
        <path class="cls-2" d="M1888.64,153.38c.21,.25,1.04-.29,1.46-.26l.38-1.57c-.54,.64-1.39,1.93-1.84,1.83Z"/>
        <path class="cls-2" d="M1890.1,153.12l-.56,2.34c.98-1.86,.92-2.32,.56-2.34Z"/>
        <polygon class="cls-2" points="1896.45 145.11 1897.19 141.16 1896.13 145.78 1896.45 145.11"/>
        <polygon class="cls-2" points="1884.68 161.46 1884.62 159.95 1884.55 162.56 1884.68 161.46"/>
        <path class="cls-2" d="M1882.21,166.89c-.1-1.14-1.47,.79-1.35-.3-.61,1.51-.76,2.97-.89,4.29,.35-1.3,1.02-2.55,2.23-3.98Z"/>
        <path class="cls-2" d="M1879.66,173.04c.15-.66,.23-1.38,.31-2.17-.18,.69-.31,1.4-.31,2.17Z"/>
        <path class="cls-2" d="M1887.64,159c-.24,.08-.83,.19-1.58,1.29l1.17-.46c.13-.25,.27-.54,.41-.83Z"/>
        <path class="cls-2" d="M1887.27,159.82l-.04,.02c-.46,.89-.77,1.52-.91,1.78,.12-.23,.4-.77,.95-1.8Z"/>
        <path class="cls-2" d="M1887.75,158.8c-.04,.08-.07,.13-.1,.21,.11-.04,.16-.08,.1-.21Z"/>
        <path class="cls-2" d="M1893.03,150.3c-.18,1.45-.98,4.27,.9,2.08-.09-1.15-1.16,.1-.9-2.08Z"/>
        <path class="cls-2" d="M1889.21,158.23l1.27-2.16c-.22-.05-.72,.21-.63-.51l-.64,2.67Z"/>
        <polygon class="cls-2" points="1888.92 159.45 1889.21 158.23 1888.74 159.03 1888.92 159.45"/>
        <path class="cls-2" d="M1882.24,169.53c-.13,1.13-.61,2.21-1.14,3.44,.77-1.22,1.49-2.51,2.1-3.78-.16-.29-.32-1.06-.96,.34Z"/>
        <path class="cls-2" d="M1884.75,164.84c-.02,.07-.04,.17-.06,.24,.13-.1,.2-.2,.06-.24Z"/>
        <path class="cls-2" d="M1875.48,184.83c.08-.04,.15-.08,.23-.12-.04-.04-.08-.07-.11-.11l-.12,.23Z"/>
        <path class="cls-2" d="M1883.44,169.04c.61-.9,.7-1.57,.73-2.23-.27,.76-.59,1.55-.98,2.38,.07,.13,.14,.18,.25-.15Z"/>
        <path class="cls-2" d="M1878.46,176.53c.4-.43,.81-.94,1.22-1.48-.48,.38-1.34,1.21-1.22,1.48Z"/>
        <path class="cls-2" d="M1884.32,165.3c.01-.05,.02-.1,.04-.16-.32,.24-.22,.24-.04,.16Z"/>
        <path class="cls-2" d="M1884.32,165.3c-.13,.55-.13,1.03-.15,1.51,.22-.62,.4-1.21,.52-1.73-.11,.09-.25,.17-.37,.22Z"/>
        <path class="cls-2" d="M1878.75,190.76c-.64-.51-.09-3.37,1.72-5.21,.49-2.42-2.54-2.12-4.75-.85,.28,.21,.57,.35-.06,2.78,.76-.6,3.25-4.52,3.01-2.33-1.03,3.13-1.4,2.3-2.46,3.56,1.47-.8-.47,4.37,1.15,4.34l.75-2.81c.23,.05,.11,1.14,.64,.51Z"/>
        <path class="cls-2" d="M1877.8,180.49l.35-.96c-.62,.99-1.26,1.6-2.47,2.72-.37,1.69-.26,2.14-.07,2.35l2.24-4.47-.04,.36Z"/>
        <path class="cls-2" d="M1880.09,175.4c.44,1.09-.27,3.45,1.21,2.5,1.22-2.72,.24-2.2,.66-3.97-1.86,4.44,.16-1.45-1.77,1.48,.27-.92,.59-1.71,.9-2.45-.46,.74-.94,1.44-1.42,2.08,.04-.03,.06-.05,.1-.08v-.02s.02,.01,.02,.01c.19-.14,.27-.18,.12,0,0,.02-.02,.07-.03,.1,.09,.08,.15,.21,.2,.34-.76,1.18-.3,.1-.2-.34-.03-.03-.05-.08-.09-.11,0,0-.01,0-.02,.01l-1.63,4.56c.54-.87,1.07-2.04,1.95-4.12Z"/>
        <path class="cls-2" d="M1894.46,155.5c-.13,.1-.19,.07-.25,.05-.04,.33-.03,.46,.25-.05Z"/>
        <path class="cls-2" d="M1893.13,157.05c.05-.37-.14-.78,.44-1.76,.67-.77,.37,.19,.65,.26,.1-.72,.5-2.43-.82-.68l-.04,.36c-1.12,1.61-3.18,3.38-3.14,3.02,.95-.17,1.66-.38,2.91-1.2Z"/>
        <path class="cls-2" d="M1886.73,166.43l-1.35,3.8,1.56-1.52-.45-.1c1.15-1.98,.43-1.77,.25-2.18Z"/>
        <polygon class="cls-2" points="1874.9 185.06 1874.3 184.19 1874.48 186.83 1874.9 185.06"/>
        <polygon class="cls-2" points="1872.77 189.82 1872.14 189.31 1871.99 190.76 1872.77 189.82"/>
        <path class="cls-2" d="M1753.23,441.6c.11,.07,.22,.12,.33,.16-.13-.1-.24-.15-.33-.16Z"/>
        <path class="cls-2" d="M1752.21,437.28l-.42-.12c.28,.32,.47,.43,.42,.12Z"/>
        <path class="cls-2" d="M1800.01,292.21c-1.64,.93-3.69,1.82-2.86,2.18l1.01,.09c.6-1.06,1.21-1.77,1.85-2.27Z"/>
        <path class="cls-2" d="M1759.35,370.26c.14-.12,.29-.24,.44-.36-.11-.5-.22-.97-.32-1.39-.04,.53-.08,1.12-.12,1.75Z"/>
        <path class="cls-2" d="M1762.21,372.73l-1.38,1.84c.38-.39,.83-.98,1.38-1.84Z"/>
        <path class="cls-2" d="M1794.37,435.16l1.3-1.01c-2.17,.21-1.17,.56-1.3,1.01Z"/>
        <path class="cls-2" d="M1849.09,235.44c-1.27,.84-2.19,1.61-2.94,2.33,1.6-.96,3.14-1.49,2.94-2.33Z"/>
        <path class="cls-2" d="M1744.78,445.72c.5,.96,.79,1.27,.93,1.11-.47-.93-.82-1.45-.93-1.11Z"/>
        <path class="cls-2" d="M1843.19,240.88c.24-.13,.45-.29,.69-.43,.64-.89,1.31-1.76,2.27-2.69-1.18,.71-2.4,1.65-2.96,3.12Z"/>
        <path class="cls-2" d="M1869.66,518.1c-.11,.07-.23,.17-.34,.22,.06,.11,.19-.02,.34-.22Z"/>
        <path class="cls-2" d="M1827.39,544.95c.35-.34,.95-.83,1.53-1.29-.32,.18-.79,.56-1.53,1.29Z"/>
        <path class="cls-2" d="M1863.57,208.67c.41-1.03-.01-.2,0,0h0Z"/>
        <path class="cls-2" d="M1868.95,205.24c-.01,.25,.03,.47,.2,.58-.15-.17-.21-.37-.2-.58Z"/>
        <path class="cls-2" d="M1839.71,252.68s-.04,.04-.07,.07c.35-.13,.28-.11,.07-.07Z"/>
        <path class="cls-2" d="M1864.63,207.33c-.27,.33-.56,.73-.83,1.17,.16-.18,.41-.53,.83-1.17Z"/>
        <path class="cls-2" d="M1864.16,207.36c.19-.33,.34-.59,.48-.84-.07-.19-.21-.11-.48,.84Z"/>
        <path class="cls-2" d="M1862.97,210.09c.25-.58,.54-1.1,.83-1.59-.14,.17-.23,.23-.23,.17-.13,.3-.31,.72-.6,1.42Z"/>
        <path class="cls-2" d="M1873.52,440.56c.07,.04,.15,.08,.22,.14,1.19-.08,.69-.14-.22-.14Z"/>
        <path class="cls-2" d="M1790.68,320.86s.02-.08,.03-.13c-.04,.04-.08,.08-.11,.12h.08Z"/>
        <path class="cls-2" d="M1789.09,324.51c0-1.99,.63-2.72,1.51-3.66l-2.79-.29,1.29,3.95Z"/>
        <path class="cls-2" d="M1768.23,439.19l-2.91-.32c3.15-1.82,5.68-1.74,2.88-2.42,.01,1.37-2.69,1.87-5.38,2.39-2.69,.52-5.39,1.09-5.33,2.46l-.97-.11c-.31-.04-.73-.06-.74-.15,.04,0,.06-.01,.09-.03,.09-.03,.16-.06,.23-.09,.15-.06,.29-.12,.55-.16-1.16-.11-.95-.19-1.15-.04-.12,.14-.23,.43-.41,.76-.31,.66-.99,1.52-2.05,1.61-.03,0-.06,0-.09,0l-.12-.02s-.03-.11-.04-.16c-.01-.12-.02-.23-.03-.34,0-.21,.01-.41,.04-.56,.07-.31,.21-.46,.41-.42-.34-.2-.68-.51-1.03-.93-.08-.5,.38-.58,.45-.17-.15-.33-.25-.69-.38-1.06-.03-.05-.07-.27-.12-.48l-.15-.61-.3-1.22,.09,.02c-.54-.63-1.43-2.18-1.82-2.97,.26-1.36,.35,.63,.66,.24-.33-.92-.63-1.85-.94-2.79,.6-1.22,1.48,1.09,1.61,3.03,1.17-1.47,.98-2.01,.57-2.94-.21-.46-.45-1.02-.53-1.84-.08-.81-.09-1.87,.3-3.31,.09,.9,.3,1.77,.44,2.65,1.43-1.76,.85-3.8,1.88-6.75-.29,.35-.9,1.81-1.52,2.85-.63,1.03-1.28,1.63-1.61,.07,.22-.88,.26-2.02-.18-3.73,.98,.02,.77-1.62,.88-3.68l1.26,.24c-.16-2.22-.82-2.11-1.27-3.48,.39-2.47,1.51-2.85,2.4-3.31,.76-3.89-1.96,2.5-1.54-2.21,.48-1.61,.79-3,.89-4.51,.06-.75,.07-1.54,.11-2.39,.04-.85,.08-1.77,.13-2.79,.97-2.19,.67,.58,1.22-.16l-.51-2.27c.14-.49,.41-.25,.54-.13,.05-1.81-1.21-.46-.8-3.24-.58-.55,.31-1.8,1.26-3.37,.94-1.57,2.1-3.4,1.86-5.3,.61-.69,.62,.64,1.17,.55,.23-2.41,.37-3.44,.49-4.37,.1-.93,.12-1.78,.14-3.87l1.96-2.82c-.88,.97-1.31,.62-1.5-.34-.18-.96-.07-2.51,.03-3.97-.77,.63-1.44,1.18-1.81,1.57l1.1-4.38c.4-.41,.63,.17,.84,1.05,.02-.32,.04-.63,.03-.87,1.05-1.28,1.41-.22,1.63,1.1-.44,.4-.9,.78-1.34,1.16,.29,1.31,.7,2.57,1.48,2.64-.03-.32,.07-.87,.24-1.46,.08,.34,.19,.58,.36,.51,.18-.09,.1-.61,.08-1.4l1.7-.36-.43-.44,1.52-2.45,1.61-2.41c.21-2.15,.22-4.26,.46-6.63,.29-2.34,.86-4.9,2.1-7.97,.18,1.94,1.36,1.1,2.41,1.75-1.96,.99-1.85,4.73-3.54,7.65,.87-1.53,1.23-.92,1.23-.43l1.66-5.89c.84,.58,1.26-.79,2.34-1.99-1.15,.07-.96-1.1-.34-2.56,.63-1.46,1.63-3.23,1.96-4.46,.66,.19,.98,1.04-.62,3.58,2.92-2.15,.02-4.87,2.72-7.09-.34,.65-.62,.94-.47,1.36,.27-1.81,2.85-5.16,2.85-4.02l-.36,.63c1.35-2.02,3.26-5.18,4.7-8.04,1.49-2.82,2.56-5.31,2.03-6.08,.21,.08,1.38,1.65,1.51,2.08-.03-3.45-.08-6.96-.03-10.45,.79,1.45,5.31,.95,3.75,4.76,.79-.86,1.83-1.88,2.78-4.19-.62,.53-2.87,.44-2.36-.53,3.03-1.53,1.89-1.21,5.11-3.43-.93,.8-2.06-1.6-.93-3.11,.11,.44,1.94,1.18,1.74,1.88,.26-1.71,.54-3.42,.87-5.11-.36,1.18,1.43,1.28,2.56,.81-.64,.13,2.42-3.22,2.97-4.35l-1.59,1.28c1.69-2.02,1.83-3.54,1.94-5.08,.11-1.54,.19-3.1,1.87-5.13-.02,.79,1.31,2.97,3.17,1.04-.17-1.65-1.06-7.66,1.12-11.91l1.07-.3,1.69-3.24c-.12,2.79-1.08,10-2.03,13.52,1.62-1.23,.95,.04,2.71-2.32,1.12-.44-.25,1.84-.75,2.55l4.52-5.16c-1.27-.62,2.27-4.9,1.23-5.41-1.22,2.21-2.45,4.42-3.59,6.68-.62-.3-.71-1.74-.24-3.58,.49-1.82,1.58-4,3.22-5.82,1.2-.62,1.26,2.23,1.68,2.44,.04-.78,2.25-4.13,2.79-4.27l-.76,2.05c2.11-1.76,1.43-4.57,4.5-6.25,.8-.8,3.52-1.42,3.04-2.08-2.37,.39-6.23-2.4-6.29-4.08,.34-.24,5.02-3.56,6.43-4.03,2.12-.62,.34,3.99,2.16,3.47-.23-.29,.1-1.36,.27-1.78,1.01-.69,.54,1.12,2.09-.94-.74-1.22,3.51-3.88-.07-1.68,1.35-2.16,1.95-1.85,3.9-4.07-1.29,.11-.45-3.97,.97-6.11,.16,.34,.87,.23,1.21,.16,3.59-3.73,5.85-5.43,9.21-8.89,.55-.1,2.44-1.51,2.19-.39,.3-.67,.4-1.45,1.41-2.55,2.84-1.27-2.15,2.53,.39,1.91-.45-.68,1.85-3.53,2.96-5.41-1.33-.37-3.54,3.39-4.64,5.26-1.24-1.15,.03-5.04,2.96-9.25,2.47-3.21,1.99-.51,2.29-1.18,.15-.14,.29-.28,.42-.42,.12-.12,.23-.24,.34-.36,.05-.06,.11-.12,.15-.18l.08-.21c.05-.14,.1-.28,.15-.41,.1-.3,.18-.59,.27-.85,.08-.3,.15-.57,.21-.84,.22-1.06,.23-1.89,.25-2.68,.04-1.57,.12-2.95,1.98-5.54,2.02-1.81,1.99,.79,2.93,.62-1,3.14-2.72,4.27-3.61,6.3l1.6-2.26c-.11,1.09-.78,3.19-1.56,4.14,1.75-1.49,5.49-11.49,8.73-16.39,.1-1.09,.51-2.87-.23-2.28l-.63,1.73c-1.49,1.17,.36-3.65-.98-1.7,.48-2.5,.79-5.41,2.7-8.35l1.39-.07c-.36-.08-1.62,1.75-1.7,2.79,.12-1.54,3.76-4.13,2.97-6.25l-1.8,1.85c.49-2.51,.6-5.84,2.26-8.47-1.69,.76-.17,.7-2.38,2.09,2.4-.97-3.4,7.11-.43,5.13-2.44,1.34-2.28,3.23-4.79,5.3,.41,.09,1.14-.62-.13,1.64,.06,.16,.08,.47,.08,.66-.05,.07-.06,.09-.1,.15,.04-.04,.07-.07,.1-.11,0,.13,.01,.14,.04-.04,.42-.48,.82-.85,1.11-.94,.29,1.55-1.46,5.27-1.6,6.74-.82,1.31-.15-.78-.89-.2l-.22,2.19c-.9-.19-3.06,3.08-2.03-.43l-1.4,2.94c-1.26,1.53-2.54,3.84-2.88,5.47-.82,1.31-.72,3.94-.8,2.43l-.81,2.43-.39,1.18c-.02,.15-.04,.33-.08,.5l-.2-.12c-.08,.08-.17,.16-.22,.23l-.52,.59c-.42,.49-.83,.99-1.24,1.5-.82,1.02-1.63,2.08-2.49,3.12-1.72,2.08-3.64,4.09-6.23,5.63-1.02,1.38-2.01,2.86-4.11,4.8l-.95-.11c-1.27,1.8-5,4.35-5.03,5.59-1.57,.18-3.46,2.06-5.28,4.26-1.79,2.22-3.54,4.73-4.94,6.06l.67,.77c-1.78,1.97-3.23,4.08-5.07,6.83l.82,.42c-1.24,2.66-5.12,5.22-7.9,8.75-.07-.45,.72-1.28,1.39-1.77-2.47,1.44-4.04,3.83-5.38,6.3-1.36,2.46-2.62,4.9-4.7,6.37-.49,1.16-1.11,1.78-1.82,2.32,.07-.09,.12-.18,.15-.27-.08,.09-.2,.24-.31,.39-.45,.33-.93,.66-1.42,1.04,.49-.27,.93-.54,1.25-.83-.56,.75-1.35,1.93-1.98,3.2l-1.12-.1c-.06,.1-.11,.17-.17,.28-1.09,.89-.28,1.16,.73,1-.29,.66-.51,1.29-.62,1.83-1.91-.03-1.73,3.25-3.97,3.49,.05,.62-.86,2.11-1.67,3.65-.77,1.57-1.42,3.18-.94,3.97-.21-.09-.53,.19-.11-.44-1.04,1.16-2.08,2.33-2.47,3.74l-1.38-.15-.56,3.71c-1.79,1.27-2.6,1.76-2.25-.47-1.5,4.93-1.73,3.67-2.8,7.96l-.56-.6c-.79,1.28-1.19,3.85-2.23,4.26-1.51,1.03-3.69,4.57-6.21,8.67-1.26,2.05-2.47,4.32-3.8,6.46-1.3,2.15-2.68,4.18-3.95,5.97,2.83-.42-2.76,3.1-1.31,4.23-.72,.2-1.55,1.14-1.34-.33-.78,2.09-1.72,3.47-2.42,4.8-.72,1.31-1.26,2.53-1.21,4.23-.72,.23-.33-1.2-.82-.93-.04,.37-.16,1.48-.66,1.76-.49,.28-.15-.78-.07-1.52-1.86,4.16-.39,5.3,.92,6.22-1.58,1.8-1.93,2.91-1.59,4.81-.79,.53-1.81,1.56-.9-1.1-.78,1.37-4.18,8.75-3.05,9.32-.5,.35-.83,2.05-.81,2.49-1.16,3.35-1.43,3.59-2.31,6.96l.46-.87c1.1,1.76-.45,2.87-1.04,5.62l-.13-.12c-.73,1.47-1.02,2.41-1.2,3.04-.17,.64-.19,.99-.22,1.34-.03,.7-.15,1.35-1.42,4.34l1-.15c.95,.5,.4,1.8-.39,3.48-.83,1.66-1.72,3.75-1.59,5.63l.73-1.24c.22,1.05-.71,2.33-1.67,3.65-.95,1.32-2.03,2.68-2.25,3.7-.22,.44-.22-.74-.29-1.38-.88,2.67-.53,2.89-.03,2.92,.5,.03,1.2-.09,1.25,1.93-.71,.72-1.68-1.05-1.93,1.7-.33,.68,.26,2.72,.71,5,.27,1.15,.54,2.36,.67,3.52,.12,1.16,.2,2.29-.05,3.26,.44-.89,.88-1.74,1.45,.09,.1,.71,.13,1.57,.12,2.5-.02,.93-.07,1.93-.02,2.92,.02,.5,.05,.98,.1,1.48,.1,.61,.27,1.31,.44,1.91,.18,.61,.36,1.19,.62,1.67,.27,.47,.56,.87,.87,1.16,.04,.57,0,.85-.11,.96,.33,.63,.79,1.39,1.26,2.24,.24,.41,.49,.84,.75,1.28l.4,.65c.16,.15,.37,.18,.56,.29,2.54-.79,4.81-1.57,5.69-2.21,.27,.37,.78,.56,1.47,.62,.35,.03,.74,.02,1.16,0,.2-.02,.4-.04,.61-.05,.15-.02,.31-.04,.48-.06,1.3-.19,2.8-.67,4.25-1.15,2.89-.95,5.56-1.84,5.77-.33,2.11-.39,4.23-.78,6.35-1.14l-.12,.33c4.1-.4,5.45-1.29,6.79-2.22,.97,.09,.32,.46,.26,.63,6.06-.14,6.62-.34,11.49-2.39l.62,.93c1.32-.74,8.8,.69,14.59-.83-.05,.12-.16,.32-.62,.49,3.27-.81,7.28-.34,10.72-.08,3.44,.25,6.33,.28,7.52-1.54,1.45-.33,2.91-.64,4.37-.92-5.68-.29,.84-1.57-1.5-2.17,2.25-.2,5.8,1.11,3.04,1.28l-.43-.18c-.51,.95,1.26,1.1,3.12,1.22,1.86,.14,3.84,.2,3.74,.84,11.12,.26,21.8,2.32,31.76,4.49l-.87-1.67c1.17,.27,2.35,.52,3.51,.81,.83,.58,.97,1.38-1.5,.79,1.13,1.05,4.3,.32,4.46,.02,4.69,1.77-2.32,1.19-.83,1.59l2.03,.39-.41-.28c1.77-.16,2.08-.68,4.99,.24,1.76,.85,.66,1.17,1.36,1.45-.02,.05,.03,.11,.19,.17,.08,.03,.19,.07,.33,.11,.11,.03,.16,.03,.28,.04l.91,.39c.08,.03,.16,.06,.23,.1l.09,.25,.17,.48c.21-.46,.44-1.06,.52-1.63,.97,.61,1.01,2.52,1.6,.48-.11,.41-.13,.85-.11,1.35,.02,.62,.14,1.41,.3,2.22,.2,.8,.3,1.7,.46,2.62,.08,.46,.17,.92,.25,1.39,.07,.47,.1,.95,.15,1.42,.28,1.89,.27,3.78,.3,5.29-.11,1.52-.22,2.67-.4,3.1,.46,2.74,.02,5.46-1.09,8.63,.47-.72,1.87-.87,.86,1.93-1.1-.93-1.81,.25-2.61,1.81-.2,.39-.39,.81-.61,1.23-.24,.41-.48,.82-.74,1.2-.52,.76-1.09,1.42-1.77,1.74,1.03-.67,.21,1.21-.53,2.99-.73,1.77-1.48,3.42,.15,2.41-1.4,2.04-.95-.35-2.41,.95-.48,1.39-1.26,2.72-2.08,4.07-.88,1.32-1.89,2.64-2.96,3.95-2.2,2.61-4.59,5.25-6.8,8.13,.2,.31,1.39-.29,.8,1.25-1.26,.62-2.55,1.21-3.84,1.78-.82,1.18,.68,2.37-2.03,3.49,.47-.07,1.18-.19,.6,.61-5.47,4.72-10.45,10.1-15.81,15.21-5.36,5.1-11.11,9.89-17.84,13.19,1.98-.7,.99,.17-.19,1.14,.87-.49,.52,.69,.97,.95-1.88,.94-3.78,1.84-5.66,2.75-.08,1.74-5.2,4.06-4.96,5.45l1.43-1.35c-1.19,2.76,4.9,.46,5.76,2.2,1.3-3.11,7.71-2.76,9.95-7.71,1.07-.37-.32,1.05,.4,1.04,.43-1.42,1.48-2.46,3.82-3.95l-.11,.36c2.9-2.54,5.08-4.24,7.41-5.95,2.32-1.73,4.79-3.48,8.15-6.28l-1.12-.24c1.44-1.2,1.93-1.26,2.73-1.69,.56-2.52-3.86,3.58-3.53,1.07,1.55-.16,3.97-2.4,6.25-4.65,2.31-2.22,4.48-4.44,5.87-4.29,1.97-2.13-1.38-.13,.59-2.25l.96-.16-.07-1.05c1.38-1.31,2.54-1.56,2.97-1.28-.35,.31-.76,1.09-1.06,1.49,1.08-.7,2.19-2.06,3.12-3.3,.91-1.27,1.62-2.42,1.98-2.67l-2.07,1.93c2.34-3.23,5.16-6.64,7.69-10.26,2.51-3.63,4.85-7.39,6.16-11.13l-.68,.3c.27-.7,.52-1.27,.74-1.77,.21-.51,.4-.93,.58-1.3,.37-.74,.71-1.25,1.07-1.77,.38-.52,.71-1.08,1.13-1.89,.21-.4,.43-.87,.67-1.43,.25-.55,.5-1.21,.73-2.01l.02,.26c.03-1.41,.48-3.09,1.01-4.82,.02,1.77,1.89-2.74,1.81-.47,.3-1.64,.3-2.73,.34-3.42,.02-.7-.01-1.06-.09-1.34-.14-.57-.47-.92-.98-3.16l.88-.89c-.23-.77-.49-1.2-.64-1.83-.08-.32-.14-.69-.17-1.18-.04-.5-.03-1.11-.12-1.93,.34,1.34,.61,.84,.91,.35,.29-.48,.64-.95,1.06,.62,.21-.89,.31-1.73,.37-2.53,.05-.8,.07-1.54-.05-2.24-.22-1.39-.45-2.59-.84-3.64-.37-1.05-.7-1.96-.83-2.85-.17-.89-.21-1.73,.11-2.72-1.47-1.27-1.27,.32-.85,1.97,.39,1.66,.8,3.51,.43,2.65-.18,.81-.69,.22-1.18-.8-.12-.26-.24-.54-.36-.84-.14-.29-.28-.59-.41-.9-.25-.61-.46-1.23-.57-1.76-.07-.26-.11-.53-.12-.81-.02-.3-.06-.62-.06-.96-.02-.69,0-1.5-.08-2.5-.04-.5-.09-1.05-.18-1.66-.04-.13-.01-.35-.11-.43-.11-.08-.22-.15-.33-.23-.23-.16-.48-.31-.76-.48-.55-.32-1.2-.66-1.95-.99-.38-.17-.78-.34-1.21-.51-.34-.14-.61-.24-.95-.36,.26,.1,.41,.11,.56,.12,.07,0,.15,.01,.24,.03,.07,.01,.21,.05,.41,.12l-.43-.23c-.11-.06-.23-.12-.35-.17-.24-.1-.48-.19-.73-.26-.49-.16-1.02-.2-1.55-.3-1.06-.17-2.16-.4-3.25-1.17-1.68,.79-3.14-.87-3.91,.55l2.45,.42c.82,.14,1.63,.34,2.44,.51-.71-.1-1.43-.11-2.17-.11-.75,.04-1.52,.1-2.34,.1-1.63,0-3.41-.21-5.57-1.07,.41-.24,1.84-.39,2.82-.41-1.22-.74-2.61-.22-3.88-.97,.35-.74,1.85-.52,3.66-.19,1.81,.38,3.91,.93,5.55,.7-1.27-1.01-5.87-.27-3.99-1.57-1.32,.77-2.61,.48-4.08,.03-.73-.22-1.51-.46-2.35-.59-.84-.12-1.75-.09-2.72,.16l.4-.9c-.6,.05-1.86,.3-2.91,.1l2.11-.9c-3.1,.51-5.57-1.73-8.5-1.54,5.95,.73,1.2,1.3,3.61,2.31-3.71,.14-4.67-.56-5.76-1.4-1.08-.82-2.29-1.84-6.42-1.88,1.13-.05,4.13,.87,2.36,1.18-1.54-.31-3.58-.82-4.51-1.39-5.45-.09,.78,1.01-1.57,1.47-1.78-1.24-2.69,.34-5.06,.61l.02-.96c-6.15-.76-1.68,1.94-7.2,1.12,.78-.44,1.57-.89,2.36-1.31-.97,.08-1.93,.21-2.9,.32l.61-1.1c-3.16,.81-4.13,.57-7.22,.33,.73,.67-.38,1.75-3.09,1.83-1.87-.51,1.01-.95-2.83-.68,.85-.63,1.79-1.43,3.49-.58,.16-.32,.85-.62,1.02-.93-2.02-.65-5.05,0-6.44,.05,.54,.02,1.19,.05,1.52,.17-1.85,.5-3.7,1.03-5.53,1.58-.9-.32-.22-.64,.46-.96-1.13,.16-1.89,.63-3.54,.82,.38-.81,.23-1.62,2.58-2.1-1.77,.37-3.53,.78-5.28,1.18-.38-.32-2.8-.76-2.13-1.09-3-.24-7.12,2.09-11.07,1.86-.19,.17-.58,.36-1.4,.56-3.67,.2-7.04-.4-11.23,1.23l-2.64-1.08c-3.34,.78,3.55,1.3-2.01,2.6-3.91,1-1.65-.98-3.11-1.17-1.89,.99-5.09,2.92-8.92,2.4,1.16-.46,2.14-.41,3.26-.69Zm-17.42-13.71c.19,.77,.83,2.27,.31,2.84-1.16-.82-.63-1.53-.31-2.84Zm12.65-60.1c.03,.66-.47,1.44-1.21,2.26,.23-.72,.57-1.51,1.21-2.26Zm95.77-145.38s0,.06,0,.1c-1.09,1.48-.69,.96,0-.1Zm1.94-3.22c.03-.4-.1-.43-.29-.34,.11,.34-.22,1.11-.69,1.95,.34-.14,.7-.5,.97-1.61Zm21.88,233.19l-.58-.47c.39,.07,.66,.12,.83,.17,.18,.05,.15,.06,.17,.1,0,.06-.13,.16-.42,.21Z"/>
        <path class="cls-2" d="M1761.88,372.43c-.24,.15-.43,.13-.62,.11,.03,.35,.2,.43,.62-.11Z"/>
        <path class="cls-2" d="M1794.13,435.35h.13c.06-.07,.1-.13,.11-.19l-.24,.19Z"/>
        <path class="cls-2" d="M1832.68,266.31c-.6,.49-1.02,.69-1.34,.79,.15,.19,.53,.05,1.34-.79Z"/>
        <path class="cls-2" d="M1868.01,198.12l-.79,2.28c.45-1.07,.81-1.36,1.2-1.82-.23-.05-.72,.23-.41-.46Z"/>
        <path class="cls-2" d="M1882.25,181.84c.04-.37,.31-.68,.34-1.04l-.45-.11c-.61,1.36-.73,2.46,.1,1.14Z"/>
        <path class="cls-2" d="M1871.85,197.46c.82,.17,1.2-1.31,1.77-2.89-.04,.09-.07,.18-.13,.27-.82-.93-1.23,.85-1.65,2.62Z"/>
        <path class="cls-2" d="M1873.76,194.21c.18-.48,.39-.97,.64-1.41-.33-.37-.35,.53-.64,1.41Z"/>
        <path class="cls-2" d="M1862.65,212.25c.52-.63-.73-.89-.24-1.16-.57-1.24-1.08,5.34,.24,1.16Z"/>
        <polygon class="cls-2" points="1874.85 197.36 1873.68 197.48 1874.02 198.68 1874.85 197.36"/>
        <path class="cls-2" d="M1868.59,209.05l1.38-2.31c-.17-.03-.12-.38,0-.79-.73,1.48-1.67,3.04-1.38,3.11Z"/>
        <path class="cls-2" d="M1869.96,205.94c.38-.77,.71-1.52,.76-2.02-.19,.43-.58,1.35-.76,2.02Z"/>
        <polygon class="cls-2" points="1873.57 200.81 1873.05 201.44 1872.18 203.12 1873.57 200.81"/>
        <path class="cls-2" d="M1855.54,234.19l-1.81,2.32c.04,.45,.74,.02,1.4-.86,.31-.67,.96-1.55,.41-1.46Z"/>
        <path class="cls-2" d="M1862.55,228.24c-.52,.63-.74,.59-1.23,.85l1.09,.6,.14-1.45Z"/>
        <path class="cls-2" d="M1857.95,236.06c.05,.45-2.2,3.75,.29,1.02-.04-.45,1.76-2.77-.29-1.02Z"/>
        <polygon class="cls-2" points="1827.16 267.49 1827.63 266.91 1826.02 265.67 1827.16 267.49"/>
        <path class="cls-2" d="M1806.72,300.59c2.42-2.46-.54-1.43,1.84-3.51,.11-.93-1.95,1.7-1.78,.8-.83,1.97-1.7,2.68-.06,2.72Z"/>
        <path class="cls-2" d="M1806.78,297.88c.14-.31,.28-.65,.4-1.02-.27,.55-.36,.83-.4,1.02Z"/>
        <polygon class="cls-2" points="1820.32 549 1818.3 549.99 1819.85 549.68 1820.32 549"/>
        <path class="cls-2" d="M1817.82,552.75l-1.19-.73-.37,1.74c.37-.34,1.08-1.01,1.56-1Z"/>
        <path class="cls-2" d="M1753.58,419.74l-.3-.18c-.35,.3-.4,.79-.5,1.76l.8-1.58Z"/>
        <path class="cls-2" d="M1754.61,440.53h-.1c-.15,.42-.25,.84-.3,1.25,.11-.41,.24-.83,.4-1.25Z"/>
        <path class="cls-2" d="M1775.63,435.54c-1.05,.09-2.23,.54-3.29,.64,2.24-.54,3.77,.77,3.29-.64Z"/>
      </g>
      <g>
        <path class="cls-2" d="M1814.92,553.05c.73-.44-.01-.94,0-1.13-1.04,.98,.15,1.29,0,1.13Z"/>
        <polygon class="cls-2" points="1804.57 562.72 1804.58 562.29 1803.35 564.16 1804.57 562.72"/>
        <path class="cls-2" d="M1793.64,570.04c1.83,.52,3.86-2.82,6.08-3.7l.5,.05,.24-1.54c-2.26,1.73-4.91,4.43-6.82,5.19Z"/>
        <path class="cls-2" d="M1786.09,571.24c.66,.24-1.01,1.22,1.46-.73-.17,.03-.22,.03-.32,.04-.23,.16-.56,.37-1.14,.69Z"/>
        <path class="cls-2" d="M1787.23,570.55c1.14-.78-1.01,.09,0,0h0Z"/>
        <path class="cls-2" d="M1782.02,574.22l1.27-1.39c-.5-.08-1.9,.72-1.52,.2-1.43,1.22-.94,1.29,.25,1.19Z"/>
        <path class="cls-2" d="M1781.11,576.02l.69-.68c-.21-.03-.45,.06-.69,.68Z"/>
        <path class="cls-2" d="M1783.26,573.91l-1.46,1.44c.34,.06,.61,.43,.69-.62,.09,.45,.21-.11,.77-.81Z"/>
        <path class="cls-2" d="M1784.33,573.49c1.03-.28,2.25-.82,.97,.57,2.83-2.04,1.86-2.6-.97-.57Z"/>
        <path class="cls-2" d="M1793.89,571.64l1.38-.4,.73-1.05c-.37,.52-2.42,1.12-2.11,1.45Z"/>
        <path class="cls-2" d="M1771.99,579.49c.06,.32,.94,.38,1.26,.65l.97-.99c-.7,.18-1.92,.69-2.23,.35Z"/>
        <path class="cls-2" d="M1773.25,580.14l-1.46,1.47c1.57-.87,1.73-1.25,1.46-1.47Z"/>
        <polygon class="cls-2" points="1781.67 577.54 1783.9 574.86 1781.13 577.89 1781.67 577.54"/>
        <polygon class="cls-2" points="1765.38 583.33 1766.01 582.16 1764.79 584.08 1765.38 583.33"/>
        <path class="cls-2" d="M1758.1,587.55c.41-.56-.27-.46-.98-.33-.69,.13-1.39,.29-.77-.25-.68,.4-1.29,.81-1.83,1.2,.55,1.91,1.2,3.6,1.79,5.07-.43-1.45-.73-2.99-.87-4.63,.79-.35,1.69-.72,2.65-1.07Z"/>
        <path class="cls-2" d="M1757.56,596.54c-.32-.99-.76-2.06-1.25-3.29,.34,1.14,.73,2.25,1.25,3.29Z"/>
        <path class="cls-2" d="M1768.76,583.22c-.23-.08-.73-.34-1.8,.05l1.11,.34c.21-.12,.45-.25,.69-.39Z"/>
        <path class="cls-2" d="M1768.11,583.62h-.04c-.75,.4-1.27,.68-1.5,.8,.19-.1,.66-.34,1.54-.8Z"/>
        <path class="cls-2" d="M1768.94,583.13c-.06,.04-.11,.06-.17,.1,.11,.03,.16,.04,.17-.1Z"/>
        <path class="cls-2" d="M1776.76,579.64c-.76,1.02-2.62,2.74-.19,2.12,.42-.94-.96-.59,.19-2.12Z"/>
        <path class="cls-2" d="M1770.33,583.55l1.94-.92c-.15-.17-.65-.26-.27-.76l-1.67,1.68Z"/>
        <polygon class="cls-2" points="1769.56 584.31 1770.33 583.55 1769.61 583.89 1769.56 584.31"/>
        <path class="cls-2" d="M1757.29,590.44c.68,1.69,.99,3.29,1.38,5.13-.17-1.95-.44-3.89-.75-5.77,0,0,0,0,0-.01-.05-.21,.09-.66-.74-.35-.03,.17,.03,.51,.12,1Z"/>
        <path class="cls-2" d="M1763.1,586.39c-.08,.06-.19,.14-.26,.2,.23-.05,.39-.11,.26-.2Z"/>
        <path class="cls-2" d="M1760.84,607.8c.04-.07,.08-.13,.12-.21-.05,0-.1-.01-.15-.02l.03,.22Z"/>
        <path class="cls-2" d="M1758.38,589.73c1.44-.6,1.97-1.13,2.49-1.72-.9,.59-1.86,1.19-2.95,1.79h0c.08,.12,.15,.18,.18,.09,.05-.01,.14-.06,.27-.15Z"/>
        <path class="cls-2" d="M1758.67,600.5c.09-.51,.15-1.07,.18-1.66-.18,.51-.43,1.53-.18,1.66Z"/>
        <path class="cls-2" d="M1762.22,586.67c.06-.05,.11-.09,.17-.14-.58,.11-.46,.15-.17,.14Z"/>
        <path class="cls-2" d="M1762.22,586.67c-.6,.49-.98,.93-1.35,1.35,.74-.48,1.41-.96,1.96-1.42-.2,.05-.43,.07-.62,.08Z"/>
        <path class="cls-2" d="M1766.84,610.22c-.81-.02-1.95-2.29-1.49-4.51-.95-1.93-3.28-.15-4.39,1.89,.35,0,.67-.05,1.5,1.96,.3-.81,.17-4.83,1.19-3.18,.89,2.7,.13,2.32-.05,3.75,.77-1.32,2.04,3.28,3.36,2.42l-.93-2.34c.21-.09,.73,.73,.81,.02Z"/>
        <path class="cls-2" d="M1760.33,603.59l-.25-.85c.04,1.01-.15,1.77-.53,3.17,.64,1.37,.98,1.61,1.25,1.67l-.65-4.27,.17,.27Z"/>
        <path class="cls-2" d="M1759.39,598.87c.97,.52,1.7,2.53,2.39,1.1-.26-1.27-.51-1.65-.79-1.98-.29-.4-.6-.63-.98-1.73,.32,1.49,.43,2.14,.4,2.2-.02,.13-.13-.02-.27-.24-.16-.3-.35-.67-.49-.68-.07,0-.12,.08-.14,.32-.01,.12-.02,.28-.01,.48,0,.15-.01,.29,0,.49l-.1-.29-.05-.14-.06-.23c-.08-.3-.15-.6-.22-.89-.13-.59-.25-1.15-.38-1.7,.05,.6,.09,1.19,.13,1.76,.03,.57,.08,1.25,.05,1.5,.01-.04,.02-.07,.04-.1v-.02s0,0,0,0c.07-.19,.13-.26,.1-.05,.01,.01,.03,.06,.03,.08,.12,0,.24,.06,.35,.13,.03,1.21-.19,.23-.35-.13-.04,0-.09-.03-.13-.03v.02s1.18,4.01,1.18,4.01c-.04-.89-.25-1.97-.69-3.87Z"/>
        <path class="cls-2" d="M1775.63,584.5c-.15,0-.18-.06-.22-.1-.18,.23-.23,.34,.22,.1Z"/>
        <path class="cls-2" d="M1773.9,584.93c.2-.26,.24-.68,1.12-1.11,.86-.21,.21,.36,.39,.58,.39-.5,1.45-1.6-.35-1l-.19,.25c-1.59,.6-3.97,.77-3.78,.51,.81,.42,1.46,.68,2.8,.76Z"/>
        <path class="cls-2" d="M1764.15,588.63l-3.54,2.45c.93-.23,1.81-.43,2.64-.61l-.5-.23c2.25-1.05,1.37-1.2,1.41-1.61Z"/>
        <polygon class="cls-2" points="1760.48 608.27 1759.51 607.97 1761.12 609.72 1760.48 608.27"/>
        <polygon class="cls-2" points="1761.38 612.67 1760.57 612.65 1761.25 613.73 1761.38 612.67"/>
        <path class="cls-2" d="M1727.16,831.84l-.55,.86c.29-.38,.45-.65,.55-.86Z"/>
        <path class="cls-2" d="M1732.39,826.83l-.14-.4c-.1,.39-.09,.6,.14,.4Z"/>
        <path class="cls-2" d="M1780.76,721.37c-.47,1.59-1.31,3.42-.46,3.08l.77-.6c-.33-.99-.38-1.79-.31-2.49Z"/>
        <path class="cls-2" d="M1775.91,785.44c.16-.01,.34-.03,.5-.04,.12-.45,.23-.88,.33-1.26-.25,.39-.54,.83-.84,1.3Z"/>
        <path class="cls-2" d="M1777.16,788.97l-1.9,.68c.47-.1,1.08-.31,1.9-.68Z"/>
        <path class="cls-2" d="M1702.17,862.17l.07,1.46c1.02-1.48,.21-1.09-.07-1.46Z"/>
        <path class="cls-2" d="M1769.74,657.95c-.11,1.32-.07,2.34,.04,3.23,.22-1.6,.74-2.96-.04-3.23Z"/>
        <path class="cls-2" d="M1722.75,823.25c-.34,.56-.4,.87-.26,1,.36-.56,.5-.94,.26-1Z"/>
        <path class="cls-2" d="M1770.43,664.82c.05-.24,.05-.46,.08-.7-.31-.89-.59-1.8-.73-2.93-.17,1.18-.16,2.51,.65,3.63Z"/>
        <path class="cls-2" d="M1692.77,995.91c-.16,.1-.33,.23-.49,.31,.07,.1,.25-.06,.49-.31Z"/>
        <path class="cls-2" d="M1654.9,1020.13c.26-.34,.74-.82,1.19-1.28-.26,.18-.64,.55-1.19,1.28Z"/>
        <path class="cls-2" d="M1764.17,630.55c-.22-.93-.12-.13,0,0h0Z"/>
        <path class="cls-2" d="M1766.73,625.38c.13,.18,.28,.31,.48,.3-.22-.04-.37-.15-.48-.3Z"/>
        <path class="cls-2" d="M1777.41,673.23s0,.05,.01,.08c.12-.31,.09-.26-.01-.08Z"/>
        <path class="cls-2" d="M1764.3,629.07c-.04,.37-.06,.79-.04,1.25,.03-.21,.05-.59,.04-1.25Z"/>
        <path class="cls-2" d="M1763.93,629.33c-.02-.33-.04-.59-.06-.84-.16-.09-.23,.03,.06,.84Z"/>
        <path class="cls-2" d="M1764.44,631.85c-.11-.53-.16-1.04-.18-1.54-.02,.19-.06,.28-.1,.24,.06,.27,.14,.66,.28,1.3Z"/>
        <path class="cls-2" d="M1674.47,920.9c-.04,.06-.06,.13-.11,.19,.24,.96,.23,.55,.11-.19Z"/>
        <path class="cls-2" d="M1793.97,744.23s-.04-.06-.06-.1c0,.05,0,.1,0,.14l.07-.04Z"/>
        <path class="cls-2" d="M1795.21,747.49c-1.32-1.25-1.33-2.09-1.3-3.21l-2.27,1.55,3.57,1.66Z"/>
        <path class="cls-2" d="M1715.45,844.59l2.14-1.24c-.92,2.98-2.6,4.21-.32,3.29-.91-1.02,.54-2.78,2.02-4.52,1.52-1.71,3.04-3.41,2.17-4.47l1.48-.74c-.33,.31-.26,.47-.58,.77,3.01-1.29,.11-3.02,3.17-5.51,1.12-.82,2.07-1.21,1.64-.32l1.68-2.62c.66-.59,.84-.1,.18,.49,1.03-1.16,2.12-2.25,3.2-3.37l.03,.08c.19-.76,.83-2.27,1.18-2.98,1.13-.53-.24,.62,.22,.66l1.43-2.25c1.24-.2,.15,1.76-1.21,2.91,3.61,.36,1.05-2.01,6-4.28l-1.58,1.87c2.2,.1,3.23-1.57,5.9-2.66-.81,.05-5.69,1.83-4.07-.52,.72-.37,1.56-.99,2.33-2.4,.64,.71,1.58-.44,2.96-1.67l.74,1.05c1.27-1.56,.73-1.96,1.25-3.16,1.77-1.34,2.76-.88,3.69-.57,2.84-2.13-2.9,.35,.17-2.53,2.61-1.49,3.89-3.19,6.17-6.03,1.91-.94,.2,.83,1.01,.66l.82-1.93c.37-.26,.45,.08,.49,.25,.98-1.26-.69-1.08,1.03-2.86-.33-1.52,5.19-1.46,6.67-4.52,.81-.15,.18,.84,.66,1.1,2.69-3.31,2.38-2.74,4.29-5.9l2.85-1.01c-2.3,.47-.75-2.04,.66-4.2-.89,.07-1.65,.12-2.12,.21l2.72-2.8c.5-.1,.44,.49,.24,1.29,.15-.24,.29-.47,.39-.66,1.39-.41,1.23,.6,.85,1.76-.52,.07-1.06,.12-1.58,.16-.32,1.18-.53,2.4,.06,2.89,.12-.26,.43-.65,.81-1.01-.08,.32-.1,.56,.07,.6,.18,.03,.34-.43,.66-1.06l1.53,.66-.16-.58c1.51-.74,3.06-1.42,4.59-2.12,2.11-3.22,3.44-6.72,7.91-10.39-.24,.79-.09,1.2,.29,1.49,.37,.3,.96,.47,1.33,.97-.33,.03-.65,.1-.96,.22-.15,.05-.32,.13-.44,.2-.11,.05-.23,.12-.34,.19-.45,.28-.88,.7-1.34,1.16-.91,.93-1.88,2.06-3.16,2.79,1.34-.76,1.39-.08,1.19,.31l3.67-3.91c.12,.23,.26,.34,.43,.38,.14,.06,.41-.03,.75-.19,.66-.3,1.51-.82,2.56-1.27-1.42-.25-.47-1.29,.91-2.41,.18-.14,.36-.28,.55-.43l.29-.22,.15-.11,.07-.06s0-.06-.01-.09c-.12-.51-.24-1.03-.35-1.54-.24-1.01-.48-1.96-.76-2.66,.33-.07,.7,.07,1.05,.71,.35,.64,.7,1.82,.94,3.67,.23-.88,.11-1.79-.17-2.6-.28-.81-.71-1.52-1.14-2.17-.43-.65-.85-1.23-1.13-1.87-.26-.54-.35-1.08-.16-1.84,.13,.63,.09,.98,.47,1.17-.85-1.36-1.02-5.03-.29-4.29l.12,.62c-.51-4.21-2.24-12.69-4.02-13.02,.21-.08,2.12,.19,2.5,.38l-6.96-6.44c1.55,.4,4.53-2.72,5.96,.59,.03-1.03,.05-2.3-.83-4.3-.08,.71-1.78,2.06-2.08,1.15,1.15-2.82,.54-1.92,1.35-5.29-.13,1.07-2.58,.34-2.8-1.27,.38,.19,2.2-.53,2.54,.02l-2.92-3.6c.58,.93,1.91-.16,2.38-1.16-.36,.49-.57-3.46-.98-4.48l-.21,1.78c-.47-4.57-3.9-3.9-4.58-8.39,.55,.46,3.05,.84,2.93-1.49-1.32-.84-6.28-3.65-7.85-7.45l.51-.87-1.28-2.9c2.04,1.59,6.58,6.26,8.49,8.9,.21-1.78,.68-.61,.17-3.12,.45-1,1.17,1.21,1.33,1.95l-.65-5.95c-1.28,.5-2.13-4.26-3.19-3.84l2.51,6.14c-1.28,.49-4.41-3.03-4.92-7.24,.34-1.15,2.5,.37,2.92,.21-.55-.46-1.57-3.8-1.32-4.24l1.02,1.64c.09-2.41-2.43-3.47-1.66-6.49-.09-.98,1.19-3.18,.38-3.2-1.23,1.84-5.85,2.97-7.17,2.13,.04-.36,.55-5.31,1.1-6.54,.9-1.79,3.25,1.88,4.02,.35-.37,0-.97-.79-1.18-1.13,.13-1.07,1.19,.22,.64-1.95-1.41-.13-.68-4.49-1.32-.84-.76-2.08-.13-2.33-.64-4.84-.72,.96-3.35-1.74-4.12-3.82,.36,.07,.72-.5,.88-.77-.66-4.42-.47-6.9-1.19-11,.26-.44,.3-2.49,1.03-1.75-.34-.55-.89-1.01-1.15-2.27,.73-2.66,.68,2.79,1.74,.68-.81-.02-1.66-3.08-2.47-4.8-1.11,.77,.51,4.21,1.32,5.93-1.66,.3-3.96-2.53-5.49-6.69-1.02-3.34,.81-1.67,.47-2.22-.85-6.46-3.87-4.94-3.62-10.48,.68-2.3,2.09-.47,2.77-1.07,.89,2.71,.09,4.39,.46,6.26l.09-2.41c.51,.82,1.11,2.63,.98,3.69,.64-1.94-1.74-10.86-1.74-15.95-.51-.82-1.15-2.27-1.45-1.47l.43,1.54c-.6,1.59-1.7-2.73-1.75-.68-.97-1.99-2.33-4.18-2.38-7.21l1.11-.77c-.34,.13-.38,2.06,.14,2.82-.75-1.14,.83-4.82-.99-5.89l-.47,2.22c-.98-2-2.72-4.37-2.81-7.06-.98,1.4,.24,.58-.82,2.69,1.45-1.92,1.12,6.71,2.48,3.79-1.28,2.2-.1,3.42-1.04,6.16,.38-.15,.6-1.02,.8,1.21,.13,.08,.32,.29,.44,.42,0,.07,0,.09,0,.15,0-.05,.02-.08,.03-.13,.08,.08,.09,.09,0-.05,.08-.55,.22-1.02,.41-1.23,1.11,.93,1.7,4.43,2.38,5.53,.04,1.34-.55-.46-.85,.32l1.02,1.64c-.85,.33-.85,3.72-1.92,.75l.45,2.77c-.21,1.72,0,3.99,.61,5.3,.04,1.34,1.56,3.12,.67,2.11l1.32,4.24-.21,.08c.65,4.3,3.03,8.55,2.3,13.72,.48,1.4,1.02,2.84,1.19,5.29l-.68,.61c.6,1.8,.22,5.69,1.16,6.34-1.7,2.36,1.14,9.05,1.36,12.37l1.02-.05c.34,2.25,1.01,4.34,1.9,7.05l.85-.33c1.15,2.27,.47,6.27,1.23,10.04-.38-.2-.47-1.17-.38-1.89-1.19,4.88,3.15,9.29,2.42,13.66,.5,.97,.52,1.73,.43,2.48-.02-.09-.05-.18-.09-.25,0,.11,.03,.26,.06,.42-.07,.48-.17,.98-.22,1.5,.14-.47,.24-.91,.26-1.28,.16,.79,.48,1.96,.91,3.1l-.86,.67c.03,.09,.04,.17,.08,.27-.15,1.21,.61,.85,1.22,.1,.26,.56,.54,1.07,.85,1.45-1.36,1.21,1.06,2.99-.34,4.55,.94,.65,1.65,5.79,3.43,6.12-.21,.08-.25,.44-.38-.19,.04,1.34,.08,2.68,.76,3.77l-1.11,.77,2.13,2.57c-.43,1.87-.73,2.66-1.96,1.1,2.17,3.91,1.14,3.28,3.18,6.57l-.81-.03c.25,1.26,1.66,3.09,1.15,3.97-.49,1.55,.08,5.05,.76,9.11,.17,1.02,.34,2.07,.52,3.13l.12,.77,.06,.45,.1,.88c.03,.29,.05,.57,.06,.84v.39c.04,.08-.04,.1-.12,.13l-.21,.09c-.55,.25-1.08,.44-1.57,.56,1.18,.61,.56,.71-.14,.79-.12-.02-.45,.1-.71,.19-.27,.1-.52,.2-.72,.32-.41,.24-.64,.55-.45,.97-.67-.22-1.7,.1-.97-.96-2.85,2.54-5.19,2.51-6.49,5.24-.67-.21,.21-1.13-.3-1.17-.18,.27-.72,1.08-1.23,1.03-.51-.05,.19-.7,.55-1.24-3.14,2.28-2.48,3.9-1.78,5.37-2.03,.52-2.76,1.18-3.3,2.86-.86-.03-2.1,.19-.26-1.36-.57,.36-2.36,1.41-3.93,2.51-1.56,1.1-2.88,2.29-2.55,2.84-.53,0-1.57,1.05-1.77,1.38-2.47,1.76-2.78,1.79-5.05,3.72l.78-.34c0,1.94-1.74,1.79-3.52,3.41l-.04-.17c-5.03,2.5-1.56,1.85-6.57,4.27l.83,.56c.92,1.93-4.53,2.05-6.42,4.71l1.22-.32c-.85,1.65-5.47,.97-6.98,1.9-.41,.11,.27-.61,.59-1.05-4.26,2.03,.36,1.32-2.01,3.76-.91-.09-.53-1.84-2.32-.41-.61,.17-1.48,1.69-2.6,3.3-1.13,1.6-2.47,3.31-4.04,3.91,.86-.09,1.7-.17,.83,1.19-1.61,1.79-6.15,3-6.52,5.76-.32,.11-.5,.1-.6,.02-1.01,1.61-3.77,4.72-3.89,6.15-1.77-.54-3.46,1.84-4.96,4.06-1.53,2.2-2.73,4.37-3.88,3.33l-3.65,4.38-.14-.31c-2.5,2.67-2.74,4.15-2.98,5.59-.69,.52-.53-.13-.61-.29-1.95,1.84-2.92,2.95-3.62,4.12-.7,1.17-1.13,2.42-1.86,4.64l-1.08-.22c-.16,.63-1.54,2.01-3.19,3.82-.82,.91-1.71,1.94-2.51,3.05-.77,1.13-1.43,2.37-1.89,3.64-.07-.1-.17-.3-.07-.73-.54,1.41-1.43,2.77-2.42,4.08-.96,1.34-1.98,2.67-2.91,3.92-.91,1.26-1.74,2.44-2.14,3.57-.38,1.14-.41,2.17,.16,3.06l-.92,3.88c2.46-4.38,1.09,1.34,2.54-.25-.72,1.8-3.07,4.14-2.31,1.85l.31-.27c-1.37-1.6-3.03,5.47-4.17,4.86-3.62,9.24-7.17,18.5-8.44,27.95l1.59-.89-.5,3.23c-.45,.81-1.29,1.04-.93-1.3-.49,.57-.44,1.57-.23,2.44,.25,.87,.69,1.59,.84,1.64-.83,4.55-1.61-1.92-1.72-.52v1.94s.2-.42,.2-.42c.52,1.6,1.14,1.76,.93,4.57-.35,1.78-.91,.91-.97,1.61-.1,0-.15,.24-.01,1.09v4.19s1.1-1.71,1.1-1.71c.62,1.81,.05,3.88,1.3,1.91-.24,.36-.44,.87-.55,1.49-.09,.62-.13,1.35-.14,2.16,0,1.61,.15,3.5,.35,5.35,.66,3.66,1.5,7.14,1.36,8.05,1.49,2.28,2.12,4.69,2.86,7.72,0-.41,.29-.82,.64-.8,.34,.02,.77,.46,1.15,1.73-2.86-.08,.52,4.98-.5,7.73,.39-2.26,3.41,6.91,3.83,3.37,.71,2.13-.86,.53-.74,2.36,.39,.56,.74,1.15,1.09,1.77,.38,.6,.73,1.22,1.07,1.86,.68,1.29,1.29,2.67,1.91,4.11,.31,.72,.62,1.44,.94,2.18,.37,.7,.74,1.41,1.12,2.13l.26,.48,.13,.25c.09,.17,.18,.33,.27,.49,.19,.33,.4,.64,.64,.95,.21,.01,.41-.1,.65-.16,.25-.06,.56-.07,1.1,.31-.16,.31-.31,.58-.58,.77-.6,.15-1.14,.26-1.65,.33-.09,.2,.34,.49,.51,.8,.18,.29,.01,.66-.94,.71,.35,.08,.96,.12,.66,.56-.24,.15-.41,.24-.68,.43l-.95,.72c-.63,.49-1.25,.99-1.86,1.51-1.22,1.03-2.41,2.1-3.57,3.21-2.34,2.2-4.59,4.53-6.87,6.83-4.56,4.6-9.23,9.11-14.92,12.5,1.71-.74,.94,.12,.02,1.08,.73-.49,.6,.63,1.06,.85l-4.74,2.87c.25,1.62-3.99,4.16-3.48,5.45l1.03-1.37c-.52,2.66,4.58,.07,5.71,1.66,.57-2.99,6.46-2.93,7.68-7.55,.92-.36-.12,.99,.54,.96,.17-1.32,.95-2.33,2.88-3.71l-.05,.33c4.57-4.75,7.16-6.13,12.88-10.84l-1.05-.31c1.24-1,1.69-1.02,2.39-1.36,.33-2.3-3.29,3.02-3.18,.72,2.85-.06,8.17-7.69,10.71-7.06,.9-.83,.58-.91,.26-.99-.16-.04-.32-.08-.33-.21,0-.07,.03-.16,.12-.28,.1-.13,.21-.25,.57-.59,.37-.08,.76-.17,1.15-.27,.04-.38,.06-.75,.06-1.1,1.77-1.48,3.45-2.02,4.08-1.92-.52,.4-1.17,1.28-1.64,1.77,1.58-.99,3.38-2.74,4.8-4.23-1.27-1.86-2.46-3.39-2.64-3.91l1.59,3.23c-1.59-2.28-3.1-4.6-4.59-6.96-.54-.85-1.08-1.72-1.63-2.58-.5-.74-.87-1.55-1.31-2.33-.85-1.57-1.71-3.12-2.61-4.59-.23-.37-.46-.73-.69-1.09-.21-.37-.42-.73-.62-1.09-.42-.71-.86-1.4-1.31-2.06l-.21,.62c-2.69-4.08-1.23-3.66-3.32-8.48l.16,.14c-.77-.84-1.46-2.1-1.9-3.48,.49,.54,.48-.11,.59-.74,.1-.63,.22-1.2,.72-.46-2.2-4.72-1.33-2.24-3.85-5.16l.51-.94c-.92-.99-1.25-1.02-1.94-3.6,1.03,2.01,.8-1.86,2.07,.35,.3-2.84-.55-4.73-.97-6.35-.49-1.61-.85-2.9,.2-4.23-2.32-2.35-.63,4.83-1.22,3.47-.54,1.28-1.75-1.93-1.73-3.71-.1-.89,.57-1.7,1.18-2.81,.62-1.12,1.21-2.53,1.13-4.71,0,.44,.16,.47,.16,.9,.42-1.62-.65-3.23,.29-5.2-1.18-1.2,.2-2.6-1.36-3.05l.16,4.08c-.15-1.16-.66-2.3-.99-3.65-.08-.34-.16-.69-.21-1.05-.03-.36-.03-.74-.01-1.13,.05-.78,.21-1.63,.55-2.56,.28,.34,.55,1.52,.68,2.31,.61-1.05-.03-2.16,.59-3.25,1.57,.53-.4,4.93,.81,7.47,.36-.56,.14-1.73,.02-2.59-.05-.86,0-1.41,.77-.72-.97-.97-.76-2.05-.48-3.25,.14-.6,.31-1.23,.36-1.92,.04-.68-.03-1.42-.27-2.22l.9,.36c-.05-.48-.3-1.52-.1-2.36l.9,1.76c-.28-1.26,.18-2.35,.69-3.4,.51-1.05,1.04-2.07,1.1-3.23-.34,1.15-.51,1.78-.7,2.11-.18,.32-.36,.33-.53,.25-.35-.16-.72-.68-1.26,.25,0-.77,.04-1.39,.12-1.9,.11-.51,.27-.9,.45-1.22,.35-.64,.8-.99,1.27-1.36,.48-.36,.98-.73,1.45-1.42,.23-.34,.46-.76,.67-1.3,.2-.54,.39-1.19,.63-1.98-.22,.86-1.48,3.06-1.55,1.57,.13-.29,.28-.6,.44-.92,.18-.31,.37-.61,.57-.9,.39-.58,.8-1.09,1.16-1.37,1.27-4.2-1.15,.32-1.08-1.64,1.61-1.03,.23-2.22,.62-4.19l.9,.34c2.54-4.43-1.33-2.01,1.14-5.96l.47,2.32,.61-2.33,.81,.9c.3-2.69,.93-3.31,2.3-5.45-.87,.23-1.42-1.08-.44-3.14,1.26-1.08,.39,1.18,1.84-1.68,.19,.93,.43,1.95-.98,2.77,.22,.27,.22,.92,.44,1.19,.33-.29,.61-.67,.86-1.08,.27-.4,.52-.84,.74-1.27,.43-.87,.77-1.72,1.04-2.23-.25,.37-.55,.81-.81,.98l1.1-4.7c.67-.45,.64,.2,.6,.84,.35-.88,.34-1.64,1-2.86,.48,.71,1.21,1.06,.5,2.9l1.59-4.18c.45-.07,1.99-1.41,1.93-.77,.42-.45,.74-1.04,1.04-1.71,.32-.66,.61-1.39,.91-2.15,.61-1.51,1.3-3.11,2.47-4.27-.02-.22,.03-.6,.37-1.21,1-1.17,2.1-2.15,3.11-3.27,1.03-1.12,1.91-2.42,2.67-4.15l2.4-.7c1.56-2.4-3.15,1.04-.54-2.97,1.8-2.89,1.72-.2,2.76-.86,.54-1.72,1.41-4.86,4.31-6.42-.48,.95-1.17,1.41-1.72,2.19Zm24.62-25.4c-.38,.61-.98,1.99-1.74,1.9-.16-1.34,.65-1.35,1.74-1.9Zm41.22-35.29c-.24,.56-.99,.87-1.93,1.1,.48-.45,1.12-.83,1.93-1.1Zm-14.53-143.2s.04,.04,.06,.07c-.1,1.6-.05,1.03-.06-.07Zm-.15-3.25c-.19-.3-.32-.25-.43-.09,.28,.18,.42,.89,.5,1.71,.21-.27,.31-.71-.07-1.62Zm-99.16,293.33l.24-.65c.32,1.47,.05,1.06-.24,.65Z"/>
        <path class="cls-2" d="M1777.03,788.55c-.25-.02-.4-.13-.55-.25-.13,.29-.02,.45,.55,.25Z"/>
        <path class="cls-2" d="M1702.16,861.9s-.04,.06-.07,.08c.01,.08,.04,.14,.08,.19v-.27Z"/>
        <path class="cls-2" d="M1783.4,685.23c-.02,.68-.13,1.07-.27,1.35,.24,0,.38-.34,.27-1.35Z"/>
        <path class="cls-2" d="M1762.01,620.91l.61,1.99c-.22-.98-.08-1.36-.01-1.89-.21,.08-.47,.53-.59-.1Z"/>
        <path class="cls-2" d="M1764.76,602.21c-.17-.28-.12-.63-.29-.9l-.43,.16c.25,1.26,.77,2.08,.72,.74Z"/>
        <path class="cls-2" d="M1764.83,618.46c.77-.3,.27-1.53-.13-2.93,.02,.09,.04,.17,.04,.25-1.19-.22-.55,1.23,.08,2.68Z"/>
        <path class="cls-2" d="M1764.62,615.21c-.12-.43-.22-.88-.25-1.31-.48-.09,0,.55,.25,1.31Z"/>
        <path class="cls-2" d="M1765.37,633.52c.09-.71-1.1-.24-.84-.68-1.15-.57,2.03,4.29,.84,.68Z"/>
        <polygon class="cls-2" points="1767.26 616.84 1766.37 617.53 1767.3 618.19 1767.26 616.84"/>
        <path class="cls-2" d="M1768.54,628.23l-.13-2.33c-.16,.06-.31-.21-.44-.55,.22,1.41,.29,2.98,.58,2.88Z"/>
        <path class="cls-2" d="M1767.96,625.35c-.11-.73-.26-1.43-.49-1.8,.08,.39,.26,1.24,.49,1.8Z"/>
        <polygon class="cls-2" points="1768.11 619.9 1768.03 620.61 1768.24 622.23 1768.11 619.9"/>
        <path class="cls-2" d="M1772.69,652.74l.72,2.44c.38,.19,.47-.52,.17-1.42-.34-.55-.64-1.45-.89-1.01Z"/>
        <path class="cls-2" d="M1774.06,644.74c-.09,.71-.3,.79-.56,1.23l1.24-.14-.68-1.09Z"/>
        <path class="cls-2" d="M1775.63,651.94c.38,.19,1.61,3.43,.98,.3-.38-.19-1.1-2.63-.98-.3Z"/>
        <polygon class="cls-2" points="1780.73 689.66 1780.6 689.03 1778.61 689.48 1780.73 689.66"/>
        <path class="cls-2" d="M1791.39,721.82c-.04-3.03-1.36-.48-1.23-3.25-.6-.61-.1,2.26-.64,1.63,.82,1.69,.7,2.67,1.87,1.62Z"/>
        <path class="cls-2" d="M1789.51,720.2c-.13-.27-.28-.56-.47-.85,.22,.49,.36,.72,.47,.85Z"/>
        <polygon class="cls-2" points="1649.13 1024.39 1647.47 1025.47 1648.84 1025.06 1649.13 1024.39"/>
        <path class="cls-2" d="M1647.61,1028.09l-1.25-.58,.03,1.65c.26-.35,.78-1.04,1.22-1.07Z"/>
        <path class="cls-2" d="M1745.73,817.67l-.09-.33c-.44-.06-.8,.2-1.5,.75,.53-.15,1.05-.29,1.59-.42Z"/>
        <polygon class="cls-2" points="1726.37 834.42 1726.7 834.13 1725.29 833.88 1726.37 834.42"/>
        <path class="cls-2" d="M1713.09,851.17c.59-.63,1.01-1.6,1.64-2.21-1.08,1.56-2.9,1.46-1.64,2.21Z"/>
      </g>
      <g>
        <path class="cls-2" d="M1603.62,1077.32l-.03-.35c-.02,.15,0,.26,.03,.35Z"/>
        <path class="cls-2" d="M1602.45,1078.95l.3,.26c-.13-.2-.24-.32-.3-.26Z"/>
        <path class="cls-2" d="M1609.29,1067.95l-.5-.79c-.3,.4,.18,.5,.5,.79Z"/>
        <path class="cls-2" d="M1635.29,1038.74s.08,0,.14,0c-.08-.09-.11-.06-.14,0Z"/>
        <path class="cls-2" d="M1649.39,1036.6c-.04,.12-.16,.25-.27,.38,.1-.02,.19-.12,.27-.38Z"/>
        <path class="cls-2" d="M1623.1,1055.79s.06,0,.1,.01c-.11-.43-.14-.31-.1-.01Z"/>
        <path class="cls-2" d="M1606.18,1073.26l-1.01,.07c-.58-1.39,.12-1.6-1.13-1.74,2.15,1.67-1.28,2.24,.89,3.89l-.71,.03c.09-.09-.03-.19,.06-.28-1.55-.05,1.25,1.64,.33,2.3-.38,.19-.86,.18-.98-.21l.08,1.07c-.18,.17-.54-.14-.36-.31l-.53,1.19-.06-.05c.25,.39,.58,1.1,.7,1.42-.5,.06-.15-.29-.48-.41l.16,.95c-.75-.14-1-1.01-.64-1.36-2.63-.93,.25,.86-1.87,1.2l.08-.75c-1.54-.48-1.35,.28-2.58,.42,.53,.11,2.86,0,3.02,1.02-.29,.07-.52,.27-.28,.91-.82-.51-.84-.04-1.06,.42l-1.07-.7c.02,.67,.6,.97,.91,1.55-.43,.46-1.34,.06-2.13-.24-.69,.76,1.71,.23,1.32,1.36-.84,.46-.7,1.22-.51,2.46-.66,.29-.63-.47-1.05-.47l.64,.95c-.08,.1-.34-.09-.46-.19,.14,.57,1.1,.65,1.08,1.41,1.15,.82-2.48,.24-1.45,1.74-.42,.02-.65-.45-1.12-.62,.41,1.52,.21,1.23,1.07,2.71l-1.1,.36c1.12-.12,1.82,1.05,2.4,2.01,.51,.01,.95,.03,1.17,0,.07,.4,.12,.79,.21,1.19-.24,.02-.6-.25-1.02-.62,.07,.11,.14,.21,.21,.29-.57,.14-1.18-.33-1.72-.86,.28-.01,.57-.02,.87-.01-.6-.55-1.28-1.13-1.98-1.4,.1,.12,.16,.3,.17,.46-.16-.15-.32-.27-.45-.29-.14-.02,.07,.19,.3,.48l-1.4-.36,.49,.29-1.38,.95c.92,1.5,2.58,3.07,2.64,4.68-.87-.7-1.59-.63-2.76-1.05,1.36,.01-.1-1.36,.45-2.06-.28,.36-.8,.06-.95-.12,.19,.62,.38,1.22,.59,1.82-.95-.37-.82,.05-1.34,.3,2,.36,.89,1.47,1.34,2.25-.65-.14-1.29-.49-.9-1.17-1.7,.38,1.96,1.69,.51,2.11,.03-.18,.16-.25-.15-.4,.45,.55-.23,1.46-.75,1.09l.03-.19c-.55,1.14-.69,3.85,1.04,4.15-.22,0-2.03-.33-2.37-.45,1.81,.97,3.72,1.76,5.63,2.32-.73-.07-1.97,.07-3.12,.14-1.16,.06-2.23,.03-2.64-.55-.21,.33-.47,.76,.11,1.45,.19-.26,2.07-.66,2.22-.39-.78,.43-.99,.61-1.16,.79-.17,.19-.35,.39-.91,1.03,.25-.39,2.58-.34,2.59,.12-.35-.01-2.21,.47-2.48,.32,.8,.33,1.66,.6,2.49,.79-.47-.19-1.86,.43-2.38,.94,.34-.28,.38,1.24,.75,1.54l.26-.78c.12,.84,1.07,.88,1.94,.81,.88-.05,1.79-.24,2.07,.32-.44,.16-2.63,1.24-2.35,2.1,.59-.19,1.92-.7,3.21-1.31,1.3-.59,2.48-1.28,3.05-1.39l-.3,.61c.33-.07,.65-.15,.95-.24-.62,.61-1.75,1.5-3.01,2.12-1.27,.66-2.67,1-3.59,1.05,.04,.82-.46,.65,.28,1.34-.17,.71-1.06,.26-1.31,.04,.24,.35,.48,.7,.74,1.04l.82,.97c.77-1.07,2.25-.02,2.77-1.05-.88-.02-1.8-.11-2.74-.34,.41-.53,1.32-1,2.17-1.28,.87-.3,1.66-.4,2.13,0,.02,.63-1.44,1.93-1.67,2.31,.21-.15,.62-.15,.97-.09,.35,.05,.65,.17,.63,.34-.29,.12-.58,.24-.88,.36,.25,.41,.76,.17,1.22,0,.46-.18,.86-.28,1.06,.49,.25,.19,.34,1.96,.66,1.22-.05-1.64,1.56-6.11,2.15-7.12,0,.13,.68,1.76,.82,2.56,.16,1.28-1.36,2.62-1.25,3.71,.11-.35,.48-.73,.62-.84,.23,.38-.39,1.08,.31,1.07,.4-1.3,1.31,.37,.55-1.06,.69-.27,.61,.41,1.36,.46-.08-.9,1.06-2.87,1.64-3.21-.07,.34,.01,.8,.06,1.02,1.17,.23,1.79,.88,2.92,.9,.1,.33,.66,.73,.42,1.32,.17-.24,.32-.7,.67-.74,.72,1.16-.79,.2-.25,1.6,.04-.79,.92-1.11,1.39-1.63-.21-1.21-1.15-.19-1.66,.3,0-1.69,.82-3.45,1.84-4.29,.83-.47,.45,1.06,.58,.82,1.7,.16,1.1-3.04,2.55-1.99,.67,.99,.31,2.12,.53,2.87-.69,.5-1.21-.54-1.69-.44l.66,.44c-.19,.38-.66,.71-.96,.42,.56,.93,2.92-.13,4.35,.48,.06-.14,.13-.3,.21-.45,.12-.24,.23-.5,.08-.77l-.16,.06-.25,.15c-.31-.45-.06-.82,.13-1.13,.14-.2,.23-.36-.06-.52h0c.68-.64,1.2-1.62,2.04-1.17l.22,1.22c-.04-.36-.56-.71-.76-.32,.3-.56,1.32,1.6,1.58-.02l-.61-.82c.53-.64,1.16-1.97,1.89-1.62-.39-1.19-.15,.15-.74-1.25,.54,1.74-1.81,0-1,1.83-.61-1.62-.93-.66-1.69-2.03,.05,.4,.29,.76-.32,.59-.02,.12-.07,.27-.11,.36-.03,0-.04-.02-.06-.03l.05,.05c-.03,.06-.04,.07,.02,.02,.15,.17,.28,.38,.34,.6-.11,.53-.52,.77-1.04,.97-.35,.21-.74,.4-.77,.62-.34-.13,.05-.48-.2-.87l-.3,.78c-.2-.88-1.06-1.34-.43-1.98l-.65,.06c-.45-.44-.99-.57-1.27-.16-.32-.16-.68,1.07-.48,.34l-.98,.65-.03-.22c-1-.04-2.08,1.61-3.23-.03-.33,.22-.7,.49-1.24,.21l-.06-.78c-.44,.25-1.13-.87-1.38-.09-.16-2.11-1.72-.72-2.23-1.25l-.28,.97c-.4-.17-.86,0-1.49,.18l-.3,.85c-.35,.24-.61-.01-.79-.38-.2-.36-.31-.8-.61-.92,.23-.27,.31-.11,.3,.12,.09-.53,.03-.75-.11-.84-.15-.08-.41-.01-.67,.04-.27,.06-.57,.12-.75,.05-.18-.06-.27-.23-.06-.58-.34,.09-.34-.07-.21-.28,0,.01,.03,.01,.06,0,0-.02,0-.04-.02-.06,.1-.13,.2-.28,.3-.42-.16,.16-.28,.31-.32,.4-.07-.09-.26-.16-.54-.2l.82-.52s-.02-.01-.04-.02c.26-.29-.46,.09-1.07,.51-.18-.01-.39,0-.64,.02,.66-.39,.5-.44,.35-.53-.15-.08-.31-.2,.44-.55-.81,.14-.84-.78-2.52-.67,.22-.05,.31-.13,.34,0,.14-.31,.29-.59-.2-.81l1.21-.22c-.56-.15-1.13-.32-1.68-.53,.75-.43,1.19-.55,2.12-.2-1.44-.88-.55-.68-1.91-1.61l.79,.11c-.02-.28-1.01-.89-.33-.99,.4-.12,.64-.37,.8-.71,.18-.34,.3-.77,.42-1.24,.27-.93,.61-2.01,1.56-2.62-2.31-.43,1.24-.43-.42-1.1,.56,.09,.94-.03,1.28,.4-.17-1.04,1.27-.93,.13-2.09,.55,.12,.67,.49,1.01,.53-.08-.11-.33-.45,.01-.41,.34,.04,.37,.3,.54,.53,.27-.87-1.24-1.65-2.67-2.36,.88-.15,.89-.4,.1-1.17,.55,.06,1.16,.04,1.08,.66,.22-.28,1.56-1.53,.45-2.13,.34,.05,.3-.38,.22-.53,.42-.65,.55-.66,.8-1.39l-.28,.09c-1.22-1,0-.72,.14-1.35l.13,.09c1.66-.69-.18-.81,1.62-1.38l-.87-.41c-1.72-1.15,1.69-.46,1.42-1.55l-.62-.03c-.38-.76,3.04,.39,3.49,.17,.2,.01,.16,.28,.21,.46,1.64-.33-.99-.79-.78-1.67,.66,.23,1.35,1.09,1.76,.67,.6,.06-.96-2.6,.58-2.55-.53-.14-1.06-.28-1.17-.83,.19-.62,2.55-.3,1.51-1.67,.16,.02,.29,.07,.4,.14-.08-.63,.29-1.66-.28-2.41,2.95,1.54,.4-3.35,2.88-1.57l.72-1.28,.23,.22c.71-.63,.33-1.33-.07-2.03,.3-.05,.43,.25,.55,.36,1.31-.73,1.29-.91,.76-2.75l.86,.51c-.26-.6,2.44-.62,2.35-2.38,.08,.08,.21,.22,.26,.39,.01-1.92,4.4-1.11,1.92-3.8l-.07-1.34c-1.03,.84-1.1-1.14-1.9-1.1,.15-.54,1.69-.34,1.43,.26l-.2-.04c1.31,1.36,1.54-.83,2.51,.01,1.54-2.04,3.95-3.26,5.55-5.02l-1.29-.74,.6-.58c.4,.06,1.06,.52,.63,.93,.83,.3,.13-1.21-.1-1.43,1.21-.49,.99,1.46,1.26,1.21l.23-.44-.2-.03c-.2-.69-.65-1.13-.13-1.62,.52-.15,.83,.42,.99,.32,.08,.07,.15,.06,.21-.18l.78-.71-1.15-.44c-.12-.73,.69-.71-.61-1.2,1.98,.78,3.15-2.46,3.9-2.38-.19-1.05,.25-1.52,.85-2.05-.31-.01-1.36-.79-.78-1.2,1.82,1.98,1.72-.16,3.52,.72-1.28-.49,1.08-1.66-.78-2.3,.55-.28,.77,.65,1.52,.75,.15-1.72,2.53-1.77,3.42-3.24-.24-.26-.83-.42-.96-1.04l1.9,.54c.1-.36-1.28-1.61,.03-1.22-.28-.14-.69-.35-.62-.59,3.52-1.24,3.63-5.92,8.3-6.11-.81-.14-.65-.41-.42-.68-.27,.05-.62-.61-1-.9l1.93-.1c-.77-1.1,.99-1.15,.18-2.14l-.15,.48c-.66-1.47-2.96-1.71-4.28-3.1,.76,1.66-3.04-.47-2.05,2.01-.45-.1-.3-.58-.71-.79,.4,.77,.29,1.13-.41,1.33l-.1-.19c-1.07,1.4-2.17,1.4-3.92,2.46l.79,.54c-.38,.22-.66,.08-.97,.06,.71,1.34,.88-.81,1.72,.6-1.79-.91-2.08,2.15-3.93,.93-.45,.47,.93,.61,.48,1.08l-.55-.28,.45,.64c-.38,.23-1.07-.12-1.45-.45,.11-.04,.1-.31,.14-.42-.89-.07-.89,1.31-1.19,1.3l.7-.21c-.81,1.68-2.86,2.76-3.13,4.85l.42,.2c-.27,1.53-1.07,.45-1.76,1.77l-.04-.11c.14,.51,.04,.95-.26,1.21-.15-.62-1.21-.17-1.33-.91-.29,1.66,.05,.99,.66,2.8l-.7-.33c.29,.69,.53,.94,.2,1.61-.08-.86-1.15-.41-1.34-1.46-2.22,.06-.27,2.76-2.51,1.72,1.08,1.88,1.72-.23,1.8,.35,.72,.2,.77,1.44,.31,1.66-.35,.33-2.51-1.11-3.29-.16,.09-.09-.02-.19,.06-.28-.69,0-.05,1.14-1.06,1.01,.73,1.05-.53,.5,.61,1.6l.45-1.08c-.1,.75,.91,2.4-.44,2.61-.19-.27-.31-.78-.35-1.09-.55-.07-.14,.65-.71,.58-1.15-1.1,.62-1.26,.15-2.56-.72-.19,.03,1.72-1.05,.34,1.33,1.79-.99,.74-.26,2.45l-.69-.66c.03,.2,.2,.69,.02,.86l-.66-1.13c.37,1.19-1.54,.4-1.52,1.26,.85-1.05,1.07,.51,1.97,.52-.09,2.08-2.52-.88-3.37,.85,.06-.28,1.04-.37,1.13,.22-.38,.15-.95,.28-1.48,.13-.63,1.08,.87,.48,.99,1.25-1.16-.41-.02,.77-.08,1.42l-.75-.61c-1.37,.69,1.32,1.56-.06,2.06l-.7-1.26-.15,.73-.76-.8c.17,1.07-.12,1.11-.81,1.47,.63,.3,1.31,1.17,.94,1.67-.71-.03-.57-.76-1.01,.02-.35-.53-.8-1.18,.13-.92-.22-.23-.35-.53-.57-.76-.8-.05-.84,.81-1.03,1.06,.11-.07,.24-.16,.39-.13l.25,1.83c-.41-.07-.54-.37-.66-.67-.08,.27,.15,.68-.02,1.03-.56-.56-1.21-1.05-1.16-1.7l-.07,1.5c-.32-.15-1.12-.08-1.25-.38-.78,.26,.18,2.26-.86,2.6,.09,.13,.15,.29,.12,.51-.65,.57-1.87,.6-1.62,2.05l-1.47-.38c-.22,.82,1.89,.44,1.53,1.8-.19,1.01-1.17-.43-1.68-.4,.3,.8,1,2.29-.43,2.32-.05-.38,.25-.44,.32-.72Zm-5.01,8.42c-.07-.27-.39-.93,.17-.74,.81,.78,.27,.63-.17,.74Zm-5.11,14.24c-.24-.26,0-.4,.43-.48,0,.2-.11,.37-.43,.48Zm19.86,19.26s0,.03-.01,.05c-.41-.32-.27-.19,.01-.05Zm.82,.31c.06-.14,.03-.28-.02-.4-.02,.25-.18,.29-.39,.25,.09,.24,.21,.4,.41,.15Zm13.04-57.48l-.3-.04c.03-.46,.16-.22,.3,.04Z"/>
        <path class="cls-2" d="M1609.38,1068.1s.02-.01,.03-.02c-.04-.05-.08-.09-.12-.13l.09,.15Z"/>
        <polygon class="cls-2" points="1651.46 1036.03 1652.12 1035.96 1651.4 1035.72 1651.46 1036.03"/>
        <path class="cls-2" d="M1651.05,1034.28l1.01,.82-.63-1.04c-.04,.12-.11,.36-.38,.22Z"/>
        <polygon class="cls-2" points="1602.95 1076.05 1602.86 1076.14 1603.95 1076.62 1602.95 1076.05"/>
        <path class="cls-2" d="M1605.21,1070.3c-.19,.17-.14,.55-.33,.72,.14-.56,1.55,.09,.33-.72Z"/>
      </g>
    </g>
  </g>
  <g>
    <path class="cls-1" d="M316.28,1142.53s206.41-71.39,4.76-109.55c0,0,207.67-98.37-74.24-117.78,4.98-40.71,76.73-159.52-177.2-47.58,0,0,70.05-87.93-151.69-102.48-84.98,16.7-116.84,81.68,0,120.07-179.58,15.71-334.76,9.55-216.01,166.43-36.35,28.84-68.44,108.78,112.28,81.95,127.44-28.22,502.08,8.95,502.08,8.95Z"/>
    <g>
      <path class="cls-2" d="M413.3,1081.16c-1.22,1.68-2.52,3.28-3.88,4.8,.53-.37,1.68-1.63,2.58-2.54,.86-.97,1.44-1.63,.83-.78,.49-.64,.92-1.17,1.25-1.64,.32-.48,.58-.87,.78-1.18,.4-.62,.55-.9,.52-.94-.07-.07-.87,.91-2.08,2.27Z"/>
      <path class="cls-2" d="M416.18,1075.94c-.52,.95-1.06,1.9-1.64,2.81,.39-.41,.87-1.14,1.64-2.81Z"/>
      <path class="cls-2" d="M410.48,1084.17l1.09-1.28,1.03-1.35c.7-.88,1.32-1.85,1.96-2.79-.64,.65-.82,.63-1.81,2.55,.09-.28-.03-.13-.39,.38-.36,.52-.95,1.39-1.87,2.49Z"/>
      <path class="cls-2" d="M406.97,1046.35c-.4-.09,1.58,1.47,1.86,1.88,.65,.41,1.3,.85,1.94,1.28,.64,.45,1.26,.95,1.88,1.43-.46-.41-1.01-.91-1.6-1.43-.61-.48-1.25-.97-1.83-1.43-1.2-.84-2.18-1.57-2.27-1.73Z"/>
      <path class="cls-2" d="M408.83,1048.22c-1.98-1.18-3.99-2.25-6.05-3.13,1.35,.66,2.41,1.24,3.24,1.71,.84,.44,1.43,.83,1.87,1.07,.87,.49,1.06,.53,.95,.36Z"/>
      <path class="cls-2" d="M416.01,1074.58c-1.57,3.41-3.7,6.47-6.03,9.3,2.78-3.37,5.39-7.01,6.95-11.27-.27,.68-.56,1.34-.91,1.97Z"/>
      <path class="cls-2" d="M383.03,1037.35c1.24,.17,2.48,.4,3.72,.61-2.2-.42-4.41-.78-6.61-1.11l2.88,.51Z"/>
      <path class="cls-2" d="M366.68,1034.13c2.76,.15-3.65-1.09-.75-.8-4.47-.65-8.33-.92-11.79-1.09,3.66,.31,7.55,.85,12.53,1.89Z"/>
      <path class="cls-2" d="M348.34,1031.93c1.83,.1,3.73,.2,5.8,.31-1.95-.17-3.86-.28-5.8-.31Z"/>
      <path class="cls-2" d="M392.27,1040.82c-.46-.24-1.32-.81-4.86-1.94l2.37,1.15c.76,.22,1.61,.51,2.48,.79Z"/>
      <path class="cls-2" d="M389.87,1040.07l-.08-.04c-2.7-.83-4.58-1.31-5.39-1.53,.69,.2,2.35,.6,5.47,1.57Z"/>
      <path class="cls-2" d="M392.89,1041.03c-.23-.08-.4-.13-.62-.21,.23,.12,.36,.18,.62,.21Z"/>
      <path class="cls-2" d="M416.47,1056.71c-.62-.86-1.44-1.92-2.33-2.8-.42-.47-.89-.86-1.3-1.22-.42-.35-.78-.69-1.12-.91-.65-.45-1.01-.66-.84-.41,.17,.24,.9,.91,2.24,2.4,1.06,.98,.86,.58,.93,.45,.04-.06,.14-.05,.5,.26,.38,.3,.97,.94,1.91,2.22Z"/>
      <path class="cls-2" d="M395.76,1042.6c1.1,.4,2.17,.89,3.26,1.33,1.07,.49,2.15,.96,3.2,1.5-.07-.16-1.16-.89,.64-.12-1.16-.55-2.35-.97-3.53-1.46-1.19-.42-2.37-.87-3.57-1.25Z"/>
      <path class="cls-2" d="M392.48,1041.6c1.1,.3,2.19,.67,3.28,1.01l-2.44-.91-.85-.1Z"/>
      <path class="cls-2" d="M360.09,1033.73c-2.99-.22-6.24-.61-9.92-.98,3.93,.51,7.99,1.05,11.84,1.62,.56-.05,2.29-.05-1.92-.64Z"/>
      <path class="cls-2" d="M374.63,1036.28c-.2-.03-.47-.08-.66-.11,.4,.12,.72,.19,.66,.11Z"/>
      <path class="cls-2" d="M331.53,1029.69c-.12,.04-.22,.07-.34,.11,.03,0,.06,.02,.1,.03l.25-.14Z"/>
      <path class="cls-2" d="M362.66,1034.54c2.94,.5,4.71,.72,6.41,.86-2.21-.32-4.55-.67-7.05-1.04-.25,.02-.3,.06,.65,.18Z"/>
      <path class="cls-2" d="M338.21,1031.21c1.54,.2,3.28,.43,5.12,.67-1.5-.29-4.56-.73-5.12-.67Z"/>
      <path class="cls-2" d="M373.01,1035.86c.15,.02,.28,.04,.44,.07-.95-.28-.83-.21-.44-.07Z"/>
      <path class="cls-2" d="M373.01,1035.86c-1.53-.22-2.73-.33-3.94-.45,1.8,.28,3.47,.54,4.91,.76-.36-.1-.71-.22-.97-.31Z"/>
      <path class="cls-2" d="M336.52,1023.54c-.12,.3-1.79,1.56-4.2,3.07-1.17,.74-2.47,1.52-3.89,2.34-1.43,.8-2.99,1.62-4.75,2.5-1.47,.94-1.77,1.29-1.04,1.16,.51-.07,.84-.15,1.06-.25,.93-.28,2.46-.81,3.83-1.3,1.39-.49,2.69-.94,3.67-1.26-.13-.03-.28-.03-.08-.25,.1-.11,.3-.28,.66-.55,.19-.14,.42-.3,.68-.49,.14-.1,.29-.2,.45-.31,.09-.06,.19-.13,.29-.2,.17-.11,.34-.22,.52-.33-.73,.36-3.05,1.49-4.74,2.32-1.82,.87-3.56,1.68-2.11,.65,2.83-1.71,4.24-2.53,5.12-2.94,.5-.23,.89-.4,1.36-.62,.55-.26,1.2-.57,2.17-1.08-3.43,1.52,9.43-6.59,7.34-6.21-2.17,1.49-4.39,2.91-6.59,4.36-.18-.02,2.17-1.66,.24-.61Z"/>
      <path class="cls-2" d="M331.36,1031.29l1.21,.02c-1.12-.14-1.83-.31-1.99-.59,.07-.03,.17-.07,.27-.11,.47-.48,.62-.74,.44-.78l-2.24,1.25,2.8,.17-.49,.03Z"/>
      <path class="cls-2" d="M342.9,1032.1c-2.23,.23-8.96-.11-4.88,.68,4.1,.3,5.55,.37,6.58,.35,1.03-.01,1.66-.1,4.12,.07-13.25-1.17,3.83,.1-5.72-1.04,2.61,.16,4.96,.37,7.17,.59-2.38-.3-4.68-.6-6.84-.87,.12,.02,.2,.04,.3,.05h.06s-.01,0-.01,0c.57,.11,.75,.16,.11,.07-.04,0-.21-.01-.28-.02-.1,.05-.35,.08-.61,.11-3.83-.42-.59-.17,.61-.11,.05-.02,.15-.03,.17-.05-.01,0-.03,0-.05,0-2.22-.18-4.44-.29-6.66-.44l-3.06-.16-1.34-.03c.28,.03,.57,.06,.9,.09,.56,.04,1.17,.09,1.85,.14,2.01,.15,4.46,.33,7.58,.57Z"/>
      <path class="cls-2" d="M406.93,1049.95c-.33-.25-.3-.27-.31-.31-.76-.42-1.05-.56,.31,.31Z"/>
      <path class="cls-2" d="M402.28,1047.03c.89,.39,1.73,.55,4.42,2.25,2.26,1.58-.12,.17-.08,.36,.85,.43,2.24,1.36,2.85,1.69,.59,.36,.46,.04-1.98-1.75l-.84-.46c-4.49-3.07-10.89-5.94-9.97-5.68,1.33,.95,2.55,1.67,5.6,3.59Z"/>
      <path class="cls-2" d="M372.83,1037.18c-3.65-.61-7.31-1.17-10.98-1.61,1.85,.39,3.68,.8,5.52,1.23l-.25-.27c6.2,1.16,4.9,.67,5.71,.64Z"/>
      <path class="cls-2" d="M332.28,1029.51c.09,.12,.23,.21,.42,.28,0-.12,.07-.29,.22-.5,.07-.11,.17-.22,.28-.35l.19-.2s.04-.05,.14-.13l.32-.24-.26,.17-.13,.08-.05,.03-.18,.13-.34,.26-.61,.47Z"/>
      <path class="cls-2" d="M342.04,1023.58l-.25,.61c1.05-.72,2.07-1.49,3.11-2.23l-2.86,1.61Z"/>
      <path class="cls-2" d="M236.41,823.45c-4.48-2.17-9.81-3.82-9.32-3.25l1.38,.74c1.67,.41,3.15,.73,4.45,1.2,.65,.22,1.27,.43,1.85,.63,.58,.22,1.12,.47,1.64,.69Z"/>
      <path class="cls-2" d="M64.79,795.49c.39,.23,.79,.47,1.2,.7,1.1,.35,2.14,.69,3.07,.99-1.28-.51-2.74-1.08-4.26-1.69Z"/>
      <path class="cls-2" d="M61.02,795.75l-5.56-2.77c1.24,.65,3.03,1.53,5.56,2.77Z"/>
      <path class="cls-2" d="M346.43,925.63c-3.89-1.34-7.03-2.29-9.8-3.05,4.72,1.51,8.44,3.02,9.8,3.05Z"/>
      <path class="cls-2" d="M325.14,919.67c.69,.2,1.38,.4,2.08,.61,2.93,.64,5.88,1.31,9.41,2.29-3.48-1.14-7.52-2.25-11.49-2.9Z"/>
      <path class="cls-2" d="M387.93,987.48c-2.02,2.42-.29,.41,0,0h0Z"/>
      <path class="cls-2" d="M376.15,997.06c.45-.48,.77-.86,.76-.98-.12,.25-.39,.58-.76,.98Z"/>
      <path class="cls-2" d="M294.85,915.99c-.09-.02-.16-.03-.26-.05,.87,.26,.72,.21,.26,.05Z"/>
      <path class="cls-2" d="M384.65,990.89c.42-.41,.87-.86,1.34-1.33,.45-.5,.93-1.03,1.42-1.58-.46,.46-1.24,1.41-2.76,2.92Z"/>
      <path class="cls-2" d="M385.24,990.57c-.75,.78-1.34,1.39-1.9,1.97-.22,.34,.05,.11,1.9-1.97Z"/>
      <path class="cls-2" d="M390.63,983.99c-1.1,1.44-2.12,2.81-3.22,3.99,.42-.45,.61-.63,.51-.5,.61-.69,1.38-1.76,2.7-3.49Z"/>
      <path class="cls-2" d="M157.88,829.83c.13-.04,.21-.07,.33-.11-.14,.03-.31,.07-.44,.1h.11Z"/>
      <path class="cls-2" d="M147.52,833.04c4.27-1.85,6.84-2.45,10.25-3.22l-3.8-.3c-2.17,1.17-4.33,2.31-6.45,3.53Z"/>
      <path class="cls-2" d="M-162.52,837.8c-.82-2.12-1.19-4.31-1.07-6.46,.36,3.89,2.1,6.89,3.04,8.29,.49,.7,.73,1.01,.67,.79-.03-.22-.46-.94-1.02-2.35-.38-.05-1.4-1.49-2.01-3.78-.61-2.28-.62-5.43,.44-8.54,.96-3.12,2.78-6.11,4.24-8.36,1.47-2.26,2.61-3.83,2.51-4.25,1.13-1.18,2.28-2.34,3.49-3.46-.98,1.02-1.08,1.23-2,2.26,1.7-1.67,2.86-2.83,3.75-3.79,.88-.97,1.49-1.75,2.17-2.59,1.35-1.69,2.93-3.68,7.83-7.62,3.46-2.69,6.01-4.39,3.75-2.43,2.49-2.09,5.02-4.16,7.58-6.17,2.32-1.66,1.89-1.06-.41,.59,3.98-2.99,8.05-5.86,12.14-8.7l-.07,.1c1.64-1.38,5.48-4.34,7.39-5.76,3.3-1.91-1.52,1.16-.61,.77l6.78-4.79c3.04-1.52-2.58,2.45-7.39,5.57,3.61-1.56,4.99-2.57,7.3-4.23,.58-.41,1.22-.87,1.95-1.39,.19-.13,.38-.26,.58-.4,.09-.06,.18-.13,.27-.2,.1-.03,.17-.05,.4-.11,.27-.06,.54-.13,.83-.19,1.15-.26,2.47-.54,4.01-.85,.77-.15,1.59-.32,2.49-.45,.9-.11,1.85-.22,2.88-.34-1.26,.25-2.54,.43-3.79,.74l-3.75,.9c1.26-.07,2.56-.23,3.94-.44,1.38-.2,2.87-.34,4.46-.57,1.59-.19,3.28-.51,5.14-.65,1.86-.15,3.86-.3,6.03-.42-.52,0-1.86,.04-3.46,.08-1.59,.07-3.45,.04-4.95,.17-3,.17-4.68,.11-.31-.77,1.24-.18,2.69-.28,4.42-.48,1.73-.18,3.73-.53,6.12-.83,.04,.24,1.23,.25,3.14,.16,.95-.06,2.09-.13,3.35-.21,1.26-.07,2.66-.08,4.13-.13l-.39,.65c6.33-.35,5.83-.56,9.58-.8,3.55,.06,5.68,.4,7.13,.65,1.45,.27,2.22,.54,3.03,.8,11.29,1.08-7.75-1.52,5.65-.42,1.17,.14,2.3,.27,3.41,.39,1.1,.15,2.17,.29,3.22,.43,2.11,.29,4.17,.47,6.28,.79,2.11,.28,4.28,.57,6.63,.89,2.34,.37,4.86,.73,7.66,1.19,6.45,1.61-1.21,.14,1.08,.82l5.86,.74c1.4,.35,.91,.39,.66,.42,4.86,.99,.55-.56,8.17,1.17,1.1-.05,4.94,1.15,9.62,2.81,4.7,1.59,10.24,3.62,14.94,4.79,2.2,.92-1.22,0-.61,.47,6.35,1.89,9.05,2.8,11.48,3.58,2.43,.78,4.58,1.47,9.78,3.14,2.82,1.29,5.62,2.62,8.41,3.97-6.1-3.1,2.18-.29,9.33,2.51-2.11-1.22-3.92-2.27-5.16-2.92,3.78,1.55,7.54,3.16,11.26,4.84,1.29,.74,.08,.4-1.84-.24,.78,.31,1.51,.61,2.09,.84,3.83,2.14,1.63,1.46-1.34,.42-1.29-.76-2.57-1.51-3.81-2.24-2.9-.92-5.65-1.69-5.23-1.09,.75,.26,2.17,.84,3.71,1.5-.76-.23-1.26-.35-.95-.14,.35,.23,1.56,.63,3.43,1.34l2.19,1.83,.73,.04c1.89,.98,3.78,1.98,5.64,3.01l2.79,1.55,1.34,.77,.64,.4,.44,2.16c1.6,5.41,2.96,10.57,4.04,16.63,1.03,6.06,1.9,13.1,1.14,22.16-.06-4.52-.75-1.03-1.34-1.34,.32-1.19,.42-2.67,.51-4.34,.12-1.67,.02-3.55-.06-5.56-.23-4.02-.72-8.57-1.27-13.19,.26,2.41,.28,3.36,.19,3.56-.08,.19-.21-.37-.35-.97,.79,5.46,1.24,10.97,1.22,16.47-.25-.2-.38,.67-.5,2.12-.16,1.44-.4,3.46-.75,5.56,.58-1.15,.54,.32,.14,3.17-.12,1-.36,2.04-.74,3.26-.35,1.18-.72,2.44-1.1,3.73-.2,.64-.37,1.3-.59,1.93-.23,.62-.45,1.25-.68,1.88-.45,1.24-.9,2.48-1.33,3.69,.05,.01,.08,.05,.15,.04l.44-.36c.29-.24,.58-.48,.86-.71,.57-.47,1.12-.92,1.64-1.36,1.08-.88,2.07-1.69,2.93-2.4,.08,.12-.19,.5-1.3,1.51-.55,.5-1.33,1.16-2.3,2-.49,.41-1.04,.88-1.66,1.4-.31,.26-.64,.53-.98,.81-.17,.14-.35,.28-.53,.43-.11,.1-.12,.07-.17,.09l-.13,.03c.58-1.55,1.3-3.51,2.15-5.8-1.01,2.38-1.86,4.53-2.54,6.34,.14,.07,.76-.5,1.2-.85,.48-.4,.94-.78,1.39-1.16,.92-.79,1.79-1.55,2.64-2.28,1.73-1.47,3.3-2.95,4.75-4.14,.7-.57,1.42-1.16,2.16-1.76,.36-.28,.72-.57,1.09-.86,.34-.24,.68-.49,1.04-.74,1.18-.83,2.54-1.7,4.23-2.56-1.72,1.05-2.66,1.61-3.23,2.19,1.87-1.44,5.36-3.54,8.11-5.04,2.77-1.47,4.78-2.38,3.65-1.62l-1.76,.97c5.88-3.21,15.11-7.6,23.26-10.91,8.12-3.38,15.09-5.83,15.92-6.54,.16,.07-1.37,1.5-2.08,1.94,7.27-3.43,14.75-6.51,22.39-9.29-.95,.6,.66,.85,1.15,1.34,.49,.49-.14,1.14-5.49,2.68,3.13-.66,6.98-1.52,13.53-3.06-2.15,.33-5.54,.05-2.63-.61,4.1-.44,5.52-.51,7.17-.74,1.65-.16,3.54-.44,8.57-.77-3.25,.31,.18-1.39,5.35-1.88-.79,.25,.54,1.08-1.32,1.39,4.21-.82,8.45-1.51,12.73-2.03-3.2,.36-.52,.93,2.33,1.23-.66-.1,2.1-.16,5.44-.06,3.34,.13,7.25,.45,8.92,.63-.88-.16-1.77-.29-2.66-.4-.89-.11-1.78-.25-2.68-.34,3.59,.28,6.25,.51,8.47,.7,1.11,.09,2.11,.18,3.05,.26,.94,.09,1.83,.18,2.72,.26,1.76,.23,3.55,.44,5.71,1.01,2.16,.55,4.75,1.41,7.91,3.15-.41-.16-.89-.29-1.28-.34-.4-.03-.71,.03-.76,.19-.11,.35,.85,1.07,3.75,3.02,.37,.17,.87,.36,1.45,.64,.57,.31,1.24,.67,1.99,1.08,.74,.43,1.51,1.01,2.39,1.61,.42,.32,.82,.69,1.26,1.07,.43,.38,.91,.75,1.31,1.22,1.76,1.75,3.36,4.1,4.65,6.85,1.28,2.77,1.99,5.99,2.28,9.31l-.29,2.54c0,.84-.04,1.68-.06,2.52l-.04,1.26-.13,1.25-.26,2.51-.42,2.48c.04-.79,.16-1.75,.2-2.85,.01-1.11,.07-2.35,.07-3.68-.11-2.68-.24-5.74-1-8.77-.71-3.02-1.79-6.02-3.31-8.51-1.51-2.49-3.27-4.51-4.88-5.99,.77,1.02,1.23,1.57,1.46,2,.23,.43,.35,.65,.51,.95,.29,.59,1,1.31,2.48,4.76,.37,1.27-.14,.37-.83-1.07-.36-.72-.89-1.51-1.32-2.28-.49-.73-.99-1.38-1.29-1.83,1.71,2.28,2.91,4.9,3.68,7.65,.76,2.75,1.16,5.65,1.07,8.6,.34-.41,.59,3.01,.16,6.51-.33,3.49-1.17,6.99-.82,6.71,.44-1.63,.64-3.3,.96-4.94,.12-.83,.18-1.66,.28-2.48l.13-1.24c.03-.41,.03-.83,.05-1.24,.2-3.3-.09-6.57-.82-9.66,.12-.22,.46,.31,.87,1.48,.16,.59,.35,1.35,.54,2.24,.21,.89,.26,1.94,.39,3.1,.12,1.16,.05,2.44,.06,3.81-.09,1.37-.22,2.82-.42,4.33-.49,3.01-1.22,6.25-2.35,9.41-1.35,3.13-.31-2.78-.65-2.57-.04,.43-.34,1.39-.69,2.61-.18,.61-.39,1.29-.6,2-.26,.7-.52,1.43-.79,2.15-.27,.72-.54,1.44-.8,2.12-.27,.68-.56,1.3-.81,1.86-.5,1.12-.89,1.94-1.05,2.2l.99-2.65,.49-1.32,.43-1.34c-1.51,3.36-2.57,6.19-3.87,9.14-.62,1.49-1.35,2.98-2.21,4.58-.43,.8-.89,1.63-1.4,2.49-.54,.85-1.12,1.73-1.75,2.65-.4,.66-.94,1.46-1.52,2.3-.89,1.25-1.82,2.57-2.69,3.79-.91,1.29-1.77,2.53-2.39,3.47-.31,.47-.56,.87-.72,1.15-.04,.07-.07,.14-.11,.2l-.02,.04s.04,0,.05,0c.04,0,.08,0,.12,0,.15,0,.27,0,.36,0l-.31-.09c-.01-.07,.14-.21,.2-.3,.17-.21,.33-.42,.49-.62,.32-.4,.64-.77,.94-1.12,.6-.69,1.15-1.27,1.65-1.73,.99-.94,1.76-1.43,2.33-1.61,.57-.19,.94-.08,1.17,.15,.22,.24,.3,.6,.18,1.05-.06,.08-.22,.3-.45,.63-.12,.17-.26,.36-.41,.58-.06,.1-.21,.25-.2,.32,.12,.03,.24,.06,.36,.09,.53,.13,1.14,.27,1.79,.43,.35,.08,.72,.17,1.09,.26,.45,.1,.9,.2,1.37,.31,4.31,.93,8.92,1.97,10.65,2.45,4.97,1.44-7.84,.15-3.61,1.38,.22-.15,3.05,.09,4.23,.21,3.2,.7-1.43,.34,5.6,1.43,1.29-.48,14.26,2.5,3.41,0,6.9,.98,7.27,1.38,15.32,2.78-2.49-.89,7.49-.2,14.39,.93-.44,.09,1.06,.61,1.79,.86,7,1.39,12.36,2.57,17.58,3.79,5.22,1.22,10.32,2.45,16.77,4.06,1.15,.45,7.31,2.26,4.59,1.85,1.87,.38,3.64,.59,7.58,1.69,3.72,1.4,1.53,.76-.9,.12-2.43-.65-5.1-1.32-2.28-.18,.61-.27,10.34,2.34,15.92,4.04-.75-.58-3.94-1.68-7.67-2.75-3.74-1.04-8-2.07-10.86-2.69,.1-.41,2.66-.18,6.89,.63,4.22,.84,10.11,2.28,16.76,4.51,2.62,.93,4.2,1.56,5.11,1.99,.92,.42,1.18,.6,1.18,.68,0,.16-1.08-.11-.16,.2,9.58,4.16,13.53,6.32,17.1,8.32,.88,.53,1.75,1.01,2.61,1.64,.88,.6,1.8,1.26,2.76,2.11,1.91,1.68,4.32,3.93,6.48,8.06,.19,.42,.35,.79,.5,1.11,.1,.34,.19,.63,.27,.88,.14,.5,.21,.83,.22,1.04,.03,.41-.14,.33-.38,.09-.47-.48-1.18-1.56-1.06-.77-.21-.53-.49-1.01-.77-1.47-.27-.46-.51-.93-.79-1.35-.6-.82-1.07-1.66-1.68-2.35-1.12-1.45-2.24-2.66-3.35-3.76-2.2-2.22-4.4-3.93-6.98-5.6,1.06,.68,2.04,1.5,3.06,2.24,.97,.81,1.97,1.59,2.88,2.47-1.14-.89-2.95-2.2-4.85-3.44-.94-.64-1.94-1.21-2.84-1.8-.91-.56-1.77-1.05-2.46-1.5,1.18,.83,3.72,2.27,6.77,4.55,3.05,2.25,6.65,5.4,9.33,9.64,1.3,2.13,2.28,4.56,2.72,7.11,.44,2.54,.4,5.18-.18,7.64-1.09,4.96-3.61,9.19-5.94,12.38-.34,.62-.81,1.32-1.28,1.99-.46,.68-.91,1.35-1.28,1.89-.76,1.04-1.11,1.6-.27,.79,.55-.64,1.05-1.33,1.55-2.01,.49-.69,1.04-1.34,1.48-2.06,.74-.91,.81-.85,.55-.32-.13,.26-.34,.64-.59,1.07-.28,.41-.59,.88-.9,1.33-.62,.91-1.2,1.76-1.41,2.06-.21,.29,.09,.13,1.1-1.15-2.01,2.8-4.31,5.67-7.09,8.55-2.75,2.92-5.99,5.83-9.8,8.8l-1.8,.65c.13,0,1.43-.89,2.91-2.06,1.46-1.2,3.17-2.59,4.09-3.59-1.41,1.44-4.35,3.71-7.37,5.9-1.49,1.13-3.04,2.2-4.37,3.23-1.33,1.04-2.49,1.97-3.27,2.78,1.92-1.18,3.78-2.45,5.67-3.69-5.25,4.45-11.87,9.86-19.16,14.32,3.59-1.62,1.61-1.12,7.07-3.89-2.43,1.11,2.13-1.92,6.25-4.88,1.03-.74,2.04-1.47,2.92-2.11,.86-.66,1.6-1.24,2.09-1.64,.98-.82,1-.97-.83,.12,5.48-3.13,8.8-6.3,15.32-11.43-.16,.02-.76,.45-.65,.26,.12-.18,.93-1,3.56-3.54,.18-.28,.66-.9,.97-1.3,.16-.16,.21-.21,.35-.35-.11,.1-.19,.18-.29,.28,.19-.25,.21-.28-.11,.1-1.24,1.23-2.33,2.12-2.82,2.44,.57-.71,1.5-1.75,2.57-3.02,1.1-1.23,2.3-2.72,3.51-4.22,2.37-3.04,4.5-6.33,5.32-8.15,.58-.92,.77-1.33,.83-1.37,.06-.05-.04,.23-.16,.57-.28,.65-.69,1.53,0,.54,.43-.9,.78-1.85,1.17-2.77,.37-.93,.63-1.92,.94-2.87,.32-.2,1.36-3.03,1.7-4.66,.24-.79,.29-1.26,.35-.81,.04,.23-.03,.66-.11,1.39-.05,.36-.11,.8-.18,1.32-.09,.51-.25,1.08-.42,1.75,.92-3.14,1.31-6.56,.83-9.94-.24-3-1.44-6.49-3.26-9.35-1.78-2.91-4.07-5.17-5.9-6.71-3.27-3.2-9.33-6.22-5.91-4.42-4.1-2.67-8.43-4.81-12.81-6.72l-.07-.16c-6.44-2.94-13.31-5.25-20.45-7.39-7.14-2.15-14.54-4.16-22.2-6.43-4.59-1-9.34-1.96-16.98-3.72l-1.42-.7c-5.91-1.13-17.64-3.91-20.26-3.97-3.09-1.11-10.26-2.48-17.95-3.76-7.69-1.28-15.91-2.5-21.1-3.45l-.48,.44c-1.79-.29-3.57-.58-5.36-.87l-1.12-.17-.44-.06c-.31-.04-.62-.08-.93-.11-.16-.02-.35-.03-.49-.07l.28-.5c.2-.35,.4-.71,.61-1.07,.81-1.45,1.66-2.96,2.56-4.57l-.67,.26c1.86-3.46,4.31-7.86,6.86-12.9,2.5-5.05,4.96-10.84,6.52-16.99-.07,.87-.92,3.98-1.8,6.07,1.51-3.46,2.53-7.26,3.23-11.16,.66-3.91,.79-8,.32-12.01-.48-4.01-1.65-7.93-3.48-11.39-1.82-3.47-4.24-6.43-6.81-8.92-.71-.53-1.38-1.02-2-1.49-.62-.47-1.25-.83-1.82-1.23-1.13-.81-2.23-1.39-3.27-2.06,.29,.16,.55,.29,.77,.4-.31-.18-.78-.43-1.26-.7-1.36-.71-2.75-1.52-4.34-2.16,1.33,.6,2.56,1.28,3.64,1.84-2.41-1.23-6.25-2.58-10.07-3.46l-1.51-.89c-.31-.06-.57-.11-.89-.18-3.75-.97-3.07-.41-1.14,.36-1.94-.36-3.73-.49-5.12-.61-1.48-.58-4.02-.85-6.7-.97-2.68-.14-5.49-.18-7.59-.61-1.31,.15-6.16,.28-10.91,.72-4.75,.41-9.38,1.18-10.34,1.72-.14-.09-1.27-.02,.78-.26-4.25,.39-8.49,.95-12.21,1.87l-1.89-.28c-3.01,.84-5.99,1.74-8.95,2.7-5.58,.92-7.92,1.3-2.56-.49-6.53,1.94-9.14,2.81-11.53,3.54-2.38,.77-4.52,1.44-9.89,3.57l.41-.56c-3.92,1.29-9.93,4.04-12.35,4.64-3.51,1.06-10.96,3.88-19.7,8.21-4.37,2.17-9.06,4.7-13.72,7.58-1.18,.7-2.33,1.46-3.49,2.21l-.7,.46-.48,.32-.95,.65c-.63,.43-1.22,.89-1.82,1.31l-.86,.67-.42,.33-.21,.16s-.04,.03-.05,.03l.03-.07,.05-.14c.29-.74,.57-1.47,.85-2.2,.21-.72,.42-1.42,.62-2.12,.11-.33,.19-.68,.25-.99l.05-.22,.1-.49c.06-.33,.13-.65,.19-.97,.13-.65,.25-1.28,.38-1.92,.08-.63,.17-1.26,.25-1.88-.84,2.25-.36-.51,.07-3.98,.14-1.74,.38-3.66,.36-5.2,0-1.54-.07-2.71-.3-2.94,.29-1.4,.22-4.74,.66-.87-.34-6.12-.78-10.68-1.28-14.77-.52-4.08-1.21-7.66-2.49-11.69-.03-1.43,.96,2.47,.85,1.22-.13-.47-.39-1.41-.66-2.39-.06-.24-.13-.49-.19-.73-.06-.27-.13-.53-.19-.78-.18-.72-.33-1.38-.43-1.9-.19-1.02,.05-.37,.45,.97,.27,.93,.67,2.3,.98,3.37-.16-.76-.36-1.48-.52-2.15-.14-.52-.27-1.02-.4-1.51-.15-.53-.29-1.04-.43-1.54-.81-.43-1.57-.83-2.29-1.22-.47-.23-.92-.45-1.34-.66-.78-.36-1.46-.67-2.07-.92-1.22-.5-2.14-.83-2.85-1.01-1.42-.37-1.99-.26-2.49-.12-5.43-3.1-8.31-4.33-12.63-5.71-1.88-1.11-5.08-2.84,1.95,.19-1.95-.91-7.93-3.67-13.58-5.97-5.64-2.32-10.93-4.2-11.25-3.97-1.2-.64-5.64-2.11-6.73-2.41-9.12-3.17-9.92-3.5-19.03-6.14l2.5,.83c-1.91-.15-3.81-.66-6.16-1.38-2.36-.67-5.17-1.59-8.89-2.46l.23-.03c-8.45-2.37-10.35-2.57-12.18-2.94-.92-.17-1.82-.35-3.57-.68-.87-.18-1.94-.41-3.33-.7-.69-.15-1.47-.32-2.33-.51-.87-.17-1.83-.36-2.89-.56l.85,.62c-.44,.19-1.6,.1-3.25-.16-.82-.13-1.77-.31-2.81-.51-1.04-.18-2.18-.37-3.39-.58-2.41-.43-5.08-.91-7.79-1.21-1.35-.17-2.71-.32-4.05-.45-1.34-.13-2.65-.15-3.91-.19,1.2,.17,2.4,.31,3.6,.5-1.37-.02-3.01-.14-4.78-.36-1.77-.21-3.68-.55-5.6-.76-1.92-.24-3.85-.49-5.64-.72-1.79-.19-3.46-.25-4.85-.27-1.21-.06,1.91-.18,3.6-.28-7.29-.15-7.76,0-7.75,.27,0,.25,.47,.57-4.92,.99-1.01-.1-.38-.36-.41-.54-.02-.09-.2-.16-.83-.18-.63-.01-1.72-.03-3.54,.18-.91,.03-2.68,.26-4.98,.6-.57,.09-1.18,.16-1.81,.28-.63,.13-1.29,.26-1.97,.4-1.36,.27-2.8,.57-4.3,.87-1.5,.27-3.02,.68-4.56,1.06-1.56,.37-3.13,.74-4.66,1.11-.26,.07-.56,.1-.83,.21l-.74,.48c-.33,.21-.66,.42-.99,.63-.63,.4-1.25,.78-1.86,1.16-1.22,.74-2.37,1.44-3.45,2.05,1.97-.97,3.91-1.93-.16,.96-3.18,2.12-7.61,4.78-11.89,7.53-4.28,2.74-8.37,5.63-10.9,8.02-.82,.53-1.16,.69-1.23,.67-2.29,1.83-6.01,4.82-9.38,7.78-3.37,2.96-6.39,5.88-7.5,7.29-1.28,.62-3.53,2.59-6.05,5.33-2.49,2.76-5.26,6.32-7.27,10.21-2.09,3.83-3.2,8.05-3.35,11.21-.22,3.18,.29,5.22-.14,5.27,.7,3.22,2.15,6.21,3.97,8.78,1.82,2.59,3.94,4.89,6.2,6.98l-.46-.22c4.28,4.08,7.56,6.3,10.03,7.96,2.5,1.64,4.29,2.62,6.08,3.59,2.17,1.55,.47,.6,.24,.55,6.97,4.74,10.9,7.14,14.58,9.31,1.84,1.08,3.63,2.08,5.73,3.22,2.06,1.11,4.43,2.37,7.46,4,.2,.32,.35,.6,.46,.86,.61,.29,1.62,.92,2.85,1.74,.57,.39,1.22,.83,1.93,1.32,.16,.11,.33,.23,.5,.35l.06,.04,.03,.02h-.06s-.24,0-.24,0h-.48c-.63-.03-1.27-.04-1.94-.06-2.61-.06-5.2-.11-7.73-.11l-1.23,.02-1.61,.04c-1.08,.03-2.15,.06-3.22,.09-2.14,.07-4.26,.16-6.31,.28,.16-.06,.5-.16,1.8-.26-2.31,.13-4.74,.19-7.23,.28-2.49,.1-5.04,.17-7.6,.23-2.56,.05-5.14,.1-7.68,.15-2.54,.08-5.03,.16-7.43,.24-2.4,.08-4.72,.16-6.88,.27-2.17,.14-4.19,.29-6.01,.46-3.65,.34-6.52,.75-8.17,1.34l-12.13,1.55c15.74-1.29-2.27,.99,4.23,.7-1.54,.17-3.31,.3-4.99,.41-1.67,.14-3.24,.24-4.38,.28-2.29,.09-2.86-.03,.93-.5l1.2-.04c1.35-.62-3.54-.16-8.72,.37-5.18,.58-10.63,1.35-10.47,.99-15.4,2.2-30.59,4.83-45.27,8.69-3.66,1-7.32,1.94-10.91,3.11-1.79,.58-3.61,1.07-5.37,1.72-1.77,.63-3.54,1.26-5.3,1.88-7,2.66-13.83,5.67-20.29,9.3,1.11-.35,2.24-.65,3.35-.97-1.52,.79-3.03,1.57-4.49,2.49l-2.21,1.32c-.74,.44-1.47,.87-2.17,1.37-1.16,.69-1.99,1.09-1.77,.8,.11-.15,.49-.47,1.21-1.01,.37-.27,.81-.61,1.38-.98,.58-.35,1.25-.76,2.04-1.24-.87,.43-2,.99-3.09,1.79-1.1,.78-2.25,1.64-3.29,2.45-2.05,1.68-3.57,3.26-3.61,3.37-1.47,1.05-2.37,1.95-3.05,2.46-.66,.53-1,.78-1.11,.82-.23,.08,.46-.68,1.4-1.65,.47-.47,.98-1.04,1.52-1.51,.54-.47,1.04-.92,1.43-1.26,.78-.69,1.1-.99,.22-.3-.78,.64-1.59,1.24-2.35,1.92l-2.24,2.06,1.07-.86c-.86,.88-1.52,1.58-2.11,2.21-.56,.68-1.07,1.29-1.66,2.01-1.2,1.39-2.76,3.15-5.39,6.77-.83,1.15-1.38,1.86-1.74,2.31-.35,.46-.51,.67-.63,.77-.23,.21-.24,.05-.81,1.02-.02-.02-.13,.13-.4,.59-.26,.46-.73,1.2-1.24,2.46-2.02,3.97-3.35,8.28-4.16,12.65,.27-.86,.46-1.72,.8-2.55l.96-2.49c-1.42,5.71-2.07,12.19-.76,6.27-.08,.27-.17,.56-.25,.89-.06,.33-.12,.69-.19,1.07-.13,.77-.26,1.65-.39,2.62-.14,1.95-.29,4.27-.14,6.81,.22,5.09,1.35,11.02,3.17,16.59,1.81,5.58,4.22,10.8,6.34,14.88,1.09,2.02,2.04,3.81,2.86,5.19,.8,1.4,1.39,2.45,1.73,3.03,2.27,3.31,4.6,6.54,7.11,9.9,2.51,3.36,5.22,6.84,8.36,10.58-.75-.96-1.2-1.84-.83-1.64,.38,.19,1.58,1.45,4.32,4.61-1.51-.71,.88,2.31,4.33,6.06,1.72,1.88,3.7,3.94,5.54,5.84,1.01,1.1,1.77,1.98,1.86,2.36-.08-.16-.07-.23,.06-.17,.06,.03,.15,.08,.27,.16,.06,.04,.12,.09,.2,.14,.07,.05,.2,.13,.06,.13-.5,.14-1.45,.38-2.52,.72-.28,.09-.56,.18-.85,.27-.52,.16-1.04,.34-1.56,.52-1.03,.34-2.02,.73-2.92,1.07-1.79,.72-3.19,1.36-3.69,1.68-.5,.32-.12,.27,1.67-.28-3.29,1.31-3.42,1.29-3.39,1.1,.03-.18,.25-.48-2.27,.54-7.48,4-15.42,9.4-21.68,17.26-3.12,3.91-5.75,8.4-7.6,13.3-1.87,4.89-2.95,10.14-3.29,15.44,.07,.17,.25-.62,.41-.89,.08-.13,.14-.13,.17,.18,.01,.32,.04,.94,.08,2.07l-.31,2.77c-.12,.93-.09,1.85-.15,2.78l-.1,2.79c0,.93,.05,1.86,.08,2.79,.27,2.07,.62,2.99,1.06,4.31,.1,.33,.2,.69,.3,1.1,.05,.21,.1,.42,.15,.66,.06,.32,.13,.66,.2,1.03,.06,.38,.13,.78,.21,1.21,.03,.22,.07,.45,.11,.68,.02,.12,.03,.25,.06,.36,.11,.04,.23,.08,.35,.13,.47,.18,.98,.36,1.52,.57,.27,.1,.56,.21,.85,.33,.14,.05,.28,.11,.42,.16,.1,.04,.21,.09,.32,.13-.12-.06-.24-.12-.37-.18-.18-.08-.36-.16-.53-.24-.33-.15-.58-.28-.68-.36-.1-.08-.04-.1,.26-.03,.15,.03,.36,.09,.65,.17,.24,.07,.53,.16,.91,.27,18.99,6.74,38.85,12.4,59.13,16.63,10.14,2.1,20.4,3.8,30.72,4.92,2.58,.33,5.17,.47,7.76,.72,2.6,.13,5.19,.35,7.79,.39,5.2,.19,10.41,.11,15.63-.32-5.66,.28-1.91-.13,2.36-.69-2.79,.31,0-.42-.57-.59,5.75-.58,11.51-1.71,17.07-3.69,1.4-.83,5.71-2.8,9.49-5.4,.97-.61,1.83-1.36,2.69-2,.84-.66,1.56-1.38,2.23-1.98,1.28-1.26,2.12-2.3,2.32-2.73l-1.91,2.04c-.66,.66-1.36,1.27-2.04,1.91,1.27-1.38,1.34-1.7,.75-1.45-.59,.25-1.81,1.09-3.28,1.88-.36,.21-.73,.42-1.1,.63-.39,.19-.77,.37-1.15,.55-.77,.35-1.46,.73-2.12,.94-1.29,.46-2.15,.67-2.04,.33-3.27,2.23-8.3,3.96-14.06,4.98-5.77,1.06-12.21,1.57-18.73,2.38-2.89-.11,2.45-.38,.9-.56-1.64,.25-3.47,.46-5.82,.47-2.35,.06-5.21-.07-8.92-.36l.85-.04c-10.43-.62-17.85-1.79-25.53-3.18-7.68-1.44-15.62-3.24-27.03-6.19l1.58,.87c-4.91-1.25-5.9-1.72-8.17-2.42-2.91-.39,.53,.52,4.04,1.46,3.51,.9,7.1,1.79,4.42,1.55-3.17-1.23-11.82-3.48-20.15-5.89-8.33-2.43-16.33-5.01-18.33-6.22-7.42-2.43,2.01,1.24-5.41-1.2l-1.87-.93c-.32-.04-.7-.1-.96-.12-.18,0-.38,0-.59,0-.9-.05-.66-.95-.77-1.42-.05-.45-.1-.86-.14-1.23-.04-.4-.07-.75-.1-1.08-.12-1.28,0-1.98,.11-2.09,.03,.3,.06,.66,.12,1.06,.08,.39,.17,.82,.25,1.24,.16,.75,.32,1.5,.44,2.06v-.12s0-.07-.03-.2c-.03-.21-.06-.43-.09-.64-.07-.44-.13-.89-.21-1.36-.18-.93-.26-1.92-.37-2.93-.12-1.01-.24-2.05-.36-3.08-.08-1.03-.11-2.06-.18-3.06-.23-3.99,0-7.45,.2-8.52l-.24,1.79c-.07,.6-.08,1.2-.12,1.8-.05,1.21-.19,2.41-.16,3.62-.12-5.15,.4-10.6,1.91-15.92,1.5-5.31,3.97-10.48,7.39-14.96,3.37-4.51,7.51-8.43,11.99-11.61,4.45-3.23,9.21-5.75,13.82-7.79-.51,.11-1,.25-1.5,.39,1.91-.89,3.55-1.53,4.98-2.06,.71-.26,1.38-.48,1.99-.69,.31-.11,.61-.19,.89-.28,.4-.12,.79-.23,1.16-.34,3-.84,5.61-1.25,8.47-1.75,.1-.09-.22-.31-.4-.48-.2-.19-.41-.38-.63-.57-.43-.39-.88-.8-1.35-1.23-.95-.87-2.02-1.84-3.19-2.96-.58-.55-1.19-1.14-1.85-1.78-.46-.45-.95-.94-1.48-1.46-1.05-1.05-2.24-2.25-3.62-3.64l.47,.41c-2.55-2.32-5.75-5.63-8.78-9.23,1.51,1.56,.27-.06-.83-1.58-1.09-1.53-2.07-2.92-.15-.82-5.54-6.39-6.71-8.14-7.66-9.14-.46-.51-.83-.88-1.51-1.66-.68-.79-1.72-1.97-3.42-4.21-.38-.78-.73-1.58-1.08-2.38-1.16-1.52-1.8-2.34-2.69-3.71-.45-.68-.98-1.49-1.62-2.62-.65-1.12-1.46-2.54-2.41-4.46,3.41,6.15-1.92-5.13,1.95,1.7-1.87-4.06-3.34-7.64-4.59-10.83-1.18-3.21-2.18-6.03-2.86-8.63-1.41-5.17-1.96-9.38-1.45-13.39-.38-4.01-.8-.25-.51,4.04,.12,1.06,.24,2.15,.36,3.16,.11,1,.33,1.91,.44,2.61,.25,1.41,.35,2.02,.09,.91,.18,1.92-.31,.31-.96-2.51-.17-.7-.26-1.49-.39-2.31-.11-.82-.28-1.68-.32-2.54-.05-.86-.11-1.72-.16-2.55-.06-.82,.02-1.6,.03-2.31,.02-.71,.05-1.4,.12-2.08,.1-.68,.22-1.35,.35-2.04,.21-1.39,.67-2.81,1.13-4.48,1.08-3.3,2.47-7.6,5.97-13.67-.69,1.21-.69,1.32-1.35,2.54,.68-1.12,1.35-2.23,1.97-3.37,.68-1.11,1.43-2.2,2.16-3.35,.76-1.13,1.68-2.2,2.59-3.34,.93-1.13,2.09-2.16,3.26-3.28,1.05-1.52,2.69-2.88,3.99-4.11,1.41-1.12,2.54-2.06,2.72-2.7l-2.56,2.07c-.85,.69-1.61,1.47-2.43,2.21-1.65,1.44-3.07,3.09-4.56,4.68,2.44-2.77,4.81-5.52,8.04-8.28,.81-.69,1.63-1.42,2.53-2.14,.93-.67,1.91-1.37,2.93-2.11,.52-.36,1.04-.74,1.6-1.1,.57-.34,1.15-.69,1.75-1.04,1.21-.69,2.46-1.46,3.85-2.16-.4,.28-1.35,.96-2.46,1.75-1.11,.79-2.42,1.61-3.43,2.37,3.17-1.72,5.83-3.79,9.29-5.28-.14,.3-1.1,.93-2.55,1.77-1.46,.82-3.3,2.05-5.39,3.29-4.04,2.66-8.7,6.01-11.31,9,.38-.29,.83-.67,1.33-1.1,.49-.44,1.02-.94,1.63-1.4,1.17-.97,2.43-2,3.49-2.88,2.24-1.64,3.72-2.66,2.32-1.18,1.02-1.03,2.25-2.07,3.74-2.98,1.48-.92,3.06-1.96,4.88-2.83,3.56-1.87,7.66-3.76,11.99-6.05l-.41,.68c.7-.33,1.77-.84,2.98-1.42,1.22-.57,2.59-1.22,3.94-1.67-1.56,.75-3.04,1.64-4.55,2.47,3.51-1.81,7.18-2.9,10.75-4.06,3.65-.98,7.2-2.06,10.84-3.16-3.84,1.03-5.91,1.76-7.07,2.04-1.14,.3-1.32,.27-1.23,.15,.18-.26,1.45-.91-1.81-.05,2.31-.82,4.22-1.48,5.84-2,1.61-.53,2.95-.84,4.08-1.12,2.26-.55,3.74-.79,5.28-1.03,1.56-.2,3.19-.4,5.76-.89,1.28-.26,2.8-.58,4.68-.96,1.88-.37,4.1-.84,6.78-1.44-2.89,.69-10.99,2.06-6.49,.87,4.12-.79,9.56-1.77,12.15-1.94,14.32-2.74-2.29-.07,3.76-1.49,2.49-.19,4.25-.51,6.18-.97,1.92-.46,4.01-1.04,7.17-1.64l.11,.47c8.28-.96,9.34-1.35,10.2-1.71,.86-.37,1.51-.7,9.01-1.34l-6.23,1.37,7.76-1.04-1.54,.72c2.1-.34,3.85-.6,5.41-.82,1.57-.19,2.95-.33,4.33-.46,2.76-.25,5.5-.46,9.66-.72-1.96-.2,1.02-.95,8.4-1.49,5.05-.05-2.79,.6,7.67-.1-2.35,.41-4.91,.97-9.48,.86-.45,.19-2.3,.47-2.77,.66,2.72-.03,6.12-.25,9.31-.5,3.2-.21,6.19-.4,8.09-.52-1.46,.06-3.2,.13-4.1,.11,5.04-.48,10.08-1.03,15.14-1.41,2.4,.09,.51,.31-1.36,.52,3.07-.17,5.19-.47,9.72-.67-1.16,.44-.87,.83-7.25,1.25,4.81-.31,9.63-.68,14.45-.9,.97,.15,7.44,.31,5.56,.49,1,0,2.06,0,3.17-.03,1.21-.04,2.48-.08,3.78-.12,3.79-.11,7.82-.23,11.99-.35,3.94-.11,8-.22,12.07-.33h.76s.38-.02,.38-.02c.09-.01,.37,.03,.13-.08l-1.5-.92c-.98-.61-1.96-1.22-2.93-1.83-1.93-1.21-3.79-2.39-5.63-3.58-.93-.48-2.69-1.5-5.85-3.38-2.58-1.62-5.09-3.19-7.59-4.76-2.05-1.29-4.1-2.58-6.2-3.91-4.2-2.62-8.63-5.29-13.74-8.24-1.75-1.4-3.48-2.81-5.18-4.25-7.61-5.09,6.86,5.9-5.78-2.67-2.2-1.56-3.43-2.58-4.12-3.2-.7-.63-.85-.88-.83-1,.03-.24,.75,.04-.59-1.24-2.07-1.59-4.9-3.85-7.36-7.02-2.44-3.12-4.35-7.39-3.7-11.8-.01,1.45,.06,2.73,.33,3.97,.23,1.24,.59,2.44,1.19,3.69Zm75-69.77c-2.15,.48-6.42,1.38-8.02,1.53,.58-.27,1.14-.48,1.71-.65,.57-.15,1.16-.25,1.78-.35,1.25-.19,2.67-.31,4.53-.53Zm167.02,35.76c-1.53-.63-3.74-1.88-6.24-3.32,1.89,.89,3.99,1.99,6.24,3.32Zm315.64,150.41c-.06-.09-.1-.15-.15-.22-.32-.6-.56-1.12-.8-1.52-.25-.39-.44-.69-.58-.91-.28-.44-.36-.57-.29-.45,.14,.24,.98,1.38,1.81,3.1Zm2.37,11.06c0,1.14,.07,1.07,.17,.59-.05-.4,.03-1.24-.09-2.35-.05-.55-.04-1.18-.15-1.84-.11-.66-.23-1.36-.35-2.09-.02,.84,.38,2.28,.42,5.68Zm-727.83-22.85l1.14-1.75c-1.1,2.08-1.52,2.8-1.58,2.88-.08,.07,.17-.54,.44-1.14Z"/>
      <path class="cls-2" d="M61.51,795.74c-.54-.33-.66-.49-.75-.63-.83-.28-.88-.21,.75,.63Z"/>
      <path class="cls-2" d="M254.1,910.69c-2.08-.42-3.23-.7-3.99-.92-.13,.1,.8,.35,3.99,.92Z"/>
      <path class="cls-2" d="M364.24,1009.17c1.74-1.39,3.52-2.73,5.24-4.16-2.53,2.02-3.54,2.6-4.87,3.53,.19,0,1.3-.64-.36,.63Z"/>
      <path class="cls-2" d="M329.2,1033.45c1.04,0,2.07,.11,3.06,.12-.05-.08-.09-.16-.13-.23-1.92-.11-3.62-.16-4.4-.15-.78,.01-.6,.09,1.48,.26Z"/>
      <path class="cls-2" d="M358.3,1011.47c-.33-.02-1.34,.59-2.73,1.54-1.39,.96-3.17,2.24-5.1,3.53,.23-.15,.45-.3,.69-.45-.41,.61,.38,.2,1.79-.72,1.4-.94,3.37-2.42,5.35-3.89Z"/>
      <path class="cls-2" d="M349.59,1017.14c-1.18,.8-2.4,1.61-3.59,2.34-.34,.48,1.5-.87,3.59-2.34Z"/>
      <path class="cls-2" d="M393.64,978.72c-1.26,1.94-.26,1.54-1.11,2.56-.5,1.23,1.53-2.09,2.46-4.59,.24-.62,.46-1.15,.58-1.54,.1-.39,.14-.61,.09-.56-.1,.11-.57,1.3-2.02,4.12Z"/>
      <path class="cls-2" d="M354.45,1012.49l1.65-.53c.63-.6,1.28-1.19,1.9-1.81l-3.55,2.33Z"/>
      <path class="cls-2" d="M382.87,989.64c-.85,.89-1.72,1.77-2.63,2.61-.91,.84-1.77,1.72-2.72,2.51,.14-.01-.52,.66-1.35,1.46,3.44-3,6.94-6.6,6.7-6.58Z"/>
      <path class="cls-2" d="M376.17,996.22c-1.74,1.62-3.51,3.03-4.45,3.97,.96-.85,3.1-2.61,4.45-3.97Z"/>
      <path class="cls-2" d="M362.6,1006.53l1.8-1.23c1.4-1.04,2.79-2.08,4.14-3.17-1.93,1.53-3.96,2.94-5.94,4.4Z"/>
      <path class="cls-2" d="M359.89,932.16c-2.54-.9-5.09-1.75-7.66-2.55-.84-.08,1.23,.67,4.08,1.61,1.87,.51,4.69,1.53,3.59,.93Z"/>
      <path class="cls-2" d="M381.02,944.1c-1.71-1.3-1.81-1.42-2.75-2.23l-.53,.4c1.08,.61,2.22,1.16,3.27,1.82Z"/>
      <path class="cls-2" d="M360.16,933.89c-.79-.18-11.1-3.47-1.53-.1,.82,.1,8.33,2.91,1.53,.1Z"/>
      <polygon class="cls-2" points="242.08 906.97 244.11 907.3 243.98 906.25 242.08 906.97"/>
      <path class="cls-2" d="M227.87,826.2c1.1,.31,1.96,.56,2.63,.75,.66,.21,1.15,.36,1.52,.45,.73,.19,.99,.19,1.22,.19,.23,0,.42,0,1.04,.21,.61,.21,1.68,.56,3.48,1.53,1.01,.35-.46-.44-1.98-1.16-1.54-.66-3.1-1.32-2.03-1.02-1.33-.4-2.52-.72-3.5-.99-1-.23-1.78-.4-2.33-.51-1.09-.2-1.2-.09-.05,.55Z"/>
      <path class="cls-2" d="M233.75,827.15c.85,.28,1.74,.57,2.7,.89-1.52-.54-2.25-.76-2.7-.89Z"/>
    </g>
  </g>
</svg>