<?xml version="1.0" encoding="UTF-8"?>
<svg id="ok_knap" data-name="ok knap" xmlns="http://www.w3.org/2000/svg" viewBox="0 0 252 137">
  <defs>
    <style>
      .cls-1 {
        fill: #fff;
      }

      .cls-2 {
        fill: #ce2c2c;
      }

      .cls-3 {
        fill: #202020;
      }

      .cls-4 {
        fill: none;
      }
    </style>
  </defs>
  <g>
    <path class="cls-2" d="M121.98,6.53S-10.02-8.47,18.84,83.53c46.36,63,216.34,62,221.5-20C223.33,19.26,121.98,6.53,121.98,6.53Z"/>
    <g>
      <path class="cls-3" d="M49.03,4.83c-.13,.47,.5,1.37,1.42,1.03l-.02-1.7-1.4,.67Z"/>
      <path class="cls-3" d="M56.75,6.91c.81-.92,1.64-2.46,.39-3.86-.58,1.7-1.09,1.08-1.6,3.08-.87,.3-1.85-.3-1.93-.92-.17,.46-1.64-.15-1.73,.93,1.77,1.07,3.28,.91,4.54-.32,.48,.31,.29,.78,.32,1.09Z"/>
      <path class="cls-3" d="M147.3,13.46l-.46-.29c.1,.13,.26,.22,.46,.29Z"/>
      <path class="cls-3" d="M196.92,28.52c-.37-.12-.67-.05-.84,.06,.41,.05,.77,.09,.84-.06Z"/>
      <path class="cls-3" d="M202.22,33.31c-.08-.12-.19-.19-.29-.29,0,.19,.06,.33,.29,.29Z"/>
      <path class="cls-3" d="M147.3,13.46l1.18,.76c.39-.5-.53-.51-1.18-.76Z"/>
      <path class="cls-3" d="M68.54,1.68c-.32,.1-.56,.28-.76,.5,.26-.09,.51-.17,.77-.23,0-.09,0-.16,0-.26Z"/>
      <path class="cls-3" d="M122.76,10.43l-.44-.05c-.2,.17-.41,.38-.61,.62l1.05-.57Z"/>
      <path class="cls-3" d="M104.32,9.11c.41,.08,.75-1.31,1-1.92-.32,.57-.68,.83-1.06,.92-.04,.27-.03,.59,.06,1Z"/>
      <path class="cls-3" d="M74.15,7l-.5,.23c.13-.07,.35-.14,.5-.23Z"/>
      <path class="cls-3" d="M135.18,12.93c-.1,.2-.14,.39-.15,.5,.11-.16,.15-.33,.15-.5Z"/>
      <path class="cls-3" d="M10.18,37.09c.15,.05,.26,.06,.4,.09-.18-.12-.33-.18-.4-.09Z"/>
      <path class="cls-3" d="M32.21,28.25l-.08,.19c.34,.18,.68,.35,1.04,.51l-.96-.7Z"/>
      <path class="cls-3" d="M211.3,41.4s0-.03-.01-.05c-.49-.08-.3,0,.01,.05Z"/>
      <path class="cls-3" d="M179.25,113.67c2.61,.57-1.12,2.24,2.39,2.67-.67-.41,.2-2.6-2.39-2.67Z"/>
      <path class="cls-3" d="M69.11,1.82c.27-.04,.54-.07,.82-.08-.39-.02-.64,0-.82,.08Z"/>
      <path class="cls-3" d="M181.64,116.34h0s.36,.04,.36,.04c-.15-.02-.24-.03-.37-.04Z"/>
      <path class="cls-3" d="M228.13,59.89c.4-.09,.69-.21,.96-.34-.24,.04-.52,.12-.96,.34Z"/>
      <path class="cls-3" d="M220.9,44.23c.04,.15,.1,.29,.13,.44,.04-.21-.04-.34-.13-.44Z"/>
      <path class="cls-3" d="M232.91,68.01c-.19,.22-.53,.29-.21,.6,.12-.03,.21-.05,.3-.09-.33-.11-.48-.26-.09-.51Z"/>
      <path class="cls-3" d="M231.35,76.91c.2-.03,.36-.07,.54-.11,0-.09-.01-.2-.02-.29l-.51,.4Z"/>
      <path class="cls-3" d="M3.65,69.09c.64-.26,1.37-.43,2.09-.57-1.69,.23-2.53-1.28-2.09,.57Z"/>
      <path class="cls-3" d="M68.73,2.46c.02-.36,.13-.54,.37-.64-.19,.03-.38,.07-.56,.12,0,.21,.03,.41,.18,.52Z"/>
      <path class="cls-3" d="M251.93,68.49l-.41,1.77c.25-.49,.39-1.14,.41-1.77Z"/>
      <path class="cls-3" d="M71.81,129.96h-.73c.21,.08,.46,.1,.73,0Z"/>
      <path class="cls-3" d="M251.06,75.51c-.91,.25-1.46,.53-1.85,.84,.17,.09,.31,.18,.57,.26l1.28-1.1Z"/>
      <path class="cls-3" d="M5.76,68.52s-.02,0-.02,0c0,0,.02,0,.02,0Z"/>
      <path class="cls-3" d="M.04,57.43c-.31,1.64,3.01,.88,4.78,1.28,.8,1.91-2.38,.81-4.03,1.43,.78,1.24,3.63,2.17,3.49,3.05-.52,.07-.7,.24-1.36,.04,2.6,1.23,.26,3.74,3.61,5.07-.26,.12-.52,.18-.76,.22,1.55-.3,3.16-.39,4.31-.39,.16,.68,2.19,1.16,.16,1.52,0-.42-.84-.41-1.52-.58l1.01,.67c-2.87,.8-1.18-.93-3.38-.83,1.21,1.39,3.83,2.87,3.28,3.98-2.9,.45-1.45-2.46-3.78-.84l.85-1.76c-4.38,1.55,.16-1.06-4.56,.41-.52,2.36,1.93,2.46,1.65,4.78,1.73,.36,2.33-.38,4.06-.02,1.8,1.42,.23,2.2-1.26,2.91-1.5,.7-2.9,1.32-.59,2.25,2.16,.36,5.7,.11,4.55,1.96l-3.45-.09c.67,2.19,5.14,.51,4.02,3.04-1.43-.18-1.82-1.48-2.05-1.1-1.84,1.85,2.27,.72,2.77,1.8l-2.68,.72c1.73,2.16,5.03,4.2,7.25,6.42-.89,.06-2.03-.15-2.46,.61,.88,.68,1.51,1.43,2.16,2.21,.64,.77,1.15,1.59,1.58,2.44,.78,1.71,1.53,3.45,2.13,5.11l3.2,.32c.21,.25-.53,.8-1.21,.68,.32,1.35,1.42-.43,2.81-.22,.8,.53-.36,1.23-1.42,1.08,1.96,.59,4.33,1.54,6.29,2.63,2.06,1.06,3.61,2.31,3.76,3.72l-1.05-.08c1.15,1.81,6.2-.4,6.24,1.73l-.69-.06c1.7,1.7,4.48,2.97,6.81,4.32,1.13,.7,2.31,1.33,3.26,2.04,.94,.71,1.67,1.5,2.09,2.41,.75-.33,1.37-.28,1.97-.09,.61,.18,1.18,.53,1.77,.85,1.17,.64,2.42,1.18,4.01,.03,1.71,2.49,.34,2.54,4.27,5.03,1.2,.54,3.41-.93,5.24-.76l-1.17,1.38c1.17-.27,2.32-.55,3.45-.84l-.18,1.99,1.83,.06c-.55-.25-.81-.99-.39-1.36,1.44,0,2.66,.66,3.54,1.36,.9,.68,1.42,1.47,1.21,1.85l6.66,.04c-.45,.56-1.56,.56-2.57,.76,4.03-.84-.3,1.72,3.45,.84-.23-.4,.67-.84,.89-1.13,1.01,1.12,4.44,1.69,7.08,1.67l-.89,.97c4.57,.77,9.94,.64,15.13,.83-1.79-.59-1.02-2.4,.47-2.5l.36,1.65c1.1-.95-1.46-.69,.68-1.82,1.84,.29,1.06,1.91-.13,2.39l2.41-.44c.09,.49-.49,.72-.7,1.33,1.05-.91,4.01,1.73,5.51-.02l.12,.49c2.63,.02,4.53-.11,6.31-.26,1.75-.22,3.37-.45,5.47-.58-.1-1.41,1.57-1.16,2.61-2.35,.77,.08,1.57,.2,2.39,.32,.81,.1,1.65,.2,2.5,.29,1.71,.17,3.51,.26,5.29,.05,2.32-.91,.4-1.24,1.28-2.16,.55,1.26,4.09,.79,2.53,1.88,4.2-.74,5.4-.96,10.3-2.68-.81-.43-1.54-.57-1.4-1.03,.86-.32,2.4,.22,2.54,.82l-.19,.17c2.5-1.45,6.27-1.14,10.02-.94,3.69,.15,7.28,.08,8.73-1.67l-.17,.18c1.3-.79,2.58-1.57,3.76-2.44,2.28-.39-.6,1.23,1.54,1.52,1.76-1.67,3.75-2.15,5.75-2.52,2.01-.34,3.87-.77,5.26-2.03,1.57,.56,3.05,.59,4.46,.33,.71-.13,1.4-.33,2.08-.57,.65-.27,1.29-.58,1.93-.91,2.54-1.32,5.04-2.73,8.2-2.66l-1.14-.61c.07-1.15,1.71-.15,2.66-.33-.84-.49-1.91-.13-1.81-.8,1.77-1.18,3.81-2.17,5.96-3.13,2.07-1.01,4.32-1.94,6.66-2.85,2.35-.91,4.55-1.94,6.87-2.93,2.35-.97,4.44-2.11,6.42-3.29,1.42-.88,.18-1.84-.67-2.69-.43-.43-.75-.84-.6-1.2,.12-.38,.7-.73,2.14-1.04l1.56,1.63c.78-2.59,3.21-4.51,5.11-6.68,1-1.06,2.06-2.1,2.84-3.21,.69-1.14,1.19-2.31,1.29-3.53,.42,.4,1.21,.59,.89,1.01,1.28-.23,1.92-1.08,2.03-1.91,.09-.84-.48-1.67-1.25-1.83,.56-.65,1.53,.13,2.57-.15,1.69-.76-1.21-2.84,1.02-3.01,.37-.03,.5,.37,.56,.58-.52-.76,1.56-2.93-.99-2.65,1.72-1.59,.26-3.39,1.98-4.64-2.44-1.12,1.88-2.93-1.81-3.44,1.92,.17,2.86-.56,3.09-1.49,.1-.94-.51-2.05-1.41-2.61,1.16,.39,1.24-.97,2.85-.52-.02-1.31-.73-2.49-2.73-2.22,2.18-1.22,1.05-2.42,.13-3.42-.97-1.01-1.59-1.85,1.08-2.77-1.68-1.8-3.04-3.51-4.49-5.1-1.59-1.58-2.98-3.09-4.28-4.57,3.73-.65,2.25,3.45,6.07,2.63-1.64-1.44-3.33-2.46-5.01-3.42-1.7-.97-3.07-1.95-3.7-3.49-.07-.88,1.83,0,2.63,.11-1.73-1.32-3-2.65-4.23-3.97-1.25-1.3-2.43-2.61-4.77-3.38,.31-.11,.93,.01,1.46,.15-.65-.41-.8-1.25-2.2-.62l.92,.28c-1.3,1.51-6.53,0-7.68,.41,4.98-.98-1.6-2.61,4.92-3.66-.63-.18-1.74-.26-2.59,.23-.28-.54,.03-.91,1.71-.98-2.96-1.16-3.62,.07-5.55-1.27,.65-.32,1.3-.18,2.27-.41-2.29-.06-4.51-.08-5.63-1.47,.47-.14,.77-.53,1.26-.19-.74-.47-1.7-.75-2.69-.98-.99-.23-2.01-.4-2.99-.59-1.97-.39-3.76-.88-4.92-2.16,1.71-.53,1.65-.83,1.34-1.17-.32-.33-.84-.7,.1-1.46l-2.63-.51-.19,1.07c-1.72-.84-4.68-.47-5.52-1.64l2.09-.02c-1.22-.4-2.4-.84-3.64-1.2,.42,.44,.76,.94,1.13,1.4-2.73-.01-2.2,1.95-3.99,.56,.67,.03-1.75-.7-1.62-1.98h.01c-1.47,.14-2.96,.31-3.85-.58,.21-.64,2.21-1.63,2.35-2.05-1.18,.48-2.34,.16-3.55-.16-1.19-.34-2.53-.55-3.82-.04,.73-.21,1.61-1.05,1.65-1.26l-1.88,.84c-.52-.63-.49-.85,.32-1.48-2.46-1.06-1.17,2.33-3.44,.43,.33-.01,.37-.21,1.04-.22-2.74-1.49-6.68-1.3-9.23-2.6,.51-1.93,2.98,.29,3.16-1.4-2.33-.44-5.01-.54-7.57-.72-1.28-.09-2.53-.19-3.7-.37-1.17-.18-2.32-.36-3.31-.71l.67,.37c-2.29,2.33-2.35-1.92-5.32-1.24,.65-.07,1.6-1.22,1.27-.98-2.73-1.03-6.43-.81-11.42-.77l.92-.55c-1.45-.9-4.49-1.17-6.25-1.81-.9,.55-1.94,.25-1.75,1.32-.5-.6-1.07-1.05-1.69-1.38-.28-.16-.7-.32-.9-.41,.1,0,.02-.05,.03-.06-.17-.05-.35-.1-.52-.14-1.42-.33-3-.37-4.55-.37-3.09-.06-6.05,.23-8.04-1.76,.65,.09,1.82-.33,1.3-.42-1.65-.03-3.28-.1-4.91-.1-.07,1.16,.35,.75,.94,1.78-.84,.56-2.31,.92-3.43,.8,2.31-.52,.67-1.81-.02-2.55,.03,.36-.42,.71-.46,1.07-1.72-2.29-1.17,2.23-3.95,.51l.35-.58c-1.31,.15-2.64,.85-3.91,.58-.21-1.36,1.46-.52,1.84-1.6-1.93-.07-4.27,2.23-5.65,.78,.86-.31,2-.23,2.88-.53-1.49-1.7-1.82-1.32-3.15-1.67l.13,.05c-1.03-.33-2.07-.62-3.12-.9l.76,.46c-1.48,1.68-2.67,1.79-3.97,1.74-1.29-.03-2.69-.28-4.34,.85,3.23-2.09,.61-1.25,.96-2.75-.79-.43-2.02-.92-1.63-1.34-1.59,1.2-2.55-1-4.76,.75-.09-.5-1.64-.06-1.29-1.28-2,.41,.48,.84,.3,1.46-1.52,.85-3.3,.36-5.29-.04-1.98-.43-4.17-.67-6.24,.54-3.66,1.05-4.08,2.79-7.31,3.77-1.29-.71,.62-1.82,.62-1.82-2-.62-3.4-.37-5.03,.31,.26-.45-.18-.78-.85-1.28-1.4,.24-.53,1.82-2.56,1.27,.18-.57,.38-1.47,.94-2.06-1.59,.58-3,1.65-4.59,2.23-.7-.8,.67-1.37,1.14-1.97-1.86,.54-4.85,1.27-5,2.65l1.38,.34c-.67,.14-.73-1.1-.28-1.4,1.34-1.22,2.53,.21,2.76,.68l-1.12,.43c2.06,2.7,4.71-.93,7.27-.95l-.53,2.14,2.11-1.9c.65,.5,1.25,1.62,.13,2.02,1.94,.89,1.38-.85,3.09,.18,.2,.17,.14,.27,0,.36l1.57-.71c-.25,.45,.53,1.45-.55,1.2,3.18,1.04,4.62-1.84,5.98-.29l-.24,.14c4.11-.85,.2-1.54,3.23-3.44,.84,1.23,1.65,2.46,2.44,3.69l.31-1.53c.44,.05,1.31,.15,1.18,.77,1.56-1.06-.31-.66,.58-1.66,2.14,1.37,5.83-.72,6.27,1.75,.78-1.15-1.99-.92,.27-1.7,.56,2.62,2.61-.41,4.48,.82-.68,1.34-2.41,.6-.61,1.83,1.31-2.29,3.62,.61,5.2,.24,.3-1.78,3.56-.67,6.31-1.02-.15,.3,1.05,.64,2.55,1.01,.75,.18,1.57,.39,2.36,.58,.77,.21,1.49,.46,2.04,.69l-.16,.29c1.02-1.75,3.43-1.13,5.39-1.29-.48,1.06-.97,1.45-2.11,1.82l1.68,.18c.62-.54,1.26-.76,2.43-.79l-.97,1.27c2.16,.28,5.16-.89,7.51,.49,.87-1.18-.48-3.88,3.08-4.05-.25,.68-.78,1.83-1.72,1.93,.3-.03,1.23-.35,1.6,.03l-1.83,.86c1,.75,1.19-.78,2.18-.47-.57,.93,.37,.82-.23,1.53-.31,.04-.66-.57-1.26-.28,1.05,.41,2.08,1.24,2.07,2.03,.24-.55,.79-1.25,1.71-1.19,1.11,.19,1.06,.5,1.06,.89-.04,.19-.14,.38-.09,.59,.04,.11,.07,.21,.28,.34,.29,.14,.31,.22,.45,.31,.85-.56,1.94,.38,2.68-1.04,.65,.13,.44,.81,.5,1.24,1.47-.42,5.48,.79,4.98-.94l-.25-.15c.07-.02,.14,0,.22-.03h0s0,0,0,0c2.29-.36,4.19,.2,6,.85,1.8,.69,3.45,1.53,5.5,1.64l-.3,.46c2.55-.04,5.1,.77,7.38,.14,.67,.14,.95,1.18,.27,1.66,1.87,.1,2.45-.36,4.24,1.02-2.24,.35,.02,.85-2.11,.13,1.81,.96,1.69,1.8,4.93,1.18-1.69,.94,.39,1.86,1.66,1.78l-.78-1.2c1.26,.14,2.17,.49,3.06,.87l-1.82,1.33c1.25,1.53,3.7,1.36,6,1.31,2.28-.05,4.38,.03,4.42,1.98,2.11-.64-1.48-1.42,.67-2.27,.87,.39,1.22,1.3,1.39,2.13,.18,.82,.22,1.56,.49,1.66,1.5,1.69,4.56-1.15,6.52,.36,.27-.61,1.49-2.03,4.04-1.72,1.53,.99-.46,2.97-2,2.86-.45-.15-.45-.39-.23-.54-.74-.09-1.79-.14-1.72,.64l.83-.39c.21,.87,2.53,1.87,.98,2.39,1.82,.12,1.56-.52,.95-1.2,1.2,1.66,3.29,1.56,4.82,3,.02-.41,.48-1.08,.82-.92,2.22,2.14,2.61-.13,4.98,.8,.09,1.3-2.96,1.34-.04,1.92,.49,1.12-1.65,1.26-2.69,1.35,1.58,.09,2.2,.69,2.49,1.34,.29,.66,.13,1.42,.46,1.79l-1.42-.23c.84,.14,1.23,.41,1.64,.69l1.04-1.11c.23,.47,.63,.75-.01,1.07,1.51-.17,2.14-1.58,4.56-1.57-.11,.85,2.95,1,1.08,2.14-1.4-1.76-1.89,1.15-3.97,.13,.58,.1,.98,.39,1.2,.84-.16,.16-.51,.16-.76,.13,.04,1.09,.84,.96,1.87,.76,1.04-.21,2.33-.51,3.21,.26-1.46,.34-1.93,1.33-1.38,1.45-.68-.6,1.71-1.15,3.36-.98,.19,1.36,2.02,.77,2.53,1.34l-.25-.77c1.48-.27,2.05,.25,3.12,.87-.95,.42-1.34-.43-1.53,0,3.09,.03-.63,2.67,2.02,3.26-.41,.8-2.49,.83-2.68,1.46,1.5,.33,1.27,.83,1,1.32-.25,.49-.56,.99,.68,1.46,1.6-.85,1.07-.83,3.63-.31l-2.97-1.92c1.24,.23,2.5,.48,3.78,.74-.5-.71-2.24-1.16-2.24-1.66,2.03,.27,1.52,.35,2.8-.43-2.08,1.73,3.07,1.53,2.01,3.15l-4.74,1.06c-.24,.52-.05,.91,.31,1.26,.31,.36,.84,.67,1.42,1,1.15,.65,2.48,1.4,2.45,2.59l.47-.84c1.05,0,1.3,.33,1.44,.74,.11,.42,0,.91,.53,1.23-1.68,.15-2.13,.68-3.06,1.11,1.22-.18,.43,1.61,3.84,1.51-.64,.41-1.19,.81-1.92,1.2-.65,1.86,5.12,1.83,4.83,3.74-1.93-.5-3,.34-4.5-.8,.07,.59-.15,1.12,1.03,1.1-1.06,.35,2.23,1.65,.61,2.21,.74,.26,2.51,.37,2.35,1.06-.34,.07-.84-.02-.84-.02,.84,.01,1.11,1.12,3,.56-.67,.23-1.16,.48-1.53,.75-.4,.27-.7,.55-.9,.85-.41,.6-.46,1.26-.5,1.91-.04,.65-.03,1.31-.35,1.87-.4,.56-1.08,1.02-2.35,1.29,.03,1.35,.15,3.04-.49,4.22-.45-.16-.81-.14-.52-.33-2.38,1.32,4.11,1.83,1.41,3.41-3.1,.42-.87-1.27-2.17-.88-2.73-.4-2.77,.17-2.76,.92-.01,.73,.14,1.68-1.78,1.89l-.1-.35c-2.41,.43,.5,2.69-1.27,4.01,0,0-.38-.2-.74-.23,.83,.85,1.02,1.82,.93,2.79-.06,.48-.14,.97-.34,1.42-.2,.45-.43,.87-.64,1.27-1.39-1.09-.32-.96-2.49-1.38-.39,.69,3.24,.9,2.42,2.31-1.45,.03-3.27,.56-5.35-.11l1.1-1.14c-3.18-.42-1.46,1.45-2.56,1.86l-1.01-.52c-1.69,1.71,.95,2.92-1.53,4.58l1.03,.19c1.32,2.21-2.5,.1-2,1.93l-2.97-1.03c-.3,.86-.69,3.36-2.05,4.64-.7-1.57,.16-3.36,.23-4.67-.91,.55-2.77,2.03-2.1,2.99,.17-.34,0-.99,.73-1,.9,1.81,.07,3.19-1.93,4.28-2.07-1.49-3.61-.98-5.23-.27-1.71,.65-3.58,1.47-5.9,.66-.51,.69-1.27,1.23-2.15,1.66-.91,.42-2.02,.69-3.14,.97-1.13,.27-2.31,.51-3.46,.81-1.14,.31-2.28,.65-3.4,1.07,4.33,1.98-1.28,.53,1.7,3.06-.95,.55-1.43,.65-1.7,.51-1.66-.15-3.28-.3-4.88-.46-1.5-.52,.49-.94-.18-1.51-2.54,.58-2.03-.8-4.25-1.07,1.19,.88,.38,1.63-1.32,1.64l3.05,.71c-2.25,2.43-4.88-1.49-7.12,.94l.4-1.18c-.34,.25-.9,.5-1.58,.74-.7,.22-1.49,.46-2.25,.76-1.52,.59-2.89,1.41-3.08,2.77-.54-.26-1.45-.94-.78-1.34-2.25,.38-4.43,1.35-6.57,2.3-2.15,.92-4.3,1.72-6.45,1.18l.04-.77c-.76,.32-.94,1.56-2.32,.97-.06-.31,.06-.77-.36-.76-.35,.31-1.81,1.58-3.12,1.31l.69-.95c-1.21-.09-2.19,.05-3.06,.32-.88,.23-1.65,.6-2.38,1.02-1.47,.83-2.86,1.85-4.78,2.28-.24-1.09-1.31-1.73-2.54-2.13-1.22-.41-2.59-.65-3.49-.78v-.31c-2.6-.05-4.75,.58-6.9,1.17-2.15,.58-4.32,1.32-6.86,1.74-1.46-1.2-3.93-1.65-6.67-1.89-.68-.07-1.38-.11-2.08-.19-.68-.1-1.37-.2-2.03-.32-1.33-.24-2.6-.54-3.64-.98,.58,.47-.7,1.67-1.65,1.8-.94-.54-3.69,1.01-2.68-.9l.37,.1c0-2.05-2.36-1.88-4.06-2.2l-1.64,2.48c-1.28-2.3-4.26-2.54-7.18-2.8-2.81-.34-5.59-.58-5.35-2.43-1.5,.25-2.71-.17-4.27,.07l1.28-1.2c-1.17-.63-2.1-1.02-3.06-1.49-.97-.46-2.1-.87-3.84-1.37l1.66-.56c-.82-.39-2.41,.21-4.05,.81-1.6,.58-3.26,1.16-4.12,.79l1.81-1.87c-1.49-.72-2.54-1.73-3.6-2.71-1.1-.96-2.5-1.67-5.01-1.83,.43-.19,1.26-.55,1.79-.34-1.15-.84-2.7-3.95-6.12-1.82,2.39-1.18-2.18-1.96-4.68-2.48l2.13-.67c-3.56,.22-4.31,.47-6.41-.53-.08-.4,1.3-.88,1.23-.29-.06-1.39-2.76-.05-3.05-1.67l1.8-.02c-.99-1.07-1.59-.73-3.69-.8-1.49-.4-1.46-2.23,.31-2.98-1.27,.22-3.47,.13-3.44-.71,.66-.3,1.3-.2,1.62-.15-.02-2.25-4.81-2.05-3.66-3.92,.71-.21,1.01-.39,1.16-.55,1.03,1.5,1.96,2.68,1.68,2.62,1.98-.57,1.4-1.79,4.89-1.65-1.12-.24-2.82-.53-4.26-.95-1.36-.44-2.45-1.01-2.37-1.7,.16-.1,.32-.2,.6-.32l.31,.07c.02-.31-.34-.51-.84-.66,.08-.45,.17-.74-.05-1.1,1.59-.5,.13-1.58-.15-2.19-2.26,.5-2.35-.38-3.81,.75,.11-.13,.34,.06,.67,.46,.12,.08,.22,.18,.39,.22-.07,0-.14,0-.22,0,.32,.39,.61,.92,1.08,1.49-1.5-.22-2.73-.55-1.88-1.49-1.65-.02-3.36-.08-4.19-.15,2.67-1.5,3.5-3.43,5.44-4-1.08-.83-1.82-1.92-2.9-2.86-1.02-.96-2.32-1.8-4.78-2.16-.77-.5,1.04-.8,1.67-1.08,.56,.27,.63,.66,1.33,.76-.75-.49-1.21-1.3-1.76-1.99-.54-.69-1.31-1.26-2.91-1.26,1.05-1.56,3.09,.55,2.08-1.37l1.03,.19c.51-.53,.74-1,.76-1.45,.05-.45-.07-.86-.35-1.26-.54-.8-1.63-1.54-2.67-2.32-1.08-.78-1.91-1.6-2.22-2.51-.25-.9-.02-1.9,1.7-2.98-.41,.3-.61,.45-1.14,.51,.78-1.24,1.04-2.48,1.05-3.75,.1-1.26,.05-2.53,0-3.81,.08-2.54,.55-5.14,3.75-7.17,1.37-1.2-.46-1.61-1.53-2.68l2.64,.13c-.73-.61-1.45-1.24-2.16-1.88-.58-1.2,1.55-1.75,3.37-2.35,1.86-.61,3.36-1.27,2.46-2.89l-1.84-.12c.98-.75,1.24-2.94,2.91-2.26-.23-.17-1.37-.76-.25-.83l1.22,.35c-.04-.86-.06-1.74-.07-2.64,1.19-.63,2.26-.14,3.35,.22,1.08,.36,2.19,.62,3.49-.32,.42-.87-.64-3.48-1.68-3.53-.43,.29-1.65,.51-2.78,.07l.33-.99c-3.05-1.52-5.42-3.69-10.2-2.56,.07,.76,.17,1.51,.28,2.25l-2.18-.15,1.37-1.27c-2.34,.1-1.58,1.08-1.17,1.92-.99-.2-1.82-.21-2.45-.02,.58,.89,1.18,1.77,1.81,2.62-1.54-.26-2.03-1.57-3.78-.8,.86,1.2,3.71,.33,3.61,1.8-2.28,.21-3.45-.4-2.78,.89-1.02-.15-1.45-.5-1.57-.98,.45,1.12-1.25,2.24,.36,3.16-1.32,.12-1.78,.81-2.18,1.37-.42,.56-.94,.96-2.67,.52,.67,.46,1.84,2.05,1.52,2.81-1.69-1.11-2.22-.44-2.83,.38-.54,.82-1.18,1.77-3.41,1.17,1.68,.88,1.64,1.88,1.33,2.94-.22,1.07-.64,2.22,.11,3.27-.28-.14-.84-.42-.57-.56-.73,.99-2.05,1.15-3.06,1.75,3.27,.51,3.59,2.2,5.42,3.22-3.55,.98-3.7-1.11-6.89-1,2.71,.19,2.1,2.48,4.47,2.21-2.25,.82-1.13,.76-4,1.09,4.15,.44,.56,.97,3.01,1.92-2.28,1.31-3.99,.19-2.95,1.81-.68,.35-1.37,.17-1.86-.11-.49-.28-.81-.65-.81-.65Zm17.12,35.74s-.04,0-.04,.01c-.25-.28-.47-.51-.61-.67,.14,.14,.32,.33,.65,.65Zm2.1,2.79c-.18-.36-.54-.77-.87-1.22,.7-.29,1.55-.38,1.71-.1-.63-.02-.55,.74-.85,1.32Zm11.56-9.26c.55,.33,.18,.56-.25,.72-.16-.18-.35-.39-.68-.65-.08,0-.22,0-.31,.01,.46-.05,.89-.09,1.23-.08Z"/>
      <path class="cls-3" d="M27.42,86.6c-.09-.05-.2-.06-.26-.14-.15,.12-.28,.24-.37,.35,.27,0,.55,0,.8,0-.05-.07-.11-.15-.16-.21Z"/>
      <path class="cls-3" d="M146.75,13.13l.08,.05c-.05-.07-.1-.13-.11-.23,.03,.08,0,.12,.02,.18Z"/>
      <polygon class="cls-3" points="65.71 129.05 65.98 128.73 65.3 128.88 65.71 129.05"/>
      <path class="cls-3" d="M122.52,3.89c-.01-.13-.07-.26-.24-.39-.02,.09,.1,.24,.24,.39Z"/>
      <path class="cls-3" d="M110.46,2.44c-.54-.2-1.09-.43-1.64-.62,.7,.31,1.22,.51,1.64,.62Z"/>
      <path class="cls-3" d="M101.11,1.3c-.14,.24-.19,.43-.23,.6,0,0,.01,0,.02,0l.22-.61Z"/>
      <path class="cls-3" d="M234.11,38.84c.09,.06,.19,.11,.31,.15,.91,.29,.4,.05-.31-.15Z"/>
      <path class="cls-3" d="M198.02,22.46c.64-.06,1.27-.11,1.84-.09-.55-.34-1.04-.57-1.84,.09Z"/>
      <path class="cls-3" d="M251.98,68.3s-.02,0-.04,0c0,.07,0,.13,0,.2l.05-.19Z"/>
      <path class="cls-3" d="M201.56,23.07c-.38-.48-1-.65-1.7-.69,.45,.29,.94,.65,1.7,.69Z"/>
      <path class="cls-3" d="M60.15,2.32h-.47c.04,.08,.03,.16,.02,.22l.45-.22Z"/>
      <path class="cls-3" d="M59.7,2.54l-.45,.22c.23-.02,.42-.06,.45-.22Z"/>
      <path class="cls-3" d="M58.32,3.22l.93-.46c-.36,.04-.83,.04-.93,.46Z"/>
      <path class="cls-3" d="M72.7,1.89l.04-.52c-.06,.11-.08,.28-.04,.52Z"/>
      <path class="cls-3" d="M76.45,1.53c-.91-.07-2.46-.95-3.67-.57l-.04,.41c.46-.79,3,1.06,3.71,.16Z"/>
      <path class="cls-3" d="M92.37,7.36l-3.01-.37c.55,.54,1.25,1.26-.09,1.4,3.78,1.58-.82-1.21,3.1-1.03Z"/>
      <path class="cls-3" d="M101.55,8.28c-1.6,.18-.05,.79-.17,1.09,1.04-.45,1.3-.56,.17-1.09Z"/>
      <path class="cls-3" d="M165.86,18.33l-1,1.14c1.23,.13,.34-.45,1-1.14Z"/>
      <path class="cls-3" d="M182.6,15.6c-.17-.35-.33-.72-.51-1.06l-1.46,.9c.67,.03,1.32,.09,1.97,.16Z"/>
      <polygon class="cls-3" points="181.8 25.76 181.19 25.77 183.33 25.93 181.8 25.76"/>
      <path class="cls-3" d="M229.83,75.14l2.73,.06c-.4-.51-3.36-.86-2.73-.06Z"/>
      <path class="cls-3" d="M213.08,99.79c-1.38-.26-2.78,.03-2.35,.86,.88-.37,2.27-.49,2.35-.86Z"/>
      <polygon class="cls-3" points="86.4 120.47 87.52 120.14 85.72 120.22 86.4 120.47"/>
    </g>
  </g>
  <g>
    <g>
      <path class="cls-1" d="M76.84,34.22c3.73-2.53,7.53-4.22,11.4-5.05,3.87-.83,7.6-.96,11.2-.4,3.6,.57,7.02,1.77,10.25,3.6,3.23,1.83,6.1,4.17,8.6,7,2.5,2.83,4.58,6.08,6.25,9.75,1.67,3.67,2.73,7.63,3.2,11.9,.4,3.73,.18,7.42-.65,11.05-.83,3.63-2.13,7.1-3.9,10.4-1.77,3.3-3.93,6.33-6.5,9.1-2.57,2.77-5.42,5.08-8.55,6.95-3.4,2-7.07,3.45-11,4.35-3.93,.9-7.9,1.12-11.9,.65-8.73-1.13-15.73-5.17-21-12.1-2.2-2.87-3.83-6.02-4.9-9.45-1.07-3.43-1.65-6.92-1.75-10.45-.1-3.53,.25-7.07,1.05-10.6,.8-3.53,1.97-6.87,3.5-10,1.67-3.4,3.75-6.52,6.25-9.35,2.5-2.83,5.32-5.28,8.45-7.35Zm23.3,9.8c-3.13-1.27-6.12-1.62-8.95-1.05-2.83,.57-5.4,1.75-7.7,3.55-2.3,1.8-4.27,4.08-5.9,6.85-1.63,2.77-2.87,5.68-3.7,8.75-.83,3.07-1.2,6.15-1.1,9.25,.1,3.1,.75,5.88,1.95,8.35,1.53,3,3.67,5.42,6.4,7.25,2.73,1.83,6.13,2.58,10.2,2.25,3.27-.33,6.28-1.33,9.05-3,2.77-1.67,5.32-3.9,7.65-6.7,1.87-2.4,3.28-5.13,4.25-8.2,.97-3.07,1.28-6.2,.95-9.4-.27-1.87-.75-3.71-1.45-5.55-.7-1.83-1.6-3.55-2.7-5.15-1.1-1.6-2.4-3.02-3.9-4.25-1.5-1.23-3.18-2.22-5.05-2.95Z"/>
      <g>
        <path class="cls-4" d="M76.84,34.22c3.73-2.53,7.53-4.22,11.4-5.05,3.87-.83,7.6-.96,11.2-.4,3.6,.57,7.02,1.77,10.25,3.6,3.23,1.83,6.1,4.17,8.6,7,2.5,2.83,4.58,6.08,6.25,9.75,1.67,3.67,2.73,7.63,3.2,11.9,.4,3.73,.18,7.42-.65,11.05-.83,3.63-2.13,7.1-3.9,10.4-1.77,3.3-3.93,6.33-6.5,9.1-2.57,2.77-5.42,5.08-8.55,6.95-3.4,2-7.07,3.45-11,4.35-3.93,.9-7.9,1.12-11.9,.65-8.73-1.13-15.73-5.17-21-12.1-2.2-2.87-3.83-6.02-4.9-9.45-1.07-3.43-1.65-6.92-1.75-10.45-.1-3.53,.25-7.07,1.05-10.6,.8-3.53,1.97-6.87,3.5-10,1.67-3.4,3.75-6.52,6.25-9.35,2.5-2.83,5.32-5.28,8.45-7.35Zm23.3,9.8c-3.13-1.27-6.12-1.62-8.95-1.05-2.83,.57-5.4,1.75-7.7,3.55-2.3,1.8-4.27,4.08-5.9,6.85-1.63,2.77-2.87,5.68-3.7,8.75-.83,3.07-1.2,6.15-1.1,9.25,.1,3.1,.75,5.88,1.95,8.35,1.53,3,3.67,5.42,6.4,7.25,2.73,1.83,6.13,2.58,10.2,2.25,3.27-.33,6.28-1.33,9.05-3,2.77-1.67,5.32-3.9,7.65-6.7,1.87-2.4,3.28-5.13,4.25-8.2,.97-3.07,1.28-6.2,.95-9.4-.27-1.87-.75-3.71-1.45-5.55-.7-1.83-1.6-3.55-2.7-5.15-1.1-1.6-2.4-3.02-3.9-4.25-1.5-1.23-3.18-2.22-5.05-2.95Z"/>
        <g>
          <path class="cls-1" d="M100.38,43.4c-.1,.05-.13,.25,.07,.29l.26-.25-.33-.04Z"/>
          <path class="cls-1" d="M101.38,44.5c.28-.05,.65-.17,.65-.52-.35,.18-.35,.04-.74,.27-.2-.05-.28-.24-.2-.34-.1,.05-.26-.19-.44-.04,.14,.34,.43,.47,.84,.43,.04,.1-.07,.14-.11,.19Z"/>
          <path class="cls-1" d="M112.3,59.55v-.13s0,.08,0,.13Z"/>
          <path class="cls-1" d="M111.68,71.09c.02-.09,0-.13-.03-.15,0,.09,0,.16,.03,.15Z"/>
          <path class="cls-1" d="M110.68,72.84s.04-.07,.06-.1c-.04,.03-.08,.07-.06,.1Z"/>
          <path class="cls-1" d="M112.3,59.55l-.03,.33c.11,0,.04-.18,.03-.33Z"/>
          <path class="cls-1" d="M104.15,45.15c-.07-.03-.13-.03-.2-.03l.16,.06,.04-.04Z"/>
          <path class="cls-1" d="M110.31,54.78l-.04-.09s-.1-.01-.16-.01l.2,.1Z"/>
          <path class="cls-1" d="M108.27,51.42c.04,.08,.29-.06,.41-.1-.12,.02-.21,0-.27-.05-.04,.03-.09,.08-.14,.15Z"/>
          <path class="cls-1" d="M104.26,46.62l-.11-.04s.08,.02,.11,.04Z"/>
          <path class="cls-1" d="M111.32,57.41s-.07,.05-.08,.07c.03-.01,.06-.04,.08-.07Z"/>
          <path class="cls-1" d="M95.76,41.51s0,.03,0,.05c.03-.02,.04-.04,0-.05Z"/>
          <path class="cls-1" d="M100.11,44.09h-.07s-.05,.08-.07,.13l.14-.13Z"/>
          <path class="cls-1" d="M108.81,75.91h.01c.02-.11,0-.06-.01,0Z"/>
          <path class="cls-1" d="M81.46,85.78c.16,.42-.68-.08-.38,.47,.02-.12,.67-.07,.38-.47Z"/>
          <path class="cls-1" d="M104.23,45.24s.1,.06,.15,.1c-.06-.05-.1-.08-.15-.1Z"/>
          <path class="cls-1" d="M81.07,86.25h0s.03,.06,.03,.06c-.01-.02-.02-.04-.03-.06Z"/>
          <path class="cls-1" d="M103.69,82.3s.1,.03,.14,.04c-.02-.02-.06-.03-.14-.04Z"/>
          <path class="cls-1" d="M108.16,78l-.12,.11c.06-.04,.09-.07,.12-.11Z"/>
          <path class="cls-1" d="M101.4,84.6c-.08,.03-.13,.01-.2,.11,.02,0,.03,0,.05,0,.01-.06,.05-.1,.15-.12Z"/>
          <path class="cls-1" d="M98.52,86.33s.05,.01,.08,.02c.03-.02,.06-.04,.09-.06l-.17,.04Z"/>
          <path class="cls-1" d="M84.88,44.14c.11,.03,.2,.08,.27,.13-.15-.14,.28-.48-.27-.13Z"/>
          <path class="cls-1" d="M104.07,45.29c.06-.05,.1-.06,.16-.04-.04-.02-.07-.04-.11-.05-.03,.03-.06,.06-.05,.1Z"/>
          <path class="cls-1" d="M102.55,86.51l-.51,.29c.15-.06,.33-.17,.51-.29Z"/>
          <path class="cls-1" d="M71.96,65.79v-.14s-.03,.1,0,.14Z"/>
          <path class="cls-1" d="M100.59,87.74c-.14-.03-.27-.03-.38-.01-.01,.03-.03,.06-.02,.1l.41-.09Z"/>
          <path class="cls-1" d="M85.15,44.27h0s0,0,0,0Z"/>
          <path class="cls-1" d="M88.42,42.06c-.55,.18-.13,.43-.18,.67-.59,.33-.38-.15-.67-.24-.36,.25-.52,.69-.81,.8-.05-.05-.11-.04-.08-.14-.28,.44-1.18,.59-1.44,1.17-.05,0-.08-.03-.1-.05,.16,.12,.27,.28,.32,.4-.21,.13-.26,.43-.47,.27,.13-.07,.09-.16,.11-.26l-.16,.22c-.38-.17,.23-.28,.11-.5-.38,.35-.7,.91-1.07,1.05-.26-.24,.68-.6,.08-.56l.57-.22c-.68-.21,.33-.17-.33-.42-.74,.36-.66,.64-1.36,1.03-.03,.26,.22,.19,.19,.44-.65,.95-1.23-.11-1.57,.78-.01,.31,.22,.68-.35,.91l-.12-.41c-.58,.51,.07,.69-.67,1.08-.01-.21,.33-.52,.21-.47-.58,.16-.1,.41-.37,.7l-.31-.17c-.52,.64-.9,1.48-1.38,2.22-.05-.1-.04-.29-.25-.18-.54,1-1.41,1.95-2.13,2.8l.05,.5c-.05,.08-.2,.09-.2-.03-.3,.31,.15,.11,.15,.34-.1,.22-.3,.2-.31,.02-.15,.77-.49,2.11-1.09,2.69l-.02-.17c-.36,.51,.27,.87-.19,1.27v-.12c-.64,1.17-.85,2.62-1.56,3.45,.34,.3-.54,1.21,.01,1.44-.46,.66-.52,.42-.94,1.43-.09,.28,.28,.49,.27,.84l-.3-.05,.24,.53-.41,.19,.03,.34c.04-.13,.18-.26,.26-.22,.06,.53-.38,1.21-.54,1.21,.04,.42,.09,.83,.14,1.24-.12-.04-.15-.24-.21-.41,.26,.68-.34,.09-.09,.72,.08-.08,.18,.06,.24,.07-.21,.28-.24,.97-.17,1.47l-.21-.1c-.07,.92,.1,1.92,.17,2.96,.07-.38,.45-.31,.5-.02l-.31,.15c.22,.18,.09-.32,.38,.05,0,.38-.35,.29-.47,.08l.16,.46c-.09,.04-.16-.07-.28-.08,.22,.17-.23,.85,.16,1.09l-.09,.04c.16,1.04,.37,1.48,.6,2.3,.28-.06,.3,.28,.59,.46,.09,.61,.1,1.34,.41,2.03,.33,.43,.28,.05,.53,.2-.23,.13,.12,.82-.22,.54,.44,.82,.57,1.03,1.33,1.89,.03-.16,0-.3,.1-.28,.14,.15,.15,.45,.03,.49l-.05-.03c.5,.43,.76,1.12,1.07,1.78,.3,.66,.66,1.27,1.2,1.46l-.06-.02c.31,.19,.63,.37,.94,.54,.32,.36-.34-.06-.19,.3,1.12,.45,1.33,1.23,2.26,1.56,.07,.51,.64,.89,1.28,1.19,.64,.3,1.33,.53,1.73,.93v-.19c.32-.07,.27,.21,.44,.31,.02-.14-.21-.24-.03-.28,2.11,.54,4.34,1.3,6.6,1.39,.82,.02,.41-.93,1.45-.58l-.26,.35c1.59-.54,3.31-.47,4.74-1.28-.07,.1-.04,.2-.19,.24,.39,.14,1.19-.38,1.12-.57,.24-.07,.11,.15,.29,.19,.37,.02,.67-.59,.93-.44,.04,.02-.06,.11-.11,.15,.16-.19,.95-.39,.64-.55,.6-.14,.96-.6,1.45-.69,.12-.41,.96-.38,.81-.8,.2,.41,1.07-.24,1.25-.63-.03,.18,.35-.07,.33,.17,.35-.25,.61-.55,.42-.69,.96-.03,.96-1.29,1.74-1.03,.79-.99,1.52-1.9,2.22-2.78,.3,.35-.83,.91-.47,1.21,.64-.89,.77-1.59,1.54-2.3,.23-.16,.05,.24,.04,.37,.57-.89,1.39-1.6,1.71-2.52,.03,.03,.01,.14-.01,.24,.1-.16,.3-.33,.12-.42l-.05,.18c-.41,.08-.11-.96-.23-1.07,.33,.58,.61-.71,.98,.11,.03-.13,.03-.31-.11-.36,.13-.14,.23-.15,.27,.09,.24-.64-.07-.54,.23-1.06,.09,.05,.06,.18,.13,.29-.02-.36-.05-.72,.25-1.14,.04,.05,.14,.04,.07,.17,.37-.81,.17-1.56,.69-2.36,.3,.42,.25-.25,.62-.17l.08-.52-.24,.13c.16-.42,.03-.88,.26-1.21l.04,.36,.19-.83-.27,.41c-.05-.49-.46-.1-.19-.63,0,.13,.13-.42,.4-.59h0c-.06-.24-.13-.49,.04-.79,.13-.06,.39,.16,.48,.12-.25-.28,.14-1.05-.15-1.39,.06,.1,.25,.14,.3,.12l-.22-.22c.11-.19,.16-.22,.31-.16,.14-.61-.49,.13-.19-.58,.01,.06,.05,.04,.07,.16,.21-.73,0-1.44,.17-2.11,.39-.18,.05,.6,.39,.39,0-1.01-.38-2.07-.36-3.02l-.03,.18c-.54-.1,.22-.72-.08-1.2,.05,.11,.31,.12,.25,.1,0-.7-.33-1.32-.71-2.25l.16,.09c.03-.4-.17-1-.23-1.42-.16-.08-.21-.32-.36-.12,.37-1.48-1.16-2.16-1.02-3.43,.06,.12,.24,.25,.2,.15l-.52-.83c-.18,.17-.07,.18-.15,.43-.18-.05-.39-.25-.49-.46,.33,.32,.33-.17,.36-.4-.05,.06-.15,.04-.2,.09,.13-.64-.45,.14-.53-.59l.12-.03c-.18-.2-.43-.32-.54-.57,.17-.23,.24,.17,.44,.08-.21-.33-.82-.4-.78-.83,.15,.1,.28,.3,.43,.4,.07-.49-.03-.49-.14-.76v.03s-.24-.63-.24-.63l.02,.19c-.85-.01-.67-.75-1.44-.99,.73,.24,.26-.07,.53-.22-.04-.19-.13-.45-.01-.44-.39-.09-.19-.54-.76-.64,.06-.08-.22-.26,.01-.37-.34-.26-.06,.19-.17,.24-.66-.24-.74-1.38-1.73-1.65-.71-.37-1.03-.21-1.69-.51-.1-.27,.37-.16,.37-.16-.22-.35-.48-.51-.85-.62,.11-.03,.09-.13,.05-.29-.26-.14-.36,.18-.61-.14,.11-.06,.28-.16,.46-.17-.35-.12-.74-.15-1.1-.25,0-.2,.32-.12,.49-.14-.39-.15-1.01-.39-1.24-.21l.19,.2c-.14-.06,.04-.24,.16-.23,.41-.02,.4,.33,.36,.42l-.25-.07c-.05,.62,.93,.43,1.35,.75l-.41,.23h.63c.03,.16-.04,.39-.28,.3,.18,.37,.35,.06,.46,.43,0,.05-.02,.06-.05,.05l.35,.11c-.11,.03-.13,.27-.27,.09,.35,.56,.99,.39,.96,.78h-.06c.75,.46,.26-.19,1-.01l-.19,.85,.27-.16c.06,.07,.17,.21,.06,.28,.39,.09,.05-.13,.33-.14,.11,.5,.93,.79,.62,1.19,.28-.03-.14-.43,.29-.19-.31,.44,.42,.35,.48,.82-.29,.07-.41-.3-.35,.15,.51-.1,.39,.66,.65,.88,.31-.2,.54,.5,.94,.91-.12,.03,.38,1,.51,1.52l-.06,.02c.37-.09,.56,.42,.8,.74-.2,.08-.31,.06-.49-.08l.16,.32c.14,.03,.25,.1,.39,.3l-.29,.03c.22,.43,.7,.76,.76,1.41,.25-.06,.48-.74,.89-.16-.12,.07-.33,.18-.45,.04,.04,.05,.18,.15,.17,.28l-.31-.17c0,.3,.24,.07,.3,.3-.19,.06-.07,.21-.23,.23-.04-.05,0-.22-.1-.27,.06,.25,.05,.59-.06,.73,.1-.06,.25-.09,.34,.08,.17,.46-.17,.23-.18,.53,.17,.07,.12,.41,.41,.33,.04,.14-.09,.2-.15,.28,.2,.2,.34,1.12,.57,.77v-.07s.03,.04,.03,.04h0s0,0,0,0c.49,.74,.22,1.72,.46,2.5h-.1c.17,.47,.16,1.07,.39,1.42,0,.15-.17,.35-.29,.29,.09,.37,.2,.41,.04,.95-.17-.37-.15,.13-.13-.38-.08,.48-.24,.58,0,1.11-.24-.18-.33,.35-.27,.58l.2-.32c.02,.26-.01,.48-.06,.71l-.32-.15c-.48,.91,.49,1.84-.32,2.46,.18,.3,.26-.49,.49-.22-.13,.44-.69,.8-.73,.93-.32,.55,.34,.67,.05,1.27,.13-.05,.47-.04,.43,.47-.17,.43-.65,.39-.65,.09,.02-.11,.07-.15,.11-.13,0-.15,0-.35-.17-.22l.1,.09c-.18,.18-.36,.77-.5,.57,0,.36,.14,.2,.28-.02-.34,.5-.3,.86-.62,1.37,.1-.06,.26-.1,.22,0-.46,.76,.07,.44-.12,1.02-.3,.24-.34-.28-.45,.33-.26,.28-.32-.06-.35-.23-.01,.59-.56,.84-.74,1.09l.04-.29c-.02,.17-.09,.3-.15,.42l.28-.03c-.11,.13-.18,.25-.27,.2,.06,.22,.41,.07,.44,.47-.21,.14-.22,.66-.53,.57,.44-.56-.31-.09-.07-.63-.02,.12-.09,.24-.21,.36-.04,0-.05-.05-.04-.1-.58,.42,.16,.45-.21,1.03-.1-.17-.37-.04-.4,.07,.15-.23,.32,.05,.3,.34-.36,.3-.18,.46-.33,.65l.21-.18c.09,.17-.05,.35-.19,.64-.13-.06,.09-.29-.03-.23,.04,.47-.71,.45-.85,.94-.24,.09-.27-.2-.46-.1-.17,.55-.56,.28-.8,.83,.29,.04,.26-.02,.16,.43l.51-.81-.14,.68c.2-.21,.29-.55,.43-.65-.04,.35-.07,.28,.17,.31-.53,.06-.36,.73-.85,.9l-.42-.41c-.65,.3-.61,1.08-1.36,1.58l.28-.12c.08,.25-.37,.4-.52,.66-.11-.16-.29-.1-.46-.11,.11,.1-.49,.41-.29,.76l-.47,.05c-.61,.36-.28,.95-.87,1.31,.04-.3-.29-.22-.02-.62-.18,.13-.37,.23-.29,.34-.18-.03-.36,.59-.64,.55-.03,.13,.06,.32-.16,.45-.05-.02-.05-.08-.05-.08,.05,.08-.27,.33,.04,.39-.92-.12-1.68,1.08-2.48,.88-.41,.28-.93,.59-1.34,.77,0-.07-.04-.09,.05-.1-.64,.06-.14,.67-.89,.73-.45-.18,.3-.29,.04-.33-.31-.58-.77,.37-1.34,.14l.1-.07c-.4-.11-.77,.48-1.37,.56,0,0,.02-.06-.02-.1-.32,.42-1.06,.67-1.63,.84,.14-.28,.24-.17,.09-.41-.25,.07,.14,.4-.37,.54-.19-.12-.57-.2-.64-.47l.47-.07c-.28-.32-.6,.08-.86,.03l.02-.16c-.71,.09-.72,.49-1.52,.46l.08,.12c-.44,.39-.36-.22-.81,.05l-.11-.4c-.28,.09-1.02,.31-1.55,.31,.33-.25,.94-.34,1.31-.49-.28-.02-.94-.05-1.11,.12,.12-.03,.27-.11,.37-.03-.37,.27-.86,.37-1.42,.25,.25-.71-1.4-.51-1.58-1.23-1.01-.04-1.71-.8-2.63-1.35,0,.71-.28-.16-.56,.38-.25-.12-.33-.19-.32-.24-.15-.26-.3-.52-.44-.78-.04-.26,.28,.05,.35-.08-.43-.39-.03-.35-.22-.71-.08,.22-.35,.12-.54-.16l.17,.51c-.83-.28-.19-.83-.99-1.14l.31,.04c-.39-.19-1.05-1.06-1.68-1.06,0-.1,.07-.28,.22-.17-.58-.77-1.77-1.45-1.91-2.29h.17c-.13-.15-.41-.15-.39-.43,.06-.02,.17,0,.13-.09-.1-.06-.47-.3-.5-.56l.25,.11c-.25-.91-1-1.16-1.38-1.91,.41-.15,.31-.91,.28-1.29h.06c-.24-1.08-.79-1.77-1.1-2.82,.38-.7,0-2.24,.3-3.32-.08,.16-.34-.03-.38-.22,.09-.25-.28-.71,.12-.65v.09c.39-.17,.31-.69,.35-1.09l-.52-.11c.83-.98,.04-2.8,.84-3.26-.09-.27-.02-.58-.09-.86l.27,.07c.22-.67,.34-1,.5-1.85l.15,.22c.15-.46-.62-.82-.5-1.27h.45c.25-.84,.89-1.52,.85-2.45,.05,.04,.16,.1,.12,.24,.15-.38,.86-1.32,.27-1.42,.35,.14,.4-.79,.46-1.29l.22,.19c-.15-.51-.23-.57-.06-1.11,.09-.1,.25,0,.11,.12,.33-.32-.07-.43,.31-.82l.06,.26c.23-.38,.14-.4,.08-.72,.04-.3,.49-.71,.74-.63-.1-.13-.15-.45,.06-.64,.1,.02,.1,.13,.1,.19,.56-.53,.34-1.11,.87-1.38,.08,.05,.14,.05,.19,.03-.35,.47-.63,.87-.62,.82,.22,.14,.51-.23,.6,.28,.04-.42,.08-1.2,.46-1.49,.03,0,.07,0,.11,0v.06c.08-.07,.12-.16,.14-.26,.12-.09,.21-.14,.3-.25,.2,.09,.43-.34,.59-.51-.23-.17,.01-.37-.35-.31,.04-.02,0,.06-.1,.18-.02,.03-.04,.07-.04,.1v-.03c-.1,.12-.23,.29-.37,.47,0-.24,.04-.47,.33-.57-.06-.21-.11-.44-.13-.55,.51,0,1.09-.31,1.33-.2,.38-.63,1.12-1.25,1.13-1.94,.12-.19,.28-.04,.39-.03-.06,.12-.17,.2-.17,.3,.22-.38,.91-.81,.77-1.16,.52-.18-.03,.44,.51-.03v.15c.72-.17,1.05-.66,1.45-1.14,.4-.48,.88-.95,1.75-.92-.12,0-.18,0-.22-.04,.88-.21,1.7-.59,2.58-.88,.87-.3,1.78-.5,2.66-.31,.49,.07,.53-.17,.83-.35l.11,.3c.17-.12,.34-.23,.52-.34,.78-.23,1.2,.81,2.17,.49l-.08-.22c.33,.09,1.08,.1,.97,.31,.04-.03,.16-.18,.26-.04l-.03,.16c.29-.02,.58-.03,.87-.04,.58,.31-.28,.56,.58,.89,.34,.05,1.08-.08,1-.23-.13-.06-.3-.22-.26-.37l.33,.04c.22-.41,.66-.75-.01-1.36l-.65,.07-.11-.28,.48,.15c-.2-.29-.43-.18-.66-.11,0-.13-.06-.23-.16-.31-.23,.08-.46,.17-.68,.26-.02-.19,.35-.28,0-.48-.32,.13,.14,.46-.32,.48-.22-.27-.1-.42-.47-.32-.02-.13,.07-.19,.21-.21-.32,.07-.79-.11-.99,.11-.25-.32-1-.08-.92-.52-.11,.09-.57,.29-.84,.29,.54-.5-1.03-.09-.88-.63-.38,.46-1.38,.23-2.02,.59,.03-.04,.1-.13,.16-.11-.38,0-.51-.12-.76-.17,.01,.39-.54,.58-.78,.89-.52-.27,.16-.51-.05-.83,.09,.3-.7,.49-.48,.71-.39-.15-.31-.03-.57-.3,.07,.49-.29,.16-.48,.54-.55-.08-.26-.4-.74-.08-.3-.06,.11-.38,.11-.38Zm-9.77,8.35h0c.06-.09,.11-.17,.15-.22-.03,.05-.07,.11-.14,.22Zm-.62,.87c.08-.1,.18-.23,.27-.37,.1,.03,.16,.12,.09,.2-.02-.09-.21,.09-.37,.17Zm2.86-.55c-.07,.14-.14,.15-.2,.13,.04-.06,.09-.14,.15-.23v-.04s.04,.09,.05,.14Z"/>
          <path class="cls-1" d="M80.8,50.27s0-.04,.03-.06c-.04,0-.08,.02-.11,.03l.03,.1,.05-.07Z"/>
          <path class="cls-1" d="M112.31,59.4v.02s.01-.04,.03-.05c0,.02-.02,.02-.03,.03Z"/>
          <polygon class="cls-1" points="72.01 64.59 72.08 64.6 72.04 64.5 72.01 64.59"/>
          <path class="cls-1" d="M111.21,53.73s.03-.05,.03-.1c-.01,.01-.02,.05-.03,.1Z"/>
          <path class="cls-1" d="M110.01,51.51l-.11-.35c.04,.16,.08,.27,.11,.35Z"/>
          <path class="cls-1" d="M109,49.84c-.05,.01-.09,.03-.12,.04h0s.12-.04,.12-.04Z"/>
          <path class="cls-1" d="M109.78,78.96s-.03,.05-.03,.07c-.06,.18,0,.07,.03-.07Z"/>
          <path class="cls-1" d="M113.01,70.36c.02,.11,.05,.21,.05,.32,.06-.15,.1-.27-.05-.32Z"/>
          <polygon class="cls-1" points="102.6 86.48 102.6 86.47 102.55 86.51 102.6 86.48"/>
          <path class="cls-1" d="M112.93,71.08c.1-.14,.13-.28,.12-.41-.05,.12-.12,.27-.12,.41Z"/>
          <path class="cls-1" d="M102.65,44.22l-.08-.06s-.02,.03-.03,.03l.11,.02Z"/>
          <path class="cls-1" d="M102.54,44.2l-.11-.02s.08,.04,.11,.02Z"/>
          <path class="cls-1" d="M102.21,44.14l.23,.04c-.07-.04-.15-.09-.23-.04Z"/>
          <path class="cls-1" d="M104.8,45.73l.08-.06s-.05,.03-.08,.06Z"/>
          <path class="cls-1" d="M105.44,46.18c-.13-.14-.24-.47-.5-.57l-.07,.05c.19-.05,.32,.54,.56,.52Z"/>
          <path class="cls-1" d="M106.92,49.28l-.37-.51c0,.15,0,.36-.22,.17,.3,.78,.07-.29,.59,.33Z"/>
          <path class="cls-1" d="M108.03,50.86c-.24-.23-.12,.1-.18,.12,.2,.11,.26,.13,.18-.12Z"/>
          <path class="cls-1" d="M112.71,63.72l-.26-.03c.04,.25,.1,0,.26,.03Z"/>
          <polygon class="cls-1" points="113.95 66.49 114.13 66.24 113.9 66.09 113.95 66.49"/>
          <polygon class="cls-1" points="111.94 67.84 111.92 67.73 111.95 68.16 111.94 67.84"/>
          <path class="cls-1" d="M98.93,85.84l.22,.24c.12-.13-.02-.46-.22-.24Z"/>
          <path class="cls-1" d="M89.5,88.57c-.11-.16-.38-.26-.56-.11,.22,.03,.44,.15,.56,.11Z"/>
          <polygon class="cls-1" points="74.14 67.65 74.23 67.86 74.17 67.48 74.14 67.65"/>
        </g>
        <g>
          <path class="cls-1" d="M77.2,34.78c.05-.14-.11-.26-.36-.05v.4s.36-.35,.36-.35Z"/>
          <path class="cls-1" d="M75.04,35.54c-.22,.36-.4,.85-.02,.94,.11-.48,.26-.43,.37-.98,.25-.22,.53-.25,.55-.12,.05-.14,.46-.23,.49-.5-.5,.03-.95,.34-1.28,.85-.14,.01-.1-.13-.11-.19Z"/>
          <path class="cls-1" d="M57.88,62.28l.08-.2c-.03,.05-.06,.12-.08,.2Z"/>
          <path class="cls-1" d="M58.79,82.39c-.06-.15-.11-.2-.14-.2,.07,.13,.12,.24,.14,.2Z"/>
          <path class="cls-1" d="M59.71,85.8c-.02-.07-.04-.13-.06-.2,0,.08,.02,.16,.06,.2Z"/>
          <path class="cls-1" d="M57.88,62.28l-.2,.51c.1,.06,.13-.26,.2-.51Z"/>
          <path class="cls-1" d="M72.14,38.96c.07-.09,.12-.17,.15-.26l-.17,.21s.01,.03,.02,.05Z"/>
          <path class="cls-1" d="M60.14,53.62l.06-.15c-.02-.06-.04-.12-.07-.18v.33Z"/>
          <path class="cls-1" d="M63.15,47.41c-.09,.13,.12,.32,.2,.43-.05-.13-.05-.26,0-.39-.04-.03-.11-.05-.21-.04Z"/>
          <path class="cls-1" d="M70.26,39.18l.11-.16s-.08,.11-.11,.16Z"/>
          <path class="cls-1" d="M58.49,58.27s-.09,.01-.11,.03c.03,0,.07,0,.11-.03Z"/>
          <path class="cls-1" d="M84.25,31.76s-.01-.03-.02-.05c-.02,.04-.03,.06,.02,.05Z"/>
          <path class="cls-1" d="M76.8,34.16l.08-.07c-.02-.05-.04-.1-.07-.14v.22Z"/>
          <path class="cls-1" d="M62.66,91.61s0-.02-.01-.03c-.13-.12-.06-.05,.01,.03Z"/>
          <path class="cls-1" d="M115.31,94.59c-.66,.27,.57-.97-.35-.5,.15,.02-.37,.94,.35,.5Z"/>
          <path class="cls-1" d="M71.99,39.05l-.2,.19c.1-.08,.16-.14,.2-.19Z"/>
          <path class="cls-1" d="M114.96,94.09h0s-.09,.05-.09,.05c.04-.02,.06-.03,.09-.05Z"/>
          <path class="cls-1" d="M73.97,101.31c0-.06-.04-.12-.08-.18,0,.03,0,.08,.08,.18Z"/>
          <path class="cls-1" d="M65.5,94.19l.15,.23c-.05-.1-.1-.17-.15-.23Z"/>
          <path class="cls-1" d="M79.47,103.11c.14,.06,.17,.12,.38,.14-.01-.02-.03-.03-.05-.05-.08,.02-.18,0-.33-.09Z"/>
          <path class="cls-1" d="M85.29,104.33s-.07-.05-.1-.07c-.06,0-.13,0-.19-.01,.1,.03,.19,.06,.29,.08Z"/>
          <path class="cls-1" d="M100.88,30.25c-.1-.1-.16-.2-.2-.3,.04,.21-.77,.12,.2,.3Z"/>
          <path class="cls-1" d="M72.03,38.85c.02,.07,.01,.13-.04,.2l.13-.14s-.04-.07-.09-.06Z"/>
          <path class="cls-1" d="M80.33,101.05c.28,.1,.55,.2,.84,.28-.24-.08-.54-.19-.84-.28Z"/>
          <path class="cls-1" d="M126.24,58.62l-.07-.2c0,.08,.03,.15,.07,.2Z"/>
          <path class="cls-1" d="M83.74,101.86c.14,.13,.29,.21,.46,.27,.04-.02,.08-.03,.11-.06-.19-.07-.38-.13-.57-.22Z"/>
          <path class="cls-1" d="M100.68,29.94h0s0,0,0,0Z"/>
          <path class="cls-1" d="M94.83,30.03c.83,0,.4-.36,.58-.57,1.02-.08,.46,.28,.79,.48,.62-.07,1.13-.37,1.6-.31,.03,.06,.12,.09,0,.16,.7-.23,1.95,.24,2.79,.04,.05,.04,.07,.08,.08,.11-.09-.21-.07-.39-.02-.52,.38,.08,.76-.08,.85,.19-.23-.06-.27,.03-.4,.08h.42c.28,.41-.57-.02-.62,.23,.79,.05,1.75,.01,2.31,.28,.02,.35-1.39-.27-.7,.23l-.86-.36c.56,.68-.53-.17-.04,.54,1.13,.39,1.35,.18,2.46,.65,.32-.09,0-.29,.33-.38,1.76,.29,.96,1.27,2.28,1.35,.39-.07,.7-.41,1.41,.2l-.45,.21c1.02,.57,.86-.19,1.82,.64-.26,.02-.87-.34-.74-.22,.55,.65,.6,.09,1.14,.4l-.07,.36c1.1,.6,2.38,1.17,3.52,1.99-.12,.03-.37-.03-.18,.25,1.49,.95,2.81,2.48,3.78,3.86l.65,.29c.1,.12,.08,.3-.07,.21,.35,.57,.16-.1,.46,.07,.26,.28,.19,.49-.03,.36,.95,.71,2.48,2.31,2.87,3.53l-.2-.15c.42,.86,1.1,.6,1.32,1.51l-.13-.12c.95,1.86,2.2,3.86,2.37,5.5,.52,.12,.54,1.99,1.13,1.93,.08,1.23-.11,.93,.14,2.59,.09,.43,.52,.56,.7,1.08l-.3,.08,.47,.67-.28,.46,.17,.49c-.02-.21,.06-.46,.15-.44,.29,.78,.11,1.99-.05,2.03,.18,.62,.33,1.24,.47,1.87-.12-.03-.2-.34-.3-.59,.41,.98-.3,.21,.06,1.11,.06-.13,.19,.05,.25,.07-.15,.48-.11,1.52-.04,2.3l-.21-.15c-.05,1.39,0,2.95-.22,4.52,.17-.55,.52-.37,.49,.1l-.35,.14c.15,.33,.2-.46,.35,.19-.13,.59-.43,.33-.48-.02v.73c-.11,.02-.13-.15-.25-.21,.15,.33-.55,1.14-.3,1.63l-.1,.02c-.37,1.54-.46,2.26-.83,3.49,.26,.11,.04,.57,.13,1.01-.4,.88-.99,1.79-1.43,2.84-.2,.8,.12,.31,.12,.71-.25-.05-.73,1-.64,.38-.57,1.26-.72,1.6-1.41,3.23,.19-.11,.33-.28,.35-.14-.12,.3-.46,.57-.54,.47l.02-.09c-.68,1.93-3.09,3.37-3.65,4.88l.03-.08c-.26,.48-.54,.95-.83,1.42-.52,.53,.15-.46-.33-.15-.84,1.6-1.91,1.98-2.75,3.17-.66,.1-1.38,.76-2.14,1.45-.76,.68-1.59,1.39-2.34,1.61l.17,.1c-.22,.36-.44,.18-.7,.3,.11,.09,.44-.1,.29,.12-2.6,2.01-6.01,3.12-9.2,3.97-1.17,.31-.4,1.1-2.01,1.1l.34-.43c-2.3,1.04-4.92,1.06-7.3,1.51,.14-.08,.14-.18,.37-.2-.52-.2-1.88,.06-1.89,.25-.38-.02-.09-.18-.32-.28-.5-.14-1.29,.28-1.55,.03-.04-.04,.15-.07,.24-.09-.34,.11-1.54-.13-1.24,.17-.89-.19-1.73-.07-2.42-.34-.52,.25-1.49-.44-1.73-.03,.15-.42-1.46-.71-2.07-.68,.22-.08-.44-.28-.17-.4-.62-.17-1.21-.29-1.18-.03-.94-.89-2.43-.46-2.76-1.39-1.85-.59-3.49-1.38-4.97-2.33,.31-.33,1.62,1.07,1.83,.61-1.46-.74-2.5-.99-3.68-2.16-.29-.32,.31,0,.47,.04-1.39-.92-2.33-2.18-3.48-3.14,.03-.02,.17,.07,.3,.16-.2-.21-.4-.55-.53-.4l.23,.18c.08,.56-1.24-.48-1.39-.44,.77,.02-.81-1.26,.27-1.09-.15-.13-.38-.26-.46-.14-.14-.25-.13-.37,.17-.24-.71-.77-.67-.34-1.21-1.13,.08-.05,.22,.08,.38,.1-.43-.28-.87-.58-1.22-1.31,.08,0,.09-.11,.22,.09-.74-1.15-1.64-1.79-2.1-3.27,.58,.23-.08-.53,.24-.75l-.41-.71-.05,.37c-.26-.66-.73-1.17-.81-1.8l.32,.45c-.17-.41-.33-.83-.48-1.26l.09,.77c-.4-.64-.43,.22-.62-.74,.09,.18-.2-.7-.09-1.13h0c-.21-.31-.42-.64-.46-1.19,.09-.16,.43,.01,.48-.09-.39-.27-.44-1.63-.84-2.01,.1,.13,.3,.11,.33,.05l-.3-.25c.02-.34,.06-.4,.22-.37-.11-1-.42,.39-.4-.82,.03,.09,.06,.04,.13,.23-.07-1.2-.44-2.29-.38-3.4,.35-.34,.15,.95,.44,.56-.18-1.56-.57-3.27-.4-4.81l-.05,.29c-.52-.24,.32-1.13,.14-1.92,.02,.19,.27,.27,.22,.22,.18-1.04,.08-2.15,.19-3.76l.1,.22c.22-.59,.37-1.6,.58-2.24-.09-.22,.02-.59-.22-.41,1.22-1.81,.63-3.96,1.89-5.48-.08,.21-.07,.53,0,.37,.14-.5,.29-1,.44-1.5-.26,.03-.21,.14-.49,.38-.06-.24,.01-.69,.16-1.05-.13,.72,.34,.13,.58-.09-.09,.02-.12-.11-.19-.11,.7-.59-.38-.31,.34-1.23l.09,.1c.12-.41,.14-.83,.37-1.22,.32-.05-.09,.46,.1,.58,.26-.58,.11-1.35,.62-1.74-.06,.27-.24,.62-.3,.89,.57-.41,.53-.51,.79-.9l-.03,.04,.64-.86-.21,.19c-.21-1.04,.7-1.46,.9-2.6-.2,1.11,.11,.28,.33,.51,.22-.18,.52-.47,.53-.33,.08-.55,.62-.58,.74-1.36,.1,.03,.32-.43,.45-.19,.32-.57-.23,.02-.29-.09,.33-1.02,1.75-1.63,2.35-3,.7-1.06,.62-1.45,1.33-2.41,.39-.17,.02,.48,.02,.48,.55-.35,.87-.7,1.23-1.19-.03,.15,.11,.11,.32,.07,.34-.34,0-.48,.57-.8,0,.15,0,.37-.1,.61,.36-.44,.66-.95,1.05-1.39,.23,.03-.11,.42-.19,.64,.44-.49,1.21-1.2,1.21-1.53l-.39,.19c.18-.16,.24,.1,.13,.25-.31,.51-.69,.44-.78,.39l.28-.31c-.7-.17-1.24,1.15-1.87,1.7l-.02-.55-.4,.84c-.21,.05-.46-.03-.2-.37-.59,.27-.29,.48-.82,.68-.07,.02-.06-.02-.03-.07l-.34,.51c.02-.14-.28-.14,.02-.36-.94,.6-.97,1.46-1.48,1.55l.04-.08c-.89,1.21,.13,.31-.33,1.38l-1.06,.09,.14,.31c-.11,.11-.31,.33-.37,.21-.2,.57,.16,0,.11,.39-.68,.4-1.12,1.69-1.61,1.54,.03,.35,.56-.47,.23,.26-.56-.12-.45,.79-1.02,1.22-.11-.32,.37-.78-.21-.35,.15,.59-.8,1.06-1.02,1.6,.3,.21-.51,1.15-.85,2.05-.08-.11-1.01,1.51-1.49,2.28l-.04-.05c.26,.31-.18,1.12-.36,1.77-.19-.11-.23-.25-.18-.63l-.24,.59c.05,.18,.04,.39-.07,.79l-.2-.25c-.29,.8-.29,1.7-.8,2.67,.23,.13,.94-.59,.76,.54-.14,0-.38-.03-.35-.33-.01,.1,0,.37-.11,.53l-.09-.5c-.24,.44,.11,.3-.03,.67-.19-.06-.22,.24-.35,.14,0-.1,.18-.3,.15-.47-.17,.41-.43,.9-.62,1.03,.12,0,.26,.07,.19,.39-.2,.81-.3,.22-.53,.67,.08,.23-.18,.72,.1,.8-.06,.24-.2,.25-.3,.33,.02,.45-.39,2,.02,1.58l.04-.1s0,.05,0,.07h0s0,0,0,0c.01,1.44-.67,2.88-.67,4.31h-.1c.03,.84-.08,1.87,.11,2.48,0,.25-.2,.58-.31,.47,.06,.65,.17,.72,.01,1.65-.18-.65-.15,.23-.13-.67-.08,.84-.24,1.04,.07,1.94-.27-.3-.29,.65-.18,1.05l.14-.6c.06,.45,.07,.84,.08,1.24l-.35-.19c-.26,1.8,1.05,3.01,.63,4.42,.31,.4-.02-.96,.33-.6,.1,.78-.19,1.7-.13,1.94,.08,1.11,.71,.88,.9,2,.08-.18,.34-.39,.69,.38,.19,.76-.18,1.08-.42,.63-.07-.18-.06-.28-.02-.28-.12-.23-.26-.54-.29-.2l.14,.06c0,.42,.36,1.46,.1,1.28,.31,.54,.27,.18,.18-.26,.18,1.03,.54,1.52,.86,2.54-.01-.18,.06-.38,.12-.22,.51,1.48,.48,.53,.98,1.45,.11,.61-.49,.01,.14,.88,.2,.63-.21,.27-.42,.09,.66,.75,.77,1.66,1.04,2.16l-.36-.39c.21,.23,.34,.45,.49,.67l.04-.38c.13,.28,.27,.49,.18,.54,.3,.17,.2-.41,.71-.02,.12,.4,.8,.91,.63,1.21-.65-1.08-.18,.3-.84-.54,.15,.15,.3,.35,.44,.62,0,.06-.08,0-.14-.05,.5,1.14,.62,.24,1.38,1.21-.24-.01-.08,.44,.08,.57-.31-.4,.08-.37,.47-.11,.42,.69,.65,.58,.91,.91l-.26-.4c.24,0,.47,.33,.89,.68-.07,.13-.42-.3-.32-.11,.66,.22,.71,1.24,1.5,1.67,.21,.36-.2,.27,0,.57,.86,.5,.63,.88,1.53,1.41-.07-.38-.16-.35,.55-.09-.48-.29-.92-.63-1.39-.94l1.04,.43c-.38-.33-.9-.57-1.1-.8,.51,.19,.43,.19,.38-.11,.29,.71,1.15,.73,1.63,1.38l-.38,.45c.39,.48,.88,.73,1.41,.98,.52,.26,1.11,.5,1.73,.96l-.37-.35c.3-.09,.83,.48,1.32,.62-.14,.15,.11,.36,.24,.58,.04-.13,1.02,.53,1.32,.23l.52,.53c1.13,.58,1.53,.05,2.62,.5-.41,.08,.06,.4-.76,.27,.38,.14,.71,.29,.76,.17,.18,.21,1.14,.09,1.44,.37,.19-.04,.29-.21,.72-.08,.04,.05-.03,.09-.03,.09,.03-.09,.71,.04,.39-.27,1.03,.94,3.33,.66,4.31,1.33,.88,.04,1.92,.05,2.71,.07-.05,.06,0,.1-.15,.07,1.09,.22,.68-.53,1.91-.33,.63,.31-.65,.18-.26,.29,.18,.66,1.49-.11,2.34,.21l-.2,.05c.66,.18,1.54-.36,2.58-.46,0,0-.04,.06,0,.1,.67-.42,1.96-.75,2.91-1.06-.25,.31-.41,.23-.17,.44,.43-.13-.21-.37,.63-.64,.31,.07,.96,.03,1.12,.27l-.82,.22c.51,.25,1.06-.28,1.5-.34v.17c1.23-.41,1.13-.79,2.44-1.21l-.17-.06c.58-.62,.67,0,1.27-.55l.36,.28c.44-.27,1.47-1.02,2.24-1.48-.32,.49-1.23,1.05-1.77,1.46,.47-.18,1.55-.7,1.7-.99-.16,.12-.36,.31-.56,.34,.43-.53,1.08-1.01,1.95-1.46,.22,.78,2.35-1.07,3.25-1,1.32-1.2,2.96-1.91,4.49-3.31-.94,.03,.44-.41-.06-.78,.33-.35,.46-.46,.52-.46,.43-.24,.86-.48,1.29-.74,.37-.12-.23,.42-.1,.48,.78-.71,.5-.13,1.11-.52-.26-.05,.03-.48,.5-.86l-.79,.42c.77-1.29,1.25-.58,1.99-1.91l-.16,.48c.42-.64,1.81-2.18,1.84-3.08,.14-.07,.38-.11,.21,.19,1.16-1.43,1.84-3.62,2.78-4.69l.06,.19c.13-.32,.04-.65,.38-.95,.04,.05,.07,.19,.15,.06,.04-.18,.19-.92,.47-1.28l-.02,.42c.98-1.5,.8-2.63,1.26-4.03,.41,.17,1.04-1.09,1.33-1.73l.05,.04c.71-1.96,.68-3.47,.89-5.37,.73-1.08,.83-3.96,1.1-5.87-.09,.29-.34-.06-.38-.4,.1-.45-.32-1.23,.09-1.17v.16c.39-.35,.25-1.28,.2-2l-.54-.08c.64-1.98-.93-4.8-.52-5.92-.23-.41-.37-.96-.61-1.36l.28-.05c-.27-1.23-.41-1.86-1.01-3.31l.3,.23c-.29-.84-1.15-.76-1.47-1.49l.3-.39c-.6-1.4-.96-2.96-2.03-4.1,.07,0,.19-.03,.33,.18-.32-.64-1.17-2.56-1.53-2.02,.32-.22-.82-1.35-1.44-1.91l.3-.06c-.7-.36-.78-.32-1.45-1.02-.11-.2,.05-.3,.18-.01-.36-.69-.57-.3-1.04-1.1l.36,.15c-.49-.62-.53-.5-.96-.69-.41-.29-.95-1.14-.85-1.39-.19,.03-.63-.13-.91-.5,.02-.11,.18-.04,.26,0-.81-1.06-1.64-1.09-2.15-1.88,.04-.08,.03-.16-.01-.23,.8,.67,1.41,1.26,1.34,1.22,.18-.19-.43-.8,.31-.6-.64-.33-1.8-.76-2.38-1.36-.02-.04-.03-.09-.03-.14l.09,.03c-.14-.14-.29-.22-.44-.29-.19-.19-.31-.32-.51-.47,.05-.23-.74-.66-1.09-.9-.13,.25-.56-.09-.26,.39-.04-.05,.08,.02,.32,.16,.06,.03,.12,.07,.17,.08h-.04c.23,.16,.54,.35,.87,.59-.35-.08-.7-.18-1-.57-.28,.03-.58,.05-.74,.05-.26-.64-1.11-1.4-1.12-1.68-1.19-.52-2.77-1.34-3.72-1.16-.36-.08-.33-.3-.42-.43,.22,.03,.44,.14,.58,.11-.72-.17-2.04-.75-2.33-.44-.82-.45,.6-.16-.62-.5l.2-.06c-1.11-.66-2.18-.69-3.24-.69-1.07,0-2.13,.03-3.47-.47,.19,.06,.28,.09,.31,.16-1.55-.32-3.18-.26-4.78-.1-1.6,.16-3.17,.42-4.74,.47-.89,.08-.93,.34-1.4,.65l-.26-.24-.78,.59c-1.14,.62-2.39,.01-3.73,1.13l.28,.1c-.56,.2-1.63,.9-1.65,.65-.04,.06-.08,.28-.33,.29l-.09-.13c-.39,.3-.77,.61-1.14,.93-1.02,.46-.17-.64-1.59,.19-.5,.38-1.21,1.34-.96,1.3,.21-.13,.57-.26,.68-.14l-.41,.37c.17,.44,.11,1.06,1.38,.61l.62-.73,.37,.04-.64,.41c.48-.05,.62-.35,.81-.62,.12,.06,.28,.08,.45,.02,.18-.28,.37-.55,.56-.82,.18,.11-.18,.51,.39,.31,.27-.38-.55-.17,0-.62,.49-.01,.45,.2,.83-.19,.12,.08,.05,.19-.1,.33,.34-.33,1.05-.57,1.16-.89,.52,.05,1.39-.66,1.51-.23,.09-.15,.62-.61,1.01-.76-.55,.74,1.49-.46,1.46,.16,.4-.63,1.88-.72,2.81-1.14-.05,.05-.14,.14-.23,.13,.56-.06,.74,.05,1.11,.08,0-.4,.86-.62,1.31-.9,.73,.3-.37,.5-.11,.84-.07-.32,1.15-.44,.89-.68,.54,.19,.46,.08,.75,.38,.06-.5,.48-.11,.9-.42,.77,.22,.2,.45,1.03,.3,.39,.15-.34,.32-.34,.32Zm18.54,5.72h0c-.14-.1-.26-.18-.34-.24,.07,.05,.17,.12,.34,.24Zm1.3,1.08c-.15-.14-.34-.31-.55-.48,.02-.11,.13-.15,.26-.03-.11-.01,.16,.29,.29,.52Zm-1.7-3.8c.26,.13,.3,.23,.3,.3-.11-.07-.25-.15-.42-.26-.01,0-.03,0-.05,0,.05-.03,.11-.05,.17-.05Z"/>
          <path class="cls-1" d="M112.35,33.04s-.06-.02-.11-.05c.03,.05,.07,.1,.1,.15,.05,0,.09-.01,.13-.02-.04-.03-.09-.06-.13-.08Z"/>
          <path class="cls-1" d="M57.97,62.05v.03s.02-.05,.04-.07c-.02,.02-.03,.02-.04,.03Z"/>
          <polygon class="cls-1" points="125.75 56.82 125.82 56.8 125.72 56.67 125.75 56.82"/>
          <path class="cls-1" d="M61.67,53.26s.07-.03,.11-.09c-.02,0-.06,.04-.11,.09Z"/>
          <path class="cls-1" d="M63.49,49.63l.36-.45c-.17,.19-.28,.33-.36,.45Z"/>
          <path class="cls-1" d="M65.19,47.03c-.02-.06-.04-.09-.07-.12h0s.07,.12,.07,.12Z"/>
          <path class="cls-1" d="M66.76,92.78s.06,.06,.09,.08c.22,.17,.08,.04-.09-.08Z"/>
          <path class="cls-1" d="M59.31,80.36c.09,.14,.18,.27,.25,.42-.05-.26-.1-.46-.25-.42Z"/>
          <polygon class="cls-1" points="80.23 101.02 80.23 101.02 80.33 101.05 80.23 101.02"/>
          <path class="cls-1" d="M59.75,81.44c-.02-.27-.09-.47-.19-.66,.04,.21,.08,.46,.19,.66Z"/>
          <path class="cls-1" d="M74.25,37.19l.12-.08s-.02-.03-.01-.05l-.11,.13Z"/>
          <path class="cls-1" d="M74.36,37.06l.11-.13c-.06,.05-.11,.09-.11,.13Z"/>
          <path class="cls-1" d="M74.7,36.66l-.23,.27c.1-.07,.22-.16,.23-.27Z"/>
          <path class="cls-1" d="M71.09,39.81l.04,.11s0-.07-.04-.11Z"/>
          <path class="cls-1" d="M70.23,40.71c.22-.2,.68-.38,.93-.72l-.03-.08c-.03,.24-.82,.47-.9,.8Z"/>
          <path class="cls-1" d="M65.85,43.92l.72-.8c-.2,.08-.47,.19-.19-.22-1.09,.88,.36-.08-.53,1.02Z"/>
          <path class="cls-1" d="M63.82,46.59c.27-.52-.14-.08-.17-.14-.11,.37-.14,.45,.17,.14Z"/>
          <path class="cls-1" d="M56.94,69.52l-.25-.06c.03,.45,.1,0,.25,.06Z"/>
          <polygon class="cls-1" points="58.42 74.02 58.54 73.59 58.29 73.41 58.42 74.02"/>
          <polygon class="cls-1" points="56.97 76.95 56.9 76.76 57.12 77.49 56.97 76.95"/>
          <path class="cls-1" d="M84.2,104.43l-.09-.33c-.31,0-.43,.35,.09,.33Z"/>
          <path class="cls-1" d="M101.65,102.33c.23,.08,.74,.01,.97-.24-.38,.12-.79,.14-.97,.24Z"/>
          <polygon class="cls-1" points="128.98 60.94 129.12 61.28 128.96 60.62 128.98 60.94"/>
        </g>
      </g>
    </g>
    <g>
      <path class="cls-1" d="M187.54,91.57c.53,.77,.9,1.62,1.1,2.55,.2,.93,.23,1.88,.1,2.85-.13,.97-.4,1.85-.8,2.65-.93,1.87-2.38,2.98-4.35,3.35-1.97,.37-3.85,.15-5.65-.65-6.67-3.33-13.4-6.6-20.2-9.8-1.53-.73-3.02-1.43-4.45-2.1-1.43-.67-2.88-1.37-4.35-2.1-.27-.13-.52-.25-.75-.35-.23-.1-.52-.25-.85-.45,0,2.4,.03,4.8,.1,7.2,.07,2.4,.1,4.8,.1,7.2,.07,2.07-.63,3.77-2.1,5.1-1.47,1.33-3.2,2.07-5.2,2.2-1,0-1.93-.2-2.8-.6-.87-.4-1.62-.93-2.25-1.6-.63-.67-1.15-1.45-1.55-2.35-.4-.9-.6-1.82-.6-2.75-.2-11.8-.32-23.57-.35-35.3-.03-11.73,.02-23.5,.15-35.3,0-2.07,.71-3.77,2.15-5.1,1.43-1.33,3.12-2.07,5.05-2.2,1,0,1.93,.2,2.8,.6,.87,.4,1.63,.93,2.3,1.6,.67,.67,1.2,1.45,1.6,2.35,.4,.9,.6,1.82,.6,2.75-.07,5.4-.12,10.73-.15,16-.03,5.27-.05,10.6-.05,16,0-.07,.03-.1,.1-.1,4.8-4.4,9.6-8.75,14.4-13.05,4.8-4.3,9.6-8.65,14.4-13.05,1.53-1.4,3.27-2.1,5.2-2.1s3.63,.7,5.1,2.1c.67,.6,1.18,1.37,1.55,2.3,.37,.93,.55,1.88,.55,2.85s-.17,1.9-.5,2.8c-.33,.9-.87,1.68-1.6,2.35-2.54,2.2-5,4.42-7.4,6.65-2.4,2.23-4.87,4.52-7.4,6.85-2.27,2-4.5,3.98-6.7,5.95-2.2,1.97-4.4,3.98-6.6,6.05-.47,.4-.92,.82-1.35,1.25s-.92,.82-1.45,1.15l30,14.4c.87,.47,1.57,1.08,2.1,1.85Z"/>
      <g>
        <path class="cls-4" d="M187.54,91.57c.53,.77,.9,1.62,1.1,2.55,.2,.93,.23,1.88,.1,2.85-.13,.97-.4,1.85-.8,2.65-.93,1.87-2.38,2.98-4.35,3.35-1.97,.37-3.85,.15-5.65-.65-6.67-3.33-13.4-6.6-20.2-9.8-1.53-.73-3.02-1.43-4.45-2.1-1.43-.67-2.88-1.37-4.35-2.1-.27-.13-.52-.25-.75-.35-.23-.1-.52-.25-.85-.45,0,2.4,.03,4.8,.1,7.2,.07,2.4,.1,4.8,.1,7.2,.07,2.07-.63,3.77-2.1,5.1-1.47,1.33-3.2,2.07-5.2,2.2-1,0-1.93-.2-2.8-.6-.87-.4-1.62-.93-2.25-1.6-.63-.67-1.15-1.45-1.55-2.35-.4-.9-.6-1.82-.6-2.75-.2-11.8-.32-23.57-.35-35.3-.03-11.73,.02-23.5,.15-35.3,0-2.07,.71-3.77,2.15-5.1,1.43-1.33,3.12-2.07,5.05-2.2,1,0,1.93,.2,2.8,.6,.87,.4,1.63,.93,2.3,1.6,.67,.67,1.2,1.45,1.6,2.35,.4,.9,.6,1.82,.6,2.75-.07,5.4-.12,10.73-.15,16-.03,5.27-.05,10.6-.05,16,0-.07,.03-.1,.1-.1,4.8-4.4,9.6-8.75,14.4-13.05,4.8-4.3,9.6-8.65,14.4-13.05,1.53-1.4,3.27-2.1,5.2-2.1s3.63,.7,5.1,2.1c.67,.6,1.18,1.37,1.55,2.3,.37,.93,.55,1.88,.55,2.85s-.17,1.9-.5,2.8c-.33,.9-.87,1.68-1.6,2.35-2.54,2.2-5,4.42-7.4,6.65-2.4,2.23-4.87,4.52-7.4,6.85-2.27,2-4.5,3.98-6.7,5.95-2.2,1.97-4.4,3.98-6.6,6.05-.47,.4-.92,.82-1.35,1.25s-.92,.82-1.45,1.15l30,14.4c.87,.47,1.57,1.08,2.1,1.85Z"/>
        <g>
          <path class="cls-1" d="M186.99,91.95c.17,.11,.28-.11-.04-.46-.16-.02-.31-.03-.47-.03,.18,.15,.35,.31,.51,.49Z"/>
          <path class="cls-1" d="M184.83,89.49c-.62-.12-1.38-.17-1.16,.27,.69-.02,.76,.16,1.51,.1,.47,.18,.69,.53,.55,.58,.2,.02,.55,.49,.87,.53-.28-.64-.99-1.15-1.91-1.3-.14-.15,.07-.14,.13-.18Z"/>
          <path class="cls-1" d="M169.05,63.75l-.27,.19c.08-.04,.17-.11,.27-.19Z"/>
          <path class="cls-1" d="M188.85,40.36c.07,.25,.12,.35,.15,.36-.07-.23-.14-.42-.15-.36Z"/>
          <path class="cls-1" d="M185.81,35.4c.1,.08,.19,.15,.28,.22-.09-.1-.2-.2-.28-.22Z"/>
          <path class="cls-1" d="M169.05,63.75l.69-.48c-.03-.12-.37,.22-.69,.48Z"/>
          <path class="cls-1" d="M178.19,87.19c.16,.06,.31,.1,.45,.12l-.4-.15s-.03,.02-.05,.03Z"/>
          <path class="cls-1" d="M159.01,73.21l-.19,.17c-.03,.08-.05,.16-.06,.24l.25-.41Z"/>
          <path class="cls-1" d="M161.64,77.43c-.21-.11-.41,.1-.54,.17,.17-.05,.36-.02,.55,.05,.03-.05,.03-.12-.01-.23Z"/>
          <path class="cls-1" d="M176.56,85.14l.29,.09c-.07-.02-.2-.07-.29-.09Z"/>
          <path class="cls-1" d="M164.63,68.14s.09,.02,.14,0c-.02-.03-.07-.03-.14,0Z"/>
          <path class="cls-1" d="M184.74,101.2s.02,.03,.02,.04c.03-.05,.03-.07-.02-.04Z"/>
          <path class="cls-1" d="M187.6,91.53l.11,.13c.05-.01,.11-.03,.15-.05l-.26-.08Z"/>
          <path class="cls-1" d="M175.3,35.94s.02-.02,.04-.03c.2-.22,.08-.1-.04,.03Z"/>
          <path class="cls-1" d="M133.07,26.66c.46-.4,.22,.03,.08,.41-.14,.39-.22,.68,.34,.05-.22,.07,.6-1.53-.42-.46Z"/>
          <path class="cls-1" d="M177.96,87.04l-.39-.18c.17,.09,.29,.15,.39,.18Z"/>
          <path class="cls-1" d="M133.49,27.12h0s.12-.13,.12-.13c-.05,.05-.08,.08-.12,.13Z"/>
          <path class="cls-1" d="M158.71,51.2c.07,0,.16-.03,.25-.06-.03-.02-.09,0-.25,.06Z"/>
          <path class="cls-1" d="M171.41,40.24l-.33,.25c.14-.09,.24-.17,.33-.25Z"/>
          <path class="cls-1" d="M152.51,57.35c-.18,.14-.26,.16-.47,.39,.03,0,.06-.02,.09-.04,.06-.1,.15-.22,.38-.36Z"/>
          <path class="cls-1" d="M147.95,60.97c-.02,.05-.04,.12-.06,.18,0,.04,0,.09,.01,.13l.04-.31Z"/>
          <path class="cls-1" d="M160.54,92.57c.14,.16,.22,.29,.27,.41-.04-.24,1.19,.28-.27-.41Z"/>
          <path class="cls-1" d="M178.26,87.04c-.08,.04-.17,.04-.3,0,.1,.04,.19,.08,.28,.12,.04-.03,.07-.06,.02-.11Z"/>
          <path class="cls-1" d="M153.73,59.24l-1.09,.94c.32-.25,.71-.59,1.09-.94Z"/>
          <path class="cls-1" d="M134.04,88.14l.04,.33c0-.13,0-.24-.04-.33Z"/>
          <path class="cls-1" d="M148.36,64.11c-.34,.12-.64,.17-.89,.17-.03,.01-.07,.06-.09,.04-.01-.02-.02-.04-.03-.04-.01,.16,.08,.13,.15,.12,.08,0,.16-.01,.25-.03,.18-.02,.39-.15,.6-.27Z"/>
          <path class="cls-1" d="M160.81,92.98h0s0,0,0,0Z"/>
          <path class="cls-1" d="M169.63,96.52c-1.23-.61-.73,.05-1.09,.11-1.52-.62-.57-.58-.99-.99-.96-.36-1.81-.39-2.49-.74-.03-.08-.15-.16,.04-.16-1.1-.21-2.89-1.39-4.19-1.61-.07-.07-.1-.12-.11-.15,.1,.26,.05,.44-.04,.54-.56-.26-1.13-.29-1.23-.61,.34,.17,.41,.1,.6,.11l-.62-.19c-.37-.57,.84,.28,.95,.04-1.18-.45-2.62-.83-3.45-1.33-.04-.4,2.09,.86,1.05,.04l1.29,.77c-.8-.98,.8,.43,.1-.55-1.72-.95-2.06-.79-3.79-1.72-.48-.02,.01,.32-.47,.3-2.67-.88-1.61-1.71-3.64-2.18-.29-.01-.52,.06-.84,.02-.16-.02-.34-.06-.55-.15-.06-.03-.11-.05-.18-.08-.09-.04-.18-.09-.27-.14-.19-.11-.41-.23-.65-.37,.23-.03,.49-.05,.8-.05-1.27-.6-1.79-.81-2.11-.85-.33-.06-.51-.05-1.27-.47-.04,.19-.03,.57-.07,.97-.06-.3-.13-.87-.12-1.28,.5,.24,.95,.47,.68,.3-.35-.24-.63-.42-.83-.54-.07,1.11,.32,1.41,.33,2.65-.11,.02-.23,.05-.34,.09,.02,.44,.03,.89,.05,1.34l.03,.61,.03,.4c.04,.53,.09,1.07,.13,1.62,.09,1.09,.18,2.21,.23,3.33-.1-.12-.21-.5-.31,.02,.1,1.41,.11,2.91,.08,4.41-.02,.73-.05,1.52-.08,2.19-.05,.62-.19,1.18-.4,1.66,0,.28,0,.58-.05,.87-.1,.18-.3,.25-.24,.04-.54,.65,.14,.14,0,.55-.29,.43-.55,.41-.41,.12-.36,.66-1.21,1.58-2.26,2.14-.53,.28-1.1,.48-1.66,.58-.28,.05-.56,.08-.81,.08-.25,0-.42-.03-.64-.08,.1-.02,.24-.05,.31-.07-.61-.07-1,0-1.38,.04-.38,.03-.78,.03-1.29-.39l.24,.06c-1.32-.68-2.45-1.8-3.11-3.16-.34-.68-.54-1.35-.59-2-.04-.6,.06-1.35,.15-1.98-.43-.48,.16-3.3-.44-3.51,.27-1.91,.38-1.36,.55-4.05,.02-.72-.38-1.07-.45-1.95l.31-.02-.34-1.2,.36-.64-.09-.83c-.01,.33-.13,.7-.22,.65-.15-1.3,.18-3.17,.34-3.2l-.29-3.07c.12,.07,.17,.58,.26,.99-.33-1.64,.32-.3,.02-1.8-.07,.2-.18-.11-.25-.14,.18-.75,.16-2.45,.07-3.71l.21,.24c.03-2.28-.15-4.8-.17-7.36-.09,.92-.46,.71-.5-.04l.32-.3c-.21-.48-.12,.78-.37-.21,.03-.96,.36-.64,.48-.1l-.12-1.16c.1-.07,.15,.2,.28,.27-.21-.48,.31-2-.05-2.69l.1-.07c0-2.55-.09-3.71-.1-5.79-.28-.04-.22-.85-.44-1.47,.1-1.53,.32-3.23,.31-5.07-.13-1.3-.24-.38-.4-.96,.26-.1,.24-1.94,.42-.98-.03-2.21-.04-2.83-.24-5.62-.11,.3-.15,.64-.24,.47-.04-.51,.11-1.15,.24-1.08l.03,.13c-.37-3.14,.78-7.24,.25-9.75l.03,.14-.27-2.59c.05-1.19,.19,.72,.35-.17-.1-.7-.15-1.33-.17-1.91,0-.29,0-.58,0-.84,0-.24,.02-.47,.05-.69,.13-.89,.4-1.63,.8-2.51,.36-.21,.73-.54,1.19-.91,.47-.38,1.01-.79,1.61-1.12,.6-.32,1.27-.56,1.94-.66,.17-.02,.33-.04,.46-.04,.07,0,.13,0,.18,0l.21,.03c.29,.04,.55,.12,.76,.23l-.07-.2c.53-.07,.56,.24,.88,.4,0-.15-.45-.33-.13-.32,1.03,.3,2.07,.98,2.8,1.85,.73,.87,1.25,2,1.37,3.09,.03,.27,.04,.55,.03,.82l-.05,1.01-.12,2.05c-.07,1.37-.14,2.73-.2,4.08-.07,1.98,.91,1.13,.46,3.62l-.32-.71c.35,3.99-.09,8.16,.25,12.06-.08-.23-.17-.24-.17-.62-.24,.82-.02,3.05,.17,3.07-.02,.61-.18,.14-.28,.51-.14,.83,.3,2.08,.06,2.52-.04,.07-.08-.23-.1-.38,.03,.13,.04,.36,.05,.61,0,.31,0,.66,.01,.97,0,.92,.04,1.55,.18,1.01-.03,.62-.04,1.23-.05,1.8,.44,.15,.86,.29,1.22,.45-.01,0-.01-.02,.01-.02,.2,.19,.14,.79,.32,.98,.15-.11,.33-.2,.55-.35,.11-.07,.23-.16,.35-.28,.06,0,.13-.17,.19-.23,.03-.05,.06-.1,.1-.17,.02-.04,.03-.07,.05-.12,0-.02,.02-.04,.02-.08,0-.05,.02-.03,.02-.19,.45-.29,.94-.57,1.31-.82,.19-.13,.35-.25,.46-.35,.1-.1,.09-.18,.08-.26,.23,.4,2.15-1.45,2.69-2.23-.14,.31,.69-.44,.55-.05,.78-.71,1.44-1.43,1.15-1.47,1.81-.91,2.61-2.95,3.88-3.17,2.16-2.29,4.21-4.36,6.23-6.34,.23,.4-2.29,2.13-1.88,2.4,1.86-1.94,2.75-3.27,4.79-4.97,.55-.42-.16,.41-.28,.62,1.86-1.94,3.87-3.45,5.47-5.23,.02,.04-.14,.24-.29,.43,.34-.33,.85-.68,.68-.8l-.3,.35c-.76,.28,.96-1.71,.92-1.88-.19,.97,1.84-1.47,1.41-.07,.2-.24,.42-.57,.28-.62,.37-.28,.53-.32,.29,.11,.6-.62,.7-.83,.84-1.02,.13-.19,.26-.38,.85-.74,.05,.09-.17,.26-.22,.44,.45-.52,1-1.08,2.16-1.25-.05,.08,.09,.12-.24,.2,.93-.25,1.79-.4,2.68-.37,.88,.03,1.83,.28,2.71,1-.78-.02,.54,.55,.36,.93,.34,.25,.62,.46,.87,.72-.04-.15-.09-.3-.15-.45,.66,.7,1.31,1.43,1.46,2.36-.12-.24-.26-.47-.4-.68,.27,.59,.46,1.21,.56,1.85,0-.37-.02-.74-.08-1.12,.23,.49,.33,.45,.41,.45,.07,0,.16,.05,.19,.79-.05-.3,.08,1.13-.25,1.66h0c.05,.54,.06,1.14-.32,1.87-.19,.14-.32-.3-.45-.21,.06,.28-.17,.85-.54,1.36-.35,.51-.84,.95-1.01,1.33,.12-.22,0-.37-.08-.35l-.18,.5c-.45,.29-.53,.32-.57,.14-1.22,1.03,.69,.01-.85,1.13,.1-.11,.02-.1,.22-.33-1.49,1.19-2.62,2.57-4.01,3.65-.64,.07,1.07-1.09,.42-.93-1.84,1.73-3.55,3.84-5.39,5.42l.36-.28c.11,.62-1.51,1.04-2.24,2.06,.19-.23,.09-.49,.07-.39-1.28,1.07-2.4,2.42-4.19,4.21l.14-.31c-.82,.56-1.98,1.67-2.81,2.32-.14,.31-.61,.7-.21,.6-2.98,1.58-4.34,4.51-6.92,5.98,.25-.24,.53-.65,.33-.46l-1.74,1.76c.3,.04,.33-.11,.84-.33-.14,.31-.58,.86-1.03,1.28,.72-.87-.26-.27-.71-.03,.11,0,.04,.17,.12,.19-.67,.34-.7,.53-.65,.66,0,.16,.13,.33-.87,.89-.05-.02-.09-.04-.13-.06l-.37,.33s-.03,.07-.05,.1c-.03,.03,.12,.05,.17,.08l.43,.15c.27,.1,.52,.21,.76,.33,0,.29-.84-.27-1.24-.21,.59,.27,1.29,.47,1.84,.63,.56,.17,.97,.3,1.33,.62-.41-.11-.94-.37-1.49-.55,.21,.19,.4,.34,.57,.46,.13,.1,.24,.18,.34,.24,.21,.13,.4,.21,.72,.39l-.06-.04,1.46,.86-.35-.26c1.43-.09,2.35,.99,4.07,1.31-1.67-.32-.35,.11-.6,.33,.35,.26,.9,.63,.69,.63,.82,.12,1.11,.75,2.28,.91,0,.11,.76,.38,.49,.52,.97,.38-.15-.26-.01-.33,1.59,.39,3.2,1.98,5.47,2.57,1.87,.69,2.34,.55,4.07,1.2,.49,.41-.62,.1-.62,.1,.84,.56,1.53,.86,2.43,1.17-.21,0-.07,.14,.14,.36,.69,.3,.62-.1,1.45,.46-.2,.02-.48,.08-.86,.02,.84,.31,1.72,.52,2.59,.84,.14,.26-.62-.01-.96-.05,.97,.38,2.49,1.02,2.9,.92l-.56-.37c.35,.15,.07,.29-.2,.21-.9-.2-1.11-.64-1.11-.75l.62,.23c-.35-.8-2.42-1.06-3.6-1.66l.68-.13-1.38-.28c-.21-.22-.29-.51,.33-.29-.76-.59-.82-.23-1.46-.79-.07-.07-.02-.07,.06-.05l-.89-.29c.2,0,0-.33,.48-.03-1.39-.93-2.56-.88-2.98-1.44l.14,.04c-2.14-.87-.34,.18-2.06-.25l-.72-1.18-.34,.18c-.21-.11-.62-.34-.49-.41-.89-.2,.08,.18-.47,.14-.91-.75-2.91-1.25-2.93-1.8-.47,.03,.91,.64-.26,.25-.09-.62-1.31-.53-2.15-1.2,.41-.1,1.24,.45,.4-.22-.77,.14-1.79-.97-2.63-1.28-.2,.31-1.8-.69-3.19-1.23,.03-.01-.06-.08-.24-.19-.15-.09-.36-.22-.61-.37-.2-.12-.42-.25-.65-.38l-.31-.19-.14-.09s-.03-.01-.03-.02l.05-.03,.09-.05c.17-.1,.33-.19,.46-.27l.06,.02c-.2-.06-.05-.27,.19-.56,.22-.25,.74-.74,1.07-1.1,.12,.19,.04,.38-.29,.82l.7-.65c.09-.24,.27-.49,.71-.95v.37c.95-.89,1.71-2,3.06-2.99-.1-.25-1.45,.36-.27-.95,.14,.06,.35,.19,.04,.55,.1-.12,.32-.45,.58-.61l-.36,.65c.63-.44,.16-.41,.62-.81,.12,.16,.43-.2,.47-.02-.1,.12-.44,.3-.56,.51,.53-.44,1.22-.91,1.52-.98-.12-.04-.18-.2,.18-.56,.95-.88,.49-.12,1.12-.55,.14-.31,.86-.75,.68-.99,.28-.25,.43-.19,.59-.23,.41-.54,2.32-2.11,1.54-1.84l-.14,.1s.05-.05,.07-.08h0s0,0,0,0c1.45-1.68,3.53-2.9,5.04-4.49l.06,.08c.88-.97,2.08-2.02,2.62-2.81,.28-.26,.79-.48,.75-.29,.68-.73,.69-.89,1.85-1.75-.62,.81,.36-.12-.67,.79,1.01-.82,1.33-.9,2.18-2.02-.18,.5,.94-.42,1.34-.88l-.8,.47c.49-.49,.95-.87,1.42-1.27l-.02,.47c1.12-.73,1.89-1.65,2.62-2.5,.37-.42,.73-.83,1.11-1.18,.19-.18,.4-.34,.61-.48,.24-.16,.49-.32,.74-.48,.18-.38-.12-.08-.45,.17-.35,.28-.63,.44-.5,.15,.5-.4,1.06-.84,1.48-1.27,.43-.43,.74-.83,.82-1.04,.43-.87,.39-1.35,.35-1.8-.06-.47-.11-.91-.07-1.86-.13,.26-.37,.44-.63-.87-.18-1.22,.09-1.66,.43-.87,.09,.31,.07,.47,.03,.46,.13,.41,.23,.98,.3,.43l-.14-.16c.01-.34-.1-.97-.23-1.45-.12-.48-.24-.84-.06-.67-.55-.92-.34-.33-.12,.4-.46-1.69-1.39-2.52-2.67-3.65,.19,.23,.31,.49,.09,.32-1-.84-1.34-.86-1.53-.88-.2,0-.3,.03-1.12-.21-.44-.22-.34-.3-.33-.37,.01-.06-.09-.15-.98-.19-1.08-.21-.22-.35,.26-.38-1.68-.01-3.17-.09-4.16,.22,.28-.13,.57-.25,.86-.35-.53,.19-.96,.33-1.38,.51,.19,0,.38,.02,.57,.03-.51,.14-.91,.34-.95,.25-.41,.38,.52,.16-.28,.84-.66,.21-1.54,1.28-1.88,1.19,.78-.63,.73-.65,.58-.66-.13,0-.34-.03,.39-.6-.27,.24-.61,.49-1.02,.81-.08,.03,.01-.1,.11-.2-1.59,1.05-.39,.83-1.81,2.1,.06-.29-.55,.04-.75,.28,.56-.51,.47-.03,.04,.54-.99,.71-.9,.96-1.38,1.37l.58-.44c-.06,.3-.53,.68-1.11,1.29-.15-.05,.5-.58,.24-.43-.48,.86-1.78,1.18-2.61,2.21-.53,.32-.27-.21-.71,.09-.93,1.15-1.34,.88-2.35,2.05,.49-.12,.51-.22-.14,.68l1.76-1.82-.97,1.35c.57-.51,1.09-1.19,1.46-1.47-.44,.66-.42,.57-.02,.47-1.01,.43-1.39,1.54-2.45,2.17l-.37-.46c-1.52,1.02-2.18,2.39-4.03,3.86l.63-.43c-.08,.39-1.06,1-1.56,1.58-.08-.19-.48,.07-.8,.2,.13,.08-1.29,1.15-1.18,1.58l-.95,.51c-1.48,1.2-1.23,1.87-2.63,3.05,.26-.53-.45-.07,.36-1.01-.45,.41-.88,.75-.8,.86-.35,.15-1.08,1.33-1.62,1.57-.13,.24-.06,.45-.57,.89-.08,.02-.06-.07-.06-.07,.06,.07-.71,.82-.11,.58-.48,.22-.98,.57-1.48,.98-.12,.11-.25,.21-.38,.32l-.26,.24-.5,.47c-.38,.35-.76,.75-1.03,.86-.02,0-.02,.02-.02,.03,.04-.29,.09-.58,.17-.86-.01-.15-.03-.3-.04-.46-.02-.31-.04-.63-.06-.93-.01-.52-.02-1.02-.03-1.46,.06,.08,.1,0,.08,.23,.19-1.67-.56-1.03-.35-2.92,.32-.97,.17,1.01,.29,.4,.65-.26-.08-2.29,.3-3.56l.04,.31c.22-.97-.24-2.38-.19-3.97,0,0,.06,.08,.1,0-.33-1.09-.42-3.16-.5-4.69,.25,.48,.13,.7,.39,.41-.03-.69-.42,.2-.48-1.17,.14-.45,.27-1.43,.55-1.56v1.29c.37-.66,0-1.68,.07-2.36l.15,.09c-.03-1.98-.42-2.01-.38-4.15l-.12,.22c-.38-1.17,.23-.98-.05-2.14l.4-.35c-.05-.38-.13-1.06-.22-1.81-.04-.38-.08-.77-.12-1.16-.03-.4-.1-.8-.17-1.16,.22,.37,.35,1.06,.43,1.66,.09,.63,.18,1.28,.25,1.78,0-.78,.03-2.55-.23-3.06,.08,.33,.17,.78,.1,1.07-.26-.98-.56-2.31-1.29-3.7,.4-.03,0-1.06-.84-2.03-.83-.99-2.08-1.77-2.52-2.28-2.86-1.15-6.44-.9-9.1,1.51,.67-.18,.47,0,.19,.24-.28,.25-.63,.64-.33,.77-.5,.61-.65,.87-.73,.9-.55,.59-1,1.31-1.32,2.09-.33,.54,.08-.8-.05-.77-.32,.89-.38,1.08-.49,1.18-.09,.1-.21,.12-.36,.75,.24-.26,.24,.76,.18,1.61l.14-.64c.05-.23,.1-.47,.17-.71,.04,.65,.07,1.03,.03,1.35-.03,.32-.09,.56-.16,.8-.13,.48-.26,.97-.11,2.09l-.19-.71c.11,1.15-.02,4.26,.46,5.39-.07,.2-.24,.47-.28-.04-.09,2.76,.5,6.14,.18,8.28l-.15-.21c.04,.51,.28,.9,.12,1.54-.06-.03-.15-.21-.16,.03,.05,.27,.26,1.37,.17,2.05l-.17-.58c-.21,2.69,.39,4.13,.48,6.38-.44,0-.59,2.11-.67,3.17l-.06-.04c-.06,3.13,.32,5.32,.53,8.22-.46,1.8-.14,6.1-.38,8.99,.08-.44,.34,.07,.39,.58-.08,.68,.32,1.88-.08,1.77v-.24c-.39,.51-.27,1.91-.27,3l.53,.18c-.74,2.85,.36,7.47-.32,9.03,.14,.69,.15,1.54,.28,2.22l-.28-.03c-.05,1.91-.08,2.86,.01,5.21l-.21-.48c0,1.33,.83,1.67,.86,2.9l-.42,.37c-.02,1.3,.28,2.74,.86,3.91,.57,1.19,1.47,2.3,2.65,2.93-.07,.02-.21,.08-.56-.19,.48,.44,1.47,1.19,2.46,1.55,1,.38,1.83,.37,1.64,.06,0,.18,.63,.34,1.61,.21,.86-.13,1.81-.49,2.43-.82l-.11,.33c.51-.37,.73-.6,1.01-.83,.28-.24,.62-.47,1.22-.98,.32-.2,.4-.02-.05,.22,.56-.32,.69-.54,.86-.77,.16-.25,.35-.49,.88-1.06-.07,.19-.15,.38-.23,.57,.45-.5,.59-.79,.68-1.01,.08-.22,.1-.4,.16-.77,.13-.39,.33-.97,.51-1.48,.17-.51,.3-.97,.44-1.06-.13-.2-.35-.89-.29-1.58,.09-.1,.16,.16,.19,.29,.16-2.01-.37-2.98-.11-4.36,.09-.03,.14-.12,.16-.24,.02,1.59,.02,2.88,0,2.76,.26,0,.28-1.29,.65-.28-.21-1.03-.65-2.79-.55-4.05,.02-.06,.05-.12,.09-.17l.03,.13c.02-.29,0-.55-.05-.79,.04-.4,.06-.65,.06-1.04,.21-.15,.09-1.47,.1-2.11-.28,.06-.25-.78-.47,0,.02-.1,.04,.12,.05,.55,0,.1,.02,.21,.03,.27,0-.01-.02-.03-.03-.04,.01,.42,.02,.97,.04,1.59-.15-.5-.28-1.03-.13-1.74-.19-.33-.38-.68-.47-.89,.38-1.24,.58-1.65,.83-1.42-.01-.08-.05-.21-.04-.27,.13,.04,.26,.08,.4,.12l.25,.07,.13,.04s.19,.07,.28,.11c.86,.33,1.66,.58,2.25,.61,.53,.18,.51,.42,.67,.58-.31-.09-.66-.27-.85-.27,1.07,.37,3,1.37,3.4,1.15,1.2,.75-.86-.03,.91,.74h-.28c3.17,2.14,5.95,1.82,9.42,4.33-.24-.17-.36-.25-.39-.33,4.18,2.39,9.01,4.03,13.06,6.57,1.33,.65,1.57,.42,2.44,.41,.08,.12,.17,.23,.26,.35,.52-.05,1.02-.13,1.5-.26,1.03-.16,1.91-.08,2.93-.28,.99-.19,2.15-.76,2.83-2.02-.12,.05-.26,.1-.38,.14,.34-.35,.75-1,1.01-1.56,.27-.55,.43-1,.52-.89,0-.11-.09-.36,.1-.69h.16c.11-.77,.14-1.56,.05-2.34,.05-.9,.17-.85,.32-.89,.12-.04,.33-.21,0-1.6-.17-.51-.56-1.17-.94-1.6-.38-.43-.7-.64-.64-.46,.23,.33,.44,.93,.3,1.02-.15-.25-.32-.49-.51-.71-.24,.06-.54,.04-.68,.22-.15,.19-.08,.55,.12,1.42,.24,.34,.46,.71,.63,1.11-.05,.15-.1,.3-.15,.44-.05-.35-.13-.69-.24-1.02-.04,.61,.19,.94,.37,1.36-.11,.11-.18,.29-.22,.54,.15,.4,.27,.83,.35,1.29-.2,.12-.27-.61-.5,.2,.08,.62,.52-.49,.44,.52-.37,.56-.47,.32-.56,1.06-.15,.04-.16-.12-.11-.4-.06,.65-.67,1.5-.68,1.88-.29,.17-.62,.55-.97,.8-.34,.25-.66,.38-.74,.17-.08,.19-.81,.75-1.41,.85,.47-.37-.05-.24-.71-.19-.65,.06-1.39,0-1.24-.27-.39,.22-1.12,.2-1.88,0-.38-.1-.79-.24-1.14-.38-.42-.18-.84-.35-1.23-.47,.1,0,.29,.01,.41,.1-.8-.43-.97-.67-1.46-1.01-.27,.3-1.58-.23-2.36-.34-.84-.83,.8-.12,.64-.6-.09,.31-1.87-.55-1.64-.15-.66-.58-.61-.42-.86-.91-.34,.38-.75-.27-1.51-.3-1-.75-.09-.55-1.36-1.01-.51-.42,.64-.05,.64-.05Zm-22.93-.92h0c-.01-.28-.02-.51-.03-.66,0,.14,.02,.33,.03,.66Zm.04,2.69c0-.33,0-.74,0-1.17,.1-.1,.2,0,.2,.27-.07-.15-.11,.49-.19,.89Zm1.87-5.74c.05,.42,0,.57-.06,.63-.01-.2-.03-.43-.04-.74,0-.01-.03-.04-.04-.05,.05,.04,.11,.08,.14,.17Z"/>
          <path class="cls-1" d="M148.23,91.8c0-.06-.02-.1-.02-.17-.02,.09-.04,.17-.06,.25,.03,.05,.06,.1,.09,.15,0-.08,0-.16,0-.23Z"/>
          <path class="cls-1" d="M168.73,63.97l.05-.03s-.08,.04-.12,.05c.04-.02,.04,0,.07-.02Z"/>
          <polygon class="cls-1" points="134.21 91.14 134.14 91.15 134.21 91.38 134.21 91.14"/>
          <path class="cls-1" d="M157.09,73.24s-.1,.02-.2,.08c.02,0,.1-.03,.2-.08Z"/>
          <path class="cls-1" d="M158.57,77.5l.77,.48c-.33-.22-.57-.37-.77-.48Z"/>
          <path class="cls-1" d="M162.95,79.76c.08-.02,.11-.04,.14-.07h0s-.13,.07-.13,.07Z"/>
          <path class="cls-1" d="M172.92,41.4s-.09,.09-.13,.14c-.29,.34-.08,.12,.13-.14Z"/>
          <path class="cls-1" d="M187.95,43.24c-.03-.24-.05-.47-.08-.71-.03,.39-.08,.68,.08,.71Z"/>
          <polygon class="cls-1" points="153.85 59.14 153.85 59.13 153.73 59.24 153.85 59.14"/>
          <path class="cls-1" d="M187.84,41.52c-.01,.39,0,.7,.03,1.01,.03-.32,.05-.69-.03-1.01Z"/>
          <path class="cls-1" d="M182.14,89.11l.21,.11s.02-.03,.05-.03l-.25-.08Z"/>
          <path class="cls-1" d="M182.39,89.2l.25,.08c-.11-.05-.2-.1-.25-.08Z"/>
          <path class="cls-1" d="M183.18,89.46l-.53-.18c.17,.08,.38,.19,.53,.18Z"/>
          <path class="cls-1" d="M176.32,86.17l-.11,.06s.08-.02,.11-.06Z"/>
          <path class="cls-1" d="M174.52,85.34c.42,.23,.97,.71,1.6,.94l.09-.05c-.35,0-1.21-.85-1.69-.89Z"/>
          <path class="cls-1" d="M167.62,80.63l1.46,.79c-.21-.22-.49-.52,.2-.22-1.75-1.2,.28,.41-1.66-.58Z"/>
          <path class="cls-1" d="M163.04,78.26c.83,.34,.06-.15,.13-.18-.55-.16-.69-.19-.13,.18Z"/>
          <path class="cls-1" d="M177.48,56.3l.11,.25c.48-.49-.06-.08-.11-.25Z"/>
          <polygon class="cls-1" points="181.85 50.54 181.24 50.87 181.17 51.26 181.85 50.54"/>
          <polygon class="cls-1" points="186.2 49.08 186 49.31 186.79 48.48 186.2 49.08"/>
          <path class="cls-1" d="M148.33,60.81c-.06,.2-.11,.39-.16,.57,.23-.29,.39-.91,.16-.57Z"/>
          <path class="cls-1" d="M148.01,36.89c.16-.29,.27-1.05,.12-1.52-.03,.61-.16,1.21-.12,1.52Z"/>
          <polygon class="cls-1" points="131.61 84 131.5 83.46 131.6 84.48 131.61 84"/>
        </g>
      </g>
    </g>
  </g>
</svg>