<?xml version="1.0" encoding="UTF-8"?>
<svg id="Replay_button" xmlns="http://www.w3.org/2000/svg" viewBox="0 0 147 137">
  <defs>
    <style>
      .cls-1 {
        fill: #fff;
      }

      .cls-2 {
        fill: #ce2c2c;
      }

      .cls-3 {
        fill: #202020;
      }
    </style>
  </defs>
  <g>
    <path class="cls-2" d="M81.7,9.74S-8.91,5.53,11.09,83.53c27,63,126,62,129-20-9.9-44.27-58.38-53.78-58.38-53.78Z"/>
    <g>
      <path class="cls-3" d="M28.67,4.83c-.08,.47,.29,1.37,.83,1.03v-1.7s-.83,.67-.83,.67Z"/>
      <path class="cls-3" d="M33.17,6.91c.47-.92,.96-2.46,.23-3.86-.34,1.7-.64,1.08-.93,3.08-.51,.3-1.08-.3-1.12-.92-.1,.46-.95-.15-1.01,.93,1.03,1.07,1.91,.91,2.65-.32,.28,.31,.17,.78,.19,1.09Z"/>
      <path class="cls-3" d="M85.9,13.46l-.27-.29c.06,.13,.15,.22,.27,.29Z"/>
      <path class="cls-3" d="M114.8,28.52c-.21-.12-.39-.05-.49,.06,.24,.05,.45,.09,.49-.06Z"/>
      <path class="cls-3" d="M117.89,33.31c-.04-.12-.11-.19-.17-.29,0,.19,.04,.33,.17,.29Z"/>
      <path class="cls-3" d="M85.9,13.46l.69,.76c.22-.5-.31-.51-.69-.76Z"/>
      <path class="cls-3" d="M40.04,1.68c-.18,.1-.32,.28-.44,.5,.15-.09,.29-.17,.45-.23,0-.09,0-.16,0-.26Z"/>
      <path class="cls-3" d="M71.61,10.43l-.26-.05c-.12,.17-.24,.38-.36,.62l.61-.57Z"/>
      <path class="cls-3" d="M60.88,9.11c.24,.08,.44-1.31,.58-1.92-.19,.57-.39,.83-.62,.92-.02,.27-.02,.59,.04,1Z"/>
      <path class="cls-3" d="M43.3,7l-.29,.23c.07-.07,.21-.14,.29-.23Z"/>
      <path class="cls-3" d="M78.84,12.93c-.06,.2-.08,.39-.08,.5,.06-.16,.08-.33,.08-.5Z"/>
      <path class="cls-3" d="M6.04,37.09c.09,.05,.15,.06,.23,.09-.11-.12-.19-.18-.23-.09Z"/>
      <path class="cls-3" d="M18.87,28.25l-.04,.19c.2,.18,.4,.35,.6,.51l-.56-.7Z"/>
      <path class="cls-3" d="M123.18,41.4s0-.03,0-.05c-.28-.08-.17,0,0,.05Z"/>
      <path class="cls-3" d="M104.51,113.67c1.52,.57-.65,2.24,1.39,2.67-.39-.41,.12-2.6-1.39-2.67Z"/>
      <path class="cls-3" d="M40.36,1.82c.16-.04,.32-.07,.48-.08-.22-.02-.37,0-.48,.08Z"/>
      <path class="cls-3" d="M105.9,116.34h0s.21,.04,.21,.04c-.09-.02-.14-.03-.21-.04Z"/>
      <path class="cls-3" d="M132.98,59.89c.23-.09,.4-.21,.56-.34-.14,.04-.3,.12-.56,.34Z"/>
      <path class="cls-3" d="M128.77,44.23c.02,.15,.06,.29,.07,.44,.02-.21-.02-.34-.07-.44Z"/>
      <path class="cls-3" d="M135.76,68.01c-.11,.22-.31,.29-.12,.6,.07-.03,.12-.05,.17-.09-.19-.11-.28-.26-.05-.51Z"/>
      <path class="cls-3" d="M134.86,76.91c.12-.03,.21-.07,.31-.11,0-.09,0-.2-.01-.29l-.3,.4Z"/>
      <path class="cls-3" d="M2.24,69.09c.37-.26,.8-.43,1.22-.57-.98,.23-1.47-1.28-1.22,.57Z"/>
      <path class="cls-3" d="M40.15,2.46c.01-.36,.07-.54,.22-.64-.11,.03-.22,.07-.32,.12,0,.21,.02,.41,.11,.52Z"/>
      <path class="cls-3" d="M146.84,68.49l-.24,1.77c.15-.49,.23-1.14,.24-1.77Z"/>
      <path class="cls-3" d="M41.94,129.96h-.43c.12,.08,.27,.1,.43,0Z"/>
      <path class="cls-3" d="M146.34,75.51c-.53,.25-.85,.53-1.08,.84,.1,.09,.18,.18,.33,.26l.74-1.1Z"/>
      <path class="cls-3" d="M3.47,68.52s-.01,0-.01,0c0,0,0,0,.01,0Z"/>
      <path class="cls-3" d="M.14,57.43c-.18,1.64,1.76,.88,2.78,1.28,.47,1.91-1.38,.81-2.35,1.43,.46,1.24,2.12,2.17,2.03,3.05-.3,.07-.41,.24-.79,.04,1.52,1.23,.15,3.74,2.1,5.07-.15,.12-.3,.18-.44,.22,.9-.3,1.84-.39,2.51-.39,.09,.68,1.27,1.16,.09,1.52,0-.42-.49-.41-.88-.58l.59,.67c-1.67,.8-.68-.93-1.97-.83,.71,1.39,2.23,2.87,1.91,3.98-1.69,.45-.84-2.46-2.2-.84l.49-1.76c-2.55,1.55,.09-1.06-2.65,.41-.3,2.36,1.12,2.46,.96,4.78,1.01,.36,1.36-.38,2.36-.02,1.05,1.42,.13,2.2-.73,2.91-.87,.7-1.69,1.32-.34,2.25,1.26,.36,3.32,.11,2.65,1.96l-2.01-.09c.39,2.19,2.99,.51,2.34,3.04-.83-.18-1.06-1.48-1.19-1.1-1.07,1.85,1.32,.72,1.62,1.8l-1.56,.72c1.01,2.16,2.93,4.2,4.22,6.42-.52,.06-1.18-.15-1.43,.61,.52,.68,.88,1.43,1.26,2.21,.37,.77,.67,1.59,.92,2.44,.45,1.71,.89,3.45,1.24,5.11l1.87,.32c.12,.25-.31,.8-.7,.68,.19,1.35,.83-.43,1.64-.22,.47,.53-.21,1.23-.83,1.08,1.14,.59,2.52,1.54,3.67,2.63,1.2,1.06,2.1,2.31,2.19,3.72l-.61-.08c.67,1.81,3.61-.4,3.63,1.73l-.4-.06c.99,1.7,2.61,2.97,3.97,4.32,.66,.7,1.35,1.33,1.9,2.04,.55,.71,.98,1.5,1.21,2.41,.44-.33,.8-.28,1.15-.09,.36,.18,.69,.53,1.03,.85,.68,.64,1.41,1.18,2.33,.03,1,2.49,.2,2.54,2.48,5.03,.7,.54,1.99-.93,3.05-.76l-.68,1.38c.68-.27,1.35-.55,2.01-.84l-.11,1.99,1.07,.06c-.32-.25-.47-.99-.23-1.36,.84,0,1.55,.66,2.06,1.36,.52,.68,.83,1.47,.7,1.85l3.88,.04c-.26,.56-.91,.56-1.5,.76,2.35-.84-.17,1.72,2.01,.84-.13-.4,.39-.84,.52-1.13,.59,1.12,2.58,1.69,4.13,1.67l-.52,.97c2.66,.77,5.79,.64,8.81,.83-1.05-.59-.59-2.4,.27-2.5l.21,1.65c.64-.95-.85-.69,.39-1.82,1.07,.29,.62,1.91-.08,2.39l1.4-.44c.05,.49-.28,.72-.41,1.33,.61-.91,2.34,1.73,3.21-.02l.07,.49c1.53,.02,2.64-.11,3.67-.26,1.02-.22,1.96-.45,3.18-.58-.06-1.41,.92-1.16,1.52-2.35,.45,.08,.91,.2,1.39,.32,.47,.1,.96,.2,1.46,.29,1,.17,2.04,.26,3.08,.05,1.35-.91,.23-1.24,.74-2.16,.32,1.26,2.38,.79,1.47,1.88,2.44-.74,3.15-.96,6-2.68-.47-.43-.9-.57-.81-1.03,.5-.32,1.4,.22,1.48,.82l-.11,.17c1.45-1.45,3.65-1.14,5.84-.94,2.15,.15,4.24,.08,5.08-1.67l-.1,.18c.76-.79,1.5-1.57,2.19-2.44,1.33-.39-.35,1.23,.9,1.52,1.02-1.67,2.18-2.15,3.35-2.52,1.17-.34,2.26-.77,3.07-2.03,.91,.56,1.77,.59,2.6,.33,.41-.13,.82-.33,1.21-.57,.38-.27,.75-.58,1.13-.91,1.48-1.32,2.94-2.73,4.78-2.66l-.66-.61c.04-1.15,1-.15,1.55-.33-.49-.49-1.11-.13-1.05-.8,1.03-1.18,2.22-2.17,3.47-3.13,1.21-1.01,2.51-1.94,3.88-2.85,1.37-.91,2.65-1.94,4-2.93,1.37-.97,2.58-2.11,3.74-3.29,.83-.88,.11-1.84-.39-2.69-.25-.43-.44-.84-.35-1.2,.07-.38,.41-.73,1.24-1.04l.91,1.63c.46-2.59,1.87-4.51,2.98-6.68,.58-1.06,1.2-2.1,1.65-3.21,.4-1.14,.69-2.31,.75-3.53,.25,.4,.7,.59,.52,1.01,.75-.23,1.12-1.08,1.18-1.91,.05-.84-.28-1.67-.73-1.83,.33-.65,.89,.13,1.5-.15,.99-.76-.71-2.84,.6-3.01,.21-.03,.29,.37,.32,.58-.3-.76,.91-2.93-.58-2.65,1-1.59,.15-3.39,1.15-4.64-1.42-1.12,1.09-2.93-1.05-3.44,1.12,.17,1.66-.56,1.8-1.49,.06-.94-.3-2.05-.82-2.61,.68,.39,.72-.97,1.66-.52-.01-1.31-.42-2.49-1.59-2.22,1.27-1.22,.61-2.42,.07-3.42-.56-1.01-.93-1.85,.63-2.77-.98-1.8-1.77-3.51-2.62-5.1-.92-1.58-1.74-3.09-2.49-4.57,2.17-.65,1.31,3.45,3.53,2.63-.95-1.44-1.94-2.46-2.92-3.42-.99-.97-1.79-1.95-2.16-3.49-.04-.88,1.07,0,1.53,.11-1.01-1.32-1.75-2.65-2.47-3.97-.73-1.3-1.41-2.61-2.78-3.38,.18-.11,.54,.01,.85,.15-.38-.41-.47-1.25-1.28-.62l.54,.28c-.76,1.51-3.8,0-4.47,.41,2.9-.98-.93-2.61,2.86-3.66-.37-.18-1.01-.26-1.51,.23-.16-.54,.02-.91,.99-.98-1.73-1.16-2.11,.07-3.23-1.27,.38-.32,.76-.18,1.32-.41-1.33-.06-2.63-.08-3.28-1.47,.28-.14,.45-.53,.73-.19-.43-.47-.99-.75-1.57-.98-.57-.23-1.17-.4-1.74-.59-1.15-.39-2.19-.88-2.87-2.16,1-.53,.96-.83,.78-1.17-.18-.33-.49-.7,.06-1.46l-1.53-.51-.11,1.07c-1-.84-2.72-.47-3.21-1.64l1.22-.02c-.71-.4-1.4-.84-2.12-1.2,.24,.44,.44,.94,.66,1.4-1.59-.01-1.28,1.95-2.32,.56,.39,.03-1.02-.7-.94-1.98h0c-.86,.14-1.73,.31-2.24-.58,.12-.64,1.28-1.63,1.37-2.05-.69,.48-1.36,.16-2.07-.16-.69-.34-1.47-.55-2.22-.04,.42-.21,.94-1.05,.96-1.26l-1.1,.84c-.31-.63-.28-.85,.19-1.48-1.43-1.06-.68,2.33-2,.43,.19-.01,.22-.21,.61-.22-1.59-1.49-3.89-1.3-5.38-2.6,.3-1.93,1.73,.29,1.84-1.4-1.36-.44-2.92-.54-4.41-.72-.75-.09-1.47-.19-2.16-.37-.68-.18-1.35-.36-1.93-.71l.39,.37c-1.33,2.33-1.37-1.92-3.1-1.24,.38-.07,.93-1.22,.74-.98-1.59-1.03-3.74-.81-6.65-.77l.54-.55c-.84-.9-2.61-1.17-3.64-1.81-.52,.55-1.13,.25-1.02,1.32-.29-.6-.62-1.05-.99-1.38-.16-.16-.41-.32-.52-.41,.06,0,.01-.05,.02-.06-.1-.05-.2-.1-.3-.14-.83-.33-1.75-.37-2.65-.37-1.8-.06-3.52,.23-4.68-1.76,.38,.09,1.06-.33,.76-.42-.96-.03-1.91-.1-2.86-.1-.04,1.16,.2,.75,.55,1.78-.49,.56-1.35,.92-2,.8,1.35-.52,.39-1.81-.01-2.55,.02,.36-.24,.71-.27,1.07-1-2.29-.68,2.23-2.3,.51l.21-.58c-.76,.15-1.54,.85-2.28,.58-.12-1.36,.85-.52,1.07-1.6-1.12-.07-2.49,2.23-3.29,.78,.5-.31,1.17-.23,1.68-.53-.87-1.7-1.06-1.32-1.84-1.67l.08,.05c-.6-.33-1.2-.62-1.81-.9l.44,.46c-.86,1.68-1.56,1.79-2.31,1.74-.75-.03-1.57-.28-2.53,.85,1.88-2.09,.36-1.25,.56-2.75-.46-.43-1.18-.92-.95-1.34-.93,1.2-1.49-1-2.77,.75-.05-.5-.95-.06-.75-1.28-1.17,.41,.28,.84,.18,1.46-.89,.85-1.92,.36-3.08-.04-1.15-.43-2.43-.67-3.63,.54-2.13,1.05-2.38,2.79-4.26,3.77-.75-.71,.36-1.82,.36-1.82-1.16-.62-1.98-.37-2.93,.31,.15-.45-.11-.78-.49-1.28-.81,.24-.31,1.82-1.49,1.27,.11-.57,.22-1.47,.55-2.06-.92,.58-1.75,1.65-2.67,2.23-.41-.8,.39-1.37,.67-1.97-1.09,.54-2.82,1.27-2.91,2.65l.8,.34c-.39,.14-.42-1.1-.16-1.4,.78-1.22,1.48,.21,1.61,.68l-.65,.43c1.2,2.7,2.74-.93,4.23-.95l-.31,2.14,1.23-1.9c.38,.5,.73,1.62,.08,2.02,1.13,.89,.8-.85,1.8,.18,.11,.17,.08,.27,0,.36l.92-.71c-.15,.45,.31,1.45-.32,1.2,1.85,1.04,2.69-1.84,3.48-.29l-.14,.14c2.39-.85,.12-1.54,1.88-3.44,.49,1.23,.96,2.46,1.42,3.69l.18-1.53c.26,.05,.76,.15,.69,.77,.91-1.06-.18-.66,.34-1.66,1.25,1.37,3.4-.72,3.65,1.75,.45-1.15-1.16-.92,.16-1.7,.33,2.62,1.52-.41,2.61,.82-.4,1.34-1.4,.6-.35,1.83,.77-2.29,2.11,.61,3.03,.24,.18-1.78,2.07-.67,3.68-1.02-.08,.3,.61,.64,1.49,1.01,.44,.18,.92,.39,1.37,.58,.45,.21,.87,.46,1.19,.69l-.09,.29c.59-1.75,2-1.13,3.14-1.29-.28,1.06-.57,1.45-1.23,1.82l.98,.18c.36-.54,.73-.76,1.41-.79l-.57,1.27c1.26,.28,3.01-.89,4.37,.49,.51-1.18-.28-3.88,1.79-4.05-.15,.68-.46,1.83-1,1.93,.18-.03,.72-.35,.93,.03l-1.06,.86c.58,.75,.7-.78,1.27-.47-.33,.93,.21,.82-.13,1.53-.18,.04-.38-.57-.73-.28,.61,.41,1.21,1.24,1.21,2.03,.14-.55,.46-1.25,1-1.19,.65,.19,.62,.5,.62,.89-.02,.19-.08,.38-.05,.59,.03,.11,.04,.21,.16,.34,.17,.14,.18,.22,.26,.31,.5-.56,1.13,.38,1.56-1.04,.38,.13,.26,.81,.29,1.24,.85-.42,3.19,.79,2.9-.94l-.14-.15s.08,0,.13-.03h0s0,0,0,0c1.33-.36,2.44,.2,3.5,.85,1.05,.69,2.01,1.53,3.2,1.64l-.18,.46c1.48-.04,2.97,.77,4.3,.14,.39,.14,.55,1.18,.16,1.66,1.09,.1,1.43-.36,2.47,1.02-1.3,.35,.01,.85-1.23,.13,1.06,.96,.98,1.8,2.87,1.18-.98,.94,.22,1.86,.97,1.78l-.46-1.2c.73,.14,1.26,.49,1.78,.87l-1.06,1.33c.73,1.53,2.15,1.36,3.49,1.31,1.33-.05,2.55,.03,2.57,1.98,1.23-.64-.86-1.42,.39-2.27,.51,.39,.71,1.3,.81,2.13,.11,.82,.13,1.56,.28,1.66,.87,1.69,2.65-1.15,3.8,.36,.16-.61,.87-2.03,2.35-1.72,.89,.99-.27,2.97-1.16,2.86-.26-.15-.26-.39-.13-.54-.43-.09-1.04-.14-1,.64l.48-.39c.12,.87,1.47,1.87,.57,2.39,1.06,.12,.91-.52,.55-1.2,.7,1.66,1.91,1.56,2.81,3,.01-.41,.28-1.08,.48-.92,1.29,2.14,1.52-.13,2.9,.8,.05,1.3-1.72,1.34-.02,1.92,.29,1.12-.96,1.26-1.57,1.35,.92,.09,1.28,.69,1.45,1.34,.17,.66,.08,1.42,.27,1.79l-.83-.23c.49,.14,.72,.41,.95,.69l.61-1.11c.13,.47,.37,.75,0,1.07,.88-.17,1.25-1.58,2.66-1.57-.07,.85,1.72,1,.63,2.14-.82-1.76-1.1,1.15-2.31,.13,.34,.1,.57,.39,.7,.84-.09,.16-.29,.16-.44,.13,.02,1.09,.49,.96,1.09,.76,.61-.21,1.36-.51,1.87,.26-.85,.34-1.12,1.33-.8,1.45-.4-.6,1-1.15,1.96-.98,.11,1.36,1.17,.77,1.47,1.34l-.14-.77c.86-.27,1.19,.25,1.82,.87-.55,.42-.78-.43-.89,0,1.8,.03-.36,2.67,1.17,3.26-.24,.8-1.45,.83-1.56,1.46,.88,.33,.74,.83,.59,1.32-.15,.49-.32,.99,.39,1.46,.93-.85,.62-.83,2.11-.31l-1.73-1.92c.72,.23,1.46,.48,2.2,.74-.29-.71-1.31-1.16-1.31-1.66,1.18,.27,.88,.35,1.63-.43-1.21,1.73,1.79,1.53,1.17,3.15l-2.76,1.06c-.14,.52-.03,.91,.18,1.26,.18,.36,.49,.67,.83,1,.67,.65,1.45,1.4,1.43,2.59l.28-.84c.61,0,.76,.33,.84,.74,.06,.42,0,.91,.31,1.23-.98,.15-1.24,.68-1.78,1.11,.71-.18,.25,1.61,2.24,1.51-.37,.41-.7,.81-1.12,1.2-.38,1.86,2.98,1.83,2.81,3.74-1.12-.5-1.75,.34-2.62-.8,.04,.59-.09,1.12,.6,1.1-.62,.35,1.3,1.65,.36,2.21,.43,.26,1.46,.37,1.37,1.06-.2,.07-.49-.02-.49-.02,.49,.01,.65,1.12,1.75,.56-.39,.23-.68,.48-.89,.75-.24,.27-.41,.55-.53,.85-.24,.6-.27,1.26-.29,1.91-.02,.65-.02,1.31-.21,1.87-.23,.56-.63,1.02-1.37,1.29,.02,1.35,.09,3.04-.28,4.22-.26-.16-.47-.14-.3-.33-1.38,1.32,2.39,1.83,.82,3.41-1.8,.42-.5-1.27-1.26-.88-1.59-.4-1.61,.17-1.61,.92,0,.73,.08,1.68-1.04,1.89l-.06-.35c-1.4,.43,.29,2.69-.74,4.01,0,0-.22-.2-.43-.23,.48,.85,.6,1.82,.54,2.79-.03,.48-.08,.97-.2,1.42-.12,.45-.25,.87-.37,1.27-.81-1.09-.18-.96-1.45-1.38-.23,.69,1.89,.9,1.41,2.31-.84,.03-1.91,.56-3.12-.11l.64-1.14c-1.85-.42-.85,1.45-1.49,1.86l-.59-.52c-.98,1.71,.56,2.92-.89,4.58l.6,.19c.77,2.21-1.46,.1-1.16,1.93l-1.73-1.03c-.17,.86-.4,3.36-1.2,4.64-.41-1.57,.09-3.36,.14-4.67-.53,.55-1.61,2.03-1.22,2.99,.1-.34,0-.99,.43-1,.52,1.81,.04,3.19-1.12,4.28-1.21-1.49-2.1-.98-3.05-.27-1,.65-2.09,1.47-3.43,.66-.3,.69-.74,1.23-1.25,1.66-.53,.42-1.18,.69-1.83,.97-.66,.27-1.34,.51-2.02,.81-.67,.31-1.33,.65-1.98,1.07,2.52,1.98-.75,.53,.99,3.06-.56,.55-.83,.65-.99,.51-.96-.15-1.91-.3-2.84-.46-.87-.52,.28-.94-.1-1.51-1.48,.58-1.18-.8-2.47-1.07,.69,.88,.22,1.63-.77,1.64l1.77,.71c-1.31,2.43-2.84-1.49-4.15,.94l.24-1.18c-.2,.25-.52,.5-.92,.74-.41,.22-.87,.46-1.31,.76-.88,.59-1.68,1.41-1.79,2.77-.31-.26-.85-.94-.45-1.34-1.31,.38-2.58,1.35-3.83,2.3-1.25,.92-2.5,1.72-3.76,1.18l.02-.77c-.45,.32-.55,1.56-1.35,.97-.04-.31,.03-.77-.21-.76-.2,.31-1.05,1.58-1.82,1.31l.4-.95c-.71-.09-1.28,.05-1.78,.32-.51,.23-.96,.6-1.39,1.02-.86,.83-1.67,1.85-2.79,2.28-.14-1.09-.77-1.73-1.48-2.13-.71-.41-1.51-.65-2.04-.78v-.31c-1.51-.05-2.77,.58-4.02,1.17-1.25,.58-2.52,1.32-3.99,1.74-.85-1.2-2.29-1.65-3.89-1.89-.4-.07-.81-.11-1.21-.19-.4-.1-.8-.2-1.18-.32-.78-.24-1.51-.54-2.12-.98,.34,.47-.41,1.67-.96,1.8-.55-.54-2.15,1.01-1.56-.9l.22,.1c0-2.05-1.38-1.88-2.36-2.2l-.96,2.48c-.74-2.3-2.48-2.54-4.18-2.8-1.64-.34-3.25-.58-3.12-2.43-.87,.25-1.58-.17-2.49,.07l.75-1.2c-.68-.63-1.22-1.02-1.78-1.49-.57-.46-1.22-.87-2.24-1.37l.96-.56c-.47-.39-1.4,.21-2.36,.81-.93,.58-1.9,1.16-2.4,.79l1.06-1.87c-.87-.72-1.48-1.73-2.09-2.71-.64-.96-1.46-1.67-2.92-1.83,.25-.19,.73-.55,1.04-.34-.67-.84-1.57-3.95-3.56-1.82,1.39-1.18-1.27-1.96-2.73-2.48l1.24-.67c-2.08,.22-2.51,.47-3.73-.53-.05-.4,.76-.88,.72-.29-.03-1.39-1.61-.05-1.78-1.67l1.05-.02c-.58-1.07-.93-.73-2.15-.8-.87-.4-.85-2.23,.18-2.98-.74,.22-2.02,.13-2-.71,.38-.3,.76-.2,.94-.15-.01-2.25-2.8-2.05-2.13-3.92,.41-.21,.59-.39,.67-.55,.6,1.5,1.14,2.68,.98,2.62,1.15-.57,.81-1.79,2.85-1.65-.65-.24-1.64-.53-2.48-.95-.79-.44-1.42-1.01-1.38-1.7,.09-.1,.18-.2,.35-.32l.18,.07c.01-.31-.2-.51-.49-.66,.05-.45,.1-.74-.03-1.1,.92-.5,.07-1.58-.08-2.19-1.31,.5-1.37-.38-2.22,.75,.06-.13,.2,.06,.39,.46,.07,.08,.13,.18,.23,.22-.04,0-.08,0-.13,0,.19,.39,.35,.92,.63,1.49-.88-.22-1.59-.55-1.09-1.49-.96-.02-1.96-.08-2.44-.15,1.56-1.5,2.04-3.43,3.17-4-.63-.83-1.06-1.92-1.69-2.86-.59-.96-1.35-1.8-2.78-2.16-.45-.5,.61-.8,.97-1.08,.33,.27,.37,.66,.78,.76-.44-.49-.71-1.3-1.02-1.99-.32-.69-.76-1.26-1.69-1.26,.61-1.56,1.8,.55,1.21-1.37l.6,.19c.29-.53,.43-1,.44-1.45,.03-.45-.04-.86-.2-1.26-.32-.8-.95-1.54-1.56-2.32-.63-.78-1.11-1.6-1.29-2.51-.15-.9-.01-1.9,.99-2.98-.24,.3-.35,.45-.66,.51,.46-1.24,.6-2.48,.61-3.75,.06-1.26,.03-2.53,0-3.81,.04-2.54,.32-5.14,2.18-7.17,.8-1.2-.27-1.61-.89-2.68l1.54,.13c-.42-.61-.84-1.24-1.26-1.88-.34-1.2,.9-1.75,1.96-2.35,1.08-.61,1.96-1.27,1.43-2.89l-1.07-.12c.57-.75,.72-2.94,1.7-2.26-.13-.17-.8-.76-.15-.83l.71,.35c-.02-.86-.04-1.74-.04-2.64,.69-.63,1.31-.14,1.95,.22,.63,.36,1.28,.62,2.03-.32,.24-.87-.37-3.48-.98-3.53-.25,.29-.96,.51-1.62,.07l.19-.99c-1.77-1.52-3.16-3.69-5.94-2.56,.04,.76,.1,1.51,.16,2.25l-1.27-.15,.8-1.27c-1.36,.1-.92,1.08-.68,1.92-.58-.2-1.06-.21-1.43-.02,.34,.89,.69,1.77,1.05,2.62-.9-.26-1.18-1.57-2.2-.8,.5,1.2,2.16,.33,2.1,1.8-1.33,.21-2.01-.4-1.62,.89-.59-.15-.85-.5-.91-.98,.26,1.12-.73,2.24,.21,3.16-.77,.12-1.04,.81-1.27,1.37-.24,.56-.55,.96-1.56,.52,.39,.46,1.07,2.05,.88,2.81-.98-1.11-1.3-.44-1.65,.38-.31,.82-.69,1.77-1.98,1.17,.98,.88,.95,1.88,.78,2.94-.13,1.07-.37,2.22,.06,3.27-.16-.14-.49-.42-.33-.56-.42,.99-1.19,1.15-1.78,1.75,1.9,.51,2.09,2.2,3.15,3.22-2.07,.98-2.16-1.11-4.01-1,1.58,.19,1.22,2.48,2.6,2.21-1.31,.82-.66,.76-2.33,1.09,2.42,.44,.33,.97,1.75,1.92-1.33,1.31-2.32,.19-1.72,1.81-.4,.35-.8,.17-1.08-.11-.29-.28-.47-.65-.47-.65Zm9.97,35.74s-.02,0-.03,.01c-.15-.28-.27-.51-.35-.67,.08,.14,.19,.33,.38,.65Zm1.22,2.79c-.1-.36-.32-.77-.5-1.22,.41-.29,.9-.38,1-.1-.37-.02-.32,.74-.49,1.32Zm6.73-9.26c.32,.33,.1,.56-.14,.72-.09-.18-.21-.39-.4-.65-.05,0-.13,0-.18,.01,.27-.05,.52-.09,.72-.08Z"/>
      <path class="cls-3" d="M16.09,86.6s-.12-.06-.15-.14c-.09,.12-.16,.24-.22,.35,.16,0,.32,0,.46,0-.03-.07-.07-.15-.09-.21Z"/>
      <path class="cls-3" d="M85.59,13.13l.05,.05c-.03-.07-.06-.13-.06-.23,.02,.08,0,.12,.01,.18Z"/>
      <polygon class="cls-3" points="38.39 129.05 38.55 128.73 38.15 128.88 38.39 129.05"/>
      <path class="cls-3" d="M71.47,3.89c0-.13-.04-.26-.14-.39,0,.09,.06,.24,.14,.39Z"/>
      <path class="cls-3" d="M64.45,2.44c-.32-.2-.63-.43-.96-.62,.41,.31,.71,.51,.96,.62Z"/>
      <path class="cls-3" d="M59,1.3c-.08,.24-.11,.43-.14,.6,0,0,0,0,.01,0l.13-.61Z"/>
      <path class="cls-3" d="M136.46,38.84c.05,.06,.11,.11,.18,.15,.53,.29,.24,.05-.18-.15Z"/>
      <path class="cls-3" d="M115.44,22.46c.37-.06,.74-.11,1.07-.09-.32-.34-.61-.57-1.07,.09Z"/>
      <path class="cls-3" d="M146.87,68.3s-.01,0-.02,0c0,.07,0,.13,0,.2l.03-.19Z"/>
      <path class="cls-3" d="M117.5,23.07c-.22-.48-.58-.65-.99-.69,.26,.29,.55,.65,.99,.69Z"/>
      <path class="cls-3" d="M35.15,2.32h-.27c.02,.08,.02,.16,0,.22l.26-.22Z"/>
      <path class="cls-3" d="M34.89,2.54l-.26,.22c.13-.02,.25-.06,.26-.22Z"/>
      <path class="cls-3" d="M34.08,3.22l.54-.46c-.21,.04-.48,.04-.54,.46Z"/>
      <path class="cls-3" d="M42.46,1.89l.03-.52c-.03,.11-.04,.28-.03,.52Z"/>
      <path class="cls-3" d="M44.64,1.53c-.53-.07-1.43-.95-2.14-.57l-.02,.41c.27-.79,1.75,1.06,2.16,.16Z"/>
      <path class="cls-3" d="M53.91,7.36l-1.75-.37c.32,.54,.73,1.26-.05,1.4,2.2,1.58-.48-1.21,1.81-1.03Z"/>
      <path class="cls-3" d="M59.26,8.28c-.93,.18-.03,.79-.1,1.09,.6-.45,.76-.56,.1-1.09Z"/>
      <path class="cls-3" d="M96.71,18.33l-.58,1.14c.72,.13,.2-.45,.58-1.14Z"/>
      <path class="cls-3" d="M106.46,15.6c-.1-.35-.19-.72-.3-1.06l-.85,.9c.39,.03,.77,.09,1.15,.16Z"/>
      <polygon class="cls-3" points="106 25.76 105.64 25.77 106.89 25.93 106 25.76"/>
      <path class="cls-3" d="M133.97,75.14l1.59,.06c-.23-.51-1.96-.86-1.59-.06Z"/>
      <path class="cls-3" d="M124.22,99.79c-.8-.26-1.62,.03-1.37,.86,.51-.37,1.32-.49,1.37-.86Z"/>
      <polygon class="cls-3" points="50.44 120.47 51.09 120.14 50.04 120.22 50.44 120.47"/>
    </g>
  </g>
  <g>
    <path class="cls-1" d="M78.09,20.53l-28,28,33,21,.02-16.63s18.98-1.37,17.98,20.63c-11,19-26,14-33,12,0,0-17-10-12-18-1.34-3.43-21-12-21-12,0,0-8.67,24.5,8,39s39,16,56,8c23-12,22.4-38.69,14-52-8.4-13.31-33.77-12.22-33.77-12.22l-1.23-17.78Z"/>
    <g>
      <path class="cls-3" d="M79.41,20.43c-.19-.21-.57-.06-.45,.56l.69,.4-.24-.96Z"/>
      <path class="cls-3" d="M78.48,24.72c.37,.71,.99,1.52,1.57,1-.68-.68-.43-.88-1.24-1.61-.12-.62,.14-1.1,.39-1.02-.18-.21,.08-.98-.36-1.29-.46,.85-.4,1.88,.09,2.92-.13,.24-.32,.03-.44-.02Z"/>
      <path class="cls-3" d="M116.15,60.09l-.02-.39c-.02,.11,0,.25,.02,.39Z"/>
      <path class="cls-3" d="M107.96,94.3c.18-.21,.21-.34,.18-.39-.14,.22-.26,.4-.18,.39Z"/>
      <path class="cls-3" d="M102.85,97.81c.12-.06,.21-.12,.32-.18-.15,.03-.28,.09-.32,.18Z"/>
      <path class="cls-3" d="M116.15,60.09l.05,1c.23,.02,.03-.53-.05-1Z"/>
      <path class="cls-3" d="M80.66,33.02c-.05-.21-.12-.38-.21-.54,.04,.17,.08,.34,.11,.51,.04,0,.07,.01,.11,.03Z"/>
      <path class="cls-3" d="M107.78,46.91l-.23-.18c-.11,0-.23,.03-.35,.07l.58,.11Z"/>
      <path class="cls-3" d="M96.74,41.87c.26,.09,.51-.41,.68-.62-.22,.18-.45,.22-.7,.21-.03,.1-.03,.23,.02,.42Z"/>
      <path class="cls-3" d="M78.59,36.16l-.11-.41c.03,.11,.07,.29,.11,.41Z"/>
      <path class="cls-3" d="M112.97,53.55c-.06,.06-.11,.13-.13,.19,.06-.03,.1-.1,.13-.19Z"/>
      <path class="cls-3" d="M65.72,29.16s.05,.04,.07,.07c.01-.09,0-.14-.07-.07Z"/>
      <path class="cls-3" d="M78.19,20.63l-.12,.17c.06,.09,.12,.18,.19,.25l-.07-.42Z"/>
      <path class="cls-3" d="M92.65,102.12s.03,0,.05,0c.26-.16,.1-.09-.05,0Z"/>
      <path class="cls-3" d="M45.45,63.04c-.85-1.01,2.05,.34,.69-1,.05,.27-1.88,.01-.69,1Z"/>
      <path class="cls-3" d="M80.61,33.35c.02,.17,.04,.35,.04,.52,0-.24-.01-.4-.04-.52Z"/>
      <path class="cls-3" d="M46.14,62.05h0s-.14-.14-.14-.14c.06,.06,.09,.09,.14,.14Z"/>
      <path class="cls-3" d="M67.09,103.87c.03,.11,.12,.21,.21,.3,0-.06-.04-.14-.21-.3Z"/>
      <path class="cls-3" d="M86.49,104.87l-.49,.02c.2,.01,.36,0,.49-.02Z"/>
      <path class="cls-3" d="M57.2,101.58c-.23-.14-.27-.26-.63-.35,.02,.04,.04,.07,.07,.11,.15-.02,.32,.04,.56,.24Z"/>
      <path class="cls-3" d="M47.98,96.31c.02,.07,.06,.14,.1,.2,.09,.05,.2,.11,.3,.17l-.39-.37Z"/>
      <path class="cls-3" d="M56.09,55.16c-.12-.26-.15-.49-.16-.7-.07,.43-1.51-.32,.16,.7Z"/>
      <path class="cls-3" d="M80.34,33.04c.15,.05,.22,.14,.26,.31-.02-.12-.04-.24-.06-.36-.09-.03-.16-.03-.21,.05Z"/>
      <path class="cls-3" d="M55.01,105.44l-1.62-.87c.44,.27,1.03,.59,1.62,.87Z"/>
      <path class="cls-3" d="M98.77,72.9s0-.08-.03-.12c0,.04-.02,.07,.03,.12Z"/>
      <path class="cls-3" d="M48.56,102.03c-.18-.33-.42-.6-.67-.88-.09,0-.18-.02-.25,0,.29,.31,.6,.61,.92,.87Z"/>
      <path class="cls-3" d="M49.76,44.34c-1.18,1.17-1.26,1.51-1.04,1.62,.22,.11,.69,.06,.71,.33-2.02,2.32-1.76,.99-3.17,1.87-.26,.31-.47,.59-.64,.85,1.94,.91,3.54,1.4,4.55,2.07-.02,.13,.21,.33-.25,.22,.62,.22,1.26,.54,1.92,.91,.26,.15,.53,.31,.81,.47,.21,.12,.42,.25,.64,.38,.86,.51,1.75,1.03,2.59,1.13,.06,.12,.08,.2,.07,.26,0-.45,.16-.78,.35-.98,.64,.39,1.42,.35,1.39,.91-.38-.26-.51-.11-.78-.1l.77,.24c.22,.96-1.03-.37-1.3,.06,1.41,.63,3.21,1.09,4.09,1.89-.16,.7-2.42-1.27-1.44,.07l-1.38-1.19c.59,1.64-.89-.65-.43,1,1.9,1.44,2.43,1.13,4.32,2.57,.65-.03,.15-.57,.8-.6,3.21,1.24,1.32,2.86,3.89,3.43,.78-.04,1.45-.63,2.7,.7l-.92,.33c1.9,1.3,1.7-.23,3.46,1.5-.52,.02-1.66-.76-1.42-.49,.99,1.35,1.17,.23,2.18,.87l-.16,.71c1.06,.61,2.23,1.18,3.42,1.76,.3,.15,.6,.29,.9,.44l.45,.22c.15,.08,.27,.13,.54,.28,.92,.51,1.81,1.01,2.68,1.52-.17,.13-.86-.05,.05,.77,1.69,.94,3.37,1.98,5.17,3.16,.03-1.93,.12-3.83,.23-5.8,.06-1.01,.12-2.01,.18-2.99l.05-.76,.02-.36,.02-.21c.03-.28,.07-.55,.1-.82l-.59-1.26c0-.29,.27-.54,.38-.23,.22-1.29-.37-.07-.6-.69-.04-.73,.34-.97,.51-.5-.12-.57-.25-1.26-.37-2.01-.11-.7-.21-1.77-.27-1.92-.06-.36-.09-.77-.06-1.09,.01-.03-.02-.1,.04-.09l.14,.02c.09,.01,.18,.03,.27,.06,.18,.05,.35,.12,.49,.21-.03,.06-.05,.12-.07,.18,.33,.14,.37-.16,.62-.39,.06-.06,.12-.11,.2-.15,.09-.04,.25-.06,.38-.06,.28-.01,.59,.08,.94,.29l-.32,.04c1.78,.52,3.6,1.14,5.1,2.12,1.51,.95,2.65,2.24,3.06,3.56,.24-.02,.48,.15,.7,.43,.2,.3,.41,.67,.57,1.06,.35,.77,.63,1.52,1.23,1.42,.1,1.09,0,1.51-.03,2.01-.06,.51-.04,1.09-.01,2.56,.03,.77,.88,1.07,1.06,2.08l-.61,.06,.7,1.34-.75,.73,.04,.23,.04,.07,.08,.15c.04-.09,.28-.21,.46-.23,.03,.12,.05,.19,.06,.29,0,.05,0,.09,0,.14-.02,.04-.06,.08-.09,.11-.23,.23-.46,.46-.66,.67-.55,.52-1.05,.83-1.19,.76l-.36,.81-.43,.76-.87,1.52c-.14-.22,.15-.73,.31-1.18-.66,1.83-.69-.14-1.31,1.52,.26-.06,.19,.33,.25,.44-.88,.33-2.12,1.73-3.15,2.64l-.06-.5c-.95,.78-2.01,1.44-3.09,2.19-.58,.3-1.16,.6-1.75,.91-.61,.27-1.26,.46-1.89,.68,.97-.11,1.01,.65,.22,.98-.16-.18-.32-.34-.48-.54-.42,.51,.9,.04-.05,.76-1.07,.14-.84-.59-.32-.91l-1.18,.47c-.1-.18,.17-.34,.19-.6-.21,.25-.76,.21-1.33,.11-.57-.08-1.14-.08-1.5,.26l-.08-.19c-2.71,.05-4.02,.04-6.32-.36-.16,.55-1.04,.24-1.85,.49-.85-.29-1.72-.71-2.66-1.1-.22-.1-.56-.22-.54-.25-.09-.06-.05-.08-.25-.22-.41-.3-.83-.6-1.28-.89-1.39-.62-.63,.14-1.38,.03,.19-.47-1.54-1.71-.43-1.34-1.04-.73-1.69-1.22-2.41-1.75-.71-.53-1.52-1.09-2.76-2.09,.08,.39,.29,.74,.02,.72-.47-.36-.74-1.11-.5-1.22l.14,.08c-1.37-.98-2.31-2.8-2.5-4.34-.1-.77-.03-1.43,.08-1.93,.04-.13,.03-.25,.09-.37,.02-.06,.04-.12,.05-.18l.02-.09v-.04s.05-.08,.06-.12c.34-.73,.63-1.43,.87-2.03-.15-.25-.24-.45-.44-.69,.06,.08,.13,.16,.17,.23-.47-.75-.94-1.45-1.61-2.01-.34-.28-.67-.55-1.04-.78l-.53-.34-.39-.2c-1.23-1,1,.25,.23-.7-1.77-.73-2.92-1.43-4.02-2.14-1.1-.7-2.12-1.38-3.51-1.78-.62-1.18-2.38-2.04-4.25-2.85-.94-.4-1.91-.79-2.78-1.21-.22-.11-.43-.22-.64-.32-.27-.14-.53-.29-.78-.42-.71-.38-1.38-.77-2.01-1.19l.27,.51c-1.21-.16-1.5-.89-2.51-1.42,.25,.41,1.44,.98,.73,.88-.67-.27-1.34-.54-2.03-.82-.41,1.14-.78,2.33-1.15,3.52-.19,.59-.34,1.23-.52,1.84l-.39,1.57c-.38,1.55-.74,3.13-1.04,4.73-.61,3.19-.99,6.5-.86,9.8,.05,1.3,.59,1.61,1,2,.42,.4,.75,.85,.64,2.51-.28-.25-.56-.51-.82-.78,.84,2.49,1.56,5.04,2.59,7.51,1.02,2.45,2.37,4.82,4.2,6.64-.32-.14-.47-.04-.76-.45,.1,.6,.76,1.38,1.39,2,.65,.6,1.33,.97,1.47,.85,.51,.61-.13,.38,.07,.88,.6,.98,2.41,1.43,2.54,2.1,.02,.12-.33-.07-.5-.16,.68,.25,2.46,2.05,2.29,1.21,.32,.34,.66,.64,1.01,.91,.37,.25,.74,.47,1.1,.68,.72,.43,1.4,.84,1.92,1.4,1.12,.02,2.59,1.87,3.28,1.27-.27,.34,.32,.97,1.2,1.39,.87,.44,1.97,.8,2.58,.86-.47,.08,.8,.7,.24,.85,1.25,.51,2.47,.79,2.42,.27,.47,.48,1.03,.78,1.59,.99,.58,.17,1.17,.25,1.73,.33,1.11,.14,2.05,.34,2.56,1.14,3.99,.55,7.67,.65,11.2,.68-.18,.91-3.91-.24-3.86,.72,3.45-.05,5.39-.71,8.71-.62,.87,.08-.47,.42-.76,.59,1.68-.29,3.31-.29,4.88-.53,.79-.1,1.56-.18,2.32-.33,.75-.18,1.49-.39,2.2-.65,0,.08-.29,.24-.58,.36,.58-.14,1.38-.14,1.23-.52l-.54,.22c-.52-.2,0-.62,.62-1.02,.63-.4,1.36-.89,1.38-1.04-.66,1.4,2.88-.47,1.77,1.37,.36-.18,.77-.49,.61-.73,.58-.07,.8,0,.33,.48,1.95-.89,1.09-1.07,2.89-1.68,.06,.19-.27,.39-.38,.67,.8-.66,1.54-1.41,3.09-1.89-.04,.15,.2,.21-.25,.4,.63-.3,1.21-.58,1.72-.97,.5-.4,.98-.78,1.46-1.17,.93-.82,1.91-1.56,3.22-2.32-.22,1.22,1.01-.37,1.59,.11l1.15-1.23-.75,.15c.57-.45,1-.99,1.39-1.52,.4-.53,.82-.98,1.32-1.36-.17,.33-.35,.66-.54,.97,.63-.64,1.19-1.36,1.78-2.04l-1.25,.91c.71-1.31-.78-.53,.64-1.77-.19,.33,.91-1.05,1.71-1.37h0c.22-.72,.48-1.4,1.18-2.17,.35-.1,.57,.64,.8,.58-.12-.91,1.64-2.96,1.4-4.08,.01,.33,.35,.53,.47,.47l-.19-.75c.44-.52,.55-.57,.79-.34,.89-1.79-1.1,.19,.2-1.8-.03,.18,.07,.13,0,.52,1.13-2.11,1.28-4.38,1.99-6.42,.89-.46-.28,1.89,.51,1.33,.67-3.15,.34-6.58,.53-9.58l-.09,.56c-.53-.22-.39-.77-.19-1.47,.2-.7,.43-1.55,.14-2.3,.1,.37,.61,.46,.49,.36,.04-2.1-.61-4.25-1.62-7.22l.35,.32c-.01-1.25-.66-3.17-.99-4.46-.39-.28-.6-1.01-.82-.44,.02-2.18-1.02-3.93-2.19-5.45-1.17-1.55-2.5-2.82-3.38-4.56,.31,.31,.92,.6,.67,.34-.39-.37-.82-.7-1.25-1.01-.42-.33-.86-.62-1.3-.91-.09,.52,.16,.47,.43,1.16-.48-.04-1.27-.41-1.88-.83,1.29,.54,.44-.61,.06-1.17,0,.17-.25,.19-.29,.34-.92-1.56-.7,.62-2.28-.93l.22-.16c-.78-.28-1.58-.32-2.34-.74-.11-.64,.88,.14,1.12-.23-1.15-.51-2.61-.07-3.45-.93,.54,.03,1.24,.31,1.78,.38-.88-1.06-1.1-.94-1.91-1.35l.08,.04c-.63-.33-1.27-.63-1.92-.93,.16,.1,.31,.21,.46,.32-1.88,.88-3.11-.64-5.33-.17,2.13-.42,.43-.42,.7-.99-.49-.27-1.25-.61-.99-.74-1.06,.29-1.57-.68-3.06-.19-.03-.21-1.04-.16-.76-.62-1.3-.02,.26,.38,.12,.6-2.01,.4-4.55-1.33-7.44-.51-.1,.01-.19,.03-.28,.04-.06,.02-.12,.03-.18,.04-.12,.03-.22,.07-.33,.1-.24,.08-.45,.15-.65,.22-.44,.16-.89,.32-1.44,.49-.1,.05-.09-.03-.12-.05l-.07-.12c-.05-.09-.1-.19-.14-.31-.09-.24-.19-.54-.27-.92,.13-.45,.31-.33,.46-.18,.15,.16,.26,.37,.26,.37,.1-.58,.14-.97,.1-1.36-.04-.44-.14-1.01-.29-1.55,.19,.22,.31-.03,.51-.39-.11-.91-.75-.56-.55-1.79,.23,.19,.6,.43,.84,.86-.25-1.06-.69-2.1-.94-3.21,.32-.32,.56,.64,.81,1.01-.24-1.24-.53-3.22-1.1-3.57l-.14,.82c-.06-.45,.45-.27,.57,.06,.5,1.04-.08,1.56-.27,1.64l-.18-.79c-1.08,.89,.4,3.18,.45,4.78l-.88-.61,.8,1.59c-.19,.36-.64,.63-.82-.15-.33,1.2,.36,.93-.02,2.11-.06,.15-.1,.1-.14,0l.33,1.16c-.19-.15-.55,.6-.49-.33-.08,.89-.07,1.74,.12,2.21,1.5-.19,2.4-.54,2.91-.11l-.22,.05c.45-.04,.79-.06,1.03-.09,.2-.03,.34-.07,.43-.1,.19-.07,.21-.16,.2-.27-.01-.21-.11-.48,.96-.79,.45,.52,.89,1.05,1.32,1.58l.31-.59c.28,.04,.85,.13,.72,.37,1.1-.33-.16-.28,.49-.62,1.32,.66,3.83,.17,4,1.19,.56-.38-1.25-.55,.25-.65,.25,1.1,1.72,.08,2.87,.82-.49,.45-1.59-.06-.46,.66,.93-.76,2.33,.7,3.36,.8,.24-.7,2.29,.31,4.01,.71-.17,.15,2.94,1.57,4.18,2.63l-.1,.08c.63-.5,2.01,.48,3.06,1.08-.3,.32-.57,.33-1.21,.14,.31,.21,.62,.41,.9,.64,.34-.02,.72,.07,1.31,.49l-.56,.23c1.1,.89,2.63,1.57,3.41,3.34,.51-.16,.25-2.14,1.77-.54-.19,.22-.55,.52-.95,.14,.14,.12,.55,.41,.63,.79-.28-.16-.54-.33-.83-.46,.31,.85,.58,.19,.91,.83-.35,.19,.03,.6-.3,.66-.13-.14-.18-.62-.45-.77,.36,.72,.6,1.69,.48,2.1,.16-.16,.48-.25,.78,.26,.66,1.37-.21,.67-.03,1.55,.39,.23,.49,1.22,1.05,1.03,.16,.42-.08,.59-.17,.81,.56,.63,1.16,3.46,1.52,2.44v-.21s.02,.08,.05,.12h0s0,0,0,0c1.28,2.39,.85,5.37,1.28,7.89h-.2c.35,1.53,.27,3.42,.63,4.54-.02,.46-.41,1.06-.64,.85,.06,1.17,.29,1.35-.26,2.98-.18-1.21-.34,.36-.1-1.23-.36,1.49-.7,1.75-.49,3.45-.19-.32-.41-.07-.56,.34-.17,.41-.32,.98-.33,1.35l.61-.93c-.13,.8-.32,1.48-.58,2.15l-.53-.55c-.82,1.33-.92,2.7-1.18,3.99-.12,.64-.26,1.26-.54,1.8-.26,.54-.63,1.02-1.22,1.35,.02,.94,1.09-1.29,1.22-.4-.37,.61-.97,1.1-1.48,1.49-.53,.37-.99,.63-1.11,.81-.65,.7-.75,1.16-.8,1.69-.05,.53-.14,1.07-.89,1.76,.34-.05,1.01,.17,.15,1.5-1.07,1.01-1.93,.59-1.46-.19,.22-.26,.38-.33,.43-.26,.26-.39,.57-.9,0-.66l.05,.29c-.33,.17-.82,.61-1.22,.93-.41,.31-.75,.48-.72,.19-.61,.88-.06,.59,.6,.14-1.54,.98-2.07,1.9-3.69,2.83,.31-.07,.71,0,.47,.17-2.38,1.36-.7,1.09-2.22,2.2-1.09,.25-.12-.9-1.57,.29-1.1,.34-.51-.44-.23-.81-.61,.58-1.29,.95-1.99,1.07-.7,.14-1.33,.18-1.77,.33l.72-.51c-.43,.31-.82,.47-1.22,.64l.64,.24c-.5,.13-.9,.3-.97,.11-.39,.49,.69,.6-.18,1.36-.75,0-1.96,.95-2.39,.43,2.16-.52-.42-.52,1.3-1.23-.31,.19-.73,.33-1.24,.42-.1-.04,.03-.15,.15-.23-1.07,.08-1.24,.31-1.41,.6-.17,.3-.34,.67-1.4,.95,.18-.42-.65-.52-.98-.36,.84-.22,.55,.46-.17,.94-1.44,0-1.46,.5-2.2,.61l.86-.04c-.21,.4-.92,.49-1.89,.8-.13-.26,.86-.36,.49-.41-.99,.85-2.56-.31-4.01,.32-.73-.18-.13-.65-.75-.78-1.66,.53-1.85-.34-3.6,.04,.51,.49,.61,.37-.65,.81,.49-.05,.99-.09,1.48-.15l1.46-.25c-.62,.26-1.24,.55-1.87,.78,.9,0,1.88-.39,2.42-.33-.88,.44-.8,.31-.35,.69-.64-.33-1.24-.18-1.87-.02-.63,.12-1.3,.28-2.02,.02l.07-1.18c-.52-.14-1.02-.17-1.51-.15-.49-.02-.98,.03-1.49,.07-1.02,.09-2.15,.24-3.49-.16l.85,.34c-.43,.41-1.7-.2-2.61-.15,.15-.38-.37-.59-.69-.93-.02,.3-1.94-.48-2.37,.23-.36-.27-.72-.5-1.06-.8-1.03-.43-1.71-.35-2.4-.26-.34,.05-.69,.09-1.08,.08-.38-.04-.8-.14-1.29-.37,.76-.16-.05-.78,1.38-.55-.66-.26-1.23-.57-1.34-.31-.28-.4-2.07-.2-2.5-.86-.34,.03-.6,.36-1.32-.02-.05-.11,.09-.17,.09-.17-.08,.18-1.26-.31-.81,.39-.36-.53-.92-.91-1.5-1.34-.59-.42-1.26-.79-1.93-1.15-.33-.18-.67-.36-.99-.54-.31-.2-.6-.41-.87-.62-.54-.42-.98-.87-1.22-1.35-.34-.2-.71-.39-1.06-.62-.34-.24-.7-.49-1.04-.73-.69-.49-1.37-.98-1.93-1.42,.15-.03,.13-.15,.32,.05-.64-.76-1-.77-1.45-.79-.43-.03-.92-.07-1.53-1.05-.31-1.26,1.06,.62,.75-.06,.37-.57-.12-.99-.72-1.52-.58-.54-1.34-1.17-1.43-1.99l.26,.24c-.28-1.12-1.93-1.95-2.69-3.66,0,0,.14,.03,.18-.08-1.15-.82-2.29-3-2.94-4.71,.63,.41,.5,.71,.88,.24-.29-.75-.74,.47-1.3-1.07,.12-.58,.14-1.79,.64-2.03l.35,1.46c.53-.9-.44-1.88-.43-2.69l.32,.05c-.42-2.23-1.22-2.2-1.28-4.72l-.23,.27c-.82-1.37,.4-1.16-.16-2.54l.8-.4c-.18-.9-.6-3.21-.52-4.88,.45,1,.56,2.92,.87,4.1,.03-.89,.17-3.01-.15-3.52,.04,.37,.17,.84,.02,1.18-.51-1.15-.63-2.66-.28-4.45,.34,.14,.58-.04,.78-.39,.1-.18,.2-.4,.28-.66,.07-.2,.14-.43,.22-.67,.1-.32,.2-.67,.34-.93,.14-.23,.27-.46,.5-.21,.08,.1,.15,.21,.22,.32,.16-.08,.46-.01,.74,.11l.21,.1,.35,.18c.36,.2,.72,.39,1.09,.59,1.46,.82,2.94,1.73,4.62,2.53-.65-1.66,.99,.46,1.34-.73,.82,.33,1.1,.5,1.13,.61,.67,.62,1.33,1.25,1.98,1.89,.37,.61-.85-.16-.91,.12,1.6,.99,.45,.83,1.35,1.72,0-.51,.88-.22,1.68,.46-.32-.42-.65-.83-.99-1.24,1.29,.38,1.64,.9,1.96,1.41,.16,.26,.32,.51,.58,.76,.13,.12,.29,.24,.47,.36,.09,.06,.2,.12,.32,.17,.09,.04,.09,0,.16,0-.07,.03-.12,.07-.19,.09l-.41-.06c.42,.24,.38,.17,.47,.21,.05,.03,.21,.09,.21,.17,0,.04,.02,.08,.04,.13,0,.04,.03,.03,.03,.12-.02,.2-.04,.39-.05,.58-.03,.37,0,.72,.06,1.03,.06,.31,.13,.58,.26,.79-.13,.32-.44,.81-.57-.05-.04,1.2,.29,2.37,.75,3.4,.47,1.04,1.09,1.92,1.73,2.7,1.27,1.58,2.59,2.75,3.36,3.95l-.4,.02c.54,.42,1.22,.41,1.62,1.18-.11,.06-.4,.04-.18,.26,.33,.17,1.66,.76,2.22,1.42l-.79-.21c1.21,1.24,2.4,1.86,3.57,2.33,.59,.24,1.17,.44,1.77,.66,.3,.11,.57,.21,1.03,.43,.2,.12,.45,.12,.69,.18,.18,.03,.36,.07,.54,.1-.27,.84,2.18,1.84,3.48,2.28l-.07,.11c1.96,.49,3.73,.62,5.46,.5l1.29-.09c.43-.06,.86-.13,1.3-.19,.87-.1,1.75-.31,2.68-.49,.62,.21,1.43,.18,2.37,.08,.95-.05,1.98-.4,3.06-.72,.55-.14,1.06-.41,1.59-.63,.53-.23,1.05-.47,1.57-.7,.97-.57,1.96-1.06,2.84-1.52-.56,.24-.32-.62,.14-1.11,.81-.43,1.51-1.98,1.92-1.32-.07,.07-.16,.14-.24,.2,1.01,.13,2.21-1.35,3.18-2.4l-.66-.87c.85-.46,1.64-1.2,2.36-2.05,.65-.9,1.17-1.88,1.72-2.87,.2-.36,.4-.71,.6-1.05,.15-.16,.06-.4,.08-.59,0-.2,0-.4-.01-.6,0-.31-.01-.61-.02-.9,0-.24,0-.47,0-.69-.02-.9,.09-1.65,.4-2.18-.35-.88-.46-1.99-.89-2.83l.57-.05c-.06-.64-.17-1.19-.27-1.72-.09-.53-.23-1.02-.39-1.53-.29-1.02-.75-2.09-1.59-3.52,.23,.13,.44,.27,.67,.41-.89-1.73-2.57-1.22-3.59-2.42,.11-.31,.21-.62,.31-.94-1.08-1.19-2.23-2.38-3.58-3.31-1.34-.94-2.86-1.6-4.46-1.69,.08-.1,.25-.32,.75-.17-.7-.27-2.06-.82-3.24-1.02-.15-.02-.29-.04-.43-.07-.14-.02-.38-.05-.58-.06-.4-.03-.75-.03-1.02,0-.54,.07-.73,.24-.48,.55-.07-.39-1.37-.5-2.72-.29-2-.45-1.17,2.17-1.21,3.17-.19-.22-.37-.44-.54-.66,.31,1.24,.57,1.81,.72,2.42,.04,.15,.08,.3,.11,.47,.02,.08,.03,.17,.05,.25,.01,.06,.03,.13,.04,.2,.06,.28,.11,.61,.15,1.06-.07,.42-.45,.37-.3-.19-.29,1.41,.53,1.1,.23,2.81l-.36-.64c-.04,1.45,.15,1.34,.56,2.14,.11,.46,.08,1.14-.05,1.75-.13,.55-.34,.7-.6,.69,.15,.09,.33,.29,.46,.56,.12,.27,.19,.61,.12,.83-.19-.1-.31-.39-.37-.52-.11,.3-.1,.59-.04,.96,.08,.44,.16,.83,.23,1.21-.22-.02-.56-.2-1.01-.75-.11-.29-.2-.46-.28-.57,.34,.23,.65,.44,.89,.6,.02-.34,.04-.54,.06-.46-.26-.37-.41-.44-.58-.66-.18-.2-.37-.61-.73-1.24,.08,.14,.17,.33,.27,.56,.12,.32,.12,.59-.02,.68-.14,.09-.42,.01-.62-.23-.02-.07-.04-.14-.05-.24l.05-.04c-.09-.12-.17-.11-.29-.08-.13-.18-.05-.21-.53-.52,.08-.46-1.38-1.15-2.03-1.59-.25,.51-1.06-.11-.5,.79-.08-.1,.16,.02,.61,.28,.11,.05,.23,.12,.31,.13-.02,0-.05,0-.07,.01,.44,.27,1,.61,1.65,1-.67-.09-1.34-.23-1.9-.95-.53,.09-1.1,.17-1.4,.18-.48-1.23-1.98-2.69-1.96-3.25-2.17-1.01-4.82-2.82-6.65-2.73-.64-.25-.49-.67-.61-.95,.39,.12,.77,.38,1.03,.37-1.28-.49-3.43-2.05-4.09-1.61-1.25-1.19,1.17-.06-.86-1.21l.39-.02c-1.62-1.73-3.45-2.33-5.31-3.01-.93-.34-1.87-.69-2.79-1.21-.23-.13-.46-.27-.69-.42-.23-.15-.35-.25-.51-.39-.3-.27-.55-.57-.65-.85,.07,.15,.12,.24,.03,.33-.32-.3-.62-.55-.95-.8,.66-.58,1.18-1.12,1.73-1.73l2.65-2.84c1.8-1.91,3.64-3.74,5.75-5.19,1.3-1,1.09-1.46,1.54-2.41l.68,.18,.71-1.69c1.34-2.06,4-1.9,5.47-4.74h-.57c.83-.73,2.28-2.63,2.49-2.17,.03-.13-.05-.55,.41-.71l.25,.2,1.52-2.29c1.64-1.31,.66,1.12,2.85-.99,.71-.89,1.63-2.93,1.18-2.78-.33,.31-.96,.69-1.21,.49l.62-.85c-.53-.79-.64-2.03-2.89-.69l-.85,1.65-.72,.08,1.03-1.07c-.9,.3-1.01,.94-1.25,1.55-.27-.07-.56-.01-.88,.17l-.6,1.86c-.41-.11,.04-1.06-.93-.38-.28,.87,1.13,.03,.37,1.17-.9,.3-.97-.12-1.41,.84-.27-.07-.23-.33-.02-.68-.42,.83-1.57,1.74-1.54,2.41-.99,.25-2.02,2.21-2.58,1.52-.05,.35-.61,1.59-1.16,2.19,.3-1.8-2.19,2.11-2.72,1.03-.11,1.45-2.51,3.1-3.51,4.85,.02-.13,.07-.39,.22-.48-.83,.72-1.26,.74-1.88,1.11,.45,.65-.62,1.99-.93,2.98-1.48,.41-.07-1.23-.89-1.44,.5,.4-1.2,2.1-.5,2.15-1.06,.4-.79,.47-1.62,.38,.57,.82-.56,.79-.74,1.82-.35,.18-.57,.23-.76,.28-.23,.09-.37,.09-.49,.12-.24,.05-.46,.23-1.36,1.33-.64,.43-.61,.17-.37-.24,.24-.41,.67-.97,.67-.97Zm30.29,25.03s0,.01,0,.01c-.42-.25-.77-.46-1-.6,.21,.12,.49,.29,1,.58Zm4.02,2.55c-.51-.35-1.12-.74-1.76-1.14-.24-.38-.19-.59,.18-.34-.13,.07,.82,.81,1.58,1.48Zm-5.86-8.35c.48,.21,.57,.4,.56,.53-.21-.12-.46-.26-.8-.43-.02,0-.06,.01-.09,.03,.1-.06,.2-.12,.32-.13Z"/>
      <path class="cls-3" d="M77.03,63.7c-.07-.03-.12-.03-.2-.08,.06,.1,.12,.19,.19,.27,.09-.02,.17-.03,.25-.05-.08-.05-.16-.1-.24-.14Z"/>
      <path class="cls-3" d="M116.12,59.63v.07c.01-.06,.02-.12,.05-.16-.01,.05-.03,.06-.05,.09Z"/>
      <polygon class="cls-3" points="98.51 70.28 98.65 70.27 98.51 70.02 98.51 70.28"/>
      <path class="cls-3" d="M107.88,43.83c0-.06-.03-.14-.13-.26-.01,.04,.05,.14,.13,.26Z"/>
      <path class="cls-3" d="M100.73,40.2c-.33-.19-.67-.37-1.01-.55,.43,.26,.75,.42,1.01,.55Z"/>
      <path class="cls-3" d="M94.9,38.27c-.1,.08-.13,.15-.17,.21,0,0,.01,0,.01,0l.16-.22Z"/>
      <path class="cls-3" d="M87.6,108.48c-.08,.02-.16,.04-.23,.07-.53,.21-.16,.1,.23-.07Z"/>
      <path class="cls-3" d="M111.78,93.14c-.1,.31-.22,.6-.38,.89,.37-.37,.63-.68,.38-.89Z"/>
      <path class="cls-3" d="M55.18,105.54s0,0,0,0c-.06-.03-.12-.06-.18-.09l.18,.1Z"/>
      <path class="cls-3" d="M110.53,95.07c.42-.32,.68-.67,.88-1.03-.3,.3-.67,.65-.88,1.03Z"/>
      <path class="cls-3" d="M80.34,27.7v-.29s-.07,0-.09-.03l.09,.32Z"/>
      <path class="cls-3" d="M80.25,27.39l-.09-.31c.01,.15,.02,.27,.09,.31Z"/>
      <path class="cls-3" d="M79.98,26.41l.19,.66c-.01-.23-.02-.52-.19-.66Z"/>
      <path class="cls-3" d="M80.62,35.41h.2s-.11-.01-.2,0Z"/>
      <path class="cls-3" d="M80.76,36.65c.01-.17,.1-.45,.17-.67,.07-.23,.12-.41,.05-.56h-.16c.16,.06,.05,.27-.05,.57-.1,.29-.18,.68-.01,.66Z"/>
      <path class="cls-3" d="M88.99,39.77c-.65-.13-1.3-.26-1.96-.37,.33,.25,.75,.58-.15,.55,2.41,.9-.46-.55,2.11-.17Z"/>
      <path class="cls-3" d="M94.97,41.14c-1.05-.14-.06,.31-.14,.42,.69-.05,.87-.06,.14-.42Z"/>
      <path class="cls-3" d="M117.03,73.25l-.5-.14c0,.8,.2,.02,.5,.14Z"/>
      <polygon class="cls-3" points="118.01 82.2 118.56 81.48 118.22 80.97 118.01 82.2"/>
      <polygon class="cls-3" points="112.8 85.55 112.88 85.21 112.48 86.45 112.8 85.55"/>
      <path class="cls-3" d="M49.81,96.97l-.15,.66c.51,.22,.99-.32,.15-.66Z"/>
      <path class="cls-3" d="M34.33,71.69c.29-.36,.48-1.23,.17-1.78-.04,.71-.28,1.42-.17,1.78Z"/>
      <polygon class="cls-3" points="100.09 79.42 99.82 80.1 100.51 78.95 100.09 79.42"/>
    </g>
  </g>
</svg>