<?xml version="1.0" encoding="UTF-8"?>
<svg id="UI" xmlns="http://www.w3.org/2000/svg" viewBox="0 0 1129 106">
  <defs>
    <style>
      .cls-1 {
        fill: #083538;
      }
    </style>
  </defs>
  <path class="cls-1" d="M1127.28,94.65c-.11,3.55,1.15,2.27,1.37,2.81-.28-5.93-1.7-2.66-1.37-2.81Z"/>
  <polygon class="cls-1" points="1124.42 36.11 1124.94 37.14 1123.68 28.51 1124.42 36.11"/>
  <path class="cls-1" d="M1089.62,7.23c2.59,1.07,7.55,.98,13.08,.73,2.9-.13,5.2-.3,9.51-.39,3.86-.09,7.68-.11,10.8,.09l.79,.23-.26,1.37c.57,1.39,1.15,2.99,1.72,4.82-.05-2.4-.11-4.91-.16-7.49-3.94,.11-8.02,.23-12.09,.34-3.25,.11-6.49,.22-9.6,.33-5.34,.18-10.22,.24-13.8-.01Z"/>
  <path class="cls-1" d="M1060.43,2.6c1.8,.83-6.31,.72,6.81,.26-.66-.09-.85-.14-1.23-.21-1.18,.01-2.81,.01-5.57-.05Z"/>
  <path class="cls-1" d="M1066.01,2.65c5.77-.06-3.77-.7,0,0h0Z"/>
  <path class="cls-1" d="M1039.38,3.13l7.59-.74c-1.59-.49-8.35-.6-5.83-.96-7.79,.41-6.19,.9-1.76,1.7Z"/>
  <path class="cls-1" d="M1032.18,4.69l3.94-.31c-.69-.21-1.73-.28-3.94,.31Z"/>
  <path class="cls-1" d="M1044.46,3.71l-8.35,.66c1.1,.35,1.22,1.04,3.83-.24-.68,.63,.97,.02,4.51-.42Z"/>
  <path class="cls-1" d="M1049.19,4.04c4.26,.47,9.76,.76,2.14,1.5,14.53-.29,12.39-1.8-2.14-1.5Z"/>
  <path class="cls-1" d="M1086.83,9.45l5.7,.63,4.93-.72c-2.46,.36-10.98-.58-10.62,.09Z"/>
  <path class="cls-1" d="M992.07,2.02c-.47,.46,2.55,1.21,3.12,1.8l5.61-.52c-2.88-.31-8.35-.6-8.73-1.27Z"/>
  <path class="cls-1" d="M995.19,3.82l-8.39,.78c7.5,.09,8.87-.28,8.39-.78Z"/>
  <polygon class="cls-1" points="1030.82 7.07 1044.61 5.43 1028.17 7.09 1030.82 7.07"/>
  <polygon class="cls-1" points="960.01 1.96 964.77 .91 956.29 2.5 960.01 1.96"/>
  <path class="cls-1" d="M938.75,2.15c3.52-.87-4.83-1.48-1.1-2.02-5.78,.16-10.71,.91-15.15,1.58,4.72-.38,9.75-.28,16.25,.43Z"/>
  <path class="cls-1" d="M915.04,2.7c2.36-.21,4.8-.58,7.46-.98-2.51,.2-4.97,.49-7.46,.98Z"/>
  <path class="cls-1" d="M972.5,4.38c-.65-.28-1.9-1-6.61-1.3l3.3,1.28c1.01,0,2.15,.01,3.31,.02Z"/>
  <path class="cls-1" d="M969.31,4.4l-.12-.04c-3.58-.04-6.07-.06-7.13-.07,.92,.01,3.1,.05,7.25,.11Z"/>
  <path class="cls-1" d="M973.33,4.38c-.31,0-.53,0-.83,0,.32,.13,.51,.17,.83,0Z"/>
  <path class="cls-1" d="M1008.82,5.91c-4.93,.72-15.21,1.49-5.26,2.58,3.54-.88-2.16-1.5,5.26-2.58Z"/>
  <path class="cls-1" d="M977.43,5.98l8.92,.29c-.18-.34-1.78-.83,.66-1.19l-9.57,.89Z"/>
  <polygon class="cls-1" points="973.06 6.39 977.43 5.98 974.12 5.88 973.06 6.39"/>
  <path class="cls-1" d="M930.31,3.9c-3.85,.56-8.06,.61-12.82,.69,5.1,.25,10.37,.39,15.38,.39,.71-.4,2.91-1.12-2.56-1.08Z"/>
  <path class="cls-1" d="M949.26,4.25c-.27,.02-.61,.05-.86,.07,.53,.11,.95,.14,.86-.07Z"/>
  <path class="cls-1" d="M870.64,4.58c.26,.08,.49,.15,.75,.23,.06-.08,.1-.15,.18-.22h-.93Z"/>
  <path class="cls-1" d="M933.72,5.21c3.83,.25,6.12-.07,8.31-.46-2.87,.13-5.9,.21-9.16,.22-.32,.18-.38,.3,.86,.24Z"/>
  <path class="cls-1" d="M901.97,3.3c2,.27,4.26,.49,6.64,.7-1.95-.41-5.93-1.04-6.64-.7Z"/>
  <path class="cls-1" d="M947.11,3.97c.19-.02,.37-.04,.57-.06-1.26-.28-1.1-.14-.57,.06Z"/>
  <path class="cls-1" d="M947.11,3.97c-1.97,.18-3.52,.5-5.08,.78,2.33-.1,4.5-.24,6.37-.43-.47-.09-.95-.23-1.29-.35Z"/>
  <path class="cls-1" d="M856.45,12.81c.68-1.19,10.75-2.29,19.45-1.01,8.56-.89,2.96-4.8-4.51-6.98-.27,.52-.27,1-9.08,1.7,3.08,.65,19.55,1.52,12.12,2.59-11.67,.61-9.56-.42-15.24-1.05,4.82,1.48-14.85,2.15-12.31,4.33l10.23-.77c.19,.34-3.52,.88-.68,1.19Z"/>
  <path class="cls-1" d="M888.18,4.94l3.63-.15c-4.13-.21-7.09-.68-12.54-1.61-6.03,.58-7.28,1.02-7.7,1.42l17.85,.17-1.24,.18Z"/>
  <path class="cls-1" d="M908.08,4.78c-2.83,1.29-11.54,1.84-6.21,3.24,10.64-.09,7.45-1.08,13.81-1.64-17.17,.32,4.93-.72-7.47-1.45,3.37-.22,6.41-.29,9.27-.34-3.09-.16-6.07-.35-8.88-.59,.16,.03,.27,.05,.39,.08h.08s-.02,0-.02,.02c.74,.16,.98,.26,.15,.17-.06,.02-.27,.02-.36,.03-.12,.18-.43,.34-.78,.49-4.97-.27-.78-.34,.78-.49,.06-.06,.19-.12,.21-.19-.02,0-.04-.01-.06-.02l-17.2,.71c3.64,.18,8.2,.14,16.28,0Z"/>
  <path class="cls-1" d="M994.38,11.27c-.53-.11-.51-.21-.55-.3-1.11,.16-1.53,.27,.55,.3Z"/>
  <path class="cls-1" d="M987.31,10.49c1.25-.18,2.29-.7,6.36-.56,3.53,.39-.02,.62,.17,1.04,2.45-.34,8.57-.93,.89-1.56l-1.22,.18c-6.92-.44-15.82-2.06-14.61-2.23,2.02,1.16,3.8,1.99,8.41,3.13Z"/>
  <path class="cls-1" d="M947.2,7.97l-14.32,.63,7.29,1.12-.37-.67c8.14,.26,6.39-.56,7.4-1.08Z"/>
  <polygon class="cls-1" points="869 3.94 870.9 2.57 862.63 4.5 869 3.94"/>
  <polygon class="cls-1" points="850.39 4.1 851.08 2.91 846.17 3.63 850.39 4.1"/>
  <path class="cls-1" d="M123.24,90.34l4.21-.34c-1.99,.1-3.27,.22-4.21,.34Z"/>
  <path class="cls-1" d="M92.77,90.26l-.75,.58c1.41-.32,1.99-.56,.75-.58Z"/>
  <path class="cls-1" d="M393.32,4.24c-6.13-1.11-12.98-2.83-12.24-1.49l1.88,1.3c4.28-.23,7.57-.09,10.35,.19Z"/>
  <path class="cls-1" d="M80.29,12.01c.58,.13,1.19,.26,1.79,.4,1.49-.45,2.89-.87,4.14-1.25-1.78,.26-3.81,.55-5.93,.85Z"/>
  <path class="cls-1" d="M75.97,17.39l-8.08-.84c1.82,.29,4.41,.57,8.08,.84Z"/>
  <path class="cls-1" d="M289.62,88.96l4.91-1.33c-7.68,0-4.3,.68-4.91,1.33Z"/>
  <path class="cls-1" d="M659.78,4.58c-5.29-.51-9.5-.72-13.2-.79,6.37,.75,11.51,1.87,13.2,.79Z"/>
  <path class="cls-1" d="M111.25,104.15c2.57-.24,3.68-.5,3.6-.79-2.65,.22-4.15,.47-3.6,.79Z"/>
  <path class="cls-1" d="M631.31,3.8c.93,.13,1.85,.2,2.8,.31,3.87-.22,7.76-.39,12.48-.31-4.71-.56-10.1-.9-15.28,0Z"/>
  <path class="cls-1" d="M893.06,90.03c.44,.06,.97,.09,1.37,.16,.13-.18-.47-.19-1.37-.16Z"/>
  <path class="cls-1" d="M1068.86,103.17c-1.73,.08-4.55,.08-7.22,.1,1.3,.09,3.47,.08,7.22-.1Z"/>
  <path class="cls-1" d="M775.51,3.53c3.95-.08,.63-.14,0,0h0Z"/>
  <path class="cls-1" d="M794.71,8.68c-.84,.15-1.48,.33-1.58,.63,.32-.31,.87-.51,1.58-.63Z"/>
  <path class="cls-1" d="M591.99,11.9c-.12,0-.21,0-.34,0,1.17,.26,.97,.21,.34,0Z"/>
  <path class="cls-1" d="M781.45,4.13c-1.48-.16-3.19-.29-5.05-.39,.82,.1,2.35,.23,5.05,.39Z"/>
  <path class="cls-1" d="M780.65,3.51c1.36,.05,2.43,.09,3.45,.13,.5-.22,.06-.35-3.45-.13Z"/>
  <path class="cls-1" d="M770.01,3.6c2.26-.02,4.36,.04,6.39,.14-.78-.09-1.1-.16-.89-.21-1.16,.01-2.79,.04-5.5,.07Z"/>
  <path class="cls-1" d="M569.74,93.52c.26,.04,.56,.07,.85,.12,3.98-.54,2.23-.45-.85-.12Z"/>
  <path class="cls-1" d="M290.59,17.75c.19-.01,.28-.05,.45-.06-.18-.01-.42-.03-.58-.05l.13,.11Z"/>
  <path class="cls-1" d="M276.41,18.72c6.04-1.62,9.47-1.42,14.04-1.08l-4.69-3.75-9.35,4.83Z"/>
  <path class="cls-1" d="M196.18,89.96l-9.96-1.17c12.02-1.92,20.71-1.26,11.36-2.91-1.41,4.08-38.7,.42-40.08,4.49l-6.56-.86c1.88,.04,2.18-.2,4.04-.16-12.76-1.95-9.48,2.95-25.93,2.37-5.73-.31-9.73-.9-5.82-1.39l-12.77,1.01c-3.72-.08-2.81-.79,.89-.71l-19.48,.33,.14-.12c-2.78,.64-9.08,1.63-12.15,2.05-4.95-.58,2.48-.43,1.22-.94l-10.79,.99c-4.39-1.06,4.55-2.08,12-1.93-10.07-4.07-8.95,1.03-30.69-1.35l10.18-.52c-6.57-2.31-14.51-1.47-26.03-2.92,2.73,.75,23.05,3.63,11.35,4.65-3.3-.31-7.65-.45-13.96,.37-.06-1.45-6.22-1.09-13.94-1.01l.53-1.92c-1.04,.07-1.94,.15-2.73,.23-.2,.02-.39,.04-.57,.06l-.27,.03-.06,.03c-.09,.05-.17,.09-.24,.13-.32,.18-.61,.38-.91,.59-.61,.42-1.19,.88-2.54,1.31-.38-.02-.71-.05-.97-.1,.39-3.37,1.71-4.2,2.83-4.6v-.11c.01-.2,.02-.38,.02-.56,0-.39,0-.74,0-1.06,0-.64-.02-1.14-.04-1.52-.04-.77-.13-1.08-.23-1.08-.21,0-.53,1.19-.87,2.3-.68,2.23-1.44,4.12-1.62-4.7,.73-12.38-.05-21.08-1.2-35.89,.66-8.67,1.17,1.52,1.72-1.59l-1.53-7.68c.04-1.88,.51-1.27,.74-.96-.3-3.24-.78-3.37-1.25-3.97-.24-.3-.47-.71-.67-1.69-.1-.49-.2-1.12-.29-1.94-.04-.41-.08-.87-.12-1.39-.02-.26-.04-.53-.06-.82-.02-.19-.03-.39-.05-.6-.93-.79-.45-3.96,.18-6.61,2.55,.4,4.95,.87,7.01,1.06,.08,.01,.36,.02,.61,.03l.74,.03,1.48,.03c.98,0,1.96,0,2.93-.04,1.93-.08,3.81-.27,5.57-.6,3.1,.54-1.5,1.18-.55,1.92,17.28-1.57,14.81-1.14,29-3.26l12.09,1.26c-8.88-1.44,2.47-3.15,12.41-4.55-3.15-.7-5.84-1.3-7.65-1.6l15.86-1.03c1.92,.32,.32,.97-2.28,1.78,1.08-.16,2.11-.31,2.91-.46,5.67,.71,2.73,1.82-1.33,2.89-1.93-.38-3.85-.78-5.71-1.18-3.92,1.17-7.58,2.46-6.77,3.58,1.03-.22,3.02-.41,5.2-.52-1.02,.32-1.68,.6-1.2,.79,.54,.2,2.19-.22,4.79-.71l3.61,2.14,.87-.85,20.75,1.34c14.85-2.15,27.76-5.32,51.33-6.21-5.85,1.57-1.26,2.56-1.57,4.42-6.43-1.97-18.25,.84-30.47,.44,6.37,.21,4.97,1.09,3.35,1.4l21.78-1.79c-.49,1.52,4.63,1.14,10.32,1.77-4.3-3,16.24-2,25.1-2.92,.55,1.01-1.57,2.04-12.39,1.8,11.93,2.26,15.42-3.53,27.13-1.61-2.64,.02-4.06-.13-5.11,.38,6.17-.9,21.24-.19,17.7,.69l-2.63,.02c17.53,.36,53.36,.02,55.98-2.53,.18,.33-2.3,3.08-3.36,3.59l31.28-8.59c-2.76,2.19,7.82,7.41-6.71,8.65,4.17,.31,9.34,.68,18.14-.1-2.85-.31-7.1-3.17-3.21-3.37,10.68,2.44,7.41,1.31,20.58,3.39-4.27-.47,.47-3.91,7.22-3.8-1.05,.51,.56,3.39-1.9,3.75l16.79-3.37c-4.19,.61-.74,2.86,3.02,3.81-1.74-.66,14.51,.06,18.99-.27l-7.12-.78c18.95,.51,18.72-4.74,37.52-4.57-2.28,.7-5.62,4.29,3.94,4.71,4.38-1.73,19.4-8.31,36.04-9.64l3.19,.99,12.76-1.12c-7.95,2.6-30.25,8.07-42.43,10.2,7.09,.78,1.98,1.16,12.6,1.08,3.75,.93-5.79,1.4-8.92,1.46l24.73,.6c-1.1-2.02,18.91-2.02,17.97-3.7l-26.86,2.09c-1.09-2.01,15.53-5.72,33.05-5.37,4.46,.8-3.33,3.59-2.97,4.26,2.27-.69,16.63-1.33,18.24-.83l-7.43,1.08c9.75,.76,15.92-2.67,27.64-.75,4.05,.13,12.08,2.6,12.78,1.4-6.6-2.3-7.89-9.42-3.49-11.15,1.42,.16,21.24,2.2,25.86,3.34,6.66,1.8-10,4.3-4.33,5.85,.24-.55,3.92-1.23,5.46-1.45,4.25,.47-1.76,1.71,7.47,1.46,1.54-2.05,18.78,.17,4.37-1.73,9.03-.58,9.6,.42,20.2,.33-3.38-1.32,9.52-4.5,18.57-5.08-.53,.52,1.5,1.2,2.48,1.51,18.51,.18,28.45,1.11,45.71,1.13,1.59,.5,9.92,1.09,6.37,1.97,2.48-.36,4.76-1.05,10.09-1.1,10.3,1.77-11.87,.28-4.02,2.4,.67-1.19,13.77-1.64,21.35-2.38-2.33-1.84-17.52-.35-25.12,.39-.04-2.53,13.19-5.18,31.23-6.35,14.34-.63,6.22,1.64,8.71,1.28,26.93,.44,22.95-4.42,45.31-2.59,8.87,1.61,.4,3.21,2.37,4.37-11.68,.61-17.93-1.02-25.85-.96l9.75,.76c-3.72,.54-11.51,.94-15.76,.48,7.44,1.45,45.5,.28,66.29,1.62,3.69-.54,10.06-1.1,7.05-1.75l-6.57,.23c-6.04-1.3,12.37-1.8,4.05-2.41,8.82-.92,18.71-2.35,31.12-1.62l2.33,1.84c-.27-.54-8.12-1.1-11.61-.53,5.18-.82,19.04,2.49,24.71,.08l-8.7-1.27c8.86-.92,19.8-2.88,30.81-2.3-5.01-1.82-2.54,.21-10.36-1.92,6.78,2.64-28.15-.11-17.26,2.67-8.02-2.47-13.89-1.05-24.38-3.15,.32,.61,3.72,1.16-5.52,.86-.42,.18-1.4,.4-2.03,.53-.28-.02-.38-.03-.62-.05,.18,.03,.32,.05,.51,.07-.4,.09-.44,.11,.19,.02,2.2,.27,3.98,.58,4.71,.92-4.59,1.39-19.28,1.35-24.24,2.07-5.48-.29,2.29-.7-.7-1.34l-7.42,1.08c-.73-1.35-14.56-2.24-1.65-3.03l-11.62-.06c-6.84-.76-16.26-1.06-22.06-.49-5.48-.29-13.85,1.49-9.07,.44l-18.23,.83-.17-.34c-17.98-.17-37.02,2.23-57.58-.2-6.06,.34-12.31,.76-22.44,.37l-1.98-1.17c-7.77,.41-23.35-1.17-26.69,.05-8.39-3.14-37.73-.68-51.4-1.24l-.52,1.52c-9.41-.09-18.43,.35-30.12,.96l.72,1.34c-10.07,1.1-25.89-.96-41.82-.82,1.08-.51,5.12-.38,7.98-.07-19.03-3.04-40.16,2.21-57.42,0-4.3,.49-7.42,.32-10.43-.02,.4,0,.76-.03,1.07-.07-.44-.02-1.1-.02-1.77-.02-1.9-.23-3.86-.5-5.97-.72,1.8,.33,3.53,.6,5.03,.72-3.32,.03-8.35,.2-13.28,.53l-2.1-1.44c-.4,.01-.72,.03-1.14,.04-4.84-.53-3.89,.68-1.31,1.77-2.48,.24-4.76,.52-6.52,.87-3.93-2.33-12.94,.79-18.3-1.7-3.32,1.21-24.79,.91-27.42,3.46-.17-.33-1.62-.49,1.04-.51-5.5-.29-10.99-.58-15.92,.14l-2.33-1.84-12,2.47c-7.29-1.12-10.32-1.77-3.08-3.18-17.49,2.17-14.19,.82-29.06,2.97l.73-1.19c-5.32,.05-13.81,1.64-17.02,.65-11.89-2.26-58.84-.31-89.36-2.41,5.92,3.5-14.19-1.57-15.4,1.14-1.78-.83-6.03-1.29-1.09-2.01-15.58,.81-23.4-1.31-34.16,.97-1.78-.83,3.33-1.21,1.75-1.7-1.25,.18-4.95,.72-6.57,.23-1.59-.49,2.28-.69,4.75-1.05-15.91,.14-17.52,2.69-18.68,5.08-8.06-1.13-12.09-.97-17.91,.6-2.81-.78-7.49-1.6,2.4-1.88-5.56-.11-33.98-1.15-34.55,.77-1.74-.49-7.77-.14-9.24,.08-6.24-.08-9.64-.12-13-.16-2.8-.03-8.05-.03-16.09,.06l4.74,.31c-1.83,.82-3.69,1.12-6.12,1.19,.06,2.28-.09,4.62-.22,7.5-.07,1.44-.13,3-.17,4.72-.01,.81-.02,1.64-.03,2.51,0,.74,0,1.51,.03,2.3l-.24-.28C-.21,48.61,2.25,35.74,.35,58.09l1.44-1.22c1.55,1.04,1.09,5.99,.4,12.3-.35,3.16-.75,6.65-1,10.17-.12,1.76-.21,3.52-.22,5.25,0,.43,0,.86,0,1.29,.01,.56,.02,1.12,.03,1.67,.03,1.1,.08,2.18,.15,3.2l.41-3.09,.21-1.48c.07-.51,.14-.81,.21-1.23,.12,.75,.16,1.91,.13,3.08-.03,1.18-.13,2.45-.28,3.83-.3,2.76-.81,6.01-1.37,9.73,2.92,.64,6.31,1.36,9.9,1.94,1.79,.29,3.62,.55,5.39,.75,.52,.05,.69,.1,.98,.14,.27,.04,.54,.08,.79,.11,.52,.07,1.02,.11,1.49,.14,.78,.13,.16,.24-.91,.34-.54,.04-1.19,.09-1.85,.14-1.08,.05-2.16,.1-3.05,.14,.98,.05,1.9,.11,2.76,.16,.55,.04,1.06,.09,1.54,.12,.91,.07,1.7,.13,2.38,.16,1.37,.07,2.32,.08,2.97,.03,1.32-.1,1.47-.4,1.47-.78,.01-.75-.57-1.79,6.37-2.01,2.56,1.02-3.3,2.59,6.04,2.77,4.65,.82,27.1-3.3,39.85-1.35-2.81-.78-5.6-1.57,.85-2.15,9.88-.28,26.72,2.96,35.64,.49,1.26,.21,1.73,.42,1.78,.61,7.55-.64,24.55-1.06,29.1-2.4,6.98,4.97,46.96-2.42,46.79,2.17l23.24-.25-.61,.47c14.85,.3,20.1-.8,25.32-1.9,3.43,.31,.93,.74,.64,.98,21.7,.92,23.86,.73,42.05-1.55l1.89,1.49c4.93-.86,31.38,2.33,52.66,.6-.21,.17-.65,.46-2.34,.67,23.95-1.74,57.33,4.12,66.11-1.29l15.8-1.33c-20.45-.42,3.04-2.35-5.37-3.25,8.04-.32,20.79,1.63,10.91,1.91l-1.55-.27c-3.63,2.82,25.41,1,24.86,2.92,40.23-.14,79.44,1.42,117.13,1.54l-4.34-2.19,13.15,.13c3.45,.51,4.63,1.72-4.75,1.63,4.93,1.24,15.73-1.04,15.99-1.52,18.36,.89-7.17,2.56-1.54,2.61l7.65-.16-1.72-.26c6.2-.9,6.75-1.85,18.02-1.74,7.13,.44,3.66,1.35,6.47,1.44-.02,.16,.93,.23,4.31,.06l16.56,.19-6.62-1.73c7.34-.85,15.57,.09,7.93-1.87,11.22,3.03,61.78,1.09,68.66,2.03,10.28-1.26,20.43-1.24,33-1.09-3.12-.36-5-2.31,5.85-2.07-3.96,4.02,19.85,1.74,28.62,4.64-7.83-1.92,30.83-.47,18.54-3.2,9.05,.33,.55,1.5,7.41,2.45,21.53-1.56,47.46,1.01,74.07,.49,.41-.53-4.04-1.33,1.67-2.12l14.05,2.64c5.26-.26,4.84-3.05,14.44-1.21-1.36-.44-3.38-1.11,.14-1.28,52.14,2.57,106.55-2.11,159.51,2.72-7.17-1.02-2.39-1.12,3.08-1.16-3.56-.24,.08-1.3-.62-2.02l22.17,1.99c4.04-1.98,23.77-.13,26.08-2.03l-7.02,.34c9.34-2.24-13.06-4.98-11.7-7.85-10.45,2.55-27.57-3.77-44.72-.13-3.79-.59,3.23-.93,1.2-1.59-4.35,1.23-9.6,1.49-19.33,.94l1.1-.3c-27.34,.3-39.06-.91-69.77-1.72l2.27,1.42c-6.6-.19-7.99-.64-11.08-.99-7.57,2.15,18.53,.12,11.63,2.5-8.75-2.89-46.54-.04-52.45-3.33-10.15-.02,2.98,1.65-7.17,1.63l-2.69-.89-2.57,1.15c-6.66-.19-10.01-1.3-10.26-2.05,1.61,.09,4.59-.21,6.32-.28-8.63-1.05-24.34,.36-27.3,.02l9.75,.55c-27.71,.83-61.53-.34-88.3,1.47l2.03,.67c-20.44,1.24-16.37-.74-38.81-.16l.82-.16c-4.49,.67-10.49,1.01-16.63,.93,5.67-.79-10.66-1.53-3.23-2.39-22.16,1.33-10.96,1.05-25.6,3.54l-3.38-1.11c-4.99,1.01-5.41,1.54-16.61,1.83,9.19-.96-7.15-1.69,3.14-2.96-23.52-2.43-34.92,2.46-45.71-1.1-10.8,3.08,20.35,1.71,14.3,2.37,5.06,1.01-8.92,2.3-16.3,1.99-7.51-.07-12.78-3.94-31.67-3.88,1.88,.01,2.01-.22,3.88-.21-7.07-.79-13.86,1.06-22.53-.21-4.86,1.86-11.26-.11-12.67,2.27l17.34-.55c-9.83,.62-19.04,3.4-35.24,2.05,1.26-.48,6.08-1.11,9.39-1.46-4.73-.7-9.12,.46-14.02-.25,1.4-2.38,21.07-.52,31.6-2.33-5.08-1-19.92,1.72-14.63-.85-7.61,3.27-18.62-.41-31.42,2.09l.84-1.42c-2.02,.22-6.22,.9-9.95,.86l6.75-1.85c-10.36,1.57-19.98-1.38-29.92-.52,20.81-.04,4.67,1.72,13.47,2.75-25.67,1.91-14.76-3.72-43.5-3.04,3.89-.2,14.61,.86,8.52,1.51-5.47-.29-12.69-.84-16.05-1.59-19.04,.3,2.92,1.46-5.18,2.34-6.48-1.73-9.35,.71-17.7,1.26l-.06-1.45c-21.69-.93-5.75,3.02-25.28,1.89l8.26-2.01-10.18,.52,2.1-1.65c-11.08,1.22-14.53,.91-25.38,.44,2.52,1.02-1.42,2.63-11.03,2.67-6.55-.86,3.67-1.38-9.95-1.17,3.08-.91,6.44-2.04,12.37-.71,.61-.47,3.03-.91,3.66-1.37-7.06-.99-17.74-.23-22.67-.21,1.9,.05,4.17,.13,5.33,.34l-19.75,2.01c-3.11-.54-.64-.98,1.8-1.41-4,.16-6.77,.82-12.65,.95,1.52-1.18,1.16-2.39,9.48-2.94l-18.81,1.31c-1.26-.51-9.65-1.4-7.21-1.84-10.43-.69-25.59,2.28-39.41,1.37-.72,.23-2.16,.45-5.1,.61-13-.27-24.51-1.71-39.91-.1l-8.74-2.11c-12.06,.48,11.83,2.66-8.26,3.45-14.22,.67-5.31-1.8-10.3-2.39-7.07,1.06-19.37,3.23-32.43,1.51,4.32-.4,7.72-.09,11.76-.24Zm-148.78,.93c2.88-.3,8.63-1.24,10.74-.39-3.28,1.66-5.82,.86-10.74,.39ZM102.19,14.79c-2.14,.48-5.46,.24-9.2-.31,2.71-.12,5.79-.06,9.2,.31ZM732.25,4.71c-.12,.02-.21,.04-.31,.07-6.43-.56-4.15-.34,.31-.07Zm13.35,.63c1.34-.2,1.25-.4,.68-.6-.93,.37-3.93,.39-7.35,.29,.95,.38,2.67,.64,6.66,.32Zm-133.7,97.92l-2.6-.38c5.87-.42,4.23-.04,2.6,.38Z"/>
  <path class="cls-1" d="M76.55,16.77c-.82-.24-1.04-.51-1.23-.79-1.13,.24-1.16,.52,1.23,.79Z"/>
  <path class="cls-1" d="M288.71,89.2l.45,.02c.25-.09,.38-.17,.46-.26l-.91,.24Z"/>
  <path class="cls-1" d="M538.74,17.61c-2.75-.21-4.28-.47-5.3-.75-.15,.35,1.1,.65,5.3,.75Z"/>
  <path class="cls-1" d="M816.36,2.88l-8.55,.38c4.14-.07,5.61,.24,7.7,.47-.19-.34-1.82-.83,.85-.85Z"/>
  <path class="cls-1" d="M890.61,11.84c1.25-.18,2.65-.02,3.88-.2l-.34-.67c-5.33,.04-9.05,.59-3.54,.87Z"/>
  <path class="cls-1" d="M824.28,7.69c.68,1.22,6.04,.8,12.04,.58-.36,0-.7,.01-1.06,0,1.77-1.7-4.62-1.14-10.98-.58Z"/>
  <path class="cls-1" d="M837.71,8.23c1.85-.06,3.73-.09,5.54-.03,.7-.68-2.25-.14-5.54,.03Z"/>
  <path class="cls-1" d="M762.54,4.53c2.84,.31,1.78-1.56,3.39-1.06,3.17-1.55-18.94,1.88-3.39,1.06Z"/>
  <polygon class="cls-1" points="829.14 11.7 826.99 10.2 823.63 11.41 829.14 11.7"/>
  <path class="cls-1" d="M781.82,10.6l9.57,.42c-.14-.25,1.07-.4,2.57-.51-5.9-.05-12.36-.35-12.14,.1Z"/>
  <path class="cls-1" d="M793.96,10.5c3.07,.03,6,0,7.71-.25-1.66,.02-5.24,.07-7.71,.25Z"/>
  <polygon class="cls-1" points="816.05 12.15 813.22 11.84 806.46 11.73 816.05 12.15"/>
  <path class="cls-1" d="M678.9,10.31l-10.45,.43c-1.06,.52,1.78,.83,5.67,.63,2.5-.36,6.38-.56,4.78-1.06Z"/>
  <path class="cls-1" d="M710.5,14.42c-2.83-.31-3.02-.65-4.61-1.14l-.32,1.86,4.93-.72Z"/>
  <path class="cls-1" d="M680.03,14.86c-1.04,.52-15.17,1.48-1.92,1.37,1.06-.51,11.53-.94,1.92-1.37Z"/>
  <polygon class="cls-1" points="522.59 12.5 525.24 12.48 524.86 9.42 522.59 12.5"/>
  <path class="cls-1" d="M383.82,19.81c12.38,.73,2.94-1.89,14.13-.97,2.91-.72-9.15-.75-6.16-1.37-7.47,.76-11.4,.33-7.96,2.34Z"/>
  <path class="cls-1" d="M391.78,17.47c1.2-.12,2.47-.27,3.81-.46-2.16,.19-3.18,.34-3.81,.46Z"/>
  <polygon class="cls-1" points="1098.03 104.81 1105.99 105.45 1100.85 104.42 1098.03 104.81"/>
  <path class="cls-1" d="M1113.32,102.54l1.88,1.95,4.78-1.76c-1.8,.09-5.29,.25-6.66-.18Z"/>
  <path class="cls-1" d="M25.28,86.97l-.61,.47c1.23,.51,3.1,.54,6.83,.62l-6.22-1.09Z"/>
  <polygon class="cls-1" points="133.27 88.43 131.41 88.39 134.88 90.15 133.27 88.43"/>
  <path class="cls-1" d="M223.9,86.18c-3.7-.07-8.05,.32-11.76,.24,8.06-.32,12.76,1.95,11.76-.24Z"/>
</svg>