<?xml version="1.0" encoding="UTF-8"?>
<svg id="UI" xmlns="http://www.w3.org/2000/svg" viewBox="0 0 80 72">
  <defs>
    <style>
      .cls-1 {
        fill: #202020;
      }

      .cls-2 {
        fill: #a32e13;
        stroke: #000;
        stroke-miterlimit: 10;
      }
    </style>
  </defs>
  <path class="cls-2" d="M44.45,69.14s-16.28,7.33-37.18-32.92C-3.46,15.55,2.53-5.28,31.21,4.5c12.24,9.07,10.25,12.05,10.25,12.05,0,0,11.96-18.37,22.96-12.9,15.97,7.94,23.95,22.82-19.96,65.49Z"/>
  <g>
    <path class="cls-1" d="M46.29,70.61c-.28,.22,.1,.42,.11,.51,.36-.48-.19-.57-.11-.51Z"/>
    <polygon class="cls-1" points="49.79 65.86 49.83 66.04 50.14 65.15 49.79 65.86"/>
    <path class="cls-1" d="M53.59,61.95c-.84-.09-1.29,1.5-2.14,2.03h-.22s.09,.7,.09,.7c.76-.91,1.58-2.25,2.28-2.73Z"/>
    <path class="cls-1" d="M56.67,60.83c-.32-.05,.26-.62-.53,.44,.07-.03,.09-.03,.13-.04,.08-.09,.19-.21,.39-.4Z"/>
    <path class="cls-1" d="M56.28,61.23c-.38,.43,.42-.12,0,0h0Z"/>
    <path class="cls-1" d="M57.98,59.17l-.33,.73c.22-.01,.7-.49,.62-.23,.43-.67,.2-.65-.29-.5Z"/>
    <path class="cls-1" d="M58.09,58.3l-.19,.36c.1,0,.18-.07,.19-.36Z"/>
    <path class="cls-1" d="M57.5,59.42l.4-.76c-.16,0-.33-.13-.2,.34-.11-.19-.07,.07-.2,.43Z"/>
    <path class="cls-1" d="M57.1,59.7c-.4,.21-.85,.55-.5-.17-.92,1.12-.42,1.29,.5,.17Z"/>
    <path class="cls-1" d="M53.26,61.26l-.53,.27-.17,.51c.09-.25,.88-.67,.7-.79Z"/>
    <path class="cls-1" d="M61.41,55.86c-.08-.13-.46-.06-.64-.14l-.24,.54c.27-.15,.69-.51,.88-.4Z"/>
    <path class="cls-1" d="M60.77,55.72l.36-.8c-.51,.55-.51,.73-.36,.8Z"/>
    <polygon class="cls-1" points="57.61 57.69 57.08 59.07 57.78 57.49 57.61 57.69"/>
    <polygon class="cls-1" points="63.52 53.41 63.47 54 63.63 53.02 63.52 53.41"/>
    <path class="cls-1" d="M64.84,51.72c0,.45,.68-.08,.57,.32,.33-.49,.46-1.02,.57-1.51-.21,.45-.55,.82-1.14,1.19Z"/>
    <path class="cls-1" d="M66.21,49.75c-.1,.23-.16,.49-.23,.78,.11-.24,.19-.49,.23-.78Z"/>
    <path class="cls-1" d="M62.11,53.87c.11,0,.37,.06,.75-.24h-.53c-.07,.06-.14,.15-.22,.24Z"/>
    <path class="cls-1" d="M62.32,53.63h.02c.24-.27,.41-.45,.48-.53-.06,.07-.21,.23-.5,.53Z"/>
    <path class="cls-1" d="M62.06,53.94s.04-.04,.06-.06c-.05,0-.07,0-.06,.06Z"/>
    <path class="cls-1" d="M59.36,56.3c.16-.52,.65-1.44-.27-.93-.02,.45,.51,.16,.27,.93Z"/>
    <path class="cls-1" d="M61.4,53.92l-.65,.62c.09,.06,.32,.04,.25,.3l.41-.91Z"/>
    <polygon class="cls-1" points="61.58 53.5 61.4 53.92 61.64 53.69 61.58 53.5"/>
    <path class="cls-1" d="M64.94,50.71c.1-.41,.36-.75,.64-1.14-.39,.35-.75,.73-1.07,1.12,.06,.14,.1,.45,.43,.02Z"/>
    <path class="cls-1" d="M63.65,52.12s.03-.06,.04-.08c-.06,.02-.1,.04-.04,.08Z"/>
    <polygon class="cls-1" points="68.44 45.81 68.33 45.83 68.38 45.89 68.44 45.81"/>
    <path class="cls-1" d="M64.39,50.71c-.3,.25-.37,.49-.41,.74,.15-.25,.32-.5,.52-.76-.03-.06-.05-.09-.11,.02Z"/>
    <path class="cls-1" d="M66.86,48.58c-.19,.11-.39,.25-.59,.4,.22-.08,.63-.27,.59-.4Z"/>
    <path class="cls-1" d="M63.85,52l-.02,.06c.15-.04,.1-.06,.02-.06Z"/>
    <path class="cls-1" d="M63.85,52c.08-.19,.1-.38,.13-.55-.12,.2-.23,.4-.3,.58,.05-.02,.12-.03,.17-.03Z"/>
    <path class="cls-1" d="M67.12,43.13c.27,.27-.02,1.29-.85,1.75-.29,.84,1.07,1.16,2.07,.95-.12-.12-.24-.21,.09-1.06-.35,.13-1.53,1.31-1.38,.5,.52-1.06,.66-.7,1.16-1.04-.67,.12,.3-1.6-.43-1.79l-.39,.96c-.1-.05-.03-.44-.27-.27Z"/>
    <path class="cls-1" d="M67.29,47.16l-.18,.32c.31-.29,.61-.44,1.18-.7,.22-.59,.17-.79,.09-.9-.36,.49-.75,.94-1.12,1.41l.03-.13Z"/>
    <path class="cls-1" d="M66.11,48.78c-.15-.48,.23-1.28-.45-1.13-.62,.86-.18,.81-.43,1.42,.97-1.43-.12,.54,.83-.31-.15,.31-.32,.57-.49,.8,.24-.21,.47-.41,.7-.59-.02,0-.03,.01-.04,.02h0s0,0,0,0c-.09,.03-.13,.03-.05-.02,0,0,.01-.03,.02-.03-.04-.04-.06-.1-.08-.16,.37-.35,.13,0,.08,.16,.01,.02,.02,.04,.04,.05h0s.87-1.52,.87-1.52c-.27,.26-.54,.63-.99,1.3Z"/>
    <path class="cls-1" d="M59.01,54.1c.06-.02,.08,0,.11,.02,.03-.12,.03-.17-.11-.02Z"/>
    <path class="cls-1" d="M59.66,53.73c-.04,.13,.02,.32-.27,.6-.32,.18-.15-.13-.26-.21-.07,.26-.33,.84,.32,.39l.04-.13c.55-.43,1.53-.77,1.49-.64-.42-.09-.73-.12-1.31-.01Z"/>
    <path class="cls-1" d="M62.86,51.2l.74-1.24-.74,.34,.19,.11c-.58,.58-.26,.61-.2,.79Z"/>
    <polygon class="cls-1" points="68.7 45.8 68.95 46.21 68.93 45.17 68.7 45.8"/>
    <polygon class="cls-1" points="69.76 44.23 70.03 44.51 70.13 43.97 69.76 44.23"/>
    <path class="cls-1" d="M19.26,4.31l-.38,.11c.18-.03,.3-.07,.38-.11Z"/>
    <path class="cls-1" d="M22.05,4.61l.09-.17c-.14,.08-.21,.15-.09,.17Z"/>
    <path class="cls-1" d="M67.12,2.37c-.39-.61-.79-1.43-.91-1.02l-.02,.46c.43,.14,.72,.34,.93,.56Z"/>
    <path class="cls-1" d="M41.56,15.83c0,.06,.01,.13,0,.19,0,.06,0,.12,0,.18,0,0,0-.09,0-.14,.02-.01,.03,.02,0-.23Z"/>
    <path class="cls-1" d="M41.43,15.91c-.06-.19-.19-.41-.3-.63,.06,.16,.21,.39,.3,.63Z"/>
    <path class="cls-1" d="M7.2,9.73l.16,.54c.31-.49,0-.39-.16-.54Z"/>
    <path class="cls-1" d="M78.5,26.72c.31-.5,.5-.92,.58-1.32-.35,.64-.88,1.05-.58,1.32Z"/>
    <path class="cls-1" d="M20.72,0c-.28,.05-.4,.13-.4,.22,.28-.05,.45-.12,.4-.22Z"/>
    <path class="cls-1" d="M79.39,23.77c-.06,.09-.1,.19-.15,.28,0,.42-.03,.85-.16,1.35,.27-.46,.49-1.03,.31-1.63Z"/>
    <path class="cls-1" d="M26.2,59.36s.04,.09,.06,.13c.05-.03,.01-.07-.06-.13Z"/>
    <path class="cls-1" d="M39.21,71.33c-.19,0-.51-.05-.8-.09,.14,.05,.38,.08,.8,.09Z"/>
    <path class="cls-1" d="M74.05,37.92c-.18,.36,0,.08,0,0h0Z"/>
    <path class="cls-1" d="M71.61,38.75c0-.1-.01-.18-.09-.24,.07,.08,.1,.16,.09,.24Z"/>
    <path class="cls-1" d="M77.03,19.53s0-.02,0-.03c-.07,.12-.06,.1,0,.03Z"/>
    <path class="cls-1" d="M73.57,38.34c.12-.1,.25-.23,.37-.38-.07,.06-.19,.17-.37,.38Z"/>
    <path class="cls-1" d="M73.78,38.37c-.09,.11-.15,.2-.22,.28,.03,.08,.1,.06,.22-.28Z"/>
    <path class="cls-1" d="M74.3,37.41c-.11,.21-.23,.39-.36,.55,.07-.05,.1-.07,.1-.05,.05-.11,.13-.26,.25-.51Z"/>
    <path class="cls-1" d="M7.7,34.22s0,.06,0,.09c.33,.27,.23,.13,0-.09Z"/>
    <path class="cls-1" d="M56.86,5.17s.02-.02,.03-.03c-.02,0-.04,0-.05,0l.02,.03Z"/>
    <path class="cls-1" d="M55.85,5.92c.26-.7,.59-.73,.99-.78-.26-.33-.53-.65-.82-.96-.09,.59-.14,1.15-.17,1.75Z"/>
    <path class="cls-1" d="M12.91,5.14c.31,.04,.62,.1,.91,.15-.83,.8-1.44,.9-.62,1.13-.17-.66,.6-.87,1.37-1.09,.8-.16,1.59-.32,1.61-.95l.6,.23c-.17,0-.19,.08-.35,.08,1.15,.54,.77-1.03,2.31-.82,.53,.09,.88,.31,.52,.45l1.2-.23c.34,.05,.24,.27-.1,.22l.9,.02,.91,.08-.02,.04c.28-.17,.92-.39,1.24-.48,.43,.26-.26,.1-.17,.28,.35-.06,.71-.08,1.07-.11,.34,.42-.55,.54-1.23,.39,.69,1.44,.9-.17,2.74,1-.32-.04-.65-.03-.97-.05,.43,.82,1.21,.77,2.12,1.48-.17-.29-1.79-1.67-.65-1.7,.28,.18,.66,.32,1.32,.22-.12,.44,.47,.48,1.18,.69l-.23,.57c.8,.07,.86-.24,1.36-.37,.22,.09,.23,.25,.19,.45-.02,.21-.18,.36-.21,.59,1.07,.94-.32-1.21,1.1-.27,.82,.9,1.6,1.24,2.94,1.86,.48,.71-.35,.19-.25,.52l.87,.11c.13,.13-.02,.2-.09,.24,.59,.27,.45-.42,1.29,.1,.33-.16,.52,.38,.79,.97,.29,.59,.57,1.27,1.27,1.44,.05,.33-.37,.14-.5,.37,.17,.1,.31,.19,.43,.27l.09,.06,.13,.1c.08,.07,.16,.13,.23,.19,.13,.12,.25,.22,.35,.31,.03,.01,.04,.06,.09,.04l.19-.1c.12-.06,.24-.13,.36-.19,.18,.1,.34,.2,.56,.32,.22,.12,.45,.25,.72,.44,.26,.39,.45,.76,.66,1.1-.45-.82,.33-.37,.42,.48v.07s0-.07,0-.09c0-.53-.02-1.06-.04-1.3,.06,.12,.13,.24,.15,.35,.02,.07,.03,.14,.02,.21,0,.03-.02,.06-.03,.09l-.03,.04s-.02,.01-.02,.01l.03-.06s.02,.17-.02,.39c-.02,.11-.05,.24-.09,.39,0,.06,.01,.13,.02,.21-.01,0-.02,0-.04,0,0-.04,.05-.15,.07-.22,.06,0,.1,.05,.11,.15,0,.05,0,.1,0,.17,0,.08,0,.03-.01,.06-.03,.06-.14,.22-.23,.32,.09-.14,.1-.32,.11-.51,0-.07-.02-.13-.02-.18-.03-.18-.13-.23-.11-.1,.02,.04,.08,.14,.1,.26,0,.02,0,.04,.01,.07,0-.02-.01-.04-.02-.04,0-.02,0-.01,0,.01v.02s.04,.12,.03,.26c-.02,.1-.04,.17-.08,.22h0s0,.01,0,.01h0s0,0,0,0l-.21,1.83h0s0-.02,0-.02v-.02s.09-.68,.09-.68l.15-1.14c.35-.23,.74-.33,1.31-.22,.18-.05,.34-.13,.5-.24,.2-.08,.39-.19,.56-.33,.74-1.98,1.2-3.44,2.12-4.76-.02,.76,.53,.64,.95,1.06-.22,0-.39,.11-.54,.26-.14,.15-.26,.35-.45,.68-.34,.59-.79,1.44-1.37,2.1,.59-.67,.63-.24,.52,.06l.86-1.52,.39-.68c.13-.22,.17-.34,.26-.51,.34,.36,.56-.09,1.08-.35-.99-.35,.59-1.57,1.01-2.36,.26,.2,.34,.57-.44,1.24,1.3-.28,.26-1.84,1.52-2.15-.19,.17-.32,.23-.28,.42,.24-.62,1.5-1.37,1.42-.93l-.19,.16c.67-.49,1.66-1.24,2.49-1.92,.83-.67,1.51-1.28,1.44-1.7,.06,.08,.26,.97,.26,1.16,.4-1.23,.93-2.5,1.73-3.67-.03,.38,.33,.88,.53,1.4,.2,.52,.25,1.05-.28,1.41,.38,0,.81-.05,1.47-.44-.24-.05-.84-.85-.5-.99,.57,.26,.73,.35,.93,.42,.19,.08,.43,.07,.98,.41-.36-.13-.03-1.26,.62-1.22-.1,.16,.01,1.08-.19,1.19,.45-.33,.97-.68,1.53-.92-.41,.12-.21,.89,0,1.24-.08-.26,1.1,.31,1.44,.39-.14-.15-.28-.31-.44-.46,.35,.18,.64,.24,.93,.21,.3-.01,.59-.06,.88-.14,.58-.14,1.19-.3,1.98,.2-.31,.08-1.15,.92-.43,1.49,.62-.28,3-1.31,4.69-.6l.07,.46,1.26,.56c-.6,.05-1.61,.04-2.62,.08-1.02,.03-2.03,.09-2.7,.08,.42,.57-.04,.4,.79,.92,.11,.43-.68,.07-.94-.06,.61,.44,1.16,.94,1.71,1.42,.31-.58,1.72,.55,2,.12-.37-.2-.77-.36-1.16-.53-.38-.17-.77-.33-1.18-.47,.27-.59,2.31-.65,3.48,.63,.13,.47-1.03,.62-1.14,.81,.15,0,.51,.16,.81,.38,.29,.23,.55,.48,.54,.59l-.71-.25c.2,.4,.61,.5,.98,.68,.36,.19,.72,.43,.78,1.02,.17,.33-.13,1.32,.23,1.17,.33-.83,2.13-2.25,2.86-2.14,.03,.07,.19,.64,.26,1.28,.04,.32,.08,.64,.1,.92,0,.29-.03,.53-.07,.67-.3,.8-1.63-.34-1.88,.36,.17-.05,.49,.17,.61,.27,0,.41-.57,.06-.18,.78,.66-.08,.42,1.63,.64,.2,.41,.75,.15,.87,.33,1.82,.18-.19,.57-.04,.97,.28,.41,.32,.72,.85,.86,1.3-.17-.04-.37,.17-.46,.27-.02,1.83-.39,2.77-.68,4.42-.19,.13-.52,.87-.74,.48,.06,.25,.27,.52,.14,1.02-.79,.82,.18-1.12-.66-.54,.37,.14,.17,1.38,.21,2.16,.61-.05,.59-1.61,.48-2.37,.81,.15,1.36,1.63,1.16,3.52-.29,1.45-.7,.43-.68,.71-.49,1.27-.45,1.9-.36,2.51,.08,.6,.12,1.15-.65,2.05-.86,.59-.95-.41-1.37-.39,.34-1.12,1.06-1.47,1.34-2.22l-.6,.8c-.01-.41,.16-1.17,.46-1.5-.67,.52-1.88,4.1-3.32,5.66-.02,.4-.17,1.04,.15,.89l.25-.61c.65-.33-.09,1.36,.48,.73-.18,.91-.32,1.99-1.16,2.94l-.62-.11c.16,.07,.72-.51,.75-.9-.02,.29-.44,.6-.81,.93-.38,.33-.71,.69-.54,1.14l.83-.51c-.24,.9-.33,2.17-1.1,2.99,.77-.09,.09-.25,1.09-.53-1.09,.11,1.61-2.37,.25-1.93,1.13-.25,1.03-1.01,2.17-1.58-.18-.07-.52,.14,.06-.62-.03-.07-.04-.19-.04-.26,.02-.02,.03-.03,.05-.05l-.05,.03s0-.06-.02,.01c-.19,.15-.37,.25-.5,.26-.07-.31,.09-.78,.27-1.25,.17-.47,.36-.94,.38-1.21,.35-.44,.08,.31,.41,.14l.06-.82c.42,.14,1.35-.98,.94,.3,.2-.34,.39-.7,.57-1.06,.52-.53,1.05-1.38,1.14-2,.31-.5,.12-1.53,.24-.93,.15-.63,.34-1.23,.46-1.87l.11,.02c.33-.89,.52-1.85,.67-2.87,.09-.5,.22-1,.36-1.51,.14-.51,.34-1.02,.63-1.54,.01-.66-.07-1.36,.16-2.45l.38-.2c-.06-.44,.05-1.09,.11-1.7,.02-.61,0-1.16-.21-1.33,.49-.52,.35-1.66,.02-2.82-.2-.57-.39-1.17-.64-1.69-.24-.52-.46-1-.57-1.39l-.47,.15c-.24-.49-.51-.95-.83-1.42-.35-.44-.74-.9-1.2-1.38l-.3,.31c-.95-.64-1.53-2.43-2.9-3.53,.2-.04,.5,.29,.66,.57-.42-1.07-1.41-1.66-2.37-2.12-.49-.22-.97-.43-1.41-.67-.44-.23-.83-.51-1.12-.9-.47-.1-.72-.3-.94-.55,.04,.02,.07,.03,.11,.04-.04-.03-.1-.06-.16-.1-.14-.16-.27-.34-.43-.51,.11,.19,.23,.35,.35,.46-.3-.17-.79-.38-1.3-.51l.02-.51s-.07-.03-.11-.04c-.37-.39-.46,0-.38,.44-.27-.05-.5-.08-.75-.06-.05-.43-.43-.53-.82-.63-.4-.09-.81-.15-1.02-.63-.24,.11-.99,.05-1.72,.07-.73,.06-1.43,.22-1.56,.65-.02-.11-.18-.15,.11-.17-.61-.09-1.25-.11-1.75,.2l-.36-.54c-.39,.36-.77,.7-1.1,1.08-.84-.11-1.26-.19-.62-.87-.85,.61-1.13,.87-1.45,1.04-.29,.2-.56,.39-1.09,1.05l-.11-.37c-.5,.28-1.01,1.16-1.45,1.08-.73,.02-2.04,.87-3.41,1.99-1.37,1.12-2.79,2.51-4.1,3.44,.62,.16,.28,.33-.14,.57-.21,.12-.44,.25-.59,.39-.11,.1-.1,.19,.04,.36-.27-.1-.5-.06-.49-.42-.23,.52-.49,.49-.63,.71-.08,.12-.13,.32-.2,.82-.08-.32,.03-.66-.04-.82-.01,.11-.08,.48-.13,.28-.04-.2,.03-.4,.06-.62-.21,.35-.37,1.9-.55,3.37-.04-.03-.08-.06-.11-.07,.02-.11,.04-.21,.06-.31,.03-.18,.02-.25,0-.25-.02,0-.08,.08-.14,.2-.02-.6-.01-1.21,.16-.8-.01-.19-.16-.74-.36-1.12-.2-.38-.47-.63-.68-.49-.02,0-.03,.02-.05,.04,.03-.23-.25-.38-.42-.48-.4-.52-.64-.78-.86-1.04-.23-.26-.46-.53-.94-.93l.18,.31c-.88,.19-.85-.61-1.66-1.22l.07-.04c-1.37-1.91-.89-.48-2.24-2.38l-.2,.43c-.4,.32-.68-.12-1.04-.68-.18-.28-.38-.59-.61-.87-.12-.14-.24-.27-.38-.38-.07-.05-.14-.1-.21-.15-.09-.05-.18-.11-.28-.15,.12,.2,.2,.37,.26,.53-.39-.03-.61-.83-1.14-1.31-.28-.3-.39-.55-.58-.79-.17-.23-.34-.42-.51-.51-.13-.13,.28-.06,.52-.05-1.67-1.13-.42,.49-1.82,.21-.17-.38,.56-.71-.37-1.01-.2-.19-.96-.12-1.79-.11-.85,.04-1.77,.03-2.37-.41,.24,.31,.47,.61-.21,.66-1-.07-2.63-1.37-3.65-.62-.13-.08-.17-.15-.17-.21-.8,.1-2.61,.26-3.06,.69-.39-.74-1.66-.55-2.77-.12-1.12,.34-2.06,.9-2.26,.17-.41,.1-.81,.26-1.21,.42-.4,.17-.81,.29-1.18,.5v-.17c-1.57,.61-1.88,1.3-2.16,1.88-.37,.12-.22-.14-.24-.22-1.06,.6-1.63,.99-2.01,1.5-.19,.25-.36,.5-.52,.82-.14,.33-.27,.73-.43,1.22l-.51-.12c-.02,.15-.18,.38-.43,.68-.25,.3-.6,.67-.9,1.13-.32,.45-.65,.97-.87,1.55-.25,.56-.4,1.17-.42,1.77-.05-.04-.12-.11-.13-.3-.14,1.33-.69,2.77-1.02,4.11-.29,1.32-.34,2.49,.55,2.93,.14,.55,.31,1.09,.5,1.61-.02-2.09,.77,.26,1-.61,.16,.78-.36,2.11-.53,1.13l.07-.16c-.97-.28-.02,2.6-.62,2.63,.73,4.07,1.58,8.05,3.17,11.6l.46-.7c.16,.41,.34,.82,.53,1.23,0,.38-.29,.66-.69-.21-.14,.63,1.01,1.3,1.16,1.25,.59,1.79-1.07-.28-.82,.23,.13,.22,.26,.46,.4,.68v-.19c.54,.41,.84,.32,1.35,1.32,.22,.69-.21,.52-.1,.78-.04,.02-.02,.12,.19,.39l.75,1.48,.17-.85c.59,.51,.72,1.37,.91,.4-.15,.72,.51,2.12,1.24,3.42,.79,1.27,1.62,2.44,1.68,2.82,.89,.66,1.42,1.52,2.05,2.61-.06-.33,.35-.82,.87,.12-1.3,.39,.69,1.92,.45,3.18,.04-1,1.94,2.44,1.92,.91,.44,.8-.36,.33-.2,1.07,.83,.74,1.58,1.67,2.28,2.74,.72,1.05,1.42,2.22,2.47,3.11,.15-.09,.03-.59,.61-.34l.39,1.61c.44,.33,1.03-.34,1.31,.78,0-.2,0-.5,.29-.29,.83,1.05,1.85,1.96,2.87,2.86,1.07,.85,2.28,1.56,3.43,2.32,2.48,1.34,4.92,2.57,7.68,3.91-.72-.48-.19-.38,.41-.31-.38-.14,.08-.41,.05-.64,.75,.33,1.51,.68,2.36,.88,.44-.54,2.71-.17,2.87-.88-.25,.08-.51,.18-.76,.25,.47-.45,.02-.75-.45-1.14-.48-.38-.98-.79-.93-1.25-.46,.37-1.12,.12-1.77-.25-.33-.18-.67-.35-1.03-.42-.37-.06-.75-.11-1.21,.07-.28-.27,.36-.21,.24-.46-.24,.14-.48,.19-.77,.16-.14-.01-.3-.05-.46-.11-.16-.08-.34-.18-.53-.31l.13-.05c-.59-.22-1.09-.43-1.54-.64-.45-.22-.82-.52-1.21-.79-.38-.28-.77-.57-1.21-.89-.41-.36-.87-.76-1.42-1.24l-.09,.49c-.47-.41-.5-.6-.66-.85-1,.14,1.4,1.03,.43,1.28-.04-.31-.28-.62-.62-.93-.17-.16-.36-.31-.57-.47-.19-.18-.4-.36-.6-.54-.8-.72-1.57-1.42-1.43-1.99-.72-.63-.14,.57-.87-.06l.02-.39-.43,.09c-.4-.5-.38-.98-.22-1.17,.09,.13,.35,.26,.48,.37-.33-.82-1.69-1.57-1.81-1.85l.52,.78c-.51-.43-1.02-.9-1.52-1.42-.46-.55-.94-1.12-1.41-1.68-.94-1.13-1.95-2.18-2.91-3.09l-.06,.29c-1.48-1.39-.74-1.43-2.16-3.1l.09,.04c-.42-.24-.88-.64-1.17-1.16,.5,.33-.14-1.15,.47-.69-1.5-1.6-.85-.72-2.28-1.51l.13-.47c-.53-.24-.7-.19-1.36-1.08,.74,.61,.09-.87,.98-.23-.57-2.32-2.43-2.54-1.95-4.02-1.37-.44,.48,2.01,.01,1.6-.04,.6-1.06-.4-1.33-1.09-.34-.66,.5-1.71-.41-3.32,.08,.16,.16,.14,.24,.3-.11-.72-.96-1.03-1-1.96-.77-.14-.46-.98-1.21-.76,.29,.48,.61,.94,.94,1.41-.65-.74-1.84-1.15-2.13-2.77,.19,.05,.57,.39,.81,.63,0-.5-.51-.73-.49-1.26,.73-.18,1,1.77,1.99,2.4,.06-.58-1.34-1.46-.37-1.37-1.29-.2-.62-1.65-1.85-2.44l.45-.1c-.14-.15-.48-.44-.6-.77l.78,.37c-.84-.72-.28-1.9-.82-2.68,.64,1.83-.38,.59-.42,1.49-1.37-2.12,.64-1.7-.29-4.18,.14,.33,.11,1.37-.26,.89-.07-.51-.04-1.21,.12-1.57-.51-1.68-.39,.37-.85-.3,.39-.71-.39-.8-.72-1.55l.46-.09c-.02-2.03-1.05-.39-.93-2.26,.23,.24,.49,.47,.73,.69-.1-.3-.2-.61-.27-.92l.54,.14c-.46-.97-.41-1.31-.26-2.29-.31,.24-.87-.12-.85-1.02,.31-.59,.42,.35,.42-.9,.28,.3,.63,.61,.17,1.13,.14,.06,.29,.28,.44,.34,.33-.62,.12-1.56,.18-1.99-.04,.16-.09,.36-.15,.46-.16-.59-.3-1.2-.42-1.82,.23-.24,.32,0,.41,.23,.02-.35-.14-.63-.08-1.15,.34,.21,.73,.27,.77,.99-.03-.54-.08-1.1-.05-1.64,.19-.06,.65-.64,.73-.41,.25-.36,.25-.89,.31-1.47,.08-.56,.2-1.18,.65-1.55-.03-.09-.03-.22,.06-.46,.38-.37,.74-.71,1.16-1,.2-.15,.39-.33,.56-.54,.19-.19,.37-.41,.53-.71,.31,.02,.64,.1,.95,.17,.34-.31,.05-.37-.21-.48-.25-.11-.46-.25,.19-.82,.98-.72,.66,.31,1.11,.3,.17-.29,.44-.68,.84-.96,.38-.32,.92-.49,1.54-.36-.33,.22-.64,.18-.95,.32Zm13.36,.09c-.29,.02-.88,.17-1.02-.12,.42-.46,.6-.15,1.02,.12Zm15.99,10.6c-.13,.17-.33,.25-.54,.43,.15-.15,.33-.32,.54-.43Zm33.52,17.97s0-.02,0-.04c.45-.52,.29-.34,0,.04Zm-.78,1.15c0,.15,.06,.17,.14,.15-.06-.14,.06-.42,.25-.72-.15,.03-.3,.16-.39,.57ZM6.86,39.33l-.02-.28c.4,.45,.22,.36,.02,.28Z"/>
    <path class="cls-1" d="M41.46,15.89c-.02-.07-.02-.12-.03-.16-.03-.06-.04-.02,.03,.16Z"/>
    <path class="cls-1" d="M7.17,9.63l-.02,.03s.03,.06,.05,.08l-.03-.1Z"/>
    <path class="cls-1" d="M74.22,15.13c-.03-.24,0-.4,.05-.52-.11,.03-.16,.18-.05,.52Z"/>
    <path class="cls-1" d="M72.02,41.58l.38-.79c-.21,.36-.38,.44-.56,.57,.1,.04,.33-.01,.18,.22Z"/>
    <path class="cls-1" d="M65.37,46.03c-.03,.13-.15,.21-.18,.34l.19,.1c.31-.43,.39-.82-.01-.45Z"/>
    <path class="cls-1" d="M70.29,41.41c-.36-.16-.55,.36-.82,.9,.02-.03,.04-.06,.06-.09,.35,.45,.56-.18,.76-.82Z"/>
    <path class="cls-1" d="M69.4,42.44c-.09,.17-.19,.33-.31,.46,.14,.18,.17-.15,.31-.46Z"/>
    <path class="cls-1" d="M74.41,36.59c-.23,.21,.35,.4,.13,.47,.28,.52,.41-2-.13-.47Z"/>
    <polygon class="cls-1" points="68.95 41.11 69.47 41.2 69.33 40.71 68.95 41.11"/>
    <path class="cls-1" d="M71.75,37.33l-.61,.75c.08,.03,.05,.16,0,.3,.32-.49,.73-1,.6-1.05Z"/>
    <path class="cls-1" d="M71.15,38.38c-.17,.26-.31,.51-.33,.7,.08-.14,.25-.46,.33-.7Z"/>
    <polygon class="cls-1" points="69.54 39.95 69.78 39.77 70.18 39.23 69.54 39.95"/>
    <path class="cls-1" d="M76.18,28.1c.07-.34,.15-.68,.18-1.04-.14-.15-.29,.1-.35,.48,.03,.27-.04,.65,.17,.55Z"/>
    <path class="cls-1" d="M73.84,30.54c.2-.21,.3-.19,.51-.27l-.54-.25,.03,.53Z"/>
    <path class="cls-1" d="M74.76,27.75c-.12-.15,.02-1.51-.36-.31,.12,.14-.07,1.14,.36,.31Z"/>
    <polygon class="cls-1" points="75.06 13.09 75.19 13.32 76.05 12.84 75.06 13.09"/>
    <path class="cls-1" d="M63.93,6.31c.91,.74,.54-.42,1.31,.35,.35-.07-.63-.63-.29-.67-.75-.11-1.01-.4-1.02,.31Z"/>
    <path class="cls-1" d="M64.95,6c.12,.02,.24,.04,.39,.05-.21-.05-.31-.06-.39-.05Z"/>
    <path class="cls-1" d="M42.56,71.92c.33,.04,.65,.08,1,.08-.24-.07-.46-.13-.68-.23l-.32,.15Z"/>
    <path class="cls-1" d="M44.25,70.91c.13,.18,.27,.35,.41,.53l.22-.36,.27-.4c-.32,.17-.68,.32-.9,.24Z"/>
    <path class="cls-1" d="M27.95,6.98l.1-.13c-.06-.19-.23-.26-.56-.37,.16,.16,.31,.33,.46,.5Z"/>
    <polygon class="cls-1" points="18.35 4.91 18.51 4.93 18.2 4.36 18.35 4.91"/>
    <path class="cls-1" d="M11.36,7.08c.26-.09,.49-.35,.75-.45-.48,.36-1.15-.14-.75,.45Z"/>
  </g>
</svg>