<svg id="svg2" xmlns="http://www.w3.org/2000/svg" xmlns:xlink="http://www.w3.org/1999/xlink" viewBox="0 0 621 621"><defs><style>.cls-1,.cls-10,.cls-12,.cls-14,.cls-15,.cls-17,.cls-18,.cls-19,.cls-2,.cls-20,.cls-21,.cls-22,.cls-23,.cls-24,.cls-4,.cls-6,.cls-7,.cls-8{fill-rule:evenodd;}.cls-2{fill:#7d0003;}.cls-3{opacity:0.63;}.cls-4{fill:#500;}.cls-5{opacity:0.7;}.cls-6{fill:red;}.cls-7{fill:url(#linear-gradient);}.cls-8{fill:url(#linear-gradient-2);}.cls-9{opacity:0.87;}.cls-10{fill:url(#linear-gradient-3);}.cls-11{opacity:0.86;}.cls-12{fill:url(#linear-gradient-4);}.cls-13{opacity:0.78;}.cls-14{fill:#fff;}.cls-15{fill:url(#linear-gradient-5);}.cls-16{opacity:0.79;}.cls-17{fill:#220300;}.cls-18{fill:#497c03;}.cls-19{fill:#b60005;}.cls-20{fill:#a00;}.cls-21{fill:url(#linear-gradient-6);}.cls-22{fill:url(#linear-gradient-7);}.cls-23{fill:#050;}.cls-24{fill:#222b00;}.cls-25,.cls-26{fill:none;stroke-miterlimit:14.52;stroke-width:3.63px;}.cls-25{stroke:#fff;}.cls-26{stroke:#000;}</style><linearGradient id="linear-gradient" x1="134.98" y1="-110" x2="158.5" y2="-109.76" gradientTransform="translate(-401.53 726.42) scale(3.63)" gradientUnits="userSpaceOnUse"><stop offset="0" stop-color="#280b0b"/><stop offset="1" stop-color="#280b0b" stop-opacity="0"/></linearGradient><linearGradient id="linear-gradient-2" x1="209.84" y1="-35.66" x2="206.96" y2="-57.83" gradientTransform="translate(-401.53 726.42) scale(3.63)" gradientUnits="userSpaceOnUse"><stop offset="0"/><stop offset="1" stop-opacity="0"/></linearGradient><linearGradient id="linear-gradient-3" x1="149.72" y1="-60.95" x2="163.11" y2="-70.51" gradientTransform="translate(-401.53 726.42) scale(3.63)" gradientUnits="userSpaceOnUse"><stop offset="0" stop-color="#fff"/><stop offset="1" stop-color="#fff" stop-opacity="0"/></linearGradient><linearGradient id="linear-gradient-4" x1="278.16" y1="-102.07" x2="255.57" y2="-102.55" gradientTransform="translate(-401.53 726.42) scale(3.63)" gradientUnits="userSpaceOnUse"><stop offset="0" stop-color="#fff"/><stop offset="1" stop-color="#fff" stop-opacity="0.4"/></linearGradient><linearGradient id="linear-gradient-5" x1="205.51" y1="-172.2" x2="207.67" y2="-157.03" xlink:href="#linear-gradient"/><linearGradient id="linear-gradient-6" x1="199.99" y1="-173.87" x2="200.71" y2="-170.58" gradientTransform="translate(-401.53 726.42) scale(3.63)" gradientUnits="userSpaceOnUse"><stop offset="0" stop-color="#c87137"/><stop offset="1" stop-color="#220300" stop-opacity="0"/></linearGradient><linearGradient id="linear-gradient-7" x1="194.02" y1="-162.53" x2="201.11" y2="-160.51" gradientTransform="translate(-401.53 726.42) scale(3.63)" gradientUnits="userSpaceOnUse"><stop offset="0" stop-color="#497c03"/><stop offset="1"/></linearGradient></defs><g id="path6985"><polygon class="cls-1" points="198.94 584 534.6 577.93 460.22 605.83 235.17 604.62 198.94 584"/></g><g id="path6847"><polygon class="cls-1" points="206.66 566.78 511.29 558.13 443.79 597.94 239.55 596.21 206.66 566.78"/></g><path id="path4138" class="cls-2" d="M186.76,145.33C121.17,174.43,74,247.87,92.43,392c20.82,73.68,67.92,118.45,110.77,167.89,14.42,11.55,29.24,22.69,48.47,29.42,7.45,1.69,14.56,3.84,26,0,20.89-.37,23,1.47,31.15,2.6L325.43,595c7,1.62,15.08-.07,27.11,1.37,16.9-2,32.4-2.9,45.79-2.11,13.18,3.09,22.57,1.57,33.95-2.8,15.79-6,31.1-11.63,43.53-14.32,18.81-7.71,33.38-17.11,40.67-29.43,47.36-53.07,66-106.15,86.54-159.23,8-24.57,27.41-141-51.92-216.35-16.54-13.71-32.65-27.48-64.91-38.95-20.16-13.33-39.45-27.29-75.29-29.42-22.91.75-47.94-.64-66.64,4.33l-51.92,7.78c-46.07,9.81-77.84,19.62-105.58,29.43Z"/><g id="path5197" class="cls-3"><path class="cls-4" d="M518.64,157c44,43,64,90,58.42,141.06-5.67,4.83-7.73-53.47-13.16-52.3-1,.2.94,54.47-2.38,57.5-1.78,1.63-9.07-51.54-10.12-45.9-2.12,11.3.64,44.37-.58,47.81-6.33,17.89-8.4.68-13.57-1.48C555.54,249.5,549,198.59,518.64,157Z"/></g><g id="path5041" class="cls-5"><path class="cls-6" d="M389.82,203.08c17.11,13.84,43,20.66,34.45,55,15.59,1,30.28,3.4,52.46-6.17,24.14-9.61,17.49-29.48,18.51-46.8-13.05-10.38-17.82-24-67.37-20-4.06,12.46-24.12,12.93-38.05,18Z"/></g><g id="path4811" class="cls-5"><path class="cls-6" d="M359,184.27c28.79,23.29,72.36,34.77,58,92.6,26.22,1.66,51,5.72,88.27-10.38,40.64-16.17,29.43-49.62,31.16-78.76-22-17.47-30-40.41-113.37-33.75C416.18,175,382.42,175.74,359,184.27Z"/></g><g id="path4639"><path class="cls-7" d="M335.64,109.41l-43.3,6.49c-46.06,9.81-77.84,19.62-105.58,29.43C121.16,174.43,74,247.87,92.43,392c19.2,67.94,60.72,111.32,100.67,156.43C108.27,333.1,95.21,155.2,335.64,109.41Z"/></g><g id="path4163"><path class="cls-8" d="M182.84,536.79c6.81,7.66,13.64,15.31,20.36,23.07,14.42,11.55,29.24,22.69,48.47,29.42,7.45,1.69,14.56,3.84,26,0,20.89-.37,23,1.47,31.15,2.6l16.6,3.12c7,1.63,15.09-.07,27.12,1.37,16.9-2,32.4-2.9,45.79-2.11,13.18,3.09,22.58,1.56,34-2.8,15.78-6,31.09-11.63,43.52-14.32,18.81-7.71,33.38-17.11,40.67-29.43,2-2.3,4-4.59,5.93-6.89-46.6,36.32-90.19,36.19-136.15,33-25.19,3.91-61-60.52-84.1-64-19.7-7.29-22.82,39.18-37.92,50.29-27.91,7.17-55.84-14.52-81.4-23.43Z"/></g><g id="path4192" class="cls-9"><path class="cls-10" d="M90.56,361.81C88.7,387.14,88.33,360,92.43,392c20.82,73.68,67.92,118.45,110.77,167.89,14.42,11.55,29.24,22.69,48.47,29.42,6.93,1.57,13.62,3.49,23.7.66-46.63-28.2-84.16-66.41-98.86-110.5C153.92,411.68,120.17,403.61,90.56,361.81Z"/></g><g id="path4236" class="cls-11"><path class="cls-12" d="M507.26,142c42.74,48.11,89.36,104.27,68.85,164.3-14.08-2-21.23,6.85-28.12,16.07-8.39,11.35-16.35,23.13-14.35,44.87,19.33,77.1-3.38,127.19-66.59,197.41,22.66-4.73,34.12-7.15,43.37-23,47.36-53.07,72.08-100.09,92.6-153.17,8-24.57,27.41-141.06-51.92-216.36-12.48-10.34-24.73-20.71-43.84-30.11Z"/></g><g id="path4321" class="cls-13"><path class="cls-14" d="M281.09,186.87c48.53,8.93,85.69-12.46,128.08-19.91,29.42,4.57,58.85,7.37,88.27,32-1.67,14.14,1.64,28.27-24.23,42.41-22.23-2-35.82-12.66-77.16,4.44-36.5,8.16-67,8.79-94.27,5.44-18-6.82-30.08-4.77-38.86,2.23-23.27-8.74-47.26-8.15-68.37-45,11.49-43.35,42.86-38.06,86.54-21.63Z"/></g><g id="path4770"><path class="cls-15" d="M410.9,103.79c-22.91.75-47.94-.64-66.63,4.33l-51.93,7.78c-46.06,9.81-77.84,19.62-105.58,29.43-94.83,92.63,72.56-26.45,205.58-.25,169.52,33.39,73.28-1.69,158.76,27.07-16.53-13.71-32.65-27.47-64.91-38.94-20.16-13.33-39.45-27.29-75.29-29.42Z"/></g><g id="path4347" class="cls-16"><path class="cls-14" d="M303.16,131.05c43.53-12,82.38-11.41,115.53,4.33-22.21,14.63-39.88,34.49-76.16,32.88-16-10.54-38.29-17.06-39.37-37.21Z"/></g><path id="path4161" class="cls-17" d="M336.91,171.72l-13.85,2.6c-.77-25.39-11.87-49-11.25-73.56,11.51-10.23,20.8-9.38,27.7,3.46l-3.9,25.1C334.61,142.32,332.39,154.32,336.91,171.72Z"/><g id="path4521"><path class="cls-1" d="M301.86,157.88c-1.52,8.67-13,16.25-24.66,23.8,35.3,22.47,59.47,3.62,87.4-1.3C343.44,174.22,310.66,194.82,301.86,157.88Z"/></g><path id="path4159" class="cls-18" d="M323.3,161c.58-2.53-7.08-9-9-9.41-5.15-1-7.42-1.11-11.78-7.3-3.41-4.85-7.77-22.63-11.46-26.64C204.07,41.76,116.3-7.68,23.63,103.36c16.62-2.24,33.31-4.68,45.44,4.32,35.65,16.08,71.26,32.36,109,39.81,22.51,5.8,45.07,11.35,65.33,27.26,22.6,10.66,55.16,5.43,58.5-18.75.54-3.95,6.5-.39,11.05-.31C314.36,155.7,322.37,162,323.3,161Z"/><g id="path4491" class="cls-9"><path class="cls-14" d="M285.76,211.4c35.33,6.5,58.93-13.4,89.79-18.82,21.42,3.32,42-5.89,63.41,12.06-1.22,10.29,1.19,20.58-17.65,30.87-16.18-1.46-29.54-14.41-59.64-1.95-26.58,5.94-43.57,5.53-63.44,3.09-13.11-5-27.1-2.6-33.49,2.49-17-6.37-20.57,2.72-35.94-24.11,8.37-31.56,25.15-15.6,57-3.63Z"/></g><g id="path4684"><path class="cls-19" d="M185.36,205.82c21.27,74.54,133.16,54.34,221.52,58.75-51.49,31.32-79.81,81.71-182.36,71C184.51,297.7,131.27,262.49,185.36,205.82Z"/></g><g id="path5075"><path class="cls-20" d="M310.51,419.66c86.54-60.58,204.24-43.27,204.24-43.27C520,408,518.86,472,485.33,504.47c-48.64,20.12-97.92,29.32-148.85,10.39Z"/></g><path id="path5347" class="cls-21" d="M326.35,107.47l-7.42,1.37s-5.45-1.61-6.2-7.16c8.79-7,19.76-7.5,26.78,2.54l-6.35,3.22c-1,13-7.35-2.38-6.81,0Z"/><path id="path5569" class="cls-22" d="M323.3,161c.58-2.53-7.08-9-9-9.41-5.15-1-11.3.25-11.78-7.3-.25-3.94-2.93-21.25-11.46-26.64C204.07,41.76,116.3-7.68,23.63,103.36c16.62-2.24,33.31-4.68,45.44,4.32,35.65,16.08,71.26,32.36,109,39.81,22.51,5.8,45.07,11.35,65.33,27.26,22.6,10.66,55.16,5.43,58.5-18.75.54-3.95,6.5-.39,11.05-.31C314.36,155.7,322.37,162,323.3,161Z"/><g id="path5579"><path class="cls-23" d="M323.3,161c.58-2.53-7.08-9-9-9.41-5.15-1-8.93,1.92-13.29-4.28-74.52-18-197.08-124.54-277.36-43.94,16.62-2.24,33.31-4.68,45.44,4.32,35.65,16.08,71.26,32.36,109,39.81,22.51,5.8,45.07,11.35,65.33,27.26C266,185.41,298.56,180.18,301.9,156c.54-3.95,6.5-.39,11.05-.31,1.41,0,9.42,6.3,10.35,5.32Z"/></g><g id="path5671"><path class="cls-24" d="M323.3,161c.58-2.53-7.08-9-9-9.41-5.15-1-8.93,1.92-13.29-4.28C214.6,154.54,97.7,36,23.63,103.36c16.62-2.24,49.76-15.07,61.88-6.06,35.66,16.08,59.15,25.43,96.92,32.88,22.51,5.8,50.27,16.55,70.53,32.46,22.57,10.65,45.6,17.54,48.94-6.66.54-3.95,6.5-.39,11.05-.31,1.41,0,9.42,6.3,10.35,5.32Z"/></g><g id="path5762"><path class="cls-25" d="M27.48,100.57c68.35-59.08,165.16-4.76,265,44.67"/></g><g id="path5800"><path class="cls-26" d="M52,72.42c69.73-31.28,147.74-22.46,238.66,49"/></g></svg>