<?xml version="1.0" encoding="UTF-8"?><svg id="Layer_1" xmlns="http://www.w3.org/2000/svg" width="200" height="200" viewBox="0 0 200 200"><defs><style>.cls-1{fill:#f9b233;}.cls-2{fill:#f39200;}.cls-3{fill:#ffcf02;}.cls-4{fill:#0089e5;}.cls-4,.cls-5{isolation:isolate;opacity:.45;}.cls-5{fill:#1c4d93;}</style></defs><ellipse class="cls-5" cx="100" cy="45.47" rx="18.42" ry="40.82"/><ellipse class="cls-5" cx="122.82" cy="50.33" rx="40.82" ry="18.42" transform="translate(26.89 142.06) rotate(-66)"/><ellipse class="cls-5" cx="141.7" cy="64.03" rx="40.82" ry="18.42" transform="translate(-6.45 111.26) rotate(-42)"/><ellipse class="cls-5" cx="153.36" cy="84.24" rx="40.82" ry="18.42" transform="translate(-18.52 51.51) rotate(-18)"/><ellipse class="cls-5" cx="155.8" cy="107.44" rx="18.42" ry="40.82" transform="translate(32.66 251.16) rotate(-84)"/><ellipse class="cls-5" cx="149.1" cy="129.04" rx="18.48" ry="40.96" transform="translate(-37.07 194.02) rotate(-60.11)"/><ellipse class="cls-5" cx="132.98" cy="146.97" rx="18.42" ry="40.82" transform="translate(-60.99 106.23) rotate(-36)"/><ellipse class="cls-5" cx="111.67" cy="156.46" rx="18.42" ry="40.82" transform="translate(-30.09 26.64) rotate(-12)"/><ellipse class="cls-5" cx="88.34" cy="156.47" rx="40.82" ry="18.42" transform="translate(-83.08 210.34) rotate(-78)"/><ellipse class="cls-5" cx="67.01" cy="146.97" rx="40.82" ry="18.42" transform="translate(-91.27 114.8) rotate(-54)"/><ellipse class="cls-5" cx="51.41" cy="129.63" rx="40.82" ry="18.42" transform="translate(-57.93 43.07) rotate(-30)"/><ellipse class="cls-5" cx="44.2" cy="107.44" rx="40.82" ry="18.42" transform="translate(-10.99 5.21) rotate(-6)"/><ellipse class="cls-5" cx="46.64" cy="84.23" rx="18.42" ry="40.82" transform="translate(-47.88 102.56) rotate(-72)"/><ellipse class="cls-5" cx="58.29" cy="64.03" rx="18.42" ry="40.82" transform="translate(-28.3 64.51) rotate(-48)"/><ellipse class="cls-5" cx="77.18" cy="50.32" rx="18.42" ry="40.82" transform="translate(-13.79 35.74) rotate(-24)"/><ellipse class="cls-4" cx="108.98" cy="53.98" rx="32.93" ry="18.42" transform="translate(33.52 149.36) rotate(-78)"/><ellipse class="cls-4" cx="127.29" cy="62.15" rx="32.93" ry="18.42" transform="translate(2.19 128.6) rotate(-54)"/><ellipse class="cls-4" cx="140.71" cy="77.04" rx="32.93" ry="18.42" transform="translate(-19.67 80.68) rotate(-30)"/><ellipse class="cls-4" cx="146.91" cy="96.11" rx="32.93" ry="18.42" transform="translate(-9.24 15.88) rotate(-6)"/><ellipse class="cls-4" cx="144.81" cy="116.05" rx="18.42" ry="32.93" transform="translate(-10.31 217.91) rotate(-72)"/><ellipse class="cls-4" cx="134.78" cy="133.42" rx="18.42" ry="32.93" transform="translate(-54.55 144.3) rotate(-48)"/><ellipse class="cls-4" cx="118.56" cy="145.2" rx="18.42" ry="32.93" transform="translate(-48.81 60.78) rotate(-24)"/><ellipse class="cls-4" cx="98.95" cy="149.37" rx="18.42" ry="32.93"/><ellipse class="cls-4" cx="79.35" cy="145.2" rx="32.93" ry="18.42" transform="translate(-85.57 158.63) rotate(-66)"/><ellipse class="cls-4" cx="63.12" cy="133.41" rx="32.93" ry="18.42" transform="translate(-73.06 76.5) rotate(-42)"/><ellipse class="cls-4" cx="53.09" cy="116.05" rx="32.93" ry="18.42" transform="translate(-33.26 22.09) rotate(-18)"/><ellipse class="cls-4" cx="51" cy="96.11" rx="18.42" ry="32.93" transform="translate(-49.91 136.78) rotate(-84)"/><ellipse class="cls-4" cx="57.19" cy="77.04" rx="18.42" ry="32.93" transform="translate(-38.12 88.05) rotate(-60)"/><ellipse class="cls-4" cx="70.61" cy="62.14" rx="18.42" ry="32.93" transform="translate(-23.04 53.37) rotate(-36)"/><ellipse class="cls-4" cx="89.21" cy="53.9" rx="18.46" ry="33" transform="translate(-9.31 19.89) rotate(-12.09)"/><ellipse class="cls-4" cx="110.11" cy="48.94" rx="37.01" ry="6.05" transform="translate(39.35 146.47) rotate(-78)"/><ellipse class="cls-4" cx="130" cy="57.8" rx="37.01" ry="6.05" transform="translate(6.83 129) rotate(-54)"/><ellipse class="cls-4" cx="144.57" cy="73.98" rx="37.01" ry="6.05" transform="translate(-17.62 82.2) rotate(-30)"/><ellipse class="cls-4" cx="151.3" cy="94.69" rx="37.01" ry="6.05" transform="translate(-9.07 16.33) rotate(-6)"/><ellipse class="cls-4" cx="149.03" cy="116.35" rx="6.05" ry="37.01" transform="translate(-7.68 222.13) rotate(-72)"/><ellipse class="cls-4" cx="138.14" cy="135.2" rx="6.05" ry="37.01" transform="translate(-54.77 147.39) rotate(-48)"/><ellipse class="cls-4" cx="120.52" cy="148" rx="6.05" ry="37.01" transform="translate(-49.78 61.81) rotate(-24)"/><ellipse class="cls-4" cx="99.22" cy="152.53" rx="6.05" ry="37.01"/><ellipse class="cls-4" cx="77.92" cy="147.99" rx="37.01" ry="6.05" transform="translate(-88.97 158.98) rotate(-66)"/><ellipse class="cls-4" cx="60.31" cy="135.2" rx="37.01" ry="6.05" transform="translate(-74.98 75.08) rotate(-42)"/><ellipse class="cls-4" cx="49.43" cy="116.35" rx="37.01" ry="6.05" transform="translate(-33.54 20.97) rotate(-18)"/><ellipse class="cls-4" cx="47.15" cy="94.69" rx="6.05" ry="37.01" transform="translate(-51.95 131.68) rotate(-84)"/><ellipse class="cls-4" cx="53.88" cy="73.98" rx="6.05" ry="37.01" transform="translate(-37.13 83.65) rotate(-60)"/><ellipse class="cls-4" cx="68.45" cy="57.8" rx="6.05" ry="37.01" transform="translate(-20.9 51.27) rotate(-36)"/><ellipse class="cls-4" cx="88.34" cy="48.95" rx="6.05" ry="37.01" transform="translate(-8.25 19.44) rotate(-12)"/><ellipse class="cls-5" cx="120.53" cy="53.72" rx="37.01" ry="12.21" transform="translate(22.43 141.97) rotate(-66)"/><ellipse class="cls-5" cx="138.14" cy="66.51" rx="37.01" ry="12.21" transform="translate(-9.02 109.51) rotate(-42)"/><ellipse class="cls-5" cx="149.03" cy="85.36" rx="37.01" ry="12.21" transform="translate(-19.08 50.23) rotate(-18)"/><ellipse class="cls-5" cx="151.31" cy="107.02" rx="12.21" ry="37.01" transform="translate(29.06 246.31) rotate(-84)"/><ellipse class="cls-5" cx="144.57" cy="127.73" rx="12.21" ry="37.01" transform="translate(-38.33 189.07) rotate(-60)"/><ellipse class="cls-5" cx="130" cy="143.91" rx="12.21" ry="37.01" transform="translate(-59.76 103.9) rotate(-36)"/><ellipse class="cls-5" cx="110.1" cy="152.76" rx="12.21" ry="37.01" transform="translate(-29.35 26.23) rotate(-12)"/><ellipse class="cls-5" cx="88.33" cy="152.76" rx="37.01" ry="12.21" transform="translate(-79.46 207.4) rotate(-78)"/><ellipse class="cls-5" cx="68.45" cy="143.9" rx="37.01" ry="12.21" transform="translate(-88.2 114.69) rotate(-54)"/><ellipse class="cls-5" cx="53.88" cy="127.73" rx="37.01" ry="12.21" transform="translate(-56.65 44.05) rotate(-30)"/><ellipse class="cls-5" cx="47.15" cy="107.02" rx="37.01" ry="12.21" transform="translate(-10.93 5.51) rotate(-6)"/><ellipse class="cls-5" cx="49.42" cy="85.37" rx="12.21" ry="37.01" transform="translate(-47.04 105.99) rotate(-72)"/><ellipse class="cls-5" cx="60.3" cy="66.5" rx="12.21" ry="37.01" transform="translate(-29.46 66.82) rotate(-48)"/><ellipse class="cls-5" cx="77.93" cy="53.71" rx="12.21" ry="37.01" transform="translate(-15.11 36.34) rotate(-24)"/><ellipse class="cls-5" cx="99.22" cy="49.18" rx="12.21" ry="37.01"/><circle class="cls-3" cx="99.22" cy="100.61" r="22.05"/><circle class="cls-1" cx="99.22" cy="100.61" r="17.44"/><circle class="cls-2" cx="99.22" cy="100.77" r="12.39"/></svg>